<svg width="16" height="12" viewBox="0 0 16 12" fill="none" xmlns="http://www.w3.org/2000/svg">
<path d="M15.207 3.81055C15.3242 3.72266 15.5 3.81055 15.5 3.95703V9.93359C15.5 10.7246 14.8555 11.3398 14.0938 11.3398H1.90625C1.11523 11.3398 0.5 10.7246 0.5 9.93359V3.95703C0.5 3.81055 0.646484 3.72266 0.763672 3.81055C1.4375 4.33789 2.28711 4.98242 5.27539 7.15039C5.89062 7.58984 6.94531 8.55664 8 8.55664C9.02539 8.55664 10.1094 7.58984 10.6953 7.15039C13.6836 4.98242 14.5332 4.33789 15.207 3.81055ZM8 7.58984C7.29688 7.61914 6.33008 6.74023 5.83203 6.38867C1.93555 3.57617 1.64258 3.3125 0.763672 2.60938C0.587891 2.49219 0.5 2.28711 0.5 2.05273V1.49609C0.5 0.734375 1.11523 0.0898438 1.90625 0.0898438H14.0938C14.8555 0.0898438 15.5 0.734375 15.5 1.49609V2.05273C15.5 2.28711 15.3828 2.49219 15.207 2.60938C14.3281 3.3125 14.0352 3.57617 10.1387 6.38867C9.64062 6.74023 8.67383 7.61914 8 7.58984Z" fill="#0095E4"/>
</svg>
