<svg width="10" height="6" viewBox="0 0 10 6" fill="none" xmlns="http://www.w3.org/2000/svg">
<path d="M8.97322 0.17034C8.97322 0.17034 9.00149 0.198614 9.05804 0.255162C9.11458 0.311709 9.14286 0.417364 9.14286 0.572126C9.14286 0.726888 9.08631 0.860816 8.97322 0.973912L4.97321 4.97391C4.86012 5.08701 4.72619 5.14355 4.57143 5.14355C4.41667 5.14355 4.28274 5.08701 4.16964 4.97391L0.169643 0.973912C0.0565476 0.860816 0 0.726888 0 0.572126C0 0.417364 0.0565476 0.283435 0.169643 0.17034C0.282738 0.0572448 0.416667 0.000697136 0.571429 0.000697136H8.57143C8.72619 0.000697136 8.86012 0.0572448 8.97322 0.17034Z" fill="#31609F"/>
</svg>
