<svg width="60" height="60" viewBox="0 0 60 60" fill="none" xmlns="http://www.w3.org/2000/svg">
<g clip-path="url(#clip0_78_11677)">
<path d="M29.8961 7.62422C30.5479 7.62422 31.0763 7.09582 31.0763 6.44402V1.1802C31.0763 0.528398 30.5479 0 29.8961 0C29.2443 0 28.7159 0.528398 28.7159 1.1802V6.44402C28.716 7.09582 29.2444 7.62422 29.8961 7.62422ZM58.7445 40.5451L56.6596 38.4661C55.9179 37.7253 54.9294 37.3173 53.8761 37.3173C53.2027 37.3173 52.5561 37.4849 51.9832 37.7988L48.0544 33.8747L48.2457 33.6836C49.8396 32.0865 49.839 29.4914 48.2456 27.8998C47.6847 27.3358 46.9702 26.9494 46.1912 26.7888C46.2993 26.4157 46.3541 26.0291 46.354 25.6406C46.354 24.5443 45.9281 23.5164 45.1573 22.7487C44.5963 22.1847 43.8819 21.7984 43.1028 21.6377C43.211 21.2646 43.2658 20.878 43.2656 20.4895C43.2656 19.3931 42.8398 18.3653 42.0676 17.5964C41.5061 17.0347 40.7926 16.6496 40.015 16.4884C40.4176 15.1001 40.0736 13.5381 38.9814 12.444C38.0722 11.5388 36.8386 11.1497 35.6497 11.2758L27.8644 9.80215C26.677 9.57691 25.1943 9.42797 24.2583 10.2817C24.1992 10.3356 24.139 10.3976 24.0797 10.4666C22.6284 9.93762 20.9358 10.2526 19.7736 11.4135C19.0027 12.1835 18.578 13.211 18.578 14.3067C18.578 14.7014 18.6339 15.0868 18.7404 15.455C17.9628 15.6153 17.2496 16.0008 16.6896 16.5635C15.9171 17.3329 15.4911 18.3592 15.4903 19.4536C15.4898 19.8432 15.5447 20.2309 15.6532 20.6051C14.875 20.7651 14.161 21.1501 13.5998 21.7125C12.8273 22.4842 12.402 23.5123 12.402 24.6074C12.402 25.4462 12.6524 26.2453 13.1164 26.9203C12.5242 27.1212 11.9862 27.4559 11.5444 27.8985C9.94945 29.4914 9.94887 32.0866 11.5454 33.686L11.7361 33.8759L7.8068 37.798C6.34652 37.1105 4.54734 37.368 3.3423 38.5716L1.25613 40.6519C0.514102 41.393 0.105586 42.3816 0.105469 43.4354C0.105469 44.4894 0.514102 45.4781 1.25613 46.2193L3.85969 48.8197C4.32082 49.2804 5.06812 49.2799 5.52867 48.8188C5.98934 48.3577 5.98887 47.6104 5.52773 47.1498L2.92418 44.5494C2.62863 44.2542 2.46586 43.8586 2.46586 43.4355C2.46586 43.0126 2.62863 42.6171 2.92348 42.3226L5.00977 40.2422C5.53102 39.7215 6.32883 39.6439 6.93469 40.0062C7.0553 40.1879 7.22415 40.3325 7.4223 40.4237L19.3863 52.3702C19.4443 52.4975 19.5244 52.6134 19.623 52.7126C19.7195 52.8088 19.8319 52.8874 19.9553 52.9451C20.2096 53.2321 20.3495 53.6028 20.3481 53.9863C20.3481 54.4093 20.1853 54.8048 19.8898 55.1L17.8056 57.1818C17.1898 57.7949 16.188 57.7948 15.5741 57.1836L12.9705 54.5798C12.5096 54.1189 11.7625 54.1189 11.3016 54.5798C10.8407 55.0407 10.8407 55.7879 11.3016 56.2488L13.907 58.8545C14.6739 59.6182 15.681 59.9999 16.6886 59.9999C17.6964 59.9999 18.7046 59.6176 19.4725 58.8532L21.5579 56.7702C22.3 56.029 22.7086 55.0404 22.7086 53.9863C22.7086 53.2341 22.4994 52.5157 22.1105 51.8962L26.5327 47.4795L26.5468 47.465C27.0532 46.9416 28.4633 47.0395 29.827 47.1342C30.7959 47.2016 31.8762 47.2765 32.9316 47.1548L37.7742 51.9918C37.4605 52.5638 37.293 53.2095 37.293 53.8819C37.293 54.9348 37.7017 55.9228 38.4437 56.664L40.5293 58.747C41.2709 59.4878 42.2593 59.8958 43.3126 59.8958C44.3658 59.8958 45.3543 59.4879 46.0959 58.747L58.7453 46.113C59.4873 45.372 59.8959 44.3834 59.8959 43.3294C59.8958 42.2755 59.4872 41.2869 58.7445 40.5451ZM27.4249 12.1213L32.5445 13.0903L29.4802 16.1535C29.0061 15.9257 28.3564 15.5007 27.6437 14.8189C26.6681 13.8857 25.9703 12.8081 25.9068 12.1361L25.9066 12.135L25.9065 12.1346C25.9026 12.096 25.9009 12.0572 25.9014 12.0184C26.0557 11.9809 26.4656 11.9393 27.4249 12.1213ZM21.4416 13.0835C22.0395 12.4862 22.9683 12.4173 23.6439 12.8748C24.0267 14.48 25.3961 15.9349 26.0121 16.5244C26.4687 16.9613 27.9336 18.2711 29.4123 18.6311C29.6145 18.9212 29.7223 19.2667 29.7212 19.6204C29.7212 20.085 29.5425 20.5194 29.2168 20.8447C28.8921 21.17 28.457 21.3491 27.9915 21.3491C27.5259 21.3491 27.0908 21.17 26.7646 20.8432L26.7645 20.8431L26.7639 20.8425L21.4414 15.5297C21.117 15.2057 20.9382 14.7712 20.9382 14.3067C20.9384 13.8421 21.1171 13.4077 21.4416 13.0835ZM18.3577 18.2336C18.6824 17.9084 19.117 17.7292 19.5818 17.7292C20.0471 17.7292 20.4832 17.9087 20.81 18.2352L25.0958 22.5124C25.7707 23.1884 25.7707 24.2883 25.0982 24.9619C24.7717 25.2871 24.335 25.4661 23.8687 25.4661C23.4025 25.4661 22.9658 25.2871 22.6407 24.9633L22.6406 24.9632L19.3893 21.7125C19.3842 21.7075 19.3787 21.7028 19.3736 21.6976L18.3564 20.6809C18.03 20.3549 17.8504 19.9196 17.8507 19.4554C17.8512 18.9926 18.0302 18.5596 18.3577 18.2336ZM15.2679 23.3825C15.5929 23.058 16.0284 22.8793 16.4946 22.8793C16.9569 22.8793 17.3888 23.0555 17.7123 23.3743L20.9736 26.6341C21.2988 26.958 21.478 27.392 21.478 27.8561C21.478 28.32 21.2988 28.7539 20.9723 29.0791C20.6475 29.4035 20.2124 29.5822 19.747 29.5822C19.281 29.5822 18.8445 29.403 18.5191 29.0791L17.3368 27.8982L17.336 27.8974L15.268 25.8319C14.942 25.5062 14.7625 25.0712 14.7625 24.6071C14.7625 24.1432 14.942 23.7081 15.2679 23.3825ZM13.2124 29.5684C13.5388 29.2424 13.975 29.0629 14.4405 29.0629C14.906 29.0629 15.3421 29.2423 15.6683 29.568L16.8523 30.7506C17.1776 31.0745 17.3566 31.5084 17.3566 31.9725C17.3566 32.4366 17.1775 32.8704 16.8498 33.1969C16.5251 33.5221 16.09 33.7013 15.6245 33.7013C15.1589 33.7013 14.7238 33.5222 14.3967 33.1945L14.2485 33.0469C14.2465 33.0449 14.245 33.0428 14.2431 33.0409L14.2363 33.0348L13.2136 32.0161C12.5387 31.3398 12.5381 30.2419 13.2124 29.5684ZM37.2633 42.9814C36.8026 42.5202 36.0553 42.5198 35.5943 42.9804L34.5443 44.0291C33.5466 45.0268 31.7387 44.9012 29.9904 44.7799C28.0918 44.648 26.1286 44.5118 24.8582 45.8161L20.5111 50.1579L9.64043 39.3032L13.4875 35.463C14.1233 35.8528 14.857 36.0618 15.6247 36.0618C16.7215 36.0618 17.7499 35.6366 18.5181 34.867C19.2914 34.0969 19.7174 33.069 19.7174 31.9726C19.7174 31.9624 19.7167 31.9523 19.7167 31.9421C19.7269 31.9423 19.7371 31.9429 19.7473 31.9429C20.8425 31.9429 21.8701 31.519 22.6393 30.7507C23.4127 29.9805 23.8386 28.9526 23.8386 27.8563C23.8386 27.8461 23.8379 27.836 23.8379 27.8258C23.8482 27.8258 23.8586 27.8265 23.869 27.8265C24.9639 27.8265 25.9921 27.4031 26.7664 26.6319C27.5704 25.8267 27.968 24.7666 27.9604 23.7088C27.9709 23.7089 27.9814 23.7095 27.992 23.7095C29.0887 23.7094 30.1171 23.2843 30.8864 22.5136C31.6574 21.7436 32.0821 20.7161 32.0821 19.6204C32.0821 18.8541 31.8737 18.1215 31.4852 17.487L34.8571 14.1165C35.0993 13.8752 35.4075 13.7109 35.7429 13.6445C35.778 13.6407 35.8127 13.6351 35.8471 13.6283C36.3681 13.5565 36.9152 13.7173 37.3137 14.1141C37.9886 14.7901 37.9886 15.89 37.3161 16.5636L36.2892 17.5863C36.2858 17.5897 36.2822 17.5928 36.2788 17.5962L35.096 18.777C34.6348 19.2375 34.6343 19.9848 35.095 20.4459C35.5557 20.9072 36.3029 20.9075 36.7639 20.447L37.795 19.4174L37.7957 19.4167L37.9515 19.2614C38.6283 18.5909 39.7247 18.5923 40.4007 19.2674C40.7261 19.5913 40.9052 20.0252 40.9052 20.4893C40.9052 20.9532 40.7261 21.3872 40.3982 21.7137L39.3654 22.7486L39.365 22.749L38.1824 23.9269C37.7205 24.3868 37.719 25.1341 38.179 25.5959C38.6389 26.0577 39.3861 26.0591 39.848 25.5993L41.036 24.416C41.3607 24.0907 41.7959 23.9116 42.2613 23.9116C42.7269 23.9116 43.1621 24.0907 43.4892 24.4184C43.8145 24.7424 43.9936 25.1763 43.9936 25.6404C43.9936 26.1043 43.8145 26.5383 43.4873 26.8641L41.4284 28.9239C40.9676 29.3849 40.9677 30.1321 41.4286 30.5928C41.5381 30.7026 41.6681 30.7896 41.8113 30.8488C41.9545 30.9081 42.108 30.9385 42.263 30.9383C42.5651 30.9383 42.8672 30.823 43.0976 30.5925L44.1067 29.583C44.1124 29.5775 44.1186 29.5727 44.1244 29.567C44.4491 29.2417 44.8842 29.0626 45.3497 29.0626C45.8153 29.0626 46.2504 29.2417 46.5763 29.5682C47.2505 30.2416 47.2499 31.3397 46.5763 32.0145L45.5503 33.0393L45.5491 33.0403L45.5481 33.0415L43.9196 34.6679C43.4585 35.1286 43.458 35.8759 43.9186 36.337C44.0281 36.4469 44.1582 36.5341 44.3016 36.5935C44.4449 36.6529 44.5985 36.6834 44.7537 36.6832C45.0554 36.6832 45.3573 36.5681 45.5877 36.3381L46.3842 35.5425L50.2018 39.3557L39.3321 50.2121L35.4375 46.3222C35.7175 46.1427 35.9774 45.9335 36.2127 45.6984L37.2621 44.6503C37.7235 44.1899 37.7239 43.4426 37.2633 42.9814ZM57.0771 44.443L44.4278 57.077C44.1319 57.3725 43.7358 57.5353 43.3125 57.5353C42.8892 57.5353 42.4931 57.3725 42.1971 57.0769L40.1115 54.9939C39.816 54.6988 39.6532 54.3039 39.6532 53.8819C39.6532 53.46 39.816 53.0651 40.1115 52.7699L52.7609 40.1359C53.0569 39.8402 53.4529 39.6775 53.8763 39.6775C54.2995 39.6775 54.6956 39.8402 54.9923 40.1366L57.0772 42.2156C57.3728 42.5108 57.5355 42.9062 57.5355 43.3293C57.5354 43.7524 57.3727 44.1479 57.0771 44.443ZM14.2247 6.6293C14.3341 6.73879 14.4641 6.8256 14.6072 6.88477C14.7502 6.94393 14.9036 6.97427 15.0584 6.97406C15.3607 6.97406 15.6632 6.85852 15.8937 6.62754C16.3541 6.16617 16.3534 5.41898 15.892 4.95855L11.5915 0.666562C11.1302 0.206133 10.3829 0.206719 9.9225 0.668203C9.46207 1.12957 9.46277 1.87676 9.92414 2.33719L14.2247 6.6293ZM44.7337 6.97406C45.0355 6.97406 45.3374 6.85898 45.5678 6.62895L49.865 2.33684C50.3262 1.87629 50.3266 1.12898 49.866 0.667852C49.4054 0.206719 48.6582 0.20625 48.197 0.666914L43.8997 4.95902C43.4386 5.41957 43.4381 6.16687 43.8988 6.62801C44.0083 6.73789 44.1384 6.82503 44.2817 6.88442C44.425 6.94381 44.5786 6.97427 44.7337 6.97406Z" fill="#0095E4"/>
<path d="M7.36201 50.766C6.90509 51.2307 6.91142 51.978 7.3763 52.4349L7.3797 52.4382C7.59945 52.655 7.89581 52.7763 8.20447 52.776C8.50998 52.776 8.81548 52.6577 9.04693 52.4223C9.50384 51.9575 9.49576 51.2086 9.03099 50.7517C8.56634 50.2947 7.81915 50.3012 7.36201 50.766ZM40.1495 41.2812C40.3291 41.2812 40.5112 41.2403 40.6822 41.1541C41.2641 40.8606 41.4979 40.1509 41.2045 39.5689C40.9109 38.987 40.2011 38.7531 39.6193 39.0466L39.6127 39.0499C39.0308 39.3435 38.8002 40.0515 39.0937 40.6335C39.3009 41.0446 39.7176 41.2812 40.1495 41.2812Z" fill="#0095E4"/>
</g>
<defs>
<clipPath id="clip0_78_11677">
<rect width="60" height="60" fill="white"/>
</clipPath>
</defs>
</svg>
