<svg width="60" height="60" viewBox="0 0 60 60" fill="none" xmlns="http://www.w3.org/2000/svg">
<g clip-path="url(#clip0_78_11690)">
<path d="M46.3521 46.8193C46.0419 46.8203 45.7445 46.9435 45.5245 47.1622C45.3059 47.3824 45.1827 47.6797 45.1816 47.9899C45.1816 48.2975 45.3066 48.5996 45.5245 48.817C45.7445 49.0359 46.0418 49.1593 46.3521 49.1604C46.6597 49.1604 46.9618 49.035 47.1793 48.817C47.3982 48.5973 47.5216 48.3001 47.5227 47.9899C47.5227 47.6817 47.3973 47.3796 47.1793 47.1622C46.9595 46.9434 46.6622 46.8202 46.3521 46.8193Z" fill="#0095E4"/>
<path d="M59.9293 31.4863C59.9293 26.7494 58.085 22.2963 54.7356 18.9473C54.7347 18.9464 54.7332 18.9454 54.7324 18.9445L55.305 18.3718C55.7527 18.592 56.2449 18.7065 56.7438 18.7065C57.5782 18.7065 58.4123 18.3888 59.0473 17.7539C60.3176 16.4836 60.3176 14.4172 59.0473 13.147L51.8051 5.90518C51.1899 5.28948 50.3718 4.95069 49.5015 4.95069C48.6313 4.95069 47.8133 5.28995 47.1981 5.90518C46.1874 6.91592 45.9817 8.43057 46.5801 9.64732L42.2945 13.9329V9.59799C42.2936 9.59846 42.2926 9.59846 42.2918 9.59846C42.2918 9.29365 42.1755 8.99424 41.9516 8.77041L33.5242 0.34289C33.4153 0.234577 33.2861 0.148784 33.1441 0.090412C33.002 0.0320402 32.8498 0.0022337 32.6962 0.00269531C32.6962 0.001875 32.6962 0.000937498 32.6967 0H3.25148C1.45851 0 0 1.4584 0 3.25148V50.2798C0 52.0727 1.4584 53.5313 3.25148 53.5313H15.1113C15.7577 53.5313 16.2818 53.0071 16.2818 52.3608C16.2818 51.7145 15.7577 51.1902 15.1113 51.1902H3.25148C2.74933 51.1902 2.34093 50.7819 2.34093 50.2797V3.2516C2.34093 2.74945 2.74933 2.34105 3.25148 2.34105H31.5261V7.62268C31.5261 9.35729 32.9374 10.7686 34.6718 10.7686H39.9535V16.274L30.79 25.4381C30.3328 25.8949 30.3328 26.636 30.79 27.0932L31.2688 27.5721L27.0964 31.7446C26.9876 31.8533 26.9014 31.9823 26.8425 32.1243C26.7837 32.2663 26.7534 32.4185 26.7534 32.5723C26.7534 32.726 26.7837 32.8782 26.8425 33.0202C26.9014 33.1622 26.9876 33.2912 27.0964 33.3999L31.5527 37.8562C31.6548 37.958 31.7749 38.0399 31.9069 38.0979H23.5272C21.5908 38.0979 20.0157 39.673 20.0157 41.6093C20.0157 43.5457 21.5908 45.1208 23.5272 45.1208H30.8577C33.3622 47.2096 36.3459 48.5462 39.5627 49.0242V51.1903H25.6462C24.9998 51.1903 24.4756 51.7145 24.4756 52.3608C24.4756 53.0071 24.9998 53.5314 25.6462 53.5314H35.9998C34.0887 54.4958 32.774 56.4762 32.774 58.7591C32.774 59.4054 33.2982 59.9295 33.9445 59.9295H58.7589C59.4053 59.9295 59.9293 59.4054 59.9293 58.759C59.9293 55.5318 57.3041 52.9065 54.0769 52.9065H53.1408V47.5222C53.1408 46.8709 53.0465 46.242 52.8748 45.6455C53.5315 45.1488 54.1533 44.6075 54.7357 44.0255C58.085 40.6764 59.9294 36.2233 59.9294 31.4865L59.9293 31.4863ZM34.672 8.42741C34.4586 8.42722 34.254 8.34238 34.1031 8.19151C33.9522 8.04064 33.8673 7.83606 33.8671 7.62268V3.99632L38.2983 8.42741H34.672ZM48.8538 7.56045C48.9387 7.47509 49.0396 7.40739 49.1508 7.36127C49.262 7.31514 49.3812 7.29151 49.5015 7.29174C49.7465 7.29174 49.9767 7.38737 50.1497 7.56045L57.392 14.8026C57.7491 15.1597 57.7491 15.7411 57.392 16.0986C57.0346 16.456 56.4531 16.4557 56.0957 16.0986L56.0095 16.0121L48.9399 8.94291L48.8538 8.85631C48.4963 8.49889 48.4963 7.91752 48.8538 7.56045ZM41.9512 17.5868L41.9516 17.5863L48.1122 11.4258L53.5262 16.8398L38.6868 31.679L38.2081 31.2002L33.7518 26.7444L33.273 26.2655L41.9512 17.5868ZM49.1509 24.532C51.0084 26.3895 52.0316 28.8592 52.0316 31.4863C52.0316 34.1134 51.0086 36.5831 49.1509 38.4406C48.0564 39.5351 46.7577 40.3298 45.3638 40.8059C44.8812 40.8768 44.4078 40.9998 43.9517 41.1726C43.4049 41.2725 42.8505 41.3252 42.2946 41.3301V31.3824L49.1481 24.5287C49.1492 24.5297 49.1501 24.5308 49.1509 24.532ZM29.5792 32.5722L32.9241 29.2272L35.7251 32.0283L32.3802 35.3732L29.5792 32.5722ZM33.2079 37.8562L37.3804 33.6836L37.8592 34.1624C37.9678 34.2713 38.0968 34.3576 38.2389 34.4164C38.3809 34.4753 38.5332 34.5054 38.6869 34.5052C38.9863 34.5052 39.2857 34.3908 39.5145 34.1624L39.9535 33.7233V41.0659C39.5108 40.9617 39.0759 40.8273 38.6516 40.6635C38.2374 39.1854 36.8792 38.0983 35.2707 38.0983H32.8531C32.9853 38.0401 33.1056 37.958 33.2079 37.8561V37.8562ZM22.3566 41.6092C22.3566 40.9643 22.8816 40.4387 23.5272 40.4387H35.271C35.9165 40.4387 36.4416 40.9643 36.4416 41.6092C36.4416 42.2547 35.9166 42.7798 35.271 42.7798H23.5272C22.8818 42.7798 22.3566 42.2548 22.3566 41.6092ZM35.271 45.1207C36.6832 45.1207 37.9023 44.2826 38.4593 43.0778C39.1841 43.313 39.9292 43.48 40.6851 43.5767C40.7238 43.5922 40.7634 43.6057 40.8036 43.617C40.1652 44.5198 39.7584 45.5657 39.6189 46.6626C38.0201 46.3957 36.4742 45.8754 35.0395 45.1212H35.271V45.1207ZM57.3878 57.5883H35.3156C35.7984 56.2256 37.1003 55.2474 38.6264 55.2474H54.0769C55.603 55.2474 56.905 56.2256 57.3879 57.5884L57.3878 57.5883ZM41.9037 52.9065V47.5222C41.9037 45.6931 43.0143 44.1184 44.5963 43.4363C45.0365 43.3475 45.4715 43.2343 45.8991 43.0971C46.0495 43.0819 46.2006 43.0742 46.3518 43.0742C48.804 43.0742 50.7994 45.0696 50.7994 47.5222V52.9065H41.9037ZM51.8175 43.5013C51.1548 42.6025 50.2821 41.8797 49.2755 41.3961C49.8201 41.0051 50.3321 40.5704 50.8063 40.0964C53.1061 37.7966 54.3727 34.7388 54.3727 31.4865C54.3727 28.2342 53.1061 25.1762 50.8063 22.8764L50.8035 22.8735L53.0777 20.5994C53.0786 20.6003 53.0795 20.6018 53.0804 20.6027C59.0817 26.6039 59.0817 36.3689 53.0804 42.3702C52.6801 42.7697 52.2585 43.1473 51.8175 43.5013Z" fill="#0095E4"/>
<path d="M9.8366 16.387H32.4592C33.1056 16.387 33.6298 15.8628 33.6298 15.2165C33.6298 14.5702 33.1056 14.0459 32.4592 14.0459H9.8366C9.1902 14.0459 8.66602 14.5701 8.66602 15.2165C8.66602 15.8629 9.1902 16.387 9.8366 16.387ZM9.8366 22.005H30.4854C31.1317 22.005 31.6559 21.481 31.6559 20.8346C31.6559 20.1882 31.1317 19.6641 30.4854 19.6641H9.8366C9.1902 19.6641 8.66602 20.1882 8.66602 20.8346C8.66602 21.481 9.1902 22.005 9.8366 22.005ZM9.8366 27.6237H27.2741C27.9205 27.6237 28.4447 27.0995 28.4447 26.4531C28.4447 25.8067 27.9205 25.2827 27.2741 25.2827H9.8366C9.1902 25.2827 8.66602 25.8068 8.66602 26.4531C8.66602 27.0994 9.1902 27.6237 9.8366 27.6237ZM9.8366 33.2423H21.1932C21.8395 33.2423 22.3637 32.7176 22.3637 32.0718C22.3637 31.4254 21.8395 30.9012 21.1932 30.9012H9.8366C9.1902 30.9012 8.66602 31.4254 8.66602 32.0718C8.66602 32.7176 9.1902 33.2423 9.8366 33.2423ZM16.7973 36.5194H9.8366C9.1902 36.5194 8.66602 37.0435 8.66602 37.6899C8.66602 38.3363 9.1902 38.8604 9.8366 38.8604H16.7973C17.4437 38.8604 17.9678 38.3363 17.9678 37.6899C17.9678 37.0435 17.4437 36.5194 16.7973 36.5194ZM20.3789 51.2676C20.0713 51.2676 19.7691 51.393 19.5516 51.6105C19.3328 51.8305 19.2094 52.1279 19.2083 52.4382C19.2083 52.7463 19.3337 53.0479 19.5517 53.2657C19.7716 53.4843 20.0688 53.6075 20.3789 53.6086C20.6869 53.6086 20.9886 53.4837 21.2065 53.2657C21.4256 53.046 21.5489 52.7485 21.5494 52.4382C21.5494 52.1305 21.4253 51.8284 21.2065 51.6105C20.9863 51.392 20.6891 51.2688 20.3789 51.2676Z" fill="#0095E4"/>
</g>
<defs>
<clipPath id="clip0_78_11690">
<rect width="60" height="60" fill="white"/>
</clipPath>
</defs>
</svg>
