<svg width="60" height="60" viewBox="0 0 60 60" fill="none" xmlns="http://www.w3.org/2000/svg">
<path d="M35.6246 12.1875H32.8121V9.375C32.8121 9.12636 32.7133 8.8879 32.5375 8.71209C32.3617 8.53627 32.1233 8.4375 31.8746 8.4375H28.1246C27.876 8.4375 27.6375 8.53627 27.4617 8.71209C27.2859 8.8879 27.1871 9.12636 27.1871 9.375V12.1875H24.3746C24.126 12.1875 23.8875 12.2863 23.7117 12.4621C23.5359 12.6379 23.4371 12.8764 23.4371 13.125V16.875C23.4371 17.1236 23.5359 17.3621 23.7117 17.5379C23.8875 17.7137 24.126 17.8125 24.3746 17.8125H27.1871V20.625C27.1871 20.8736 27.2859 21.1121 27.4617 21.2879C27.6375 21.4637 27.876 21.5625 28.1246 21.5625H31.8746C32.1233 21.5625 32.3617 21.4637 32.5375 21.2879C32.7133 21.1121 32.8121 20.8736 32.8121 20.625V17.8125H35.6246C35.8732 17.8125 36.1117 17.7137 36.2875 17.5379C36.4633 17.3621 36.5621 17.1236 36.5621 16.875V13.125C36.5621 12.8764 36.4633 12.6379 36.2875 12.4621C36.1117 12.2863 35.8732 12.1875 35.6246 12.1875ZM34.6871 15.9375H31.8746C31.626 15.9375 31.3875 16.0363 31.2117 16.2121C31.0359 16.3879 30.9371 16.6264 30.9371 16.875V19.6875H29.0621V16.875C29.0621 16.6264 28.9633 16.3879 28.7875 16.2121C28.6117 16.0363 28.3733 15.9375 28.1246 15.9375H25.3121V14.0625H28.1246C28.3733 14.0625 28.6117 13.9637 28.7875 13.7879C28.9633 13.6121 29.0621 13.3736 29.0621 13.125V10.3125H30.9371V13.125C30.9371 13.3736 31.0359 13.6121 31.2117 13.7879C31.3875 13.9637 31.626 14.0625 31.8746 14.0625H34.6871V15.9375ZM55.9965 17.2125C56.0155 17.0476 56.0249 16.8817 56.0246 16.7156C56.0201 15.8563 55.722 15.0243 55.1797 14.3576C54.6375 13.6909 53.8837 13.2296 53.0434 13.05C52.0928 12.8691 51.1089 13.056 50.2909 13.5729C49.4729 14.0898 48.8817 14.8981 48.6371 15.8344L44.5121 27.7031C44.451 27.7274 44.3915 27.7556 44.334 27.7875L36.0465 32.6437C34.7783 33.3887 33.7264 34.4516 32.9948 35.7274C32.2631 37.0033 31.877 38.448 31.8746 39.9188V48.75C31.626 48.75 31.3875 48.8488 31.2117 49.0246C31.0359 49.2004 30.9371 49.4389 30.9371 49.6875V57.1875C30.9371 57.4361 31.0359 57.6746 31.2117 57.8504C31.3875 58.0262 31.626 58.125 31.8746 58.125H44.9996C45.2483 58.125 45.4867 58.0262 45.6625 57.8504C45.8383 57.6746 45.9371 57.4361 45.9371 57.1875V49.6875C45.9371 49.4389 45.8383 49.2004 45.6625 49.0246C45.4867 48.8488 45.2483 48.75 44.9996 48.75V46.6875C45.0014 46.2915 45.0856 45.9003 45.2471 45.5387C45.4085 45.1771 45.6435 44.8532 45.9371 44.5875L52.2746 38.9531C52.9678 38.3466 53.4641 37.5467 53.6996 36.6562L57.7684 21.4406C57.8552 21.1229 57.8994 20.795 57.8996 20.4656C57.8959 19.804 57.7181 19.1551 57.384 18.584C57.05 18.0129 56.5714 17.5399 55.9965 17.2125ZM50.4277 16.3875C50.5428 15.9027 50.8364 15.479 51.2499 15.201C51.6635 14.923 52.1666 14.8111 52.659 14.8875C53.0792 14.9755 53.4565 15.2051 53.7278 15.5378C53.9991 15.8705 54.148 16.2863 54.1496 16.7156V16.7344C53.3122 16.7499 52.5028 17.0386 51.8445 17.5564C51.1862 18.0742 50.715 18.7929 50.5027 19.6031L47.8871 27.675C47.4911 27.4872 47.0665 27.3668 46.6309 27.3187L50.4277 16.3875ZM44.0621 56.25H32.8121V50.625H44.0621V56.25ZM55.959 20.9531L51.8809 36.1781C51.7398 36.7072 51.4464 37.1831 51.0371 37.5469L44.6902 43.1813C44.1991 43.6241 43.8061 44.1649 43.5365 44.7687C43.2668 45.3726 43.1265 46.0262 43.1246 46.6875V48.75H33.7496V39.9188C33.7543 38.7749 34.0556 37.6519 34.6241 36.6594C35.1927 35.6669 36.009 34.8389 36.9934 34.2563L45.2715 29.4094C45.4849 29.285 45.7208 29.2041 45.9657 29.1712C46.2105 29.1383 46.4594 29.1541 46.6981 29.2177C46.9368 29.2812 47.1606 29.3914 47.3566 29.5417C47.5526 29.6921 47.717 29.8797 47.8402 30.0937C48.0837 30.5269 48.1509 31.0373 48.0277 31.5187C47.9626 31.7565 47.8513 31.979 47.7001 32.1737C47.5488 32.3683 47.3607 32.5312 47.1465 32.6531L41.7746 35.7562C41.5706 35.886 41.4245 36.0895 41.367 36.3244C41.3094 36.5592 41.3449 36.8072 41.4659 37.0166C41.5869 37.2259 41.7841 37.3804 42.0163 37.4478C42.2486 37.5152 42.4979 37.4902 42.7121 37.3781L48.084 34.275C48.5134 34.0314 48.8897 33.7043 49.1907 33.3131C49.4918 32.9218 49.7116 32.4743 49.8371 31.9969C50.0923 31.0376 49.9575 30.0164 49.4621 29.1562L49.4059 29.0719L52.3027 20.1375C52.4178 19.6527 52.7114 19.229 53.1249 18.951C53.5385 18.673 54.0416 18.5611 54.534 18.6375C54.9542 18.7255 55.3315 18.9551 55.6028 19.2878C55.8741 19.6205 56.023 20.0363 56.0246 20.4656C56.0278 20.6305 56.0056 20.7949 55.959 20.9531ZM28.1246 48.75V39.9188C28.1222 38.448 27.7361 37.0033 27.0044 35.7274C26.2728 34.4516 25.2209 33.3887 23.9527 32.6437L15.6652 27.7781C15.609 27.75 15.5434 27.7312 15.4871 27.7031L11.3902 15.9C11.1521 14.9501 10.561 14.1267 9.73722 13.5972C8.91342 13.0677 7.91883 12.8721 6.95586 13.05C6.11548 13.2296 5.36169 13.6909 4.81947 14.3576C4.27725 15.0243 3.97916 15.8563 3.97461 16.7156C3.97437 16.8817 3.98376 17.0476 4.00273 17.2125C3.42783 17.5399 2.94927 18.0129 2.61519 18.584C2.28111 19.1551 2.10329 19.804 2.09961 20.4656C2.10143 20.7943 2.14234 21.1216 2.22148 21.4406L6.29961 36.6469C6.53266 37.5411 7.02914 38.3446 7.72461 38.9531L14.0527 44.5875C14.3493 44.8513 14.5869 45.1747 14.7501 45.5366C14.9132 45.8984 14.9982 46.2906 14.9996 46.6875V48.75C14.751 48.75 14.5125 48.8488 14.3367 49.0246C14.1609 49.2004 14.0621 49.4389 14.0621 49.6875V57.1875C14.0621 57.4361 14.1609 57.6746 14.3367 57.8504C14.5125 58.0262 14.751 58.125 14.9996 58.125H28.1246C28.3733 58.125 28.6117 58.0262 28.7875 57.8504C28.9633 57.6746 29.0621 57.4361 29.0621 57.1875V49.6875C29.0621 49.4389 28.9633 49.2004 28.7875 49.0246C28.6117 48.8488 28.3733 48.75 28.1246 48.75ZM5.84961 16.7156C5.85077 16.2876 5.99833 15.8729 6.26779 15.5403C6.53725 15.2077 6.91238 14.9774 7.33086 14.8875C7.83679 14.8141 8.35178 14.9346 8.77255 15.225C9.19332 15.5153 9.48875 15.9541 9.59961 16.4531L13.3684 27.3187C12.9327 27.3668 12.5081 27.4872 12.1121 27.675L9.51523 19.65C9.30389 18.8318 8.83183 18.1047 8.17046 17.5786C7.50909 17.0526 6.6944 16.7562 5.84961 16.7344V16.7156ZM15.2996 43.1813L8.96211 37.5469C8.5506 37.1812 8.25694 36.7015 8.11836 36.1688L4.03086 20.9531C3.99205 20.7936 3.97316 20.6298 3.97461 20.4656C3.97577 20.0376 4.12333 19.6229 4.39279 19.2903C4.66225 18.9577 5.03738 18.7274 5.45586 18.6375C5.95823 18.5621 6.47052 18.6797 6.88969 18.9667C7.30886 19.2537 7.60381 19.6887 7.71523 20.1844L10.5934 29.0719L10.5371 29.1562C10.0417 30.0164 9.90691 31.0376 10.1621 31.9969C10.2876 32.4743 10.5074 32.9218 10.8085 33.3131C11.1096 33.7043 11.4859 34.0314 11.9152 34.275L17.2871 37.3781C17.5014 37.4902 17.7506 37.5152 17.9829 37.4478C18.2151 37.3804 18.4123 37.2259 18.5333 37.0166C18.6543 36.8072 18.6898 36.5592 18.6322 36.3244C18.5747 36.0895 18.4287 35.886 18.2246 35.7562L12.8527 32.6531C12.6385 32.5312 12.4504 32.3683 12.2992 32.1737C12.148 31.979 12.0366 31.7565 11.9715 31.5187C11.8483 31.0373 11.9155 30.5269 12.159 30.0937C12.2815 29.8801 12.4448 29.6928 12.6398 29.5423C12.8347 29.3918 13.0573 29.2812 13.295 29.2168C13.5326 29.1524 13.7807 29.1354 14.0249 29.1668C14.2691 29.1983 14.5048 29.2775 14.7184 29.4L23.0059 34.2563C23.9902 34.8389 24.8065 35.6669 25.3751 36.6594C25.9436 37.6519 26.245 38.7749 26.2496 39.9188V48.75H16.8746V46.6875C16.873 46.0252 16.7319 45.3707 16.4606 44.7666C16.1892 44.1625 15.7936 43.6223 15.2996 43.1813ZM27.1871 56.25H15.9371V50.625H27.1871V56.25Z" fill="#0095E4"/>
<path d="M43.2629 4.81154C42.3925 3.9397 41.3588 3.24805 40.2209 2.77617C39.083 2.30428 37.8632 2.06144 36.6313 2.06152C35.3994 2.06161 34.1796 2.30463 33.0417 2.77667C31.9039 3.24872 30.8702 3.94052 30 4.81248C29.1299 3.9405 28.0964 3.24869 26.9585 2.77667C25.8207 2.30465 24.601 2.06168 23.3691 2.06168C22.1373 2.06168 20.9175 2.30465 19.7797 2.77667C18.6418 3.24869 17.6083 3.9405 16.7382 4.81248C14.9835 6.57093 13.998 8.95364 13.998 11.4378C13.998 13.922 14.9835 16.3047 16.7382 18.0631L29.3382 30.6631C29.514 30.8389 29.7524 30.9376 30.001 30.9376C30.2496 30.9376 30.488 30.8389 30.6638 30.6631L43.2638 18.0631C45.0184 16.3044 46.0037 13.9214 46.0035 11.4371C46.0034 8.95282 45.0177 6.57003 43.2629 4.81154ZM30 28.6747L18.0629 16.7375C17.0149 15.6881 16.3015 14.3515 16.013 12.8967C15.7245 11.4419 15.8738 9.93425 16.4421 8.56432C17.0103 7.19438 17.9719 6.02366 19.2054 5.20017C20.4389 4.37667 21.8888 3.93737 23.3719 3.93779C24.3571 3.93441 25.3331 4.12723 26.243 4.505C27.1529 4.88277 27.9785 5.43793 28.6716 6.13811L29.3372 6.80373C29.513 6.97949 29.7515 7.07822 30 7.07822C30.2486 7.07822 30.4871 6.97949 30.6629 6.80373L31.3304 6.13623C32.0264 5.43897 32.853 4.8858 33.7631 4.50837C34.6731 4.13095 35.6486 3.93667 36.6338 3.93667C37.619 3.93667 38.5945 4.13095 39.5045 4.50837C40.4146 4.8858 41.2412 5.43897 41.9372 6.13623C43.3416 7.54246 44.1303 9.44857 44.1303 11.4359C44.1303 13.4233 43.3416 15.3294 41.9372 16.7356L30 28.6747Z" fill="#0095E4"/>
</svg>
