<svg width="60" height="60" viewBox="0 0 60 60" fill="none" xmlns="http://www.w3.org/2000/svg">
<g clip-path="url(#clip0_78_11682)">
<path d="M0.878906 4.72172H7.33945L9.48633 6.77496L6.88031 9.38098C5.29055 10.971 5.29055 13.5581 6.88031 15.148L8.14699 16.4147L6.85441 17.7073C6.76299 17.7988 6.69289 17.9093 6.6491 18.031C6.60531 18.1527 6.58891 18.2826 6.60108 18.4114C6.61325 18.5402 6.65367 18.6647 6.71948 18.776C6.78529 18.8874 6.87486 18.9829 6.9818 19.0556L9.14906 20.5289C9.70201 20.9053 10.3555 21.1063 11.0244 21.1057C11.7945 21.1064 12.5412 20.8409 13.138 20.3543L13.6627 20.8789C13.8493 21.0666 14.0713 21.2154 14.3159 21.3167C14.5604 21.4179 14.8226 21.4697 15.0873 21.469C15.6254 21.469 16.1312 21.2595 16.5118 20.8788L17.703 19.6875C17.8907 19.5009 18.0395 19.2789 18.1408 19.0344C18.2421 18.7899 18.2938 18.5277 18.2931 18.2631C18.2939 17.9984 18.2421 17.7363 18.1408 17.4917C18.0395 17.2472 17.8907 17.0253 17.703 16.8387L17.1904 16.326L17.5808 15.9355L18.0935 16.4482C18.474 16.8286 18.9799 17.0381 19.518 17.0381C20.0562 17.0381 20.5621 16.8286 20.9426 16.4482L22.1339 15.2569C22.9193 14.4714 22.9193 13.1932 22.1339 12.4077L21.6212 11.895L22.0117 11.5045L22.5244 12.0172C22.9172 12.4099 23.4329 12.6061 23.9488 12.6061C24.4646 12.6061 24.9806 12.4098 25.3734 12.0172L26.5648 10.8259C27.3502 10.0405 27.3502 8.76246 26.5646 7.97672L26.0401 7.45219C26.9648 6.31992 27.0512 4.69348 26.2148 3.46324L24.7414 1.29586C24.6688 1.18885 24.5733 1.09922 24.462 1.03338C24.3506 0.967541 24.2261 0.927118 24.0973 0.915C23.9685 0.903098 23.8387 0.919632 23.717 0.963432C23.5953 1.00723 23.4847 1.07723 23.3931 1.16848L22.1005 2.46094L20.8339 1.19438C20.0637 0.424219 19.0397 0 17.9504 0C16.8611 0 15.8371 0.424219 15.0669 1.19438L10.7295 5.53172L8.29945 3.20766C8.13589 3.05122 7.91828 2.96391 7.69195 2.96391H0.878906C0.393398 2.96391 0 3.3573 0 3.84281C0 4.32832 0.393398 4.72172 0.878906 4.72172ZM16.46 18.0814C16.5221 18.1436 16.5353 18.2145 16.5353 18.263C16.5353 18.3115 16.5223 18.3824 16.46 18.4445L16.4599 18.4446L15.2687 19.6358C15.2205 19.6839 15.1552 19.711 15.0871 19.711C15.019 19.711 14.9537 19.6839 14.9055 19.6358L14.3929 19.1232L15.9473 17.5688L16.46 18.0814ZM20.8909 13.6505C20.939 13.6987 20.9659 13.764 20.9659 13.8321C20.9659 13.9001 20.939 13.9654 20.8909 14.0136L19.6996 15.205C19.6514 15.2531 19.5861 15.2801 19.518 15.2801C19.45 15.2801 19.3847 15.2531 19.3365 15.205L18.8238 14.6923L20.3783 13.1378L20.8909 13.6505ZM25.3218 9.58266L24.1305 10.774C24.0823 10.822 24.017 10.849 23.9489 10.849C23.8809 10.849 23.8155 10.8221 23.7673 10.7741L23.2546 10.2614L24.8091 8.70691L25.3218 9.21949C25.3699 9.26768 25.3969 9.33298 25.3969 9.40107C25.3969 9.46916 25.3699 9.53447 25.3218 9.58266ZM23.8849 3.16242L24.7613 4.45137C24.9678 4.75582 25.0619 5.12271 25.0273 5.48899C24.9927 5.85527 24.8316 6.19805 24.5716 6.45844L12.1444 18.8856C11.6086 19.4217 10.7644 19.5013 10.1373 19.0752L8.84848 18.199L23.8849 3.16242ZM16.3099 2.43738C16.7481 1.99922 17.3307 1.75781 17.9504 1.75781C18.5701 1.75781 19.1528 1.99922 19.5909 2.4375L20.8575 3.70395L9.39 15.1716L8.12344 13.9049C7.21875 13.0003 7.21875 11.5284 8.12344 10.6239L16.3099 2.43738ZM37.2414 7.59984H35.1994C34.7139 7.59984 34.3205 7.99324 34.3205 8.47875C34.3205 8.96426 34.7139 9.35766 35.1994 9.35766H37.2414C37.7269 9.35766 38.1203 8.96426 38.1203 8.47875C38.1203 7.99324 37.7269 7.59984 37.2414 7.59984ZM37.2414 10.8278H35.1994C34.7139 10.8278 34.3205 11.2212 34.3205 11.7067C34.3205 12.1922 34.7139 12.5856 35.1994 12.5856H37.2414C37.7269 12.5856 38.1203 12.1922 38.1203 11.7067C38.1203 11.2212 37.7269 10.8278 37.2414 10.8278ZM37.2414 14.0558H35.1994C34.7139 14.0558 34.3205 14.4492 34.3205 14.9347C34.3205 15.4202 34.7139 15.8136 35.1994 15.8136H37.2414C37.7269 15.8136 38.1203 15.4202 38.1203 14.9347C38.1203 14.4492 37.7269 14.0558 37.2414 14.0558ZM37.2414 17.2839H35.1994C34.7139 17.2839 34.3205 17.6773 34.3205 18.1628C34.3205 18.6483 34.7139 19.0417 35.1994 19.0417H37.2414C37.7269 19.0417 38.1203 18.6483 38.1203 18.1628C38.1203 17.6773 37.7269 17.2839 37.2414 17.2839ZM50.0414 13.6676C49.9305 13.5468 49.788 13.4595 49.63 13.4155C49.472 13.3715 49.3049 13.3725 49.1475 13.4185C48.9901 13.4646 48.8487 13.5537 48.7393 13.6758C48.63 13.798 48.5569 13.9483 48.5285 14.1098L48.0694 16.7188L45.8438 11.8555C45.7805 11.7174 45.6825 11.598 45.5593 11.509C45.4361 11.42 45.292 11.3645 45.1409 11.3478C44.9899 11.3312 44.8371 11.3539 44.6975 11.4139C44.5579 11.4739 44.4362 11.5691 44.3443 11.6902L42.5501 14.0559H40.4141C39.9286 14.0559 39.5352 14.4493 39.5352 14.9348C39.5352 15.4204 39.9286 15.8138 40.4141 15.8138H42.9865C43.1221 15.8137 43.2559 15.7823 43.3774 15.722C43.4989 15.6616 43.6048 15.574 43.6868 15.4659L44.8568 13.9233L47.6462 20.0186C47.7242 20.1891 47.8547 20.3302 48.0186 20.4213C48.1825 20.5124 48.3712 20.5486 48.5572 20.5248C48.7432 20.5009 48.9167 20.4182 49.0523 20.2887C49.1879 20.1592 49.2786 19.9897 49.311 19.805L49.9511 16.1678L50.2853 16.5315C50.3805 16.6353 50.4993 16.7146 50.6316 16.7628C50.7639 16.811 50.9058 16.8266 51.0455 16.8084C51.1851 16.7904 51.3184 16.739 51.434 16.6587C51.5496 16.5783 51.6443 16.4714 51.7099 16.3468L52.5933 14.6718L52.6309 15.0273C52.6538 15.2432 52.7557 15.4429 52.9171 15.5881C53.0784 15.7333 53.2878 15.8136 53.5049 15.8136H55.277C55.7625 15.8136 56.1559 15.4202 56.1559 14.9347C56.1559 14.4492 55.7625 14.0558 55.277 14.0558H54.2957L54.0371 11.6142C54.0172 11.4269 53.9376 11.2509 53.8102 11.1123C53.6827 10.9736 53.514 10.8795 53.329 10.844C53.144 10.8084 52.9525 10.8332 52.7827 10.9147C52.6128 10.9963 52.4737 11.1302 52.3857 11.2968L50.7364 14.4243L50.0414 13.6676ZM56.7469 32.2107H27.6708C27.1853 32.2107 26.7919 32.6041 26.7919 33.0896C26.7919 33.5752 27.1853 33.9686 27.6708 33.9686H56.7469C57.5714 33.9686 58.2422 34.6393 58.2422 35.4639V36.8611H1.75781V35.4639C1.75781 34.6393 2.42859 33.9686 3.25312 33.9686H24.1567C24.6422 33.9686 25.0356 33.5752 25.0356 33.0896C25.0356 32.6041 24.6422 32.2107 24.1567 32.2107H12.3439V31.0506C12.3439 29.7599 11.2939 28.7099 10.0032 28.7099H5.38078C4.09008 28.7099 3.04008 29.7599 3.04008 31.0506V32.2177C1.3452 32.3277 0 33.7417 0 35.4639V37.74C0 38.2255 0.393398 38.6189 0.878906 38.6189H3.86367V39.5461C3.86367 41.1785 5.19164 42.5066 6.82406 42.5066H11.9132C12.3987 42.5066 12.7921 42.1132 12.7921 41.6277C12.7921 41.1422 12.3987 40.7488 11.9132 40.7488H6.82395C6.1609 40.7488 5.62137 40.2093 5.62137 39.5461V38.6189H54.3786V39.5461C54.3786 40.2093 53.8391 40.7488 53.1759 40.7488H15.4271C14.9416 40.7488 14.5482 41.1422 14.5482 41.6277C14.5482 42.1132 14.9416 42.5066 15.4271 42.5066H21.8618L25.5536 44.8485L21.8101 46.2436C21.6422 46.3062 21.4974 46.4186 21.3952 46.5658C21.2929 46.7129 21.2381 46.8879 21.2381 47.0671V49.675H13.8318C12.5795 49.675 11.5608 50.6937 11.5608 51.9459V54.4366C10.4175 54.808 9.58875 55.8836 9.58875 57.1491C9.58875 58.7211 10.8676 60 12.4397 60C14.0118 60 15.2907 58.7211 15.2907 57.1491C15.2907 55.8836 14.4619 54.808 13.3186 54.4366V51.9459C13.3187 51.8099 13.3728 51.6794 13.469 51.5832C13.5652 51.487 13.6957 51.4329 13.8318 51.4328H44.3674C44.5035 51.4329 44.6339 51.487 44.7301 51.5832C44.8263 51.6795 44.8804 51.8099 44.8806 51.9459V54.4366C43.7373 54.808 42.9086 55.8836 42.9086 57.1491C42.9086 58.7211 44.1874 60 45.7595 60C47.3316 60 48.6105 58.7211 48.6105 57.1491C48.6105 55.8836 47.7817 54.808 46.6384 54.4366V51.9459C46.6384 50.6937 45.6197 49.675 44.3674 49.675H36.4436L29.4833 45.2597L36.8705 42.5065H53.1758C54.8082 42.5065 56.1363 41.1784 56.1363 39.546V38.6188H59.1211C59.6066 38.6188 60 38.2254 60 37.7399V35.4637C60 33.6701 58.5407 32.2107 56.7469 32.2107ZM4.79789 31.0506C4.79808 30.896 4.85955 30.7479 4.96882 30.6386C5.07809 30.5294 5.22625 30.4679 5.38078 30.4677H10.0032C10.1578 30.4679 10.3059 30.5294 10.4152 30.6386C10.5245 30.7479 10.5859 30.896 10.5861 31.0506V32.2107H4.79789V31.0506ZM12.4397 58.2422C11.8369 58.2422 11.3466 57.7518 11.3466 57.1491C11.3466 56.5493 11.8321 56.0609 12.4307 56.0561L12.4397 56.0562L12.4487 56.0561C13.0474 56.061 13.5329 56.5493 13.5329 57.1491C13.5329 57.7518 13.0426 58.2422 12.4397 58.2422ZM45.7595 58.2422C45.1567 58.2422 44.6664 57.7518 44.6664 57.1491C44.6664 56.5493 45.1519 56.0609 45.7505 56.0561L45.7595 56.0562L45.7685 56.0561C46.3672 56.061 46.8527 56.5493 46.8527 57.1491C46.8529 57.7518 46.3624 58.2422 45.7595 58.2422ZM33.1622 49.6751H22.9961V47.6776L27.4164 46.0302L33.1622 49.6751ZM27.6207 44.0781L25.1434 42.5065H31.8375L27.6207 44.0781Z" fill="#0095E4"/>
<path d="M57.8493 4.42285H53.5173C53.0318 4.42285 52.6384 4.81625 52.6384 5.30176C52.6384 5.78727 53.0318 6.18066 53.5173 6.18066H57.8493C57.9533 6.18079 58.053 6.22214 58.1265 6.29565C58.2 6.36916 58.2413 6.46882 58.2414 6.57277V22.7335C58.2414 22.8375 58.2 22.9372 58.1265 23.0107C58.053 23.0842 57.9533 23.1256 57.8493 23.1257H32.9547C32.8507 23.1256 32.751 23.0843 32.6775 23.0108C32.6039 22.9372 32.5626 22.8375 32.5625 22.7335V6.57277C32.5626 6.4688 32.604 6.36912 32.6775 6.29561C32.7511 6.22209 32.8508 6.18076 32.9547 6.18066H50.0032C50.4887 6.18066 50.8821 5.78727 50.8821 5.30176C50.8821 4.81625 50.4887 4.42285 50.0032 4.42285H32.9547C31.7693 4.42285 30.8047 5.38719 30.8047 6.57277V22.7335C30.8047 23.919 31.7691 24.8836 32.9547 24.8836H57.8495C59.0349 24.8836 59.9994 23.9191 59.9994 22.7335V6.57277C59.9993 5.3873 59.0349 4.42285 57.8493 4.42285Z" fill="#0095E4"/>
</g>
<defs>
<clipPath id="clip0_78_11682">
<rect width="60" height="60" fill="white"/>
</clipPath>
</defs>
</svg>
