<svg width="60" height="60" viewBox="0 0 60 60" fill="none" xmlns="http://www.w3.org/2000/svg">
<g clip-path="url(#clip0_78_11697)">
<path d="M45.9375 8.4375V10.3125H44.0625C43.0284 10.3125 42.1875 11.1534 42.1875 12.1875V14.0625C42.1875 15.0966 43.0284 15.9375 44.0625 15.9375H45.9375V17.8125C45.9375 18.8466 46.7784 19.6875 47.8125 19.6875H49.6875C50.7216 19.6875 51.5625 18.8466 51.5625 17.8125V15.9375H53.4375C54.4716 15.9375 55.3125 15.0966 55.3125 14.0625V12.1875C55.3125 11.1534 54.4716 10.3125 53.4375 10.3125H51.5625V8.4375C51.5625 7.40344 50.7216 6.5625 49.6875 6.5625H47.8125C46.7784 6.5625 45.9375 7.40344 45.9375 8.4375ZM53.4375 12.1866V14.0625H49.6875V17.8125H47.8125V14.0625H44.0625V12.1875H47.8125V8.4375H49.6875V12.1875L53.4375 12.1866Z" fill="#0095E4"/>
<path d="M58.125 3.75035C55.2281 3.75035 52.3838 2.96285 49.9013 1.47223L48.75 0.782227L47.5988 1.47223C45.1147 2.96308 42.2721 3.75054 39.375 3.75035H38.4375V8.43785H36.5625V7.50035C36.5625 3.8816 33.6178 0.937852 30 0.937852C26.3822 0.937852 23.4375 3.8816 23.4375 7.50035V8.43785H10.3125C9.27844 8.43785 8.4375 9.27879 8.4375 10.3129V17.8241C7.38987 17.8502 6.36066 18.1054 5.42224 18.5719C4.48381 19.0384 3.65895 19.7047 3.00563 20.5241C1.66458 22.2069 0.935322 24.2955 0.937505 26.4472C0.937505 28.9888 1.9275 31.3785 3.72469 33.1757L8.4375 37.8885V57.1879C8.4375 58.2219 9.27844 59.0629 10.3125 59.0629H49.6875C50.7216 59.0629 51.5625 58.2219 51.5625 57.1879V24.2254C56.1347 21.8254 59.0625 17.1107 59.0625 11.7744V3.75035H58.125ZM45.9375 36.2066L43.9547 38.4379H32.8125V49.6879H44.0625V41.1379L45.9375 39.0285V53.4379H14.0625V43.5135L15 44.451L26.2753 33.1757C26.9368 32.5154 27.4975 31.7614 27.9394 30.9379H36.735C36.9277 31.4846 37.2849 31.9584 37.7576 32.2941C38.2303 32.6298 38.7953 32.811 39.375 32.8129C40.9256 32.8129 42.1875 31.551 42.1875 30.0004C42.1875 28.4497 40.9256 27.1879 39.375 27.1879C38.7953 27.1897 38.2303 27.3709 37.7576 27.7066C37.2849 28.0423 36.9277 28.5161 36.735 29.0629H28.6913C29.1118 27.6076 29.1772 26.0727 28.882 24.587C28.5867 23.1012 27.9394 21.708 26.9944 20.5241C26.3196 19.6759 25.4616 18.9914 24.4847 18.5219C23.5078 18.0524 22.4373 17.81 21.3534 17.8129C20.4045 17.8102 19.4644 17.9959 18.5877 18.3591C17.711 18.7223 16.915 19.2558 16.2459 19.9288L15 21.1747L14.0625 20.2372V14.0629H38.6203C38.9638 16.2098 39.8044 18.2467 41.0748 20.0111C42.3452 21.7755 44.0104 23.2187 45.9375 24.2254V36.2066ZM39.4153 46.3663L42.1875 43.2472V47.8129H34.6875V40.3129H42.1875V40.4254L39.3347 43.6344L37.2253 41.525L35.8997 42.8507L39.4153 46.3663ZM38.4375 30.0004C38.4373 29.8147 38.4922 29.6331 38.5953 29.4786C38.6983 29.3242 38.8449 29.2037 39.0164 29.1326C39.1879 29.0614 39.3767 29.0428 39.5588 29.079C39.7409 29.1151 39.9082 29.2045 40.0395 29.3358C40.1708 29.4671 40.2602 29.6344 40.2964 29.8166C40.3326 29.9987 40.3139 30.1875 40.2428 30.359C40.1716 30.5305 40.0512 30.677 39.8967 30.7801C39.7423 30.8831 39.5607 30.938 39.375 30.9379C38.8575 30.9379 38.4375 30.5169 38.4375 30.0004ZM25.3125 7.50035C25.3125 4.91566 27.4153 2.81285 30 2.81285C32.5847 2.81285 34.6875 4.91566 34.6875 7.50035V8.43785H32.8125V7.50035C32.8125 5.94973 31.5506 4.68785 30 4.68785C28.4494 4.68785 27.1875 5.94973 27.1875 7.50035V8.43785H25.3125V7.50035ZM30.9375 8.43785H29.0625V7.50035C29.0733 7.25896 29.1768 7.03104 29.3514 6.86405C29.5261 6.69705 29.7584 6.60385 30 6.60385C30.2416 6.60385 30.474 6.69705 30.6486 6.86405C30.8232 7.03104 30.9267 7.25896 30.9375 7.50035V8.43785ZM38.4375 10.3129V11.7754C38.4375 11.9141 38.4497 12.05 38.4544 12.1879H12.1875V18.7438C11.6004 18.4123 10.969 18.1661 10.3125 18.0125V10.3129H38.4375ZM2.81251 26.42C2.81251 24.7091 3.40126 23.0319 4.47094 21.695C4.97029 21.067 5.60536 20.5601 6.32853 20.2125C7.0517 19.8649 7.84419 19.6855 8.64657 19.6879C10.0744 19.6879 11.4178 20.2438 12.4284 21.2544L15 23.826L17.5716 21.2544C18.0671 20.7562 18.6564 20.3612 19.3056 20.0923C19.9548 19.8234 20.6508 19.686 21.3534 19.6879C22.9875 19.6879 24.51 20.4191 25.5291 21.695C26.3441 22.7172 26.882 23.9322 27.0907 25.2227C27.2994 26.5133 27.172 27.8359 26.7206 29.0629H18.1706L16.1119 33.1822L13.2047 24.4635L10.6153 30.9379H8.4375V32.8129H11.8847L13.0453 29.9122L15.7631 38.0685L19.3294 30.9379H25.7194C25.4859 31.2566 25.2347 31.565 24.9497 31.85L15 41.7997L5.05032 31.85C4.33611 31.1384 3.77048 30.2919 3.38631 29.3597C3.00214 28.4275 2.80709 27.4283 2.81251 26.42ZM49.6875 57.1879H10.3125V39.7635L12.1875 41.6385V55.3129H47.8125V25.0438C48.0347 25.1225 48.2531 25.206 48.4809 25.2735L48.75 25.3541L49.0191 25.2735C49.2469 25.205 49.4653 25.1216 49.6875 25.0438V57.1879ZM57.1875 11.7754C57.1875 17.1182 53.8088 21.7522 48.75 23.3938C43.6913 21.7522 40.3125 17.1182 40.3125 11.7754V5.60098C43.2277 5.44775 46.0609 4.58252 48.5644 3.08098L48.75 2.96848L48.9356 3.08004C51.4388 4.58241 54.2721 5.448 57.1875 5.60098V11.7754Z" fill="#0095E4"/>
<path d="M29.0625 47.8125H30.9375V49.6875H29.0625V47.8125ZM25.3125 47.8125H27.1875V49.6875H25.3125V47.8125ZM21.5625 47.8125H23.4375V49.6875H21.5625V47.8125ZM30.9375 23.4375H36.5625V25.3125H30.9375V23.4375ZM30.9375 19.6875H36.5625V21.5625H30.9375V19.6875ZM30.9375 15.9375H36.5625V17.8125H30.9375V15.9375Z" fill="#0095E4"/>
</g>
<defs>
<clipPath id="clip0_78_11697">
<rect width="60" height="60" fill="white"/>
</clipPath>
</defs>
</svg>
