<svg width="59" height="59" viewBox="0 0 59 59" fill="none" xmlns="http://www.w3.org/2000/svg">
<g clip-path="url(#clip0_78_11918)">
<path d="M34.0303 12.0906H36.0604L37.5254 9.77148L40.0572 14.8878L42.6506 9.77148L44.3465 12.6798L46.2315 10.767L47.7317 12.0906M45.7929 36.8033V50.0893H28.8027V25.9449H45.7929V32.7414" stroke="#0095E4" stroke-width="1.72852" stroke-miterlimit="10" stroke-linecap="round" stroke-linejoin="round"/>
<path d="M34.2827 40.0361C35.359 40.0361 36.2314 39.1637 36.2314 38.0874C36.2314 37.0111 35.359 36.1387 34.2827 36.1387C33.2065 36.1387 32.334 37.0111 32.334 38.0874C32.334 39.1637 33.2065 40.0361 34.2827 40.0361Z" stroke="#0095E4" stroke-width="1.72852" stroke-miterlimit="10" stroke-linecap="round" stroke-linejoin="round"/>
<path d="M34.2827 46.7617C35.359 46.7617 36.2314 45.8892 36.2314 44.813C36.2314 43.7367 35.359 42.8643 34.2827 42.8643C33.2065 42.8643 32.334 43.7367 32.334 44.813C32.334 45.8892 33.2065 46.7617 34.2827 46.7617Z" stroke="#0095E4" stroke-width="1.72852" stroke-miterlimit="10" stroke-linecap="round" stroke-linejoin="round"/>
<path d="M27.4497 54.7375H17.724C17.5071 54.7375 17.2991 54.6513 17.1457 54.498C16.9924 54.3446 16.9062 54.1366 16.9062 53.9198V50.9072C16.9063 50.6903 16.9924 50.4823 17.1457 50.329C17.2991 50.1757 17.5071 50.0895 17.724 50.0895H56.8695C57.0864 50.0895 57.2944 50.1757 57.4477 50.329C57.6011 50.4823 57.6872 50.6903 57.6872 50.9072V53.9198C57.6872 54.1366 57.6011 54.3446 57.4477 54.498C57.2944 54.6513 57.0864 54.7375 56.8695 54.7375H31.4996M27.4497 54.7375H23.5228V57.1329C23.5228 57.3988 23.6284 57.6539 23.8165 57.842C24.0046 58.0301 24.2597 58.1357 24.5257 58.1357H26.4468C26.7128 58.1357 26.9679 58.0301 27.156 57.842C27.3441 57.6539 27.4497 57.3988 27.4497 57.1329V54.7375ZM47.1437 54.7375H51.0707V57.1329C51.0707 57.3988 50.965 57.6539 50.777 57.842C50.5889 58.0301 50.3338 58.1357 50.0678 58.1357H48.1466C47.8807 58.1357 47.6256 58.0301 47.4375 57.842C47.2494 57.6539 47.1437 57.3988 47.1437 57.1329V54.7375ZM20.0698 1.975V21.1291C20.0698 21.7425 20.567 22.2399 21.1805 22.2399H26.1053V24.8343C26.1053 25.4477 26.6025 25.945 27.216 25.945H47.3773C47.9907 25.945 48.4881 25.4478 48.4881 24.8343V22.2399H53.4128C54.0262 22.2399 54.5236 21.7427 54.5236 21.1291V1.975C54.5236 1.36161 54.0264 0.864258 53.4128 0.864258H21.1805C20.5671 0.864258 20.0698 1.36149 20.0698 1.975Z" stroke="#0095E4" stroke-width="1.72852" stroke-miterlimit="10" stroke-linecap="round" stroke-linejoin="round"/>
<path d="M51.4082 3.97949V19.1246H23.1849V3.97949L51.4082 3.97949Z" stroke="#0095E4" stroke-width="1.72852" stroke-miterlimit="10" stroke-linecap="round" stroke-linejoin="round"/>
<path d="M30.3955 22.2397H35.0092M30.3955 3.97933V19.1244M51.4082 22.2397V31.0767C51.4082 31.996 50.6629 32.7414 49.7435 32.7414H15.2207C14.0308 32.7414 13.0662 31.7767 13.0662 30.5868V3.32503C13.0662 2.19954 12.1537 1.28711 11.0282 1.28711H7.42175C6.25685 1.28711 5.3125 2.23146 5.3125 3.39636V13.8527" stroke="#0095E4" stroke-width="1.72852" stroke-miterlimit="10" stroke-linecap="round" stroke-linejoin="round"/>
<path d="M32.703 25.9444V27.7988C32.703 28.7181 31.9577 29.4635 31.0384 29.4635H16.5638V6.47835C16.5638 5.35286 15.6513 4.44043 14.5258 4.44043H8.75756V15.5066M8.75756 15.5066C8.75756 14.5929 8.01695 13.8523 7.10326 13.8523H2.9668C2.05311 13.8523 1.3125 14.5929 1.3125 15.5066V26.2435C1.3125 27.1572 2.05311 27.8978 2.9668 27.8978H7.10326C8.01695 27.8978 8.75756 27.1572 8.75756 26.2435V24.8989M8.75756 15.5066V20.8492M5.03503 27.8978V31.9333M1.75016 35.3306V33.192C1.75016 32.4968 2.31377 31.9332 3.00898 31.9332H7.0612C7.75641 31.9332 8.32002 32.4968 8.32002 33.192V35.3306" stroke="#0095E4" stroke-width="1.72852" stroke-miterlimit="10" stroke-linecap="round" stroke-linejoin="round"/>
</g>
<defs>
<clipPath id="clip0_78_11918">
<rect width="59" height="59" fill="white"/>
</clipPath>
</defs>
</svg>
