<svg width="60" height="60" viewBox="0 0 60 60" fill="none" xmlns="http://www.w3.org/2000/svg">
<g id="svg-gobbler (91) 1">
<g id="Group">
<path id="Vector" d="M56.0156 9.31324H53.6695L53.6719 5.1191C53.6733 2.30355 51.384 0.0116016 48.5678 0.0101953L30.7627 0H30.7603C29.7469 0 28.7938 0.39457 28.077 1.11141L1.49555 27.6928C0.531094 28.6574 0 29.9395 0 31.3037C0 32.6679 0.530977 33.95 1.49555 34.9146L18.7459 52.1648C19.7415 53.1605 21.0493 53.658 22.3567 53.658C23.6645 53.658 24.9723 53.1605 25.968 52.1648L42.7038 35.4289C43.1616 34.9712 43.1616 34.2292 42.7038 33.7719C42.2461 33.3141 41.5041 33.3141 41.0463 33.7719L24.3104 50.5078C23.2334 51.5849 21.4806 51.5849 20.4034 50.5078L3.15305 33.2575C2.63121 32.7356 2.34375 32.0416 2.34375 31.3037C2.34375 30.5658 2.63121 29.8718 3.15305 29.35L29.734 2.76914C29.8684 2.63389 30.0284 2.52665 30.2045 2.45363C30.3807 2.38061 30.5696 2.34326 30.7603 2.34375H30.7612L48.5665 2.35383C50.0899 2.3543 51.3291 3.59484 51.3281 5.11828L51.3226 14.9382H46.0441C45.5896 14.9382 45.1781 14.7524 44.8805 14.453C45.3844 14.2374 45.8425 13.9274 46.23 13.5397C47.9141 11.8552 47.9141 9.11496 46.23 7.43086C44.5454 5.74629 41.8052 5.74629 40.1207 7.43086C38.4367 9.11496 38.4367 11.8552 40.1207 13.5398C40.7216 14.1418 41.4878 14.5519 42.322 14.718C42.8957 16.2154 44.3473 17.282 46.0441 17.282H51.3212L51.318 22.8996C51.318 23.2874 51.167 23.6513 50.8928 23.925L47.6756 27.1426C47.2179 27.6004 47.2179 28.3424 47.6756 28.8002C48.1329 29.2575 48.8749 29.2575 49.3327 28.8002L52.5504 25.5826C53.2664 24.8661 53.6613 23.914 53.6618 22.901L53.665 17.2819H56.0156C58.2124 17.2819 60 15.4948 60 13.2975C60 11.1008 58.2124 9.31324 56.0156 9.31324ZM41.7783 9.08789C41.9617 8.90426 42.1796 8.75868 42.4194 8.65953C42.6593 8.56039 42.9163 8.50962 43.1759 8.51016C43.4353 8.50979 43.6922 8.56063 43.9319 8.65977C44.1717 8.75891 44.3895 8.9044 44.5729 9.08789C44.6914 9.20755 44.7942 9.34184 44.8787 9.4875C43.5923 9.8816 42.5816 10.9111 42.2122 12.2085C42.0532 12.1204 41.9071 12.0107 41.7783 11.8825C41.0079 11.1116 41.0079 9.85828 41.7783 9.08789ZM56.0156 14.9382H53.6664L53.6682 11.657H56.0156C56.9202 11.657 57.6562 12.3929 57.6562 13.2976C57.6562 14.2023 56.9202 14.9382 56.0156 14.9382Z" fill="#0095E4"/>
<path id="Vector_2" d="M18.9182 29.567C19.0623 30.0855 19.5334 30.4248 20.0461 30.4248C20.1504 30.4248 20.2563 30.4111 20.3611 30.3818L32.3911 27.0333C33.0146 26.8598 33.3794 26.2134 33.2059 25.5899C33.0325 24.9669 32.3866 24.602 31.7627 24.7755L19.7325 28.1236C19.1096 28.2976 18.7447 28.9434 18.9182 29.567ZM24.2137 31.1133C23.5609 31.766 23.2015 32.6336 23.2015 33.5569C23.2015 34.4797 23.5608 35.3471 24.2137 35.9999C24.8875 36.6732 25.7718 37.0102 26.6567 37.0102C27.5416 37.0102 28.4264 36.6732 29.1003 36C30.4475 34.6527 30.4475 32.4605 29.1003 31.1133C27.7531 29.7661 25.5609 29.7661 24.2136 31.1133H24.2137ZM27.4427 34.3424C27.0092 34.7759 26.3042 34.7759 25.8707 34.3424C25.7671 34.2394 25.685 34.117 25.6292 33.982C25.5733 33.8471 25.5448 33.7024 25.5453 33.5564C25.5453 33.2597 25.6611 32.9805 25.8707 32.7704C25.9739 32.6672 26.0965 32.5854 26.2313 32.5296C26.3662 32.4738 26.5107 32.4452 26.6567 32.4454C26.9415 32.4454 27.2262 32.5539 27.4427 32.7704C27.8763 33.2039 27.8763 33.9093 27.4427 34.3424ZM29.6807 24.1359C31.0279 22.7883 31.0279 20.5966 29.6807 19.2495C29.028 18.5967 28.16 18.2373 27.2371 18.2373C26.3143 18.2373 25.4465 18.5966 24.7941 19.2495C23.4469 20.5966 23.4469 22.7884 24.7941 24.1361C25.4679 24.8094 26.3523 25.1463 27.2371 25.1463C28.122 25.1463 29.0069 24.8093 29.6807 24.1359ZM26.4511 20.9065C26.5541 20.803 26.6766 20.7209 26.8115 20.665C26.9464 20.6092 27.0911 20.5806 27.2371 20.5811C27.3831 20.5806 27.5278 20.6091 27.6627 20.6649C27.7977 20.7208 27.9202 20.8029 28.0231 20.9065C28.4567 21.3401 28.4567 22.045 28.0231 22.4784C27.5901 22.912 26.8847 22.912 26.4511 22.4784C26.0181 22.045 26.0181 21.3401 26.4511 20.9065Z" fill="#0095E4"/>
<path id="Vector_3" d="M11.6546 27.1453C11.197 26.6875 10.4549 26.6875 9.99709 27.1453L6.66733 30.4751C6.44764 30.6949 6.32422 30.9929 6.32422 31.3037C6.32422 31.6144 6.44764 31.9124 6.66733 32.1322L21.5278 46.9926C21.7563 47.2211 22.0565 47.3355 22.3563 47.3355C22.656 47.3355 22.9559 47.221 23.1848 46.9926L45.4028 24.7741C45.8607 24.3163 45.8607 23.5743 45.4028 23.1166L30.543 8.25662C30.3232 8.03689 30.0252 7.91345 29.7144 7.91345C29.4036 7.91345 29.1056 8.03689 28.8858 8.25662L16.6265 20.516C16.1687 20.9738 16.1687 21.7158 16.6265 22.1736C17.0838 22.6308 17.8258 22.6308 18.2835 22.1736L29.7144 10.7428L42.9172 23.9456L22.3563 44.5065L9.15346 31.3037L11.6547 28.8024C12.112 28.3447 12.1124 27.6031 11.6547 27.1454L11.6546 27.1453ZM45.1891 30.114C44.8805 30.114 44.5785 30.2394 44.3606 30.4573C44.1426 30.6753 44.0172 30.9776 44.0172 31.2858C44.0172 31.594 44.1426 31.8964 44.3606 32.1144C44.5785 32.3323 44.8805 32.4577 45.1891 32.4577C45.4972 32.4577 45.7993 32.3323 46.0176 32.1144C46.2356 31.8964 46.361 31.5939 46.361 31.2858C46.361 30.9778 46.2356 30.6752 46.0176 30.4573C45.7973 30.2385 45.4996 30.1151 45.1891 30.114Z" fill="#0095E4"/>
<path id="Vector_4" d="M14.9687 25.4873C15.1885 25.2676 15.3121 24.9696 15.3125 24.6588C15.3125 24.3507 15.1879 24.0494 14.9687 23.8303C14.7487 23.6112 14.4511 23.4879 14.1406 23.4869C13.8321 23.4869 13.53 23.6123 13.3121 23.8303C13.093 24.0505 12.9696 24.3482 12.9688 24.6588C12.9688 24.9682 13.0937 25.2694 13.3121 25.4873C13.5321 25.7067 13.8299 25.8301 14.1406 25.8307C14.4496 25.8307 14.7508 25.7066 14.9687 25.4873Z" fill="#0095E4"/>
</g>
</g>
</svg>
