<svg width="60" height="60" viewBox="0 0 60 60" fill="none" xmlns="http://www.w3.org/2000/svg">
<g id="svg-gobbler (95) 1" clip-path="url(#clip0_438_6439)">
<g id="Group">
<path id="Vector" d="M60.0012 30.8281C60.0012 31.5154 59.4381 32.0785 58.7508 32.0785C58.0635 32.0785 57.5012 31.5154 57.5012 30.8281C57.5012 30.1401 58.0635 29.5777 58.7508 29.5777C59.4381 29.5777 60.0012 30.1401 60.0012 30.8281ZM60.0012 24.3903V25.8281C60.0012 26.5154 59.4381 27.0785 58.7508 27.0785C58.0635 27.0785 57.5012 26.5154 57.5012 25.8281V25.1029L49.1629 20.2153L40.8381 25.1022V34.94L42.0007 35.6273C42.5942 34.0288 43.8967 32.7903 45.5256 32.1729C45.0444 31.4067 44.7901 30.5198 44.7922 29.6149C44.7922 27.0644 46.7559 24.9899 49.1674 24.9899C51.5789 24.9899 53.5426 27.0644 53.5426 29.6149C53.545 30.5207 53.2902 31.4086 52.8077 32.1752L52.8434 32.19L52.8649 32.199C53.0353 32.2659 53.2019 32.3403 53.364 32.4206C53.3878 32.4318 53.4109 32.4452 53.4347 32.4563C53.5894 32.5352 53.7397 32.6185 53.8862 32.7085L53.9241 32.7308C54.4016 33.0279 54.8354 33.3899 55.2132 33.8064C55.234 33.8287 55.2533 33.8525 55.2742 33.8755C55.3679 33.9827 55.4571 34.0927 55.5427 34.2058C55.5732 34.246 55.6044 34.2861 55.6334 34.327C55.7019 34.423 55.7658 34.5212 55.8276 34.6209C55.8625 34.6766 55.8997 34.7302 55.9325 34.7875C55.957 34.8299 55.9771 34.8745 56.0009 34.9176C56.1132 35.1244 56.2136 35.3379 56.2992 35.5603C56.3081 35.5826 56.3185 35.6035 56.3267 35.625L57.9765 34.6625C58.2115 34.5292 58.484 34.4775 58.7515 34.5152C59.1309 34.5628 59.4902 34.7681 59.6895 35.0999C60.0391 35.7001 59.839 36.4626 59.2395 36.8122L56.0708 38.6762C56.0641 38.6806 56.0597 38.6866 56.053 38.6903L50.7056 41.833V52.6965C50.7056 53.1428 50.4676 53.5549 50.0816 53.7787L46.692 55.7372L40.3352 59.4102C40.1451 59.52 39.9293 59.5778 39.7097 59.5778C39.4901 59.5778 39.2743 59.52 39.0841 59.4102L32.7274 55.7372L32.7245 55.735L32.7222 55.7343L29.9946 54.1402L27.1986 55.7372L27.1979 55.738L20.8419 59.411C20.6516 59.5206 20.4359 59.5782 20.2163 59.5782C19.9968 59.5782 19.7811 59.5206 19.5908 59.411L13.2348 55.738L9.843 53.7825C9.65326 53.6726 9.49574 53.5148 9.38621 53.3248C9.27668 53.1349 9.219 52.9195 9.21893 52.7002V41.7906L3.9497 38.694L0.616629 36.7355C0.428881 36.6252 0.273222 36.4676 0.165067 36.2786C0.0569118 36.0896 1.1445e-05 35.8755 0 35.6577V24.3926C0 23.9492 0.234304 23.5394 0.616629 23.3148L9.25836 18.2367V7.30102C9.25836 6.85472 9.49638 6.44265 9.88317 6.21876L19.6295 0.587278C19.8194 0.477592 20.0348 0.419722 20.2541 0.41946C20.4734 0.419199 20.6889 0.476557 20.8791 0.58579L30.0385 5.85726L39.1206 0.588765C39.3107 0.477802 39.5269 0.419208 39.7471 0.418946C39.9672 0.418685 40.1835 0.476766 40.3739 0.587278L50.1202 6.21876C50.507 6.4419 50.745 6.85472 50.745 7.30102V18.2315L59.3905 23.3148C59.7639 23.5401 60.0012 23.9522 60.0012 24.3903ZM44.2254 36.9341L47.8679 39.0756L49.1793 39.8336L54.1041 36.9386L54.1123 36.9334C53.8066 35.4063 52.2662 34.2415 50.4178 34.2415H47.9178L47.894 34.2423C46.358 34.2512 45.0407 35.0642 44.4709 36.2193L44.456 36.2506C44.4188 36.3272 44.3854 36.406 44.3549 36.4864C44.3444 36.5154 44.3333 36.5436 44.3236 36.5734C44.3036 36.6326 44.2855 36.6923 44.2693 36.7527C44.2559 36.801 44.2425 36.8493 44.2329 36.8984L44.2232 36.9341H44.2254ZM46.9791 52.6868L48.2041 51.9787V42.1565L46.5953 41.2267L39.7089 37.248L31.2502 42.1558V51.9832L32.4388 52.6779C32.4793 52.5732 32.5234 52.47 32.5712 52.3685C32.5839 52.3402 32.5943 52.3112 32.6077 52.2829C32.6813 52.126 32.7631 51.9727 32.8517 51.8232C32.8755 51.7831 32.9022 51.7451 32.9268 51.7057C33.0889 51.4432 33.2735 51.1953 33.4787 50.9649C33.5174 50.921 33.5546 50.8764 33.5947 50.8332C33.6944 50.7254 33.7985 50.622 33.9071 50.5208C33.9287 50.5015 33.948 50.4799 33.9696 50.4606C34.0998 50.343 34.2366 50.2307 34.378 50.1236C34.4204 50.0916 34.4643 50.0626 34.5074 50.0314C34.7637 49.846 35.0337 49.6804 35.3152 49.536C35.368 49.5085 35.4208 49.4802 35.4751 49.4542C35.6224 49.3828 35.7734 49.3166 35.9274 49.2563L35.9809 49.2332L36.0241 49.2184C35.5368 48.4538 35.2789 47.5655 35.281 46.6589C35.281 44.1083 37.2677 42.0338 39.7089 42.0338C42.1502 42.0338 44.1369 44.1083 44.1369 46.6589C44.139 47.5655 43.8811 48.4538 43.3938 49.2184L43.4385 49.234L43.4838 49.2533C43.6415 49.3151 43.7948 49.3828 43.945 49.4557C43.9993 49.4817 44.0514 49.5099 44.1035 49.5367C44.2708 49.6238 44.4346 49.7176 44.5944 49.8179C44.7022 49.8856 44.8064 49.9577 44.909 50.0314C44.9529 50.0626 44.9983 50.0931 45.0414 50.1258C45.1827 50.2329 45.3196 50.3445 45.4498 50.4628C45.4684 50.4799 45.4855 50.4985 45.5041 50.5163C45.6156 50.6197 45.722 50.7261 45.8247 50.8354C45.8641 50.8786 45.9013 50.9225 45.9399 50.9664C46.0188 51.0571 46.0947 51.1486 46.1683 51.2431C46.2055 51.2921 46.2427 51.3405 46.2784 51.3903C46.352 51.4922 46.4212 51.5964 46.4881 51.7027C46.5142 51.7444 46.5424 51.7853 46.5677 51.8277C46.6555 51.9765 46.7373 52.1289 46.811 52.2851C46.8229 52.3112 46.8333 52.3387 46.8444 52.3647C46.8905 52.4704 46.9382 52.5775 46.9791 52.6868ZM39.7082 48.7832C40.7711 48.7832 41.6362 47.8297 41.6362 46.6589C41.6362 45.4866 40.7711 44.5338 39.7082 44.5338C38.6453 44.5338 37.7802 45.4874 37.7802 46.6589C37.7795 47.8297 38.6445 48.7832 39.7082 48.7832ZM27.4894 52.6943L28.7502 51.9742V42.158L20.2156 37.2466L17.973 38.5423L17.7305 38.6829L17.7 38.7007L11.7189 42.1565V51.9787L12.944 52.6868C12.9856 52.5775 13.0325 52.4711 13.0809 52.3647C13.0928 52.3387 13.1024 52.3112 13.1143 52.2851C13.188 52.1289 13.2698 51.9765 13.3576 51.8277C13.3828 51.7853 13.4104 51.7444 13.4371 51.7027C13.5041 51.5964 13.5733 51.4915 13.6469 51.3896C13.6826 51.3405 13.7198 51.2921 13.757 51.2438C13.8299 51.1493 13.9065 51.0571 13.9846 50.9671C14.0233 50.9232 14.0605 50.8786 14.1006 50.8354C14.2031 50.725 14.3098 50.6186 14.4205 50.5163C14.4391 50.4992 14.4562 50.4806 14.4748 50.4628C14.6049 50.3453 14.7418 50.2329 14.8831 50.1258C14.9263 50.0931 14.9709 50.0626 15.0155 50.0314C15.2712 49.8458 15.5408 49.6802 15.8218 49.536C15.8747 49.5085 15.9267 49.4802 15.9803 49.4549C16.1313 49.3814 16.2851 49.314 16.4414 49.2526L16.4868 49.2332L16.5307 49.2176C16.0434 48.453 15.7855 47.5648 15.7876 46.6581C15.7876 44.1076 17.7744 42.0331 20.2156 42.0331C22.6568 42.0331 24.6443 44.1076 24.6443 46.6581C24.6443 47.6043 24.3691 48.4842 23.9012 49.2176C23.9169 49.2236 23.9325 49.228 23.9481 49.2347L23.9704 49.2444C24.1363 49.3084 24.2977 49.3805 24.4561 49.4564C24.5067 49.4809 24.5551 49.5077 24.6049 49.533C24.7735 49.6206 24.9385 49.7149 25.0995 49.8157C25.2111 49.8863 25.319 49.96 25.4253 50.0373C25.4655 50.0663 25.5072 50.0939 25.5473 50.1243C25.6909 50.2337 25.83 50.3467 25.9624 50.4665L25.9862 50.4896C26.1089 50.6019 26.2249 50.7194 26.3373 50.8399C26.373 50.8786 26.4072 50.9195 26.4421 50.9597C26.5623 51.097 26.6765 51.2394 26.7843 51.3866C26.8602 51.4915 26.9316 51.5986 27 51.7079C27.0253 51.7481 27.0513 51.7868 27.0751 51.8277C27.1636 51.978 27.2462 52.1319 27.3213 52.2896L27.3444 52.3447C27.3942 52.4599 27.4456 52.576 27.4894 52.6943ZM20.2149 48.7832C21.2778 48.7832 22.1428 47.8297 22.1428 46.6589C22.1428 45.4866 21.2778 44.5338 20.2149 44.5338C19.1512 44.5338 18.2869 45.4874 18.2869 46.6589C18.2869 47.8297 19.1519 48.7832 20.2149 48.7832ZM10.7832 39.8098L15.7727 36.9267L15.7757 36.9252L15.7653 36.8836C15.7556 36.8397 15.7437 36.7958 15.7326 36.7527C15.7179 36.6963 15.7013 36.6405 15.6827 36.5853C15.6686 36.5422 15.6523 36.4998 15.6359 36.4574C15.598 36.3617 15.556 36.2676 15.5102 36.1754C15.4829 36.1227 15.4539 36.0708 15.4232 36.02C15.4008 35.9821 15.3793 35.9441 15.3555 35.9077C15.3209 35.8554 15.2849 35.8041 15.2476 35.7537C15.2231 35.721 15.2 35.6868 15.1747 35.6548C15.1285 35.5981 15.0806 35.5428 15.0312 35.4889C15.0096 35.4651 14.9902 35.4406 14.9679 35.4175C14.8949 35.3417 14.8187 35.2689 14.7396 35.1996C14.7188 35.181 14.6957 35.1646 14.6741 35.1475C14.6134 35.0965 14.5511 35.0474 14.4874 35.0002C14.454 34.9757 14.4183 34.9533 14.3833 34.9295C14.3275 34.8924 14.2717 34.8544 14.2144 34.8202C14.1184 34.7648 14.021 34.712 13.9221 34.6618C13.8204 34.6124 13.7167 34.5672 13.6112 34.5264C13.5658 34.5085 13.5205 34.4922 13.4751 34.4758C13.412 34.4536 13.3482 34.4332 13.2839 34.4148C13.2371 34.4014 13.1909 34.3873 13.1441 34.3754C13.0764 34.3575 13.0072 34.3434 12.938 34.3293C12.8919 34.3196 12.8466 34.3099 12.8004 34.3018C12.7231 34.2884 12.6442 34.2794 12.5654 34.2705C12.5252 34.2653 12.4865 34.2594 12.4456 34.2564C12.3247 34.2459 12.2033 34.2407 12.0819 34.2408H9.58192C9.45844 34.2408 9.33794 34.2467 9.21745 34.2564C9.17728 34.2594 9.13786 34.2661 9.09769 34.2705C9.01901 34.2783 8.94062 34.2887 8.86264 34.3018C8.81653 34.3092 8.77115 34.3196 8.72578 34.3285C8.65674 34.3423 8.58804 34.3576 8.51974 34.3747C8.47214 34.3866 8.42602 34.4007 8.3799 34.4141C8.26871 34.4456 8.15923 34.4828 8.05188 34.5257C7.94693 34.5671 7.84348 34.6123 7.7417 34.661C7.68294 34.69 7.62641 34.7205 7.56914 34.7518C7.52897 34.7741 7.48806 34.7957 7.44864 34.8195C7.39062 34.8544 7.33557 34.8916 7.28053 34.9288C7.24557 34.9526 7.20987 34.9749 7.17565 34.9995C7.11249 35.0462 7.05073 35.0948 6.99044 35.1453C6.96813 35.1638 6.94507 35.1802 6.9235 35.1996C6.84391 35.2687 6.7673 35.3416 6.69589 35.4168C6.67357 35.4398 6.65349 35.4651 6.63192 35.4896C6.58256 35.5427 6.53518 35.5975 6.48985 35.654C6.46382 35.6868 6.44076 35.721 6.41621 35.7544C6.37976 35.805 6.34257 35.8556 6.3091 35.9077C6.2853 35.9449 6.26298 35.9828 6.24067 36.0207C6.21092 36.0721 6.18116 36.1234 6.15439 36.1754C6.08653 36.3078 6.0286 36.4451 5.98107 36.586C5.9629 36.6408 5.94653 36.6961 5.93198 36.7519C5.92008 36.7958 5.90818 36.8397 5.89851 36.8843L5.88587 36.9327L5.88958 36.9349L10.7832 39.8098ZM15.2074 19.8478L20.4008 22.9287L25.3041 19.8664L25.3086 19.8634C25.3041 19.8411 25.2966 19.8195 25.2922 19.7972C25.2833 19.7556 25.2721 19.7147 25.2609 19.6738C25.2348 19.5729 25.2023 19.4737 25.1635 19.377C25.1013 19.219 25.0256 19.0668 24.9374 18.9217C24.918 18.889 24.8987 18.8555 24.8779 18.8243C24.8368 18.7631 24.7938 18.703 24.7492 18.6443C24.7299 18.6198 24.7128 18.5937 24.6934 18.5692C24.6278 18.4873 24.5583 18.4086 24.4851 18.3334L24.4829 18.3312C24.4065 18.2529 24.3266 18.1782 24.2434 18.1073L24.1802 18.0574C24.1167 18.0049 24.0515 17.9545 23.9845 17.9064C23.9541 17.8841 23.9213 17.864 23.8893 17.8432C23.8291 17.8027 23.7678 17.7638 23.7056 17.7264C23.6684 17.7041 23.6297 17.684 23.5918 17.6632C23.5308 17.6294 23.4687 17.5974 23.4059 17.5673L23.2809 17.5107C23.1742 17.4636 23.0655 17.4212 22.9551 17.3835C22.8889 17.3605 22.8212 17.3404 22.7535 17.3203C22.7074 17.3069 22.662 17.2935 22.6152 17.2824C22.5445 17.2645 22.4716 17.2496 22.3995 17.2348C22.3541 17.2258 22.3087 17.2162 22.2626 17.208C22.1816 17.1953 22.1002 17.1849 22.0186 17.1767C21.9785 17.1723 21.939 17.1663 21.8989 17.1626C21.7749 17.1521 21.6506 17.1469 21.5262 17.147H18.9838C18.8581 17.147 18.7339 17.1529 18.6119 17.1626C18.571 17.1656 18.5316 17.1723 18.4922 17.1767C18.4108 17.1849 18.3297 17.1953 18.2489 17.208C18.2028 17.2154 18.1582 17.2258 18.1121 17.2348C18.04 17.2485 17.9683 17.2641 17.8971 17.2816C17.851 17.2928 17.8049 17.3069 17.7595 17.3196C17.6465 17.3521 17.5349 17.3891 17.4248 17.4304C17.36 17.4547 17.296 17.481 17.2329 17.5092C17.1912 17.5278 17.1488 17.5464 17.1079 17.5658C17.0452 17.5964 16.9832 17.6284 16.922 17.6617C16.884 17.6825 16.8461 17.7026 16.8096 17.7242C16.7463 17.7621 16.6841 17.8018 16.6229 17.8432L16.53 17.9042C16.4578 17.9555 16.3886 18.0091 16.3209 18.0649C16.3046 18.0783 16.2867 18.0909 16.2711 18.1043C16.1886 18.1747 16.1092 18.2486 16.0331 18.3259C16.0182 18.3408 16.0048 18.3579 15.9907 18.3736C15.9321 18.4347 15.876 18.4982 15.8226 18.564C15.7995 18.5922 15.7794 18.622 15.7571 18.651C15.7155 18.706 15.6753 18.7603 15.6374 18.8176C15.6153 18.8519 15.594 18.8866 15.5734 18.9217C15.5185 19.0121 15.4684 19.1052 15.4232 19.2007C15.3522 19.3508 15.2947 19.5068 15.2513 19.6671C15.2409 19.7072 15.229 19.7474 15.2201 19.7883C15.2156 19.8069 15.2097 19.8248 15.206 19.8441L15.2074 19.8478ZM22.1823 12.5241C22.1823 11.3519 21.3172 10.399 20.2543 10.399C19.1906 10.399 18.3263 11.3519 18.3263 12.5241C18.3263 13.6957 19.1914 14.6492 20.2543 14.6492C21.3172 14.6492 22.1823 13.6957 22.1823 12.5241ZM34.6971 19.8664L39.6003 22.9287L44.7937 19.8478L44.7974 19.8456C44.7937 19.827 44.787 19.8084 44.7833 19.7898C44.7601 19.6887 44.7316 19.5888 44.6978 19.4908C44.6844 19.4506 44.6688 19.4112 44.6539 19.3718C44.6315 19.3143 44.6069 19.2577 44.5802 19.2022C44.5362 19.1063 44.4866 19.0132 44.4315 18.9232C44.4106 18.889 44.3898 18.8533 44.3683 18.8198C44.3298 18.7628 44.2897 18.707 44.2478 18.6525C44.2262 18.6242 44.2054 18.5937 44.183 18.5655C44.129 18.4998 44.0727 18.4361 44.0142 18.3743C44.0001 18.3594 43.9874 18.3431 43.9725 18.3282C43.8966 18.2505 43.8172 18.1762 43.7345 18.1058C43.7189 18.0924 43.701 18.0805 43.6862 18.0671C43.6179 18.0108 43.5477 17.957 43.4757 17.9057C43.4452 17.8841 43.4132 17.8648 43.3827 17.8447C43.3216 17.8033 43.2593 17.7636 43.196 17.7257C43.1595 17.7041 43.1209 17.684 43.0829 17.6632C43.0214 17.6299 42.9591 17.5979 42.8962 17.5673C42.7491 17.4985 42.5987 17.4372 42.4455 17.3835C42.3788 17.3611 42.3116 17.3403 42.2439 17.321C42.1978 17.3077 42.1524 17.2943 42.1063 17.2831C42.0348 17.2656 41.9629 17.2499 41.8906 17.2362C41.7655 17.2086 41.6388 17.1893 41.5112 17.1782C41.4718 17.1738 41.4316 17.1678 41.3915 17.1641C41.2675 17.1536 41.1432 17.1484 41.0188 17.1485H38.4764C38.3507 17.1485 38.2258 17.1544 38.103 17.1641C38.0621 17.1671 38.0234 17.1738 37.9833 17.1782C37.9015 17.1872 37.8196 17.1968 37.7393 17.2095C37.6932 17.2169 37.6486 17.2273 37.6032 17.2362C37.5303 17.2511 37.4581 17.266 37.3875 17.2839C37.3406 17.295 37.2952 17.3091 37.2491 17.3218C37.1356 17.3537 37.0237 17.3909 36.9137 17.4334C36.7413 17.4997 36.5733 17.5769 36.4108 17.6647C36.3729 17.6855 36.3342 17.7056 36.297 17.7279C36.2345 17.7648 36.1733 17.8038 36.1133 17.8447C36.0813 17.8655 36.0486 17.8864 36.0174 17.9079C35.9503 17.9564 35.8848 18.007 35.821 18.0597L35.7578 18.1088C35.6745 18.1802 35.5941 18.2545 35.5183 18.3326L35.516 18.3349C35.4429 18.4101 35.3734 18.4888 35.3078 18.5707C35.2884 18.5952 35.2713 18.6212 35.252 18.6458C35.2073 18.7046 35.1635 18.7641 35.1233 18.8258C35.1017 18.8578 35.0839 18.8905 35.0638 18.9232C35.0292 18.9794 34.9964 19.0367 34.9656 19.0951C34.947 19.1308 34.9299 19.168 34.9128 19.2051C34.8414 19.3564 34.7836 19.5137 34.7402 19.6752C34.7291 19.7162 34.7186 19.7571 34.709 19.7987C34.7038 19.821 34.6963 19.8426 34.6919 19.8649L34.6971 19.8664ZM41.6749 12.5241C41.6749 11.3519 40.8098 10.399 39.7469 10.399C38.684 10.399 37.8189 11.3519 37.8189 12.5241C37.8189 13.6957 38.684 14.6492 39.7469 14.6492C40.8098 14.6492 41.6749 13.6957 41.6749 12.5241ZM34.9448 36.9327C34.9418 36.9156 34.9358 36.8999 34.9329 36.8836C34.9228 36.8396 34.9117 36.796 34.8994 36.7527C34.8592 36.596 34.8041 36.4436 34.735 36.2974C34.6922 36.2021 34.6438 36.1095 34.59 36.02C34.5676 35.9821 34.5461 35.9441 34.5223 35.9077C34.4874 35.8554 34.4512 35.8041 34.4137 35.7537C34.3891 35.721 34.3668 35.6868 34.3408 35.6548C34.2948 35.5979 34.2469 35.5426 34.1972 35.4889C34.1757 35.4651 34.1563 35.4406 34.134 35.4175C34.0614 35.3417 33.9855 35.2692 33.9064 35.2003C33.8848 35.1817 33.861 35.1646 33.8394 35.1467C33.7791 35.0959 33.7171 35.047 33.6535 35.0002C33.62 34.9757 33.5843 34.9533 33.5501 34.9295C33.4943 34.8924 33.4385 34.8544 33.3805 34.8202C33.3418 34.7971 33.3009 34.7748 33.2608 34.7525C33.1619 34.6981 33.0609 34.6478 32.958 34.6015C32.7927 34.5289 32.623 34.4665 32.45 34.4148C32.4039 34.4014 32.357 34.3873 32.3102 34.3754C32.2425 34.3575 32.1733 34.3434 32.1041 34.3293C32.058 34.3204 32.0134 34.3099 31.9665 34.3025C31.8891 34.2891 31.8103 34.2802 31.7315 34.2713C31.692 34.2661 31.6526 34.2601 31.6124 34.2571C31.4915 34.2467 31.3701 34.2415 31.2487 34.2415H28.7502C28.6275 34.2415 28.5062 34.2475 28.3857 34.2571C28.3456 34.2601 28.3062 34.2668 28.2667 34.2713C28.1881 34.279 28.1097 34.2894 28.0317 34.3025C27.9848 34.3099 27.9402 34.3204 27.8941 34.3293C27.8251 34.3431 27.7564 34.3585 27.688 34.3754C27.6412 34.3873 27.5943 34.4014 27.5482 34.4148C27.4373 34.4463 27.328 34.4836 27.2209 34.5264C27.1156 34.5675 27.0119 34.6126 26.91 34.6618C26.8512 34.6908 26.794 34.7213 26.7382 34.7525C26.698 34.7748 26.6571 34.7964 26.6184 34.8202C26.5604 34.8552 26.5054 34.8924 26.4496 34.9295C26.4146 34.9526 26.3789 34.9757 26.3454 35.0002C26.2823 35.047 26.2205 35.0956 26.1602 35.146C26.1387 35.1646 26.1149 35.181 26.0933 35.2003C26.0137 35.2695 25.9371 35.3424 25.8657 35.4175C25.8434 35.4406 25.824 35.4651 25.8024 35.4889C25.7526 35.5424 25.7047 35.5978 25.6589 35.6548C25.6329 35.6868 25.6098 35.721 25.586 35.7544C25.5488 35.805 25.5116 35.8556 25.4781 35.9084C25.4543 35.9449 25.432 35.9835 25.4097 36.0207C25.38 36.0721 25.3502 36.1234 25.3234 36.1762C25.3026 36.2164 25.284 36.2573 25.2647 36.2982C25.2407 36.3509 25.2181 36.4042 25.197 36.4581C25.1799 36.5005 25.165 36.5436 25.1501 36.5868C25.1319 36.6415 25.1156 36.6968 25.101 36.7527C25.0891 36.7965 25.0765 36.8404 25.0668 36.8851C25.0638 36.9014 25.0579 36.917 25.0542 36.9334L25.0571 36.9356L30.0006 39.8395L34.9418 36.9356L34.9448 36.9327ZM31.8758 29.6157C31.8758 28.4434 31.0345 27.4906 30.0006 27.4906C28.9667 27.4906 28.1254 28.4434 28.1254 29.6157C28.1254 30.7872 28.9667 31.7408 30.0006 31.7408C31.0345 31.7408 31.8758 30.7872 31.8758 29.6157ZM36.0285 33.7915C36.0665 33.8324 36.1022 33.8748 36.1379 33.9172C36.256 34.0534 36.3679 34.1949 36.4733 34.3412C36.5484 34.4468 36.6191 34.5547 36.6875 34.6655C36.7113 34.7034 36.7366 34.7406 36.7597 34.7793C36.8467 34.9281 36.9263 35.0798 36.9992 35.236C37.0156 35.271 37.029 35.3082 37.0446 35.3439C37.0862 35.4383 37.1286 35.532 37.1651 35.6295L38.3344 34.9422V25.1089L30.0006 20.2108L21.6675 25.1089V34.9422L22.8368 35.6295C22.8733 35.5328 22.9157 35.4383 22.9573 35.3439C22.9729 35.3082 22.9863 35.271 23.0027 35.236C23.0756 35.0798 23.1552 34.9281 23.2422 34.7793C23.2653 34.7406 23.2906 34.7034 23.3136 34.6655C23.4124 34.5057 23.5189 34.3508 23.6327 34.2013C23.7065 34.1044 23.7834 34.0099 23.8633 33.9179C23.8998 33.8755 23.9355 33.8332 23.9726 33.7922C24.0738 33.6814 24.1802 33.5743 24.2903 33.4709C24.3081 33.4545 24.3245 33.4367 24.3423 33.4196C24.4734 33.3002 24.6094 33.1863 24.7499 33.0782C24.7864 33.0499 24.8258 33.0239 24.863 32.9956C25.0181 32.8825 25.1779 32.776 25.342 32.6765C25.4514 32.6103 25.5637 32.5486 25.6775 32.4891C25.7266 32.463 25.7749 32.437 25.8248 32.4125C25.9743 32.3396 26.1282 32.2704 26.2844 32.2079C26.2986 32.2027 26.3112 32.196 26.3246 32.19L26.3603 32.1767C25.8772 31.4095 25.6221 30.5208 25.6247 29.6142C25.6247 27.0636 27.5876 24.9891 29.9998 24.9891C32.4121 24.9891 34.375 27.0636 34.375 29.6142C34.3777 30.5209 34.1223 31.4097 33.6386 32.1767L33.6743 32.19L33.716 32.2079C33.8722 32.2704 34.0254 32.3381 34.1749 32.4117C34.2255 32.4363 34.2731 32.463 34.3229 32.4883C34.607 32.6354 34.8791 32.8045 35.1367 32.9941C35.1746 33.0216 35.2133 33.0484 35.2497 33.0767C35.3911 33.1853 35.5272 33.2983 35.6573 33.4181C35.6759 33.4345 35.6923 33.4531 35.7102 33.4694C35.8217 33.5743 35.9281 33.6814 36.0285 33.7915ZM12.7082 29.6157C12.7082 28.4434 11.8669 27.4906 10.833 27.4906C9.79911 27.4906 8.95785 28.4434 8.95785 29.6157C8.95785 30.7872 9.79911 31.7408 10.833 31.7408C11.8669 31.7408 12.7082 30.7872 12.7082 29.6157ZM39.7476 3.11404L31.2896 8.02178V17.8492L32.4783 18.5439C32.5177 18.439 32.5638 18.3371 32.6099 18.2352C32.6233 18.2069 32.6337 18.1772 32.6464 18.1482C32.7207 17.9912 32.8026 17.8387 32.8903 17.6892C32.9141 17.6491 32.9409 17.6111 32.9655 17.5717C33.0331 17.4631 33.1038 17.3567 33.1797 17.2526C33.2146 17.2035 33.2518 17.1559 33.2883 17.1076C33.3612 17.0131 33.4378 16.9209 33.5166 16.8309C33.5553 16.787 33.5932 16.7424 33.6334 16.6992C33.7331 16.5914 33.8372 16.488 33.9458 16.3875C33.9674 16.3675 33.9867 16.3459 34.0083 16.3266C34.1385 16.209 34.2753 16.0967 34.4159 15.9903C34.4583 15.9584 34.5029 15.9286 34.5453 15.8974C34.6487 15.823 34.7543 15.7516 34.8622 15.6824C34.9158 15.6482 34.9708 15.6155 35.0251 15.5827C35.1322 15.5195 35.2416 15.46 35.3524 15.402C35.4052 15.3745 35.458 15.3462 35.5123 15.3202C35.6596 15.2488 35.8106 15.1826 35.9646 15.1223L36.0188 15.0992L36.062 15.0844C35.5747 14.3198 35.3168 13.4315 35.3189 12.5249C35.3189 9.97431 37.3057 7.89979 39.7469 7.89979C42.1881 7.89979 44.1756 9.97431 44.1756 12.5249C44.1777 13.4315 43.9198 14.3198 43.4325 15.0844C43.4467 15.0903 43.4623 15.0948 43.4764 15.1L43.5218 15.1193C43.6787 15.1811 43.832 15.2488 43.9829 15.3217C44.0365 15.3477 44.0886 15.376 44.1414 15.4027C44.309 15.4898 44.473 15.5836 44.633 15.6839C44.7409 15.7523 44.845 15.8237 44.9477 15.8981C44.9916 15.9294 45.0369 15.9599 45.0801 15.9926C45.2207 16.0997 45.3575 16.2113 45.4884 16.3295C45.507 16.3466 45.5241 16.3652 45.5427 16.3831C45.6536 16.4865 45.7607 16.5928 45.8626 16.7029C45.902 16.7461 45.9399 16.7907 45.9786 16.8346C46.1804 17.0649 46.3634 17.3109 46.5261 17.5702C46.5521 17.6119 46.5804 17.6528 46.6057 17.6952C46.6934 17.844 46.7753 17.9964 46.8489 18.1534C46.8615 18.1794 46.8705 18.2069 46.8824 18.233C46.93 18.3393 46.9776 18.4457 47.0185 18.555L48.2436 17.8469V8.02252L39.7476 3.11404ZM20.2558 3.11255L11.7583 8.02252V17.844L12.9834 18.5521C13.0243 18.4427 13.0719 18.3364 13.1195 18.23C13.1314 18.204 13.1411 18.1764 13.1538 18.1504C13.2266 17.9942 13.3085 17.8417 13.397 17.6922C13.4223 17.6498 13.4505 17.6089 13.4766 17.5673C13.6383 17.3071 13.8217 17.061 14.0248 16.8316C14.0627 16.7877 14.1006 16.7438 14.1401 16.7007C14.2432 16.5901 14.3501 16.4832 14.4606 16.3801L14.5142 16.328C14.6444 16.2105 14.7812 16.0982 14.9226 15.9911C14.9657 15.9584 15.0103 15.9279 15.055 15.8966C15.31 15.7105 15.5793 15.5448 15.8605 15.4012C15.9133 15.3745 15.9654 15.3462 16.019 15.3202C16.1702 15.2471 16.324 15.1797 16.4801 15.1178L16.5255 15.0985L16.5694 15.0829C16.0821 14.3183 15.8242 13.4301 15.8263 12.5234C15.8263 9.97283 17.8131 7.8983 20.2543 7.8983C22.6955 7.8983 24.6823 9.97283 24.6823 12.5234C24.6843 13.4301 24.4265 14.3183 23.9392 15.0829L23.9868 15.0992L24.0091 15.1089C24.175 15.1729 24.3364 15.245 24.4941 15.3209C24.5446 15.3455 24.5937 15.3722 24.6428 15.3975C24.9282 15.5448 25.2021 15.7132 25.4625 15.9011C25.5034 15.9308 25.5451 15.9591 25.5853 15.9889C25.7288 16.0975 25.8679 16.2113 26.0003 16.331C26.0092 16.3385 26.0167 16.3474 26.0256 16.3556C26.1476 16.4671 26.2636 16.5847 26.3752 16.7052C26.4116 16.7438 26.4459 16.7847 26.4801 16.8249C26.6006 16.9619 26.7148 17.1044 26.8222 17.2519C26.8981 17.3567 26.9688 17.4639 27.0372 17.5732C27.0625 17.6126 27.0885 17.652 27.1123 17.693C27.2008 17.8432 27.2841 17.9972 27.3585 18.1556L27.3816 18.2107C27.4337 18.326 27.485 18.4412 27.5289 18.5603L28.7896 17.8402V8.02401L20.2558 3.11255ZM2.49999 34.9422L3.66928 35.6295C3.70572 35.5328 3.74812 35.4383 3.78977 35.3439C3.80539 35.3082 3.81878 35.271 3.83515 35.236C3.90804 35.0798 3.98763 34.9281 4.07466 34.7793C4.09772 34.7406 4.12301 34.7034 4.14607 34.6655C4.2145 34.5554 4.28516 34.4468 4.36029 34.3412C4.3945 34.2936 4.42946 34.2475 4.46442 34.2013C4.53838 34.1046 4.61528 34.01 4.69501 33.9179C4.73145 33.8755 4.76716 33.8332 4.80435 33.7922C4.90625 33.6814 5.01187 33.5743 5.1227 33.4709C5.14056 33.4545 5.15618 33.4367 5.17477 33.4196C5.30494 33.3006 5.4418 33.1868 5.58313 33.0782C5.61958 33.0499 5.659 33.0239 5.69619 32.9956C5.85125 32.8825 6.01107 32.776 6.17521 32.6765C6.28455 32.6103 6.39613 32.5486 6.50993 32.4891C6.55977 32.463 6.60812 32.437 6.65795 32.4125C6.80821 32.3396 6.96069 32.2704 7.11838 32.2079C7.13251 32.2027 7.14516 32.196 7.15855 32.19L7.19425 32.1767C6.71116 31.4095 6.45604 30.5208 6.45861 29.6142C6.45861 27.0636 8.42156 24.9891 10.8338 24.9891C13.246 24.9891 15.2089 27.0636 15.2089 29.6142C15.2112 30.5209 14.9559 31.4095 14.4725 32.1767L14.5083 32.19L14.5484 32.2079C14.7054 32.2704 14.8586 32.3388 15.0088 32.4125C15.0587 32.437 15.107 32.4638 15.1561 32.4891C15.4404 32.6364 15.7127 32.8058 15.9706 32.9956C16.0085 33.0231 16.0472 33.0499 16.0844 33.0782C16.2257 33.1868 16.3619 33.2998 16.492 33.4196C16.5099 33.436 16.527 33.4545 16.5441 33.4709C16.6542 33.5743 16.7598 33.6814 16.8617 33.7922C16.8996 33.8332 16.9346 33.8755 16.971 33.9179C17.0506 34.0102 17.128 34.1046 17.2016 34.2013C17.2366 34.2475 17.2723 34.2943 17.3058 34.3419C17.3816 34.4476 17.4523 34.5554 17.52 34.6662C17.5438 34.7042 17.5691 34.7414 17.5914 34.78C17.6784 34.9288 17.758 35.0805 17.8309 35.2367C17.8473 35.2717 17.8607 35.3089 17.8763 35.3446C17.9179 35.4391 17.9603 35.5328 17.996 35.6302L19.1668 34.9429V25.1096L10.8323 20.2115L2.49924 25.1096L2.49999 34.9422ZM20.2149 56.8879L25.2602 53.9729L25.2639 53.9706C25.2602 53.9528 25.2543 53.9364 25.2505 53.9193C25.2416 53.8799 25.2305 53.8412 25.22 53.8025C25.192 53.7013 25.159 53.6015 25.1211 53.5035C25.0819 53.4073 25.0387 53.3128 24.9917 53.2201C24.9626 53.1648 24.9316 53.1104 24.8987 53.0572C24.8771 53.0215 24.8563 52.9858 24.8333 52.9509C24.7968 52.8958 24.7574 52.843 24.718 52.7902C24.6949 52.759 24.6718 52.727 24.6473 52.6972C24.599 52.6385 24.5486 52.5814 24.4963 52.5261C24.4762 52.5046 24.4576 52.4815 24.4368 52.4607C24.3615 52.3843 24.2831 52.3111 24.2017 52.2413L24.1482 52.1996C24.0819 52.1446 24.0137 52.092 23.9436 52.0419C23.9109 52.0189 23.8759 51.998 23.8432 51.9757C23.7847 51.9365 23.7252 51.8988 23.6647 51.8627C23.6253 51.8396 23.5851 51.8188 23.5449 51.7965C23.4859 51.7644 23.4261 51.7336 23.3657 51.7042C23.2173 51.6351 23.0656 51.5733 22.9112 51.519C22.7998 51.481 22.6869 51.4475 22.5728 51.4186C22.5029 51.4007 22.4322 51.3866 22.3608 51.3717C22.3147 51.3628 22.2685 51.3531 22.2217 51.345C22.1417 51.3323 22.0613 51.3218 21.9807 51.3137C21.9398 51.3093 21.9004 51.3033 21.8594 51.2996C21.7358 51.2891 21.6117 51.2839 21.4875 51.284H18.9452C18.8202 51.284 18.696 51.2899 18.5732 51.2996C18.5323 51.3026 18.4929 51.3093 18.452 51.3137C18.3714 51.3218 18.291 51.3323 18.211 51.345C18.1641 51.3531 18.118 51.3628 18.0719 51.3717C18.0008 51.3854 17.9301 51.4011 17.8599 51.4186C17.8123 51.4305 17.7654 51.4439 17.7186 51.4573C17.4297 51.5394 17.1508 51.6535 16.887 51.7972C16.8476 51.8188 16.8067 51.8396 16.768 51.8627C16.7062 51.8991 16.6475 51.937 16.5895 51.9765C16.556 51.9988 16.5218 52.0196 16.489 52.0427C16.4189 52.093 16.3504 52.1456 16.2838 52.2004C16.2659 52.2145 16.2473 52.2279 16.2309 52.242C16.1492 52.3115 16.0708 52.3847 15.9959 52.4614C15.9751 52.483 15.9565 52.5053 15.9364 52.5269C15.8843 52.5827 15.8323 52.64 15.7847 52.6987C15.7601 52.7285 15.7378 52.7597 15.7147 52.791C15.6743 52.8435 15.6356 52.8973 15.5987 52.9524C15.5764 52.9866 15.5556 53.0223 15.534 53.0572C15.4472 53.2003 15.3726 53.3503 15.3108 53.5058L15.267 53.6225C15.2469 53.6821 15.2283 53.743 15.2119 53.8048C15.2015 53.8435 15.1903 53.8814 15.1814 53.9208C15.1769 53.9387 15.1717 53.955 15.168 53.9729L15.1717 53.9751L20.2149 56.8879ZM34.6621 53.9729L39.7075 56.8879L44.7528 53.9729L44.7565 53.9706C44.7535 53.9528 44.7469 53.9364 44.7431 53.9193C44.7342 53.8799 44.7231 53.8412 44.7126 53.8025C44.6958 53.7416 44.6774 53.6811 44.6576 53.6211C44.6442 53.5816 44.6286 53.543 44.6137 53.5035C44.5912 53.4459 44.5666 53.3891 44.5401 53.3332C44.5222 53.2953 44.5044 53.2573 44.4843 53.2201C44.4552 53.1648 44.4242 53.1104 44.3913 53.0572C44.3697 53.0215 44.3482 52.9858 44.3251 52.9509C44.2887 52.8959 44.2502 52.8423 44.2098 52.7902C44.186 52.759 44.1637 52.727 44.1392 52.6972C44.091 52.6385 44.0406 52.5817 43.9882 52.5269C43.9681 52.5046 43.9487 52.4815 43.9279 52.4599C43.853 52.3832 43.7746 52.31 43.6929 52.2405L43.6386 52.1981C43.5724 52.1435 43.5044 52.0912 43.4348 52.0412C43.402 52.0181 43.3678 51.9973 43.3343 51.975C43.2758 51.9355 43.2163 51.8975 43.1558 51.8612C43.1171 51.8381 43.0762 51.8173 43.0361 51.7957C42.977 51.7634 42.9172 51.7324 42.8568 51.7027C42.8144 51.6827 42.7705 51.6633 42.7266 51.644C42.6201 51.5978 42.512 51.5556 42.4023 51.5175C42.291 51.4792 42.1781 51.4457 42.0639 51.4171C41.9947 51.3993 41.9233 51.3851 41.8526 51.3703C41.8058 51.3613 41.7604 51.3517 41.7128 51.3435C41.6328 51.3308 41.5524 51.3204 41.4718 51.3122C41.4316 51.3078 41.3915 51.3018 41.3506 51.2981C41.2269 51.2877 41.1028 51.2824 40.9787 51.2825H38.4363C38.3106 51.2825 38.1863 51.2884 38.0644 51.2981C38.0234 51.3011 37.984 51.3078 37.9431 51.3122C37.862 51.3212 37.781 51.3301 37.7021 51.3435C37.6553 51.3517 37.6091 51.3613 37.563 51.3703C37.3764 51.4055 37.1926 51.4547 37.0133 51.5175C36.9031 51.5541 36.7949 51.5963 36.689 51.644C36.5832 51.6894 36.4797 51.74 36.3789 51.7957C36.3394 51.8173 36.2985 51.8381 36.2598 51.8612C36.1981 51.8976 36.1393 51.9356 36.0813 51.975C36.0479 51.9973 36.0136 52.0181 35.9809 52.0412C35.9103 52.091 35.8433 52.1446 35.7764 52.1981L35.7221 52.2405C35.6404 52.31 35.5619 52.3832 35.487 52.4599C35.4654 52.4815 35.4476 52.5046 35.4268 52.5269C35.3754 52.5827 35.3234 52.6392 35.2765 52.6972C35.252 52.7277 35.2297 52.7597 35.2058 52.7902C35.1659 52.8427 35.1275 52.8962 35.0906 52.9509C35.0675 52.9858 35.0467 53.0215 35.0251 53.0572C34.9927 53.1107 34.9617 53.165 34.9321 53.2201C34.8844 53.3124 34.8412 53.407 34.8027 53.5035C34.7878 53.543 34.7722 53.5816 34.7588 53.6211C34.738 53.6806 34.7201 53.7416 34.7038 53.8025C34.6934 53.8412 34.6822 53.8799 34.6733 53.9193L34.6599 53.9706L34.6621 53.9729ZM49.1681 27.4906C48.1342 27.4906 47.293 28.4434 47.293 29.6157C47.293 30.7872 48.1335 31.7408 49.1681 31.7408C50.202 31.7408 51.0433 30.7872 51.0433 29.6157C51.0426 28.4434 50.202 27.4906 49.1681 27.4906Z" fill="#0095E4"/>
</g>
</g>
<defs>
<clipPath id="clip0_438_6439">
<rect width="60" height="60" fill="white"/>
</clipPath>
</defs>
</svg>
