<svg width="52" height="52" viewBox="0 0 52 52" fill="none" xmlns="http://www.w3.org/2000/svg">
<g id="svg-gobbler (94) 1">
<g id="Group">
<path id="Vector" d="M47.125 40.625H25.7692C25.0425 37.8296 22.5205 35.75 19.5 35.75C16.4795 35.75 13.9575 37.8296 13.2308 40.625H4.875C3.97678 40.625 3.25 41.3526 3.25 42.25C3.25 43.1474 3.97678 43.875 4.875 43.875H13.2308C13.9575 46.6704 16.4795 48.75 19.5 48.75C22.5205 48.75 25.0425 46.6704 25.7692 43.875H47.125C48.0232 43.875 48.75 43.1474 48.75 42.25C48.75 41.3526 48.0232 40.625 47.125 40.625ZM19.5 45.5C17.7084 45.5 16.25 44.0424 16.25 42.25C16.25 40.4576 17.7084 39 19.5 39C21.2916 39 22.75 40.4576 22.75 42.25C22.75 44.0424 21.2916 45.5 19.5 45.5ZM47.125 24.375H38.7692C38.0425 21.5796 35.5205 19.5 32.5 19.5C29.4795 19.5 26.9575 21.5796 26.2308 24.375H4.875C3.97678 24.375 3.25 25.1026 3.25 26C3.25 26.8974 3.97678 27.625 4.875 27.625H26.2308C26.9575 30.4204 29.4795 32.5 32.5 32.5C35.5205 32.5 38.0425 30.4204 38.7692 27.625H47.125C48.0232 27.625 48.75 26.8974 48.75 26C48.75 25.1026 48.0232 24.375 47.125 24.375ZM32.5 29.25C30.7084 29.25 29.25 27.7924 29.25 26C29.25 24.2076 30.7084 22.75 32.5 22.75C34.2916 22.75 35.75 24.2076 35.75 26C35.75 27.7924 34.2916 29.25 32.5 29.25ZM4.875 11.375H13.2308C13.9575 14.1704 16.4795 16.25 19.5 16.25C22.5205 16.25 25.0425 14.1704 25.7692 11.375H47.125C48.0232 11.375 48.75 10.6474 48.75 9.75C48.75 8.85259 48.0232 8.125 47.125 8.125H25.7692C25.0425 5.32959 22.5205 3.25 19.5 3.25C16.4795 3.25 13.9575 5.32959 13.2308 8.125H4.875C3.97678 8.125 3.25 8.85259 3.25 9.75C3.25 10.6474 3.97678 11.375 4.875 11.375ZM19.5 6.5C21.2916 6.5 22.75 7.95762 22.75 9.75C22.75 11.5424 21.2916 13 19.5 13C17.7084 13 16.25 11.5424 16.25 9.75C16.25 7.95762 17.7084 6.5 19.5 6.5Z" fill="#0095E4"/>
</g>
</g>
</svg>
