<svg width="60" height="60" viewBox="0 0 60 60" fill="none" xmlns="http://www.w3.org/2000/svg">
<g id="svg-gobbler (96) 1">
<g id="Group">
<path id="Vector" d="M51.0934 39.4545V50.9091C51.0934 52.2727 50.0025 53.3636 48.6388 53.3636H46.9116C45.5479 53.3636 44.457 52.2727 44.457 50.9091V39.4545C44.457 38.0909 45.5479 37 46.9116 37H48.6388C49.9116 37 51.0934 38.0909 51.0934 39.4545Z" fill="#0095E4"/>
<path id="Vector_2" d="M53.8192 0.909058H17.3647C15.6374 0.909058 14.0011 1.99997 13.3647 3.63633C13.3647 3.72724 13.2738 3.81815 13.2738 3.90906L13.1829 25.4545C6.81925 26.4545 1.91016 32 1.91016 38.7272C1.91016 45.3636 6.72834 50.8182 13.092 51.9091V54.6363C13.092 57.0909 15.092 59.1818 17.6374 59.1818H53.8192C56.1829 59.1818 58.092 57.2727 58.092 54.9091V5.18179C58.092 2.81815 56.1829 0.909058 53.8192 0.909058ZM3.72834 38.7272C3.72834 32.3636 8.91016 27.0909 15.3647 27.0909C21.8192 27.0909 27.0011 32.2727 27.0011 38.7272C27.0011 45.0909 21.8192 50.3636 15.3647 50.3636C8.91016 50.3636 3.72834 45.0909 3.72834 38.7272ZM56.2738 54.8182C56.2738 56.1818 55.1829 57.2727 53.8192 57.2727H17.6374C16.1829 57.2727 14.9102 56.0909 14.9102 54.6363V52.0909H15.3647C16.7283 52.0909 18.092 51.9091 19.3647 51.4545C19.5465 52.1818 20.2738 52.8182 21.092 52.8182H24.2738C25.2738 52.8182 26.0011 52 26.0011 51.0909V48.5454C26.0011 48.0909 25.8192 47.7272 25.5465 47.4545C27.5465 45.0909 28.7283 42.0909 28.7283 38.7272C28.7283 31.3636 22.7283 25.2727 15.2738 25.2727H14.9102L15.0011 4.45451V4.18179C15.5465 3.27269 16.3647 2.72724 17.3647 2.72724H53.8192C55.1829 2.72724 56.2738 3.81815 56.2738 5.18179V54.8182Z" fill="#0095E4"/>
<path id="Vector_3" d="M38.5452 48.5454V51.0909C38.5452 52.0909 37.7271 52.8181 36.818 52.8181H33.6361C32.6361 52.8181 31.9089 52 31.9089 51.0909V48.5454C31.9089 47.5454 32.7271 46.8181 33.6361 46.8181H36.818C37.7271 46.8181 38.5452 47.5454 38.5452 48.5454ZM38.5452 38.7272V41.2727C38.5452 42.2727 37.7271 43 36.818 43H33.6361C32.6361 43 31.9089 42.1818 31.9089 41.2727V38.7272C31.9089 37.7272 32.7271 37 33.6361 37H36.818C37.7271 37 38.5452 37.8181 38.5452 38.7272ZM38.5452 29V31.5454C38.5452 32.5454 37.7271 33.2727 36.818 33.2727H33.6361C32.6361 33.2727 31.9089 32.4545 31.9089 31.5454V29C31.9089 28 32.7271 27.2727 33.6361 27.2727H36.818C37.7271 27.2727 38.5452 28 38.5452 29ZM51.0907 29V31.5454C51.0907 32.5454 50.2725 33.2727 49.3634 33.2727H46.1816C45.1816 33.2727 44.4543 32.4545 44.4543 31.5454V29C44.4543 28 45.2725 27.2727 46.1816 27.2727H49.3634C50.2725 27.2727 51.0907 28 51.0907 29ZM53.1816 17V20.5454C53.1816 21.7272 52.1816 22.6363 50.9998 22.6363H21.6361C20.3634 22.6363 19.2725 21.6363 19.2725 20.2727V17.0909C19.2725 15.8181 20.3634 14.8181 21.6361 14.8181H51.0907C52.1816 14.8181 53.1816 15.8181 53.1816 17ZM51.1816 7.99997V9.18179C51.1816 10.3636 50.1816 11.2727 49.0907 11.2727H39.9998C38.818 11.2727 37.9089 10.3636 37.9089 9.18179V7.99997C37.9089 6.81815 38.9089 5.90906 39.9998 5.90906H49.0907C50.1816 5.90906 51.1816 6.81815 51.1816 7.99997ZM18.5452 31.0909C18.5452 31.5454 18.2725 31.9091 17.818 32C14.818 32.5454 12.5452 34.9091 11.9089 37.8181H12.9089C13.2725 37.8181 13.6361 38 13.7271 38.3636C13.9089 38.7272 13.818 39.0909 13.5452 39.3636L9.99978 42.8181C9.81796 43 9.54523 43.0909 9.36341 43.0909C9.1816 43.0909 8.90887 43 8.72705 42.8181L5.2725 39.3636C4.99978 39.0909 4.90887 38.7272 5.09069 38.3636C5.2725 38 5.54523 37.8181 5.90887 37.8181H6.99978C7.72705 33.4545 11.5452 30.0909 16.0907 30.0909C16.6361 30.0909 17.1816 30.0909 17.818 30.2727C18.1816 30.2727 18.5452 30.6363 18.5452 31.0909ZM25.727 39.0909C25.5452 39.4545 25.2725 39.6363 24.9089 39.6363H23.818C23.0907 44 19.2725 47.3636 14.7271 47.3636C14.1816 47.3636 13.6361 47.2727 13.0907 47.1818C12.6361 47.0909 12.3634 46.7272 12.3634 46.2727C12.3634 45.8181 12.6361 45.4545 13.0907 45.3636C16.0907 44.8181 18.3634 42.5454 18.9998 39.6363H17.9998C17.6361 39.6363 17.2725 39.4545 17.1816 39.0909C16.9998 38.7272 17.0907 38.3636 17.3634 38.0909L20.9089 34.5454C21.2725 34.1818 21.818 34.1818 22.1816 34.5454L25.727 38.0909C25.727 38.3636 25.818 38.7272 25.727 39.0909Z" fill="#0095E4"/>
</g>
</g>
</svg>
