<svg width="60" height="60" viewBox="0 0 60 60" fill="none" xmlns="http://www.w3.org/2000/svg">
<g id="svg-gobbler (97) 1" clip-path="url(#clip0_438_6447)">
<g id="Group">
<path id="Vector" d="M15.2344 10.0781C15.8816 10.0781 16.4062 9.55346 16.4062 8.90625C16.4062 8.25904 15.8816 7.73438 15.2344 7.73438C14.5872 7.73438 14.0625 8.25904 14.0625 8.90625C14.0625 9.55346 14.5872 10.0781 15.2344 10.0781Z" fill="#0095E4"/>
<path id="Vector_2" d="M10.5469 10.0781C11.1941 10.0781 11.7188 9.55346 11.7188 8.90625C11.7188 8.25904 11.1941 7.73438 10.5469 7.73438C9.89967 7.73438 9.375 8.25904 9.375 8.90625C9.375 9.55346 9.89967 10.0781 10.5469 10.0781Z" fill="#0095E4"/>
<path id="Vector_3" d="M5.85938 10.0781C6.50658 10.0781 7.03125 9.55346 7.03125 8.90625C7.03125 8.25904 6.50658 7.73438 5.85938 7.73438C5.21217 7.73438 4.6875 8.25904 4.6875 8.90625C4.6875 9.55346 5.21217 10.0781 5.85938 10.0781Z" fill="#0095E4"/>
<path id="Vector_4" d="M5.85938 17.8125H23.6719C24.3191 17.8125 24.8438 17.2877 24.8438 16.6406C24.8438 15.9935 24.3191 15.4688 23.6719 15.4688H5.85938C5.21215 15.4688 4.6875 15.9935 4.6875 16.6406C4.6875 17.2877 5.21215 17.8125 5.85938 17.8125ZM5.85938 22.5H23.6719C24.3191 22.5 24.8438 21.9752 24.8438 21.3281C24.8438 20.681 24.3191 20.1562 23.6719 20.1562H5.85938C5.21215 20.1562 4.6875 20.681 4.6875 21.3281C4.6875 21.9752 5.21215 22.5 5.85938 22.5ZM5.85938 34.2188H23.6719C24.3191 34.2188 24.8438 33.694 24.8438 33.0469C24.8438 32.3998 24.3191 31.875 23.6719 31.875H5.85938C5.21215 31.875 4.6875 32.3998 4.6875 33.0469C4.6875 33.694 5.21215 34.2188 5.85938 34.2188ZM5.85938 38.9062H23.6719C24.3191 38.9062 24.8438 38.3815 24.8438 37.7344C24.8438 37.0873 24.3191 36.5625 23.6719 36.5625H5.85938C5.21215 36.5625 4.6875 37.0873 4.6875 37.7344C4.6875 38.3815 5.21215 38.9062 5.85938 38.9062Z" fill="#0095E4"/>
<path id="Vector_5" d="M45.9375 40.9661V1.17188C45.9375 0.524766 45.4127 0 44.7656 0H1.17188C0.524648 0 0 0.524766 0 1.17188V58.8281C0 59.4752 0.524648 60 1.17188 60H17.6953C18.3425 60 18.8672 59.4752 18.8672 58.8281C18.8672 58.181 18.3425 57.6562 17.6953 57.6562H2.34375V2.34375H43.5938V38.6223L41.4048 36.4334C41.2836 36.3128 41.1374 36.2202 40.9765 36.1622C41.1584 35.5304 41.2505 34.8762 41.25 34.2188C41.25 30.3417 38.0958 27.1875 34.2188 27.1875C30.3417 27.1875 27.1875 30.3417 27.1875 34.2188C27.1875 38.0958 30.3417 41.25 34.2188 41.25C34.8762 41.2505 35.5304 41.1584 36.1622 40.9766C36.2202 41.1375 36.3128 41.2836 36.4334 41.4049L43.5938 48.5652V57.6562H28.2422C27.595 57.6562 27.0703 58.181 27.0703 58.8281C27.0703 59.4752 27.595 60 28.2422 60H44.7656C45.4127 60 45.9375 59.4752 45.9375 58.8281V50.9089L54.6853 59.6568C55.1432 60.1145 55.8848 60.1143 56.3427 59.6568L59.6568 56.3427C60.1144 55.8851 60.1144 55.143 59.6568 54.6853L45.9375 40.9661ZM35.9757 34.4934C35.7693 34.4245 35.5477 34.4145 35.3359 34.4644C35.1241 34.5144 34.9303 34.6223 34.7764 34.7762C34.6225 34.9301 34.5145 35.1238 34.4645 35.3356C34.4145 35.5475 34.4245 35.769 34.4933 35.9755L35.4183 38.7504C35.0269 38.854 34.6237 38.9064 34.2188 38.9062C31.6341 38.9062 29.5313 36.8034 29.5313 34.2188C29.5313 31.6341 31.6341 29.5312 34.2188 29.5312C36.8034 29.5312 38.9063 31.6341 38.9063 34.2188C38.9063 34.6297 38.8528 35.0304 38.7504 35.4183L35.9757 34.4934ZM37.4577 37.4582L39.9434 38.2863L52.1986 50.5417L50.5418 52.1986L38.2861 39.9429L37.4577 37.4582ZM55.5141 57.1709L52.1992 53.856L53.856 52.1992L57.1709 55.5141L55.5141 57.1709Z" fill="#0095E4"/>
<path id="Vector_6" d="M40.7282 10.9781C40.1897 10.6191 39.4621 10.7644 39.1031 11.303L38.488 12.2258C37.2626 11.2876 35.762 10.7799 34.2187 10.7812C30.3417 10.7812 27.1875 13.9354 27.1875 17.8125C27.1875 21.6895 30.3417 24.8437 34.2187 24.8437C38.0958 24.8437 41.25 21.6895 41.25 17.8125C41.2492 16.459 40.8581 15.1344 40.1235 13.9977L41.0531 12.6031C41.4122 12.0646 41.2668 11.337 40.7282 10.9781ZM34.2187 22.5C31.6341 22.5 29.5312 20.3971 29.5312 17.8125C29.5312 15.2278 31.6341 13.125 34.2187 13.125C35.2994 13.1244 36.3469 13.4985 37.1828 14.1835L35.2084 17.145L33.8755 15.8119C33.4178 15.3544 32.676 15.3544 32.2181 15.8119C31.7605 16.2696 31.7605 17.0116 32.2181 17.4693L34.5619 19.8131C35.085 20.3362 35.9557 20.2493 36.3656 19.6345L38.6316 16.2356C38.813 16.7416 38.9058 17.2751 38.9061 17.8127C38.9062 20.3971 36.8034 22.5 34.2187 22.5ZM5.85937 48.2812H37.7344C38.3815 48.2812 38.9062 47.7564 38.9062 47.1093C38.9062 46.4622 38.3815 45.9375 37.7344 45.9375H5.85937C5.21215 45.9375 4.6875 46.4622 4.6875 47.1093C4.6875 47.7564 5.21215 48.2812 5.85937 48.2812ZM5.85937 52.9687H40.0781C40.7252 52.9687 41.25 52.4439 41.25 51.7968C41.25 51.1497 40.7252 50.625 40.0781 50.625H5.85937C5.21215 50.625 4.6875 51.1497 4.6875 51.7968C4.6875 52.4439 5.21215 52.9687 5.85937 52.9687Z" fill="#0095E4"/>
<path id="Vector_7" d="M22.9688 60C23.616 60 24.1406 59.4753 24.1406 58.8281C24.1406 58.1809 23.616 57.6562 22.9688 57.6562C22.3215 57.6562 21.7969 58.1809 21.7969 58.8281C21.7969 59.4753 22.3215 60 22.9688 60Z" fill="#0095E4"/>
</g>
</g>
<defs>
<clipPath id="clip0_438_6447">
<rect width="60" height="60" fill="white"/>
</clipPath>
</defs>
</svg>
