<svg width="60" height="60" viewBox="0 0 60 60" fill="none" xmlns="http://www.w3.org/2000/svg">
<g id="svg-gobbler (90) 1" clip-path="url(#clip0_405_9010)">
<g id="Group">
<path id="Vector" d="M40.2266 11.2034H52.8602" stroke="#0095E4" stroke-width="2" stroke-miterlimit="10" stroke-linecap="round" stroke-linejoin="round"/>
<path id="Vector_2" d="M40.2266 14.8588H52.8602" stroke="#0095E4" stroke-width="2" stroke-miterlimit="10" stroke-linecap="round" stroke-linejoin="round"/>
<path id="Vector_3" d="M40.2266 7.54785H52.8602" stroke="#0095E4" stroke-width="2" stroke-miterlimit="10" stroke-linecap="round" stroke-linejoin="round"/>
<path id="Vector_4" d="M40.2266 18.5143H52.8602" stroke="#0095E4" stroke-width="2" stroke-miterlimit="10" stroke-linecap="round" stroke-linejoin="round"/>
<path id="Vector_5" d="M40.2266 22.1697H46.5433" stroke="#0095E4" stroke-width="2" stroke-miterlimit="10" stroke-linecap="round" stroke-linejoin="round"/>
<path id="Vector_6" d="M18.9219 34.3903H31.5554" stroke="#0095E4" stroke-width="2" stroke-miterlimit="10" stroke-linecap="round" stroke-linejoin="round"/>
<path id="Vector_7" d="M18.9219 38.0457H31.5554" stroke="#0095E4" stroke-width="2" stroke-miterlimit="10" stroke-linecap="round" stroke-linejoin="round"/>
<path id="Vector_8" d="M18.9219 30.7346H22.4307" stroke="#0095E4" stroke-width="2" stroke-miterlimit="10" stroke-linecap="round" stroke-linejoin="round"/>
<path id="Vector_9" d="M18.9219 41.7012H31.5554" stroke="#0095E4" stroke-width="2" stroke-miterlimit="10" stroke-linecap="round" stroke-linejoin="round"/>
<path id="Vector_10" d="M18.9219 45.3564H25.2386" stroke="#0095E4" stroke-width="2" stroke-miterlimit="10" stroke-linecap="round" stroke-linejoin="round"/>
<g id="Clip path group">
<mask id="mask0_405_9010" style="mask-type:luminance" maskUnits="userSpaceOnUse" x="0" y="0" width="60" height="60">
<g id="a">
<path id="Vector_11" d="M0 0.000289917H59.9998V60H0V0.000289917Z" fill="white"/>
</g>
</mask>
<g mask="url(#mask0_405_9010)">
<g id="Group_2">
<path id="Vector_12" d="M35.9767 13.8234C36.2869 13.5209 36.1158 12.9941 35.6869 12.9318L33.1422 12.562C33.0583 12.5498 32.9787 12.5174 32.9101 12.4676C32.8415 12.4178 32.7861 12.3521 32.7486 12.2761L31.6106 9.97017C31.4187 9.58157 30.8648 9.58157 30.6731 9.97017L29.5349 12.2761C29.4975 12.3521 29.4421 12.4178 29.3735 12.4676C29.3049 12.5174 29.2253 12.5498 29.1414 12.562L26.5966 12.9318C26.1678 12.9941 25.9966 13.5209 26.3069 13.8234L28.1483 15.6184C28.209 15.6775 28.2544 15.7505 28.2806 15.8311C28.3068 15.9117 28.313 15.9975 28.2986 16.081L27.864 18.6156C27.7907 19.0426 28.239 19.3682 28.6224 19.1665L30.8985 17.9699C30.9735 17.9305 31.057 17.9099 31.1418 17.9099C31.2265 17.9099 31.31 17.9305 31.385 17.9699L33.6611 19.1665C34.0447 19.3682 34.4929 19.0426 34.4197 18.6156L33.9849 16.081C33.9706 15.9975 33.9768 15.9117 34.0029 15.8311C34.0291 15.7505 34.0745 15.6775 34.1352 15.6184L35.9767 13.8234Z" stroke="#0095E4" stroke-width="2" stroke-miterlimit="10" stroke-linecap="round" stroke-linejoin="round"/>
<path id="Vector_13" d="M13.5037 35.1462C12.6723 34.2974 11.3033 34.2976 10.4439 35.1181L10.2907 35.2642C10.243 35.3097 10.1796 35.3351 10.1136 35.3351C10.0477 35.3351 9.98426 35.3097 9.93655 35.2642L9.78338 35.1181C8.92393 34.2976 7.55495 34.2974 6.72351 35.1462C5.87871 36.0085 5.90402 37.3923 6.7746 38.2233L9.93666 41.2418C9.98433 41.2873 10.0477 41.3127 10.1136 41.3127C10.1795 41.3127 10.2429 41.2873 10.2906 41.2418L13.4526 38.2233C14.3232 37.3923 14.3485 36.0085 13.5037 35.1462Z" stroke="#0095E4" stroke-width="2" stroke-miterlimit="10" stroke-linecap="round" stroke-linejoin="round"/>
<path id="Vector_14" d="M57.9899 12.58V6.6489C57.9899 3.47547 55.3935 0.879071 52.2201 0.879071H27.8908C24.7175 0.879071 22.1211 3.47547 22.1211 6.6489V22.9966C22.1211 26.1699 24.7175 28.7664 27.8908 28.7664H42.4929C43.1189 28.7664 43.5861 29.3489 43.4431 29.9582C43.0558 31.6069 42.4633 33.3503 41.5873 35.1376C41.194 35.9402 42.0888 36.7561 42.8489 36.2858C45.0466 34.9256 48.1734 32.6492 50.8067 29.4311C51.1529 29.0081 51.6735 28.7664 52.2201 28.7664C55.3935 28.7664 57.9899 26.1699 57.9899 22.9966V16.6815" stroke="#0095E4" stroke-width="2" stroke-miterlimit="10" stroke-linecap="round" stroke-linejoin="round"/>
<path id="Vector_15" d="M27.2871 51.4634H32.1067C35.2802 51.4634 37.8765 48.8671 37.8765 45.6936V29.3459C37.8765 29.1523 37.8667 28.9589 37.8472 28.7663H27.8906C24.9129 28.7663 22.4433 26.4801 22.1502 23.5761H7.77752C4.60409 23.5761 2.00781 26.1726 2.00781 29.3459V45.6936C2.00781 48.8671 4.60409 51.4634 7.77752 51.4634C8.32408 51.4634 8.84474 51.7051 9.19091 52.1283C11.8241 55.3462 14.951 57.6227 17.1487 58.9828C17.9088 59.4532 18.8037 58.6372 18.4103 57.8346C17.5344 56.0474 16.9418 54.3039 16.5546 52.6554C16.4114 52.046 16.8787 51.4634 17.5048 51.4634H23.1855" stroke="#0095E4" stroke-width="2" stroke-miterlimit="10" stroke-linecap="round" stroke-linejoin="round"/>
</g>
</g>
</g>
</g>
</g>
<defs>
<clipPath id="clip0_405_9010">
<rect width="60" height="60" fill="white"/>
</clipPath>
</defs>
</svg>
