<svg width="60" height="60" viewBox="0 0 60 60" fill="none" xmlns="http://www.w3.org/2000/svg">
<g id="svg-gobbler (93) 1">
<g id="Group">
<path id="Vector" d="M35.0348 30.9818C32.9446 30.9818 31.0961 32.1921 29.9948 34.0335C28.8932 32.1921 27.0445 30.9818 24.9536 30.9818C20.8912 30.9818 17.5859 34.7881 17.5859 39.4664C17.5859 45.1358 24.009 50.4301 29.5093 53.2412C29.6597 53.3181 29.8261 53.3582 29.995 53.3582C30.1639 53.3582 30.3303 53.3181 30.4807 53.2412C32.95 51.9789 35.3613 50.3388 37.27 48.6231C37.7084 48.2291 37.7443 47.5543 37.3503 47.116C37.1611 46.9054 36.896 46.7787 36.6134 46.7637C36.3307 46.7486 36.0537 46.8465 35.8432 47.0357C34.1926 48.5192 32.132 49.9452 29.9946 51.0871C24.8025 48.3177 19.7203 43.7373 19.7203 39.4665C19.7203 35.965 22.068 33.1163 24.9536 33.1163C27.145 33.1163 28.9277 35.2999 28.9277 37.9839C28.9277 38.2669 29.0401 38.5383 29.2402 38.7384C29.4404 38.9386 29.7118 39.051 29.9948 39.051C30.2778 39.051 30.5492 38.9386 30.7494 38.7384C30.9495 38.5383 31.0619 38.2669 31.0619 37.9839C31.0619 35.2999 32.844 33.1163 35.0346 33.1163C37.921 33.1163 40.2693 35.965 40.2693 39.4665C40.2693 40.6728 39.8628 41.9577 39.0608 43.2858C38.9883 43.4058 38.9402 43.5388 38.9192 43.6773C38.8982 43.8159 38.9047 43.9572 38.9383 44.0933C38.9719 44.2293 39.032 44.3574 39.1151 44.4702C39.1983 44.583 39.3028 44.6783 39.4228 44.7508C39.9274 45.0552 40.5834 44.8934 40.888 44.3888C41.8938 42.7229 42.4038 41.0667 42.4038 39.4663C42.4039 34.7879 39.098 30.9818 35.0348 30.9818Z" fill="#0095E4"/>
<path id="Vector_2" d="M54.1152 16.2209H45.7584C46.576 13.3764 45.7344 11.3639 44.791 10.1186C43.931 8.98242 43.5229 7.54172 43.6422 6.06211C43.7778 4.38422 43.2545 2.77043 42.2067 1.63453C41.2203 0.565195 39.8522 0 38.2501 0C35.6454 0 33.2401 3.35367 30.9068 10.2448H29.088C26.7548 3.35367 24.3495 0 21.7447 0C20.1426 0 18.7745 0.565195 17.7881 1.63441C16.7401 2.77043 16.217 4.3841 16.3525 6.06176C16.4716 7.54172 16.0637 8.98254 15.2039 10.1182C14.2604 11.3637 13.4187 13.3764 14.2361 16.2207H5.87961C5.59659 16.2207 5.32517 16.3332 5.12505 16.5333C4.92493 16.7334 4.8125 17.0048 4.8125 17.2879V25.9233C4.8125 26.2063 4.92493 26.4777 5.12505 26.6778C5.32517 26.878 5.59659 26.9904 5.87961 26.9904H8.08508V58.9327C8.08508 59.2157 8.19751 59.4871 8.39763 59.6872C8.59775 59.8873 8.86917 59.9998 9.15219 59.9998H41.8195C42.4089 59.9998 42.8866 59.522 42.8866 58.9327C42.8866 58.3433 42.4089 57.8655 41.8195 57.8655H10.2193V26.9906H12.7941C13.0772 26.9906 13.3486 26.8782 13.5487 26.6781C13.7488 26.478 13.8613 26.2065 13.8613 25.9235C13.8613 25.6405 13.7488 25.3691 13.5487 25.169C13.3486 24.9688 13.0772 24.8564 12.7941 24.8564H6.94672V18.3553H53.048V24.8564H17.9164C17.6334 24.8564 17.362 24.9688 17.1618 25.169C16.9617 25.3691 16.8493 25.6405 16.8493 25.9235C16.8493 26.2065 16.9617 26.478 17.1618 26.6781C17.362 26.8782 17.6334 26.9906 17.9164 26.9906H49.7754V57.8657H46.3014C45.712 57.8657 45.2343 58.3434 45.2343 58.9328C45.2343 59.5221 45.712 59.9999 46.3014 59.9999H50.8426C50.9827 59.9999 51.1215 59.9723 51.251 59.9187C51.3804 59.8651 51.4981 59.7865 51.5972 59.6874C51.6963 59.5883 51.7749 59.4706 51.8285 59.3412C51.8821 59.2117 51.9097 59.0729 51.9097 58.9328V26.9906H54.1152C54.2553 26.9906 54.3941 26.9631 54.5235 26.9094C54.653 26.8558 54.7707 26.7772 54.8698 26.6781C54.9688 26.579 55.0475 26.4614 55.1011 26.3319C55.1547 26.2024 55.1823 26.0637 55.1823 25.9235V17.2881C55.1823 17.1479 55.1547 17.0091 55.1011 16.8797C55.0475 16.7502 54.9689 16.6325 54.8698 16.5334C54.7707 16.4343 54.6531 16.3557 54.5236 16.302C54.3941 16.2484 54.2553 16.2208 54.1152 16.2209ZM24.2298 12.3134L20.8251 10.4791C20.5759 10.3449 20.2837 10.3152 20.0126 10.3964C19.7414 10.4777 19.5137 10.6633 19.3795 10.9125C19.2453 11.1617 19.2155 11.454 19.2968 11.7251C19.378 11.9962 19.5637 12.2239 19.8129 12.3581L23.8079 14.5104V16.2209H16.4838C15.7796 14.3275 15.9184 12.7098 16.9055 11.4068C18.0822 9.8523 18.6414 7.89328 18.4801 5.8902C18.3937 4.82051 18.7214 3.77062 19.357 3.08156C19.9368 2.45309 20.7402 2.13434 21.7447 2.13434C22.8549 2.13434 24.7475 4.31602 26.8563 10.3207C25.7105 10.5532 24.7509 11.3024 24.2298 12.3134ZM34.0528 16.2209H25.9423V14.0524H25.9422C25.9422 13.1298 26.6922 12.3791 27.6141 12.3791H32.3795C33.301 12.3791 34.0509 13.1282 34.0527 14.0493L34.0528 14.0541V16.2209ZM43.5109 16.2207H36.1869V14.6893L40.182 12.5358C40.3054 12.4693 40.4145 12.3791 40.503 12.2705C40.5915 12.1619 40.6578 12.0368 40.698 11.9026C40.7382 11.7683 40.7516 11.6275 40.7373 11.4881C40.7231 11.3486 40.6815 11.2134 40.615 11.09C40.5486 10.9667 40.4585 10.8576 40.3498 10.7691C40.2412 10.6805 40.1162 10.6143 39.9819 10.5741C39.8477 10.5338 39.7068 10.5205 39.5674 10.5347C39.428 10.549 39.2928 10.5905 39.1694 10.657L35.8344 12.4548C35.3321 11.3728 34.337 10.5643 33.1385 10.3209C35.2475 4.31625 37.1401 2.13445 38.2502 2.13445C39.2548 2.13445 40.0582 2.4532 40.6379 3.08168C41.2735 3.77063 41.6013 4.82062 41.5148 5.89043C41.3534 7.89328 41.9127 9.8523 43.0895 11.407C44.0764 12.7096 44.2153 14.3272 43.5109 16.2207Z" fill="#0095E4"/>
</g>
</g>
</svg>
