<svg width="15" height="14" viewBox="0 0 15 14" fill="none" xmlns="http://www.w3.org/2000/svg">
<g id="Icon" clip-path="url(#clip0_92_11712)">
<path id="Vector" d="M12.4805 3.89062C12.6263 4.03646 12.6992 4.21354 12.6992 4.42188C12.6992 4.63021 12.6263 4.80729 12.4805 4.95312L6.82422 10.6094L5.76172 11.6719C5.61589 11.8177 5.4388 11.8906 5.23047 11.8906C5.02214 11.8906 4.84505 11.8177 4.69922 11.6719L3.63672 10.6094L0.808594 7.78125C0.66276 7.63542 0.589844 7.45833 0.589844 7.25C0.589844 7.04167 0.66276 6.86458 0.808594 6.71875L1.87109 5.65625C2.01693 5.51042 2.19401 5.4375 2.40234 5.4375C2.61068 5.4375 2.78776 5.51042 2.93359 5.65625L5.23047 7.96094L10.3555 2.82812C10.5013 2.68229 10.6784 2.60938 10.8867 2.60938C11.0951 2.60938 11.2721 2.68229 11.418 2.82812L12.4805 3.89062Z" fill="#0095E4"/>
</g>
<defs>
<clipPath id="clip0_92_11712">
<rect width="14" height="14" fill="white" transform="matrix(1 0 0 -1 0.589844 14)"/>
</clipPath>
</defs>
</svg>
