<svg width="29" height="23" viewBox="0 0 29 23" fill="none" xmlns="http://www.w3.org/2000/svg">
<path d="M15.9697 22.7888L20.4547 7.50298L21.7644 13.2861C19.93 13.2549 18.4459 12.6962 17.3123 11.6101C16.1786 10.5239 15.6277 9.04233 15.6597 7.16527C15.691 5.33087 16.3136 3.84792 17.5277 2.71644C18.6985 1.62688 20.1584 1.097 21.9074 1.12679C23.6992 1.15731 25.1829 1.73733 26.3585 2.86684C27.4907 4.03829 28.0412 5.54122 28.0099 7.37562C28.0005 7.93021 27.9487 8.46274 27.8547 8.97321C27.7599 9.52634 27.5784 10.1633 27.3101 10.8842C27.0417 11.6051 26.6628 12.5588 26.1732 13.7453L22.3048 22.8967L15.9697 22.7888ZM0.867876 22.5316L5.35284 7.24576L6.66255 13.0289C4.82815 12.9977 3.34411 12.439 2.21044 11.3528C1.07677 10.2667 0.525926 8.78511 0.557897 6.90805C0.589141 5.07365 1.21182 3.59071 2.42593 2.45922C3.59666 1.36966 5.05656 0.839781 6.80564 0.869572C8.59738 0.900089 10.081 1.48011 11.2567 2.60963C12.3889 3.78108 12.9394 5.284 12.9081 7.1184C12.8987 7.67299 12.8469 8.20552 12.7529 8.71599C12.6581 9.26912 12.4766 9.90612 12.2083 10.627C11.9399 11.3479 11.561 12.3015 11.0714 13.488L7.20296 22.6395L0.867876 22.5316Z" fill="white"/>
</svg>
