<svg width="71" height="71" viewBox="0 0 71 71" fill="none" xmlns="http://www.w3.org/2000/svg">
<rect width="71" height="71" rx="16" fill="#4CB8E0"/>
<g clip-path="url(#clip0_360_18136)">
<path d="M24.042 32.1296C20.9449 32.1296 18.3033 29.5791 18.3033 26.3909C18.3033 23.2027 20.8538 20.6522 24.042 20.6522C27.2302 20.6522 29.7807 23.2027 29.7807 26.3909C29.7807 29.5791 27.1391 32.1296 24.042 32.1296ZM24.042 23.0205C22.1291 23.0205 20.6716 24.5691 20.6716 26.3909C20.6716 28.2127 22.2202 29.7613 24.042 29.7613C25.8638 29.7613 27.4124 28.3038 27.4124 26.3909C27.4124 24.478 25.8638 23.0205 24.042 23.0205ZM33.1511 43.4249H30.8738V39.4169C30.8738 38.6882 30.6006 37.9595 30.054 37.4129C29.5075 36.8664 28.7787 36.5931 28.05 36.5931H20.034C19.3053 36.5931 18.5765 36.8664 18.03 37.4129C17.4834 37.9595 17.2102 38.6882 17.2102 39.4169V43.4249H14.8418V39.4169C14.8418 38.0506 15.3883 36.7753 16.2993 35.7733C17.2102 34.7713 18.5765 34.3158 19.9429 34.3158H27.9589C29.3253 34.3158 30.6006 34.8624 31.6026 35.7733C32.6046 36.7753 33.06 38.0506 33.06 39.4169V43.4249H33.1511ZM49.0921 61.0055L45.1751 57.0886H38.7988V50.7122L34.8818 46.7953L38.7988 42.8784V36.502H45.1751L49.0921 32.5851L53.009 36.502H59.3854V42.8784L63.3023 46.7953L59.2943 50.8033V57.1797H52.9179L49.0921 61.0055ZM41.076 54.8113H46.0861L49.001 57.7262L51.9159 54.8113H56.9259V49.8013L59.8408 46.8864L56.9259 43.9715V38.9615H52.007L49.0921 36.0466L46.1771 38.9615H41.076V43.9715L38.1611 46.8864L41.076 49.8013V54.8113Z" fill="white"/>
<path d="M34.2434 53.7182H26.2274V51.441C26.2274 50.8033 25.9541 50.2568 25.5898 49.8013C24.7699 48.9815 23.2214 48.9815 22.4016 49.8013C21.9461 50.2568 21.7639 50.8033 21.7639 51.441V53.7182H12.6548C11.7439 53.7182 10.9241 53.3539 10.1954 52.7162C9.55772 52.0786 9.19336 51.2588 9.19336 50.3479V18.466C9.19336 17.5551 9.55772 16.6442 10.1954 16.0065C10.833 15.3689 11.7439 15.0045 12.6548 15.0045H55.9231C56.834 15.0045 57.6538 15.3689 58.3826 16.0065C59.0202 16.6442 59.3846 17.5551 59.3846 18.466V32.1296H57.1073V18.466C57.1073 18.1927 57.0162 17.8283 56.7429 17.6462C56.5607 17.464 56.2875 17.2818 55.9231 17.2818H12.6548C12.3815 17.2818 12.1083 17.3729 11.835 17.6462C11.6528 17.8283 11.4706 18.1927 11.4706 18.466V50.3479C11.4706 50.6211 11.5617 50.8944 11.835 51.1677C12.0172 51.3499 12.2905 51.5321 12.6548 51.5321H19.4867C19.4867 50.3479 19.9421 49.1637 20.853 48.3439C21.6728 47.524 22.857 46.9775 24.0412 46.9775C25.2254 46.9775 26.4096 47.433 27.2294 48.3439C28.0492 49.1637 28.5958 50.3479 28.5958 51.5321H34.2434V53.7182Z" fill="white"/>
<path d="M36.5215 21.8364H53.6466V24.1136H36.5215V21.8364ZM36.5215 27.484H53.6466V29.7613H36.5215V27.484Z" fill="white"/>
</g>
<defs>
<clipPath id="clip0_360_18136">
<rect width="54.6547" height="54.6547" fill="white" transform="translate(9.19336 8.17267)"/>
</clipPath>
</defs>
</svg>
