<svg width="100" height="99" viewBox="0 0 100 99" fill="none" xmlns="http://www.w3.org/2000/svg">
<path fill-rule="evenodd" clip-rule="evenodd" d="M50 0.740648C22.7989 0.740648 0.74813 22.571 0.74813 49.5C0.74813 76.4291 22.7989 98.2593 50 98.2593C77.2011 98.2593 99.2519 76.4291 99.2519 49.5C99.2519 22.571 77.2011 0.740648 50 0.740648ZM0 49.5C0 22.1619 22.3858 0 50 0C77.6142 0 100 22.1619 100 49.5C100 76.8381 77.6142 99 50 99C22.3858 99 0 76.8381 0 49.5Z" fill="white"/>
<path fill-rule="evenodd" clip-rule="evenodd" d="M50.0519 13.2467C30 13.2467 13.7448 29.502 13.7448 49.5539C13.7448 69.6058 30 85.861 50.0519 85.861C70.1038 85.861 86.3591 69.6058 86.3591 49.5539C86.3591 29.502 70.1038 13.2467 50.0519 13.2467ZM13.043 49.5539C13.043 29.1144 29.6124 12.5449 50.0519 12.5449C70.4914 12.5449 87.0609 29.1144 87.0609 49.5539C87.0609 69.9934 70.4914 86.5629 50.0519 86.5629C29.6124 86.5629 13.043 69.9934 13.043 49.5539Z" fill="white"/>
<path d="M62.6728 45.9794L62.6491 45.979C61.6964 45.9486 60.7122 45.6414 59.6706 45.3161C57.749 44.7158 55.571 44.0355 53.1126 45.0271C52.6348 45.2189 52.0932 44.8546 52.0932 44.3389V37.3963C52.0931 37.1998 52.171 37.0112 52.3098 36.8721C56.1052 33.0708 59.5355 35.2558 62.8527 37.3685C65.2796 38.9143 67.7892 40.5135 70.6668 40.0925C71.2466 40.0086 71.7033 40.6333 71.4362 41.1616C70.8408 42.3379 69.9697 43.3659 67.9027 43.3362C68.2707 43.7918 68.7292 44.6023 67.8645 44.8872C66.5594 45.3168 65.3553 44.9414 64.199 44.3764C64.3114 44.6116 64.4063 44.8698 64.4063 45.1558C64.4067 46.0127 63.2682 45.9794 62.6728 45.9794ZM55.706 43.0376C57.3539 43.0376 58.8311 43.4991 60.1128 43.8993C61.0138 44.1809 61.8671 44.4473 62.5964 44.491C62.3757 44.0084 62.1898 43.3499 62.6172 42.6466C62.8835 42.2085 63.3873 42.2385 63.7742 42.4726C64.6263 42.9415 65.4046 43.3692 66.1477 43.5247L65.5678 42.8072C65.1323 42.2682 65.6476 41.4569 66.3187 41.6194C67.7744 41.9703 68.6183 41.895 69.1529 41.6238C66.4745 41.4343 64.1496 39.9534 62.0559 38.6194C58.5873 36.4102 56.291 35.1697 53.577 37.7097V43.3106C54.2719 43.128 54.9876 43.0363 55.706 43.0376ZM37.3038 45.963C36.8568 45.963 36.1853 45.9404 35.8363 45.6225C35.4694 45.2886 35.5899 44.7596 35.7702 44.3619C34.6373 44.9343 33.4101 45.2964 32.1017 44.7934C31.2793 44.4773 31.7337 43.7046 32.0976 43.2546C30.0302 43.2835 29.1596 42.2567 28.5642 41.08C28.2982 40.5543 28.753 39.9233 29.3347 40.0112C32.1655 40.4289 34.6514 38.8412 37.0571 37.3061C40.3888 35.1797 43.8343 32.9807 47.6872 36.7872C47.8282 36.9266 47.9075 37.1166 47.9075 37.315V44.2577C47.9075 44.7752 47.3607 45.141 46.8822 44.9436C44.505 43.9609 42.4528 44.625 40.4689 45.2678C39.3727 45.6221 38.3191 45.963 37.3038 45.963ZM37.3832 42.5653C37.8847 43.2668 37.6054 43.9902 37.3721 44.4781C38.1374 44.4625 39.0258 44.175 40.0119 43.8556C41.797 43.2776 43.9656 42.5754 46.4237 43.2249V37.6315C43.6581 35.0777 41.3459 36.3294 37.8551 38.5567C35.7828 39.8792 33.4821 41.3471 30.8453 41.5411C31.3795 41.813 32.2234 41.8894 33.6817 41.5378C34.3513 41.3757 34.8699 42.1844 34.4325 42.7256L33.7989 43.5091C34.546 43.3789 35.3603 42.9215 36.3653 42.3149C36.4855 42.2426 37.063 42.1172 37.3832 42.5653Z" fill="white"/>
<path d="M58.0091 57.1337C57.3224 54.7666 54.5298 53.8952 52.8612 53.3743L52.5436 53.2745C51.9637 53.0907 51.3687 52.9584 50.7656 52.8791V35.6146C52.8304 35.264 54.4081 33.4834 54.4081 31.3407C54.4081 28.9472 52.4412 27 50.0236 27C47.606 27 45.6388 28.9472 45.6388 31.3407C45.6388 33.4834 47.2165 35.264 49.2813 35.6146V52.7715C48.6266 52.7641 48.0082 52.7997 47.4228 52.8353C45.802 52.9344 44.5222 53.0126 43.2991 52.0733C42.7152 51.6252 41.7321 50.6744 41.7069 49.343C41.6783 47.8128 42.9734 46.7247 43.2331 46.5222C43.3868 46.4007 43.4862 46.2233 43.5096 46.0288C43.533 45.8342 43.4785 45.6383 43.358 45.4838C43.2375 45.3293 43.0608 45.2288 42.8664 45.2041C42.672 45.1794 42.4758 45.2327 42.3205 45.3521C41.8182 45.7439 40.1826 47.1914 40.2234 49.3708C40.2601 51.324 41.5997 52.6398 42.3951 53.2504C44.0585 54.5277 45.7367 54.4256 47.5129 54.3166C48.089 54.2813 48.6744 54.2483 49.2813 54.2557V60.3567C48.8043 60.3504 48.3546 60.376 47.9295 60.4019C46.7892 60.4717 45.9649 60.5221 45.1662 59.9089C44.7856 59.6162 44.1442 58.9989 44.1282 58.1516C44.11 57.1756 44.9521 56.4689 45.1209 56.3372C45.2761 56.2163 45.3769 56.0386 45.4011 55.8433C45.4253 55.648 45.371 55.4511 45.25 55.2959C45.1291 55.1407 44.9514 55.0399 44.7561 55.0157C44.5608 54.9915 44.3639 55.0459 44.2087 55.1668C43.834 55.4588 42.6143 56.539 42.6447 58.1787C42.6722 59.6474 43.6697 60.6301 44.2625 61.0853C45.5012 62.036 46.7814 61.9581 48.02 61.8825C48.4311 61.8572 48.8488 61.8339 49.2813 61.8409V67.0519C48.966 67.0488 48.6507 67.0585 48.3361 67.0808C47.5381 67.1287 47.1011 67.1391 46.6638 66.8034C46.4883 66.6691 46.0795 66.3048 46.0706 65.8266C46.0606 65.2839 46.5762 64.8665 46.6348 64.8205C46.7901 64.6997 46.8911 64.5221 46.9154 64.3268C46.9398 64.1315 46.8855 63.9345 46.7647 63.7792C46.6438 63.6239 46.4662 63.523 46.2709 63.4986C46.0756 63.4743 45.8787 63.5285 45.7234 63.6494C45.4511 63.8616 44.5641 64.6469 44.5871 65.854C44.6071 66.9365 45.3313 67.651 45.7605 67.9804C46.6582 68.6697 47.5574 68.6148 48.427 68.5617C48.7056 68.5447 48.9886 68.5287 49.2817 68.5354V72.2581C49.2817 72.4548 49.3599 72.6436 49.499 72.7827C49.6381 72.9218 49.8269 73 50.0236 73C50.2204 73 50.4091 72.9218 50.5483 72.7827C50.6874 72.6436 50.7656 72.4548 50.7656 72.2581V68.8236C51.342 69.0076 52.1393 69.2992 52.2832 69.796C52.3915 70.1703 52.1396 70.6273 51.9801 70.8666C51.453 71.6552 52.6812 72.4888 53.2136 71.6912C53.7448 70.8962 53.9158 70.0983 53.7085 69.3827C53.3271 68.068 51.8332 67.6021 51.0304 67.3513L50.8839 67.3053C50.8435 67.2923 50.8049 67.2838 50.7652 67.2723V62.0219C50.8987 62.0546 51.0338 62.0913 51.1718 62.1355L51.4033 62.2082C52.3381 62.4998 53.9021 62.988 54.197 64.0051C54.3921 64.6773 54.0305 65.4204 53.6929 65.9256C53.1661 66.7147 54.3936 67.5475 54.9267 66.7503C55.662 65.65 55.9024 64.5579 55.6223 63.5919C55.1051 61.809 53.0645 61.1721 51.8451 60.7918L51.6221 60.7221C51.3408 60.6334 51.0546 60.5613 50.7648 60.5062V54.3759C51.1918 54.4435 51.6321 54.5418 52.0925 54.6883L52.419 54.791C53.8027 55.2229 56.1194 55.9455 56.5838 57.5473C56.8932 58.6139 56.3442 59.7568 55.8293 60.5277C55.3021 61.3164 56.5304 62.1492 57.0631 61.352C58.0529 59.8703 58.3797 58.4121 58.0091 57.1337C58.3797 58.4121 57.3228 54.7666 58.0091 57.1337ZM47.1227 31.3407C47.1227 29.7656 48.424 28.4839 50.0236 28.4839C51.6232 28.4839 52.9242 29.7656 52.9242 31.3407C52.9242 32.9158 51.6229 34.1979 50.0236 34.1979C48.4244 34.1979 47.1227 32.9162 47.1227 31.3407Z" fill="white"/>
<path d="M56.8433 53.1638C56.0346 53.1638 55.8306 51.999 56.5911 51.7241C57.7307 51.3123 58.4789 50.3567 58.4975 49.2898C58.5149 48.2782 57.852 47.3252 56.8085 46.8618C56.6286 46.782 56.4878 46.634 56.417 46.4503C56.3463 46.2666 56.3514 46.0624 56.4312 45.8825C56.511 45.7026 56.6591 45.5618 56.8427 45.491C57.0264 45.4203 57.2307 45.4254 57.4106 45.5052C58.9998 46.2108 60.0084 47.7062 59.981 49.3154C59.9517 51.0033 58.8191 52.4965 57.0956 53.1193C57.0125 53.1494 56.9272 53.1638 56.8433 53.1638ZM47.6515 72.4315C47.2223 72.4314 46.8065 72.2816 46.4759 72.0079C46.0964 71.6926 45.8638 71.2381 45.8375 70.7611C45.7863 69.8288 46.5227 68.9949 47.4783 68.9025C47.6725 68.8866 47.8652 68.9477 48.0148 69.0727C48.1643 69.1977 48.2586 69.3766 48.2774 69.5705C48.2961 69.7645 48.2378 69.9581 48.115 70.1095C47.9922 70.2608 47.8148 70.3577 47.6211 70.3793C47.3147 70.409 47.2271 70.7481 47.4846 70.9065C47.7602 71.0764 48.0677 70.8879 48.3359 71.1788C48.8661 71.7538 48.2992 72.4315 47.6515 72.4315Z" fill="white"/>
<path d="M13.4933 26.6332L13.2041 27.1794C13.0299 27.1285 12.8619 27.112 12.7002 27.1297C12.5393 27.1461 12.3881 27.1901 12.2467 27.2619C12.1047 27.3314 11.9765 27.4243 11.8623 27.5406C11.7481 27.6568 11.6514 27.7898 11.5721 27.9396C11.4275 28.2127 11.3655 28.4967 11.3861 28.7915C11.4075 29.0848 11.518 29.368 11.7175 29.6409C11.9178 29.9124 12.2132 30.1516 12.6038 30.3584C12.9944 30.5652 13.3582 30.6751 13.6954 30.6882C14.0333 30.6998 14.3296 30.632 14.5842 30.4848C14.8396 30.3362 15.0396 30.1253 15.1843 29.8522C15.2636 29.7024 15.3192 29.5476 15.3512 29.3878C15.3831 29.228 15.3887 29.0702 15.3678 28.9144C15.3462 28.7563 15.2969 28.6061 15.2199 28.4639C15.1423 28.3194 15.0342 28.1897 14.8957 28.075L15.1849 27.5288C15.3936 27.692 15.5603 27.8761 15.6848 28.0812C15.8094 28.2862 15.8928 28.5033 15.935 28.7325C15.9758 28.9609 15.9759 29.1931 15.9355 29.4293C15.8958 29.664 15.8157 29.8951 15.6952 30.1227C15.4915 30.5074 15.2164 30.7998 14.8699 30.9998C14.5233 31.1999 14.1313 31.294 13.6938 31.2824C13.2563 31.2707 12.7997 31.1389 12.3239 30.887C11.8482 30.6351 11.4825 30.3315 11.2269 29.9762C10.9714 29.6209 10.8289 29.2438 10.7996 28.8447C10.7702 28.4456 10.8574 28.0538 11.0611 27.669C11.1816 27.4415 11.3277 27.2453 11.4995 27.0806C11.6721 26.9144 11.8651 26.7844 12.0783 26.6905C12.2901 26.5958 12.5158 26.5424 12.7555 26.5301C12.9936 26.5171 13.2395 26.5514 13.4933 26.6332Z" fill="white"/>
<path d="M17.0625 27.5655L16.6932 28.0968L13.5761 23.6507L13.9398 23.1275L19.1934 24.5L18.824 25.0314L14.4314 23.833L14.4087 23.8657L17.0625 27.5655ZM15.564 26.2328L17.0528 24.0911L17.5024 24.4036L16.0136 26.5454L15.564 26.2328Z" fill="white"/>
<path d="M16.0635 20.1855L16.5705 19.6497L20.8401 21.302L20.8812 21.2585L18.9962 17.0865L19.5032 16.5507L23.2105 20.0589L22.8131 20.4789L19.9964 17.8134L19.9621 17.8496L21.6825 21.6736L21.2988 22.0791L17.3858 20.5722L17.3515 20.6084L20.1682 23.2738L19.7708 23.6938L16.0635 20.1855Z" fill="white"/>
<path d="M22.9243 16.3536L24.0887 15.4803C24.3811 15.261 24.6636 15.1239 24.9361 15.0691C25.2099 15.0133 25.4639 15.0335 25.6982 15.1299C25.9338 15.2253 26.1403 15.3912 26.3178 15.6278C26.4952 15.8644 26.5992 16.1125 26.6298 16.372C26.6617 16.6305 26.615 16.8867 26.4897 17.1406C26.3658 17.3935 26.1576 17.6296 25.8652 17.8489L24.3339 18.9973L21.2715 14.9141L21.7659 14.5432L24.5054 18.1958L25.5422 17.4183C25.7283 17.2787 25.8579 17.1233 25.931 16.9522C26.0044 16.7788 26.03 16.608 26.0077 16.4398C25.9858 16.2693 25.925 16.1176 25.8253 15.9847C25.6788 15.7893 25.4775 15.6775 25.2217 15.6493C24.9648 15.6197 24.6968 15.7096 24.4177 15.9189L23.2533 16.7922L22.9243 16.3536ZM25.0517 12.0789L28.1142 16.1622L27.6197 16.533L24.5572 12.4497L25.0517 12.0789Z" fill="white"/>
<path d="M29.6695 15.1844L27.2012 10.7168L29.8974 9.22715L30.1626 9.70707L28.0073 10.8978L28.8413 12.4074L30.857 11.2938L31.1221 11.7737L29.1065 12.8873L29.9453 14.4056L32.1355 13.1955L32.4006 13.6755L29.6695 15.1844Z" fill="white"/>
<path d="M37.8564 7.67881L37.2754 7.88896C37.1806 7.73427 37.0674 7.60921 36.9357 7.51378C36.8056 7.41777 36.6641 7.34886 36.5113 7.30702C36.3594 7.26306 36.2021 7.24576 36.0395 7.25513C35.8768 7.2645 35.7159 7.298 35.5566 7.35562C35.2661 7.46069 35.0295 7.62928 34.8467 7.86139C34.6656 8.09294 34.5572 8.37675 34.5216 8.71284C34.4875 9.04836 34.5456 9.42384 34.6959 9.83928C34.8461 10.2547 35.0417 10.5805 35.2825 10.8166C35.5249 11.0521 35.7897 11.2009 36.0771 11.263C36.366 11.3245 36.6558 11.3027 36.9462 11.1976C37.1056 11.14 37.2507 11.0628 37.3817 10.966C37.5127 10.8691 37.6228 10.756 37.712 10.6266C37.8021 10.4951 37.8665 10.3508 37.9051 10.1938C37.9447 10.0347 37.9517 9.86613 37.9262 9.68815L38.5072 9.47801C38.5521 9.73903 38.5519 9.98727 38.5063 10.2227C38.4608 10.4582 38.3767 10.6749 38.2541 10.873C38.1309 11.0694 37.975 11.2415 37.7864 11.3892C37.5994 11.5363 37.3849 11.6536 37.1428 11.7412C36.7336 11.8892 36.3336 11.9208 35.9427 11.8362C35.5518 11.7515 35.1983 11.5579 34.8822 11.2554C34.5662 10.9529 34.3166 10.5487 34.1336 10.0426C33.9506 9.53662 33.8838 9.06627 33.9332 8.63159C33.9826 8.19691 34.1305 7.822 34.3768 7.50685C34.6231 7.1917 34.9508 6.96012 35.36 6.81211C35.6021 6.72455 35.842 6.6775 36.0798 6.67095C36.3192 6.66384 36.5494 6.69715 36.7703 6.77089C36.9907 6.84306 37.1937 6.95508 37.3793 7.10694C37.5644 7.25724 37.7234 7.44786 37.8564 7.67881Z" fill="white"/>
<path d="M43.341 7.42348C43.4528 7.95006 43.4544 8.42532 43.3457 8.84926C43.237 9.2732 43.039 9.6244 42.7516 9.90284C42.4642 10.1813 42.1076 10.3657 41.6818 10.4562C41.256 10.5466 40.8552 10.523 40.4795 10.3854C40.1038 10.2478 39.7801 10.0074 39.5085 9.66418C39.2369 9.32101 39.0452 8.88613 38.9333 8.35956C38.8215 7.83298 38.8199 7.35772 38.9286 6.93378C39.0373 6.50983 39.2354 6.15864 39.5227 5.8802C39.8101 5.60175 40.1667 5.41732 40.5925 5.32689C41.0183 5.23645 41.4191 5.26005 41.7948 5.39767C42.1705 5.53528 42.4942 5.77568 42.7658 6.11885C43.0374 6.46203 43.2292 6.8969 43.341 7.42348ZM42.7559 7.54774C42.6641 7.11543 42.5143 6.76592 42.3065 6.49922C42.1003 6.23217 41.8583 6.04832 41.5804 5.94767C41.3042 5.84667 41.0149 5.82827 40.7126 5.89247C40.4103 5.95667 40.1527 6.09122 39.9397 6.29611C39.7284 6.50065 39.582 6.767 39.5005 7.09514C39.4206 7.42293 39.4266 7.80298 39.5184 8.2353C39.6102 8.66761 39.7592 9.01729 39.9654 9.28434C40.1732 9.55104 40.4153 9.73489 40.6915 9.83589C40.9693 9.93654 41.2594 9.95477 41.5617 9.89057C41.864 9.82637 42.1208 9.69199 42.3322 9.48745C42.5451 9.28256 42.6915 9.01621 42.7714 8.68842C42.8529 8.36028 42.8477 7.98005 42.7559 7.54774Z" fill="white"/>
<path d="M45.3106 9.70555L44.9492 4.61426L46.7292 4.48792C47.0838 4.46274 47.3807 4.5033 47.6198 4.60959C47.8587 4.71423 48.0419 4.8653 48.1691 5.0628C48.2963 5.25866 48.3687 5.48088 48.3864 5.72948C48.4019 5.94825 48.3758 6.13166 48.308 6.27972C48.2419 6.42766 48.1488 6.54753 48.0287 6.63934C47.9103 6.73103 47.7796 6.80193 47.6365 6.85206L47.6401 6.90178C47.7966 6.90067 47.9571 6.94424 48.1216 7.03251C48.2861 7.12077 48.4279 7.25395 48.5472 7.43204C48.6664 7.61013 48.7356 7.83342 48.7546 8.1019C48.7728 8.35713 48.731 8.59079 48.6295 8.80287C48.528 9.01496 48.3563 9.18955 48.1145 9.32664C47.8727 9.46373 47.5513 9.5465 47.1502 9.57497L45.3106 9.70555ZM45.8883 9.11487L47.1114 9.02806C47.5141 8.99947 47.7945 8.90128 47.9525 8.7335C48.112 8.56394 48.1838 8.36729 48.1679 8.14355C48.1557 7.97119 48.1005 7.8152 48.0023 7.67559C47.904 7.53432 47.7705 7.42554 47.6019 7.34923C47.4331 7.27126 47.2377 7.24016 47.0156 7.25592L45.7627 7.34485L45.8883 9.11487ZM45.7245 6.80788L46.8681 6.72671C47.0537 6.71354 47.2185 6.66519 47.3625 6.58169C47.5081 6.49806 47.6202 6.38683 47.6986 6.24801C47.7787 6.10908 47.8124 5.95011 47.7997 5.77112C47.7838 5.54738 47.6924 5.36315 47.5256 5.21842C47.3586 5.07203 47.1061 5.01084 46.768 5.03483L45.6046 5.11741L45.7245 6.80788Z" fill="white"/>
<path d="M50.4613 9.42246L50.7676 4.31836L52.4922 4.42184C52.8926 4.44586 53.2156 4.53778 53.4611 4.69758C53.7084 4.85582 53.8862 5.06075 53.9945 5.31236C54.1028 5.56398 54.1479 5.84015 54.1299 6.14088C54.1119 6.44161 54.034 6.71124 53.8963 6.94976C53.7602 7.18838 53.5607 7.37318 53.2977 7.50413C53.0349 7.63343 52.7049 7.68617 52.3078 7.66234L51.0716 7.58817L51.1045 7.03988L52.3207 7.11285C52.5949 7.1293 52.8179 7.09516 52.9897 7.01042C53.1615 6.92569 53.2897 6.80498 53.3741 6.6483C53.4603 6.49006 53.5095 6.30876 53.5218 6.1044C53.5341 5.90003 53.5068 5.71498 53.4401 5.54922C53.375 5.38357 53.2612 5.25002 53.0989 5.14857C52.9367 5.04546 52.7168 4.98558 52.4394 4.96893L51.3528 4.90374L51.0794 9.45954L50.4613 9.42246Z" fill="white"/>
<path d="M55.1326 9.76186L56.0137 4.73438L59.0478 5.2661L58.9532 5.80617L56.5278 5.38113L56.2301 7.07987L58.4984 7.47737L58.4037 8.01743L56.1355 7.61993L55.8361 9.32848L58.3007 9.76041L58.2061 10.3005L55.1326 9.76186Z" fill="white"/>
<path d="M61.0439 5.67188L61.7455 5.90008L62.0843 10.4657L62.1412 10.4842L65.1014 6.99178L65.8029 7.21998L64.2239 12.0737L63.6741 11.8949L64.8737 8.20715L64.8263 8.19173L62.1099 11.386L61.579 11.2133L61.2619 7.03219L61.2145 7.01677L60.0148 10.7045L59.465 10.5256L61.0439 5.67188Z" fill="white"/>
<path d="M65.634 12.6877L67.8643 8.09668L70.635 9.44269L70.3954 9.93587L68.1806 8.85993L67.427 10.4112L69.4984 11.4174L69.2588 11.9106L67.1875 10.9044L66.4295 12.4646L68.6802 13.558L68.4406 14.0512L65.634 12.6877Z" fill="white"/>
<path d="M69.6211 14.6518L72.4189 10.3828L72.9359 10.7216L71.69 12.6226L73.9662 14.1144L75.2121 12.2134L75.7291 12.5522L72.9313 16.8212L72.4143 16.4824L73.6657 14.573L71.3895 13.0812L70.1381 14.9906L69.6211 14.6518Z" fill="white"/>
<path d="M74.2446 17.7695L77.6133 13.9414L78.0768 14.3493L76.5767 16.054L78.6179 17.8502L80.118 16.1455L80.5815 16.5535L77.2128 20.3815L76.7493 19.9736L78.256 18.2614L76.2148 16.4652L74.7081 18.1774L74.2446 17.7695Z" fill="white"/>
<path d="M80.9732 19.9592L81.9047 21.0799C82.1386 21.3614 82.2898 21.637 82.3583 21.9067C82.4278 22.1777 82.4202 22.4328 82.3356 22.6719C82.252 22.9122 82.0963 23.1271 81.8686 23.3163C81.6409 23.5056 81.398 23.622 81.14 23.6656C80.8831 23.7104 80.6246 23.6765 80.3644 23.5639C80.1054 23.4526 79.8588 23.2563 79.6249 22.9748L78.3999 21.501L82.3301 18.2344L82.7256 18.7103L79.21 21.6324L80.0394 22.6303C80.1883 22.8094 80.3501 22.9312 80.5249 22.9958C80.702 23.0605 80.8741 23.0776 81.0411 23.0469C81.2105 23.0165 81.3592 22.9481 81.4871 22.8417C81.6752 22.6854 81.7769 22.4786 81.7924 22.2213C81.8091 21.963 81.7058 21.6995 81.4825 21.4308L80.551 20.3101L80.9732 19.9592ZM85.3543 21.8728L81.4241 25.1395L81.0285 24.6635L84.9587 21.3969L85.3543 21.8728Z" fill="white"/>
<path d="M82.4633 26.6951L86.8018 24.041L88.4036 26.6594L87.9375 26.9445L86.6571 24.8515L85.1912 25.7483L86.3886 27.7057L85.9226 27.9908L84.7251 26.0334L83.2507 26.9354L84.5519 29.0623L84.0858 29.3474L82.4633 26.6951Z" fill="white"/>
<path d="M4.51188 49.969L6.29451 49.8887L6.30932 50.2173C6.41732 50.3255 6.56734 50.4252 6.75938 50.5164C6.95316 50.6091 7.2093 50.6832 7.52781 50.7387C7.84805 50.7958 8.25268 50.825 8.74171 50.8262L10.8978 50.8388L11.0342 53.8663L6.48299 54.0714L6.50946 54.659L4.73679 54.7388L4.71031 54.1513L5.93525 54.0961L5.77325 50.5009L4.53836 50.5566L4.51188 49.969ZM6.34253 50.9543L6.45651 53.4838L10.46 53.3034L10.3752 51.4212L8.76819 51.4138C8.39549 51.4106 8.05698 51.3909 7.75265 51.3548C7.44999 51.3185 7.18071 51.2666 6.94482 51.1991C6.71059 51.1314 6.50983 51.0498 6.34253 50.9543Z" fill="white"/>
<path d="M11.1299 55.4121L11.2393 56.0081L7.30221 56.7312L7.31118 56.78L11.7507 58.7924L11.8584 59.3786L6.8564 60.2973L6.74514 59.6916L10.6725 58.9702L10.6635 58.9214L6.23553 56.917L6.12787 56.3308L11.1299 55.4121Z" fill="white"/>
<path d="M7.49213 62.68L7.29006 62.0643L12.7241 62.2534L12.923 62.8596L8.65789 66.2319L8.45582 65.6162L12.0626 62.8272L12.0501 62.7893L7.49213 62.68ZM9.46111 62.2856L10.2756 64.7672L9.75463 64.9382L8.94015 62.4565L9.46111 62.2856Z" fill="white"/>
<path d="M15.2244 68.394L14.7255 68.6243L13.6913 66.3836L9.54553 68.297L9.28593 67.7345L13.9307 65.5908L15.2244 68.394Z" fill="white"/>
<path d="M11.1586 71.7625L15.4971 69.1084L15.8185 69.6338L13.8865 70.8157L15.3017 73.129L17.2337 71.9471L17.5551 72.4724L13.2166 75.1265L12.8952 74.6012L14.8356 73.4141L13.4204 71.1008L11.48 72.2879L11.1586 71.7625Z" fill="white"/>
<path d="M19.28 78.7091C18.8655 79.0536 18.4451 79.2765 18.0188 79.3778C17.5924 79.479 17.1889 79.4672 16.8082 79.3424C16.4276 79.2175 16.0979 78.9875 15.8193 78.6523C15.5407 78.3171 15.3748 77.9509 15.3217 77.5538C15.2685 77.1567 15.3307 76.7579 15.5082 76.3572C15.6857 75.9566 15.9817 75.584 16.3962 75.2395C16.8107 74.895 17.2312 74.6721 17.6575 74.5708C18.0838 74.4695 18.4873 74.4813 18.868 74.6062C19.2487 74.7311 19.5783 74.9611 19.8569 75.2963C20.1355 75.6315 20.3014 75.9977 20.3546 76.3947C20.4078 76.7918 20.3456 77.1907 20.1681 77.5913C19.9906 77.992 19.6946 78.3646 19.28 78.7091ZM18.8972 78.2485C19.2375 77.9657 19.4774 77.67 19.6169 77.3616C19.7575 77.0544 19.8076 76.7542 19.7673 76.4611C19.728 76.1692 19.6095 75.9043 19.4117 75.6664C19.2139 75.4284 18.9746 75.2628 18.6938 75.1696C18.4141 75.0776 18.1098 75.072 17.781 75.1528C17.4533 75.2348 17.1193 75.4172 16.779 75.7001C16.4387 75.9829 16.1983 76.2779 16.0578 76.5851C15.9183 76.8936 15.8682 77.1937 15.9074 77.4856C15.9477 77.7787 16.0668 78.0443 16.2645 78.2822C16.4623 78.5202 16.7011 78.6851 16.9809 78.7771C17.2617 78.8703 17.5659 78.8759 17.8936 78.7939C18.2224 78.7132 18.5569 78.5314 18.8972 78.2485Z" fill="white"/>
<path d="M24.1973 82.0845L23.7409 81.6677C23.8337 81.5118 23.8918 81.3533 23.9151 81.1923C23.9396 81.0325 23.9348 80.8751 23.9007 80.7202C23.869 80.5652 23.8111 80.4179 23.7272 80.2782C23.6432 80.1386 23.5386 80.0116 23.4135 79.8973C23.1853 79.689 22.9259 79.5578 22.6353 79.504C22.346 79.4513 22.0442 79.4873 21.7299 79.6121C21.417 79.7381 21.1115 79.9642 20.8134 80.2906C20.5154 80.617 20.3179 80.9417 20.2208 81.2648C20.125 81.5891 20.1165 81.8929 20.1952 82.1763C20.2751 82.4608 20.4292 82.7072 20.6574 82.9156C20.7826 83.0299 20.9185 83.1225 21.0652 83.1935C21.2119 83.2644 21.3633 83.3093 21.5194 83.3281C21.6778 83.3467 21.8356 83.3366 21.9926 83.2978C22.1519 83.2588 22.3045 83.1866 22.4502 83.0812L22.9066 83.4979C22.6964 83.6592 22.4764 83.7744 22.2467 83.8437C22.017 83.9129 21.7859 83.9393 21.5535 83.9228C21.3222 83.9051 21.0972 83.8471 20.8787 83.7488C20.6615 83.6516 20.4577 83.5162 20.2676 83.3426C19.9461 83.049 19.7319 82.7095 19.625 82.3239C19.5181 81.9383 19.5251 81.5352 19.646 81.1145C19.7668 80.6939 20.0087 80.2848 20.3717 79.8873C20.7347 79.4898 21.1202 79.2117 21.5282 79.0533C21.9361 78.8948 22.3369 78.8513 22.7306 78.9228C23.1243 78.9943 23.4819 79.1768 23.8034 79.4704C23.9935 79.644 24.1469 79.8346 24.2633 80.0422C24.381 80.2509 24.4586 80.4703 24.4961 80.7002C24.5347 80.929 24.5299 81.1609 24.4818 81.3959C24.4348 81.6298 24.3399 81.8593 24.1973 82.0845Z" fill="white"/>
<path d="M25.2755 81.5875L25.5986 81.1445L28.6913 83.4006L28.3682 83.8435L27.0715 82.8976L24.3866 86.5782L23.8873 86.214L26.5722 82.5334L25.2755 81.5875Z" fill="white"/>
<path d="M29.0566 83.5791L29.583 83.8837L27.5706 87.3608L27.6137 87.3858L32.042 85.3069L32.5597 85.6065L30.003 90.0241L29.468 89.7145L31.4754 86.246L31.4323 86.221L27.0177 88.2963L26.5 87.9967L29.0566 83.5791Z" fill="white"/>
<path d="M33.835 86.2129L34.4089 86.4423L33.7761 88.0252C33.6823 88.2597 33.6495 88.4604 33.6776 88.6273C33.7064 88.7927 33.7844 88.9331 33.9119 89.0484C34.04 89.1623 34.2058 89.2599 34.4095 89.3413C34.5375 89.3925 34.6635 89.4375 34.7876 89.4763C34.9122 89.5136 35.0353 89.5459 35.1569 89.573C35.28 89.6007 35.4016 89.6234 35.5216 89.641C35.6432 89.6591 35.7637 89.6733 35.8831 89.6835L35.6758 90.2018C35.5595 90.1929 35.4452 90.1812 35.3329 90.1667C35.2221 90.1529 35.1083 90.1333 34.9913 90.108C34.8759 90.0834 34.7536 90.0515 34.6243 90.0123C34.4957 89.9716 34.355 89.9207 34.2022 89.8597C33.8752 89.7289 33.6124 89.5693 33.414 89.3808C33.2171 89.193 33.0973 88.9688 33.0547 88.7084C33.0136 88.4487 33.0628 88.1444 33.2022 87.7958L33.835 86.2129ZM36.723 87.3675L37.297 87.5969L35.4023 92.3363L34.8284 92.1069L36.723 87.3675Z" fill="white"/>
<path d="M37.038 92.8508L38.3564 87.9199L41.3323 88.7156L41.1907 89.2453L38.8119 88.6093L38.3664 90.2754L40.5911 90.8702L40.4495 91.3999L38.2248 90.805L37.7767 92.4808L40.194 93.1271L40.0524 93.6568L37.038 92.8508Z" fill="white"/>
<path d="M46.4786 91.1729L45.8668 91.0853C45.8558 90.9042 45.8146 90.7405 45.7432 90.5944C45.6734 90.4484 45.5808 90.3211 45.4655 90.2122C45.352 90.102 45.2213 90.0128 45.0733 89.9447C44.9252 89.8765 44.7674 89.8304 44.5996 89.8064C44.2937 89.7627 44.0055 89.8003 43.735 89.9194C43.4662 90.0387 43.237 90.2384 43.0476 90.5185C42.8598 90.7987 42.7346 91.1576 42.6721 91.5951C42.6095 92.0327 42.629 92.4122 42.7307 92.7339C42.834 93.0559 42.998 93.3118 43.2226 93.5017C43.4489 93.6918 43.7149 93.8087 44.0209 93.8525C44.1886 93.8765 44.3531 93.8765 44.5143 93.8526C44.6755 93.8287 44.8259 93.7805 44.9655 93.7082C45.1069 93.6344 45.2316 93.5373 45.3395 93.4167C45.4492 93.2948 45.5347 93.1493 45.5958 92.9801L46.2076 93.0676C46.1246 93.3193 46.0077 93.5383 45.8568 93.7249C45.7059 93.9114 45.5298 94.0633 45.3284 94.1805C45.1273 94.2961 44.9087 94.3748 44.6728 94.4165C44.4385 94.4586 44.1939 94.4613 43.939 94.4249C43.5081 94.3632 43.1399 94.2032 42.8345 93.9446C42.5291 93.6861 42.3079 93.349 42.171 92.9333C42.0341 92.5176 42.0037 92.0434 42.0799 91.5105C42.1562 90.9776 42.3183 90.5308 42.5662 90.1702C42.8142 89.8095 43.121 89.5479 43.4866 89.3854C43.8522 89.2229 44.2505 89.1724 44.6815 89.234C44.9364 89.2705 45.1704 89.3417 45.3835 89.4478C45.5983 89.554 45.7859 89.6916 45.9463 89.8606C46.107 90.0279 46.2336 90.2222 46.3262 90.4436C46.4189 90.6633 46.4698 90.9064 46.4786 91.1729Z" fill="white"/>
<path d="M50.3253 94.7969L48.6176 92.4191L47.9896 92.4066L47.9428 94.7493L47.3247 94.7369L47.4268 89.6328L48.0448 89.6452L48.0006 91.8583L48.2697 91.8637L50.3576 89.6914L51.0953 89.7062L48.9869 91.9079L51.063 94.8117L50.3253 94.7969Z" fill="white"/>
<path d="M51.9043 89.75L52.5063 89.6831L52.9482 93.6604L52.9976 93.6549L55.3191 89.3706L55.9112 89.3048L56.4727 94.3578L55.8608 94.4258L55.4199 90.4584L55.3706 90.4639L53.0579 94.7373L52.4657 94.8031L51.9043 89.75Z" fill="white"/>
<path d="M58.7191 93.9508L57.5293 88.9873L60.5248 88.2692L60.6526 88.8024L58.2582 89.3764L58.6602 91.0535L60.8996 90.5167L61.0274 91.0499L58.788 91.5867L59.1923 93.2735L61.6256 92.6902L61.7534 93.2234L58.7191 93.9508Z" fill="white"/>
<path d="M63.4116 87.9438L63.2061 87.4355L66.7549 86.0003L66.9605 86.5086L65.4725 87.1103L67.1806 91.3338L66.6077 91.5656L64.8995 87.3421L63.4116 87.9438Z" fill="white"/>
<path d="M69.3966 90.3667L66.998 85.8613L69.7171 84.4137L69.9748 84.8977L67.8013 86.0549L68.6117 87.5772L70.6445 86.495L70.9021 86.979L68.8694 88.0612L69.6845 89.5923L71.8932 88.4164L72.1509 88.9004L69.3966 90.3667Z" fill="white"/>
<path d="M71.0991 83.5388L73.3804 84.5643L73.4135 84.5419L73.3166 82.0426L73.9206 81.6351L74.0176 84.6521L76.7789 85.8715L76.1749 86.279L73.916 85.2866L73.8829 85.3089L73.9574 87.7752L73.3534 88.1827L73.2895 85.1434L70.4951 83.9463L71.0991 83.5388Z" fill="white"/>
<path d="M77.5972 85.2509L74.2285 81.4229L74.6921 81.0149L76.1922 82.7196L78.2333 80.9234L76.7332 79.2187L77.1968 78.8108L80.5655 82.6389L80.1019 83.0468L78.5952 81.3346L76.5541 83.1308L78.0608 84.843L77.5972 85.2509Z" fill="white"/>
<path d="M83.1148 76.0433C83.524 76.3932 83.8143 76.7695 83.986 77.1721C84.1576 77.5747 84.2141 77.9739 84.1554 78.3698C84.0968 78.7656 83.9259 79.129 83.643 79.4598C83.36 79.7906 83.0276 80.0157 82.6456 80.1351C82.2637 80.2544 81.8605 80.2606 81.4362 80.1534C81.0118 80.0463 80.5951 79.8178 80.186 79.4679C79.7768 79.118 79.4864 78.7417 79.3148 78.3391C79.1431 77.9365 79.0867 77.5372 79.1453 77.1414C79.204 76.7456 79.3748 76.3822 79.6578 76.0514C79.9407 75.7206 80.2732 75.4955 80.6551 75.3761C81.0371 75.2567 81.4402 75.2506 81.8646 75.3578C82.289 75.4649 82.7057 75.6934 83.1148 76.0433ZM82.726 76.4979C82.3902 76.2106 82.0586 76.0244 81.7314 75.9391C81.4053 75.8526 81.1013 75.8539 80.8196 75.9431C80.5389 76.031 80.2981 76.1924 80.0972 76.4272C79.8964 76.6621 79.7737 76.9256 79.7293 77.2178C79.6861 77.5087 79.7319 77.8092 79.8668 78.1192C80.0029 78.428 80.2389 78.726 80.5747 79.0133C80.9106 79.3006 81.2416 79.4874 81.5677 79.574C81.8949 79.6592 82.1989 79.6579 82.4796 79.57C82.7614 79.4808 83.0027 79.3188 83.2036 79.084C83.4044 78.8491 83.5265 78.5862 83.5698 78.2953C83.6142 78.0031 83.5684 77.7026 83.4323 77.3938C83.2973 77.0838 83.0619 76.7852 82.726 76.4979Z" fill="white"/>
<path d="M86.0175 76.4292L85.5378 76.1248L85.6179 75.9985C85.7318 75.819 85.7629 75.6429 85.7111 75.4703C85.6593 75.2977 85.5188 75.1082 85.2897 74.9018C85.0614 74.6939 84.7404 74.4479 84.3265 74.1636L82.2956 72.7685L83.9622 70.1423L88.2717 72.8773L87.9405 73.3991L84.0939 70.958L83.0737 72.5656L84.748 73.7227C85.1891 74.0262 85.5472 74.3115 85.8224 74.5786C86.0976 74.8458 86.2661 75.1151 86.328 75.3865C86.3899 75.658 86.3202 75.9523 86.119 76.2693L86.0175 76.4292Z" fill="white"/>
<path d="M88.838 65.9674C89.3282 66.19 89.7116 66.4708 89.9883 66.8099C90.2649 67.149 90.43 67.5168 90.4836 67.9134C90.5371 68.3099 90.4739 68.7064 90.2939 69.1027C90.1139 69.4991 89.857 69.8076 89.5233 70.0283C89.1895 70.249 88.8039 70.3668 88.3665 70.3817C87.9291 70.3966 87.4653 70.2928 86.9752 70.0703C86.485 69.8477 86.1016 69.5669 85.8249 69.2278C85.5483 68.8886 85.3832 68.5208 85.3296 68.1243C85.2761 67.7277 85.3394 67.3313 85.5193 66.9349C85.6993 66.5385 85.9562 66.23 86.2899 66.0093C86.6237 65.7886 87.0093 65.6708 87.4467 65.6559C87.8841 65.641 88.3479 65.7448 88.838 65.9674ZM88.5908 66.512C88.1883 66.3293 87.8181 66.2424 87.4801 66.2514C87.1428 66.2588 86.8512 66.3444 86.6053 66.5083C86.3601 66.6707 86.1736 66.8925 86.0458 67.1739C85.918 67.4553 85.8734 67.7425 85.9119 68.0355C85.9511 68.327 86.0785 68.603 86.2942 68.8633C86.5106 69.1221 86.82 69.3429 87.2225 69.5256C87.6249 69.7083 87.9947 69.796 88.332 69.7886C88.67 69.7796 88.9616 69.694 89.2069 69.5316C89.4528 69.3677 89.6396 69.1451 89.7674 68.8637C89.8952 68.5823 89.9395 68.2959 89.9003 68.0044C89.8618 67.7114 89.7344 67.4354 89.518 67.1766C89.3022 66.9163 88.9932 66.6947 88.5908 66.512Z" fill="white"/>
<path d="M87.9324 60.5584L88.4556 60.7223L87.7197 63.0721L92.0672 64.4337L91.8825 65.0235L87.0117 63.498L87.9324 60.5584Z" fill="white"/>
<path d="M88.1475 59.8721L88.2577 59.274L92.2086 60.002L92.2177 59.953L88.7725 56.4799L88.8809 55.8917L93.9005 56.8166L93.7885 57.4244L89.8473 56.6982L89.8383 56.7473L93.2754 60.2087L93.1671 60.797L88.1475 59.8721Z" fill="white"/>
<path d="M89.0762 54.3496L89.0993 53.7419L93.1139 53.8948L93.1158 53.845L89.2074 50.9029L89.2301 50.3051L94.3305 50.4993L94.307 51.1169L90.3024 50.9645L90.3005 51.0143L94.1993 53.9461L94.1766 54.5438L89.0762 54.3496Z" fill="white"/>
<path d="M90.8511 42.466C91.5488 42.466 92.1144 41.9004 92.1144 41.2027C92.1144 40.505 91.5488 39.9395 90.8511 39.9395C90.1535 39.9395 89.5879 40.505 89.5879 41.2027C89.5879 41.9004 90.1535 42.466 90.8511 42.466Z" fill="white"/>
<path d="M9.27694 42.466C9.97462 42.466 10.5402 41.9004 10.5402 41.2027C10.5402 40.505 9.97462 39.9395 9.27694 39.9395C8.57926 39.9395 8.01367 40.505 8.01367 41.2027C8.01367 41.9004 8.57926 42.466 9.27694 42.466Z" fill="white"/>
</svg>
