<svg width="99" height="99" viewBox="0 0 99 99" fill="none" xmlns="http://www.w3.org/2000/svg">
<path fill-rule="evenodd" clip-rule="evenodd" d="M49.5 0.740648C22.5709 0.740648 0.740648 22.571 0.740648 49.5C0.740648 76.4291 22.5709 98.2593 49.5 98.2593C76.429 98.2593 98.2593 76.4291 98.2593 49.5C98.2593 22.571 76.429 0.740648 49.5 0.740648ZM0 49.5C0 22.1619 22.1619 0 49.5 0C76.8381 0 99 22.1619 99 49.5C99 76.8381 76.8381 99 49.5 99C22.1619 99 0 76.8381 0 49.5Z" fill="white"/>
<path fill-rule="evenodd" clip-rule="evenodd" d="M49.5539 13.2467C29.502 13.2467 13.2467 29.502 13.2467 49.5539C13.2467 69.6058 29.502 85.861 49.5539 85.861C69.6058 85.861 85.861 69.6058 85.861 49.5539C85.861 29.502 69.6058 13.2467 49.5539 13.2467ZM12.5449 49.5539C12.5449 29.1144 29.1144 12.5449 49.5539 12.5449C69.9934 12.5449 86.5628 29.1144 86.5628 49.5539C86.5628 69.9934 69.9934 86.5629 49.5539 86.5629C29.1144 86.5629 12.5449 69.9934 12.5449 49.5539Z" fill="white"/>
<path d="M68.8793 33.7697H59.2613V31.3077C59.2603 30.4307 58.9115 29.59 58.2914 28.9699C57.6713 28.3498 56.8306 28.001 55.9536 28H44.9062C44.0292 28.001 43.1885 28.3498 42.5684 28.9699C41.9483 29.59 41.5995 30.4307 41.5985 31.3077V33.7697H31.9806C30.9252 33.7709 29.9134 34.1907 29.1672 34.9369C28.4209 35.6832 28.0012 36.6949 28 37.7503V62.9832C28.0012 64.0385 28.4209 65.0503 29.1672 65.7965C29.9134 66.5428 30.9252 66.9626 31.9806 66.9637H68.8793C69.9346 66.9626 70.9464 66.5428 71.6926 65.7965C72.4389 65.0503 72.8586 64.0385 72.8598 62.9832V37.7503C72.8586 36.6949 72.4389 35.6832 71.6926 34.9369C70.9464 34.1907 69.9346 33.7709 68.8793 33.7697ZM43.0938 31.3077C43.0942 30.8271 43.2853 30.3664 43.6251 30.0266C43.9649 29.6868 44.4256 29.4957 44.9062 29.4953H55.9536C56.4342 29.4957 56.8949 29.6868 57.2347 30.0266C57.5745 30.3664 57.7656 30.8271 57.766 31.3077V33.7697H43.0938V31.3077ZM31.9806 35.265H68.8793C69.5381 35.2658 70.1698 35.5279 70.6357 35.9938C71.1016 36.4597 71.3637 37.0914 71.3645 37.7503V39.9185H29.4953V37.7503C29.4961 37.0914 29.7582 36.4597 30.2241 35.9938C30.69 35.5279 31.3217 35.2658 31.9806 35.265ZM71.3645 59.3174H29.4953V41.4138H71.3645V59.3174ZM68.8793 65.4677H31.9806C31.3218 65.4669 30.6903 65.2049 30.2244 64.7391C29.7585 64.2734 29.4963 63.6419 29.4953 62.9832V60.8127H71.3645V62.9824C71.3637 63.6413 71.1016 64.273 70.6357 64.7389C70.1698 65.2048 69.5381 65.4669 68.8793 65.4677Z" fill="white"/>
<path d="M44.3422 53.0447H47.6124V56.315C47.6124 56.5133 47.6912 56.7034 47.8314 56.8436C47.9716 56.9839 48.1618 57.0626 48.3601 57.0626H52.5007C52.699 57.0626 52.8891 56.9839 53.0293 56.8436C53.1696 56.7034 53.2483 56.5133 53.2483 56.315V53.0447H56.5186C56.7169 53.0447 56.9071 52.9659 57.0473 52.8257C57.1875 52.6855 57.2663 52.4953 57.2663 52.297V48.1572C57.2663 47.9589 57.1875 47.7687 57.0473 47.6285C56.9071 47.4883 56.7169 47.4095 56.5186 47.4095H53.2483V44.1393C53.2483 43.941 53.1696 43.7508 53.0293 43.6106C52.8891 43.4704 52.699 43.3916 52.5007 43.3916H48.3594C48.1611 43.3916 47.9709 43.4704 47.8307 43.6106C47.6905 43.7508 47.6117 43.941 47.6117 44.1393V47.4095H44.3414C44.1431 47.4095 43.9529 47.4883 43.8127 47.6285C43.6725 47.7687 43.5938 47.9589 43.5938 48.1572V52.297C43.5938 52.4953 43.6725 52.6855 43.8127 52.8257C43.9529 52.9659 44.1439 53.0447 44.3422 53.0447ZM45.0898 48.9049H48.3601C48.5584 48.9049 48.7486 48.8261 48.8888 48.6859C49.029 48.5457 49.1078 48.3555 49.1078 48.1572V44.8869H51.753V48.1572C51.753 48.3555 51.8318 48.5457 51.972 48.6859C52.1122 48.8261 52.3024 48.9049 52.5007 48.9049H55.7709V51.5494H52.5007C52.3024 51.5494 52.1122 51.6281 51.972 51.7683C51.8318 51.9086 51.753 52.0987 51.753 52.297V55.5673H49.107V52.297C49.107 52.0987 49.0282 51.9086 48.888 51.7683C48.7478 51.6281 48.5576 51.5494 48.3594 51.5494H45.0891L45.0898 48.9049Z" fill="white"/>
<path d="M4.30303 52.1111L9.51541 51.6835L9.56719 52.3146L4.91473 52.6963L5.13021 55.3229L9.78267 54.9412L9.83445 55.5724L4.62207 56L4.30303 52.1111Z" fill="white"/>
<path d="M9.48423 49.8505L4.25977 49.6123L4.4035 46.4593L4.96472 46.4848L4.84983 49.0052L6.61513 49.0857L6.72257 46.7286L7.2838 46.7542L7.17635 49.1113L8.95185 49.1922L9.0686 46.631L9.62983 46.6566L9.48423 49.8505Z" fill="white"/>
<path d="M9.7272 45.3494L4.56738 44.4961L4.8557 42.7526C4.92264 42.3478 5.05042 42.029 5.23904 41.7962C5.42627 41.5615 5.65361 41.4023 5.92107 41.3189C6.18853 41.2354 6.47426 41.2188 6.77828 41.2691C7.08229 41.3194 7.34831 41.4272 7.57634 41.5926C7.80465 41.7563 7.97146 41.9789 8.07677 42.2603C8.1804 42.5415 8.19902 42.8828 8.13264 43.2842L7.92599 44.5338L7.37171 44.4422L7.57503 43.2127C7.62086 42.9355 7.60979 42.7051 7.54183 42.5213C7.47387 42.3375 7.36467 42.1943 7.21425 42.0918C7.06242 41.9873 6.88321 41.918 6.67662 41.8838C6.47002 41.8497 6.27887 41.8577 6.10317 41.9081C5.92775 41.9567 5.77982 42.0582 5.65939 42.2126C5.53728 42.3667 5.45303 42.584 5.40664 42.8645L5.22499 43.9629L9.83053 44.7245L9.7272 45.3494Z" fill="white"/>
<path d="M8.34429 35.4664L8.16421 36.0736C7.97892 36.0577 7.80685 36.075 7.64802 36.1256C7.48968 36.1745 7.34674 36.2493 7.21921 36.35C7.09054 36.4486 6.9806 36.5678 6.88939 36.7076C6.79819 36.8475 6.7279 37.0007 6.67852 37.1672C6.58848 37.4707 6.58362 37.7685 6.66395 38.0605C6.74476 38.3508 6.91296 38.6129 7.16857 38.8467C7.42465 39.079 7.76977 39.2595 8.20393 39.3882C8.63808 39.517 9.0258 39.5539 9.36709 39.4988C9.70886 39.4421 9.99276 39.3141 10.2188 39.1148C10.4453 38.9139 10.6036 38.6616 10.6936 38.358C10.743 38.1915 10.7676 38.0248 10.7674 37.8578C10.7672 37.6909 10.7409 37.5312 10.6884 37.3789C10.6347 37.2245 10.5549 37.0836 10.4488 36.9563C10.3416 36.8268 10.2068 36.7185 10.0445 36.6312L10.2245 36.0241C10.4672 36.1458 10.6719 36.297 10.8384 36.4778C11.005 36.6586 11.1327 36.8599 11.2214 37.0815C11.3085 37.3027 11.3556 37.536 11.3628 37.7814C11.3704 38.0251 11.3367 38.2735 11.2616 38.5265C11.1348 38.9541 10.9176 39.3034 10.6099 39.5744C10.3022 39.8454 9.92746 40.0193 9.48563 40.096C9.0438 40.1727 8.55848 40.1327 8.02966 39.9758C7.50084 39.819 7.07215 39.5879 6.7436 39.2827C6.41504 38.9775 6.19569 38.6275 6.08552 38.2325C5.97536 37.8376 5.98369 37.4263 6.11053 36.9987C6.18556 36.7457 6.29272 36.5191 6.432 36.3189C6.57177 36.1171 6.73928 35.9475 6.93453 35.8101C7.12814 35.6722 7.34405 35.5728 7.58227 35.5121C7.81884 35.4508 8.07285 35.4356 8.34429 35.4664Z" fill="white"/>
<path d="M11.4448 30.7309C11.9477 30.9573 12.3415 31.2439 12.6261 31.5904C12.9106 31.937 13.081 32.3134 13.1371 32.7195C13.1932 33.1257 13.1297 33.5321 12.9466 33.9388C12.7635 34.3455 12.5012 34.6625 12.16 34.8897C11.8187 35.1169 11.424 35.2389 10.9758 35.2555C10.5277 35.2722 10.0522 35.1673 9.5492 34.9408C9.04625 34.7144 8.65248 34.4279 8.3679 34.0813C8.08333 33.7347 7.91298 33.3583 7.85687 32.9522C7.80076 32.5461 7.86426 32.1396 8.04739 31.7329C8.23052 31.3262 8.49272 31.0092 8.83401 30.782C9.17529 30.5548 9.57 30.4329 10.0181 30.4162C10.4663 30.3995 10.9418 30.5044 11.4448 30.7309ZM11.1931 31.2897C10.7802 31.1038 10.4006 31.016 10.0543 31.0262C9.70874 31.0349 9.41022 31.1236 9.15876 31.2923C8.90799 31.4595 8.71761 31.6874 8.5876 31.9762C8.4576 32.2649 8.41279 32.5593 8.45316 32.8594C8.49424 33.158 8.62572 33.4403 8.84759 33.7063C9.07016 33.9709 9.38791 34.1961 9.80083 34.382C10.2138 34.5679 10.593 34.6565 10.9386 34.6478C11.2849 34.6376 11.5834 34.5489 11.8342 34.3817C12.0856 34.213 12.2764 33.9843 12.4064 33.6956C12.5364 33.4068 12.5808 33.1132 12.5398 32.8146C12.4994 32.5145 12.3679 32.2322 12.1453 31.9677C11.9235 31.7016 11.6061 31.4757 11.1931 31.2897Z" fill="white"/>
<path d="M14.5207 30.4991L10.1084 27.6914L10.4484 27.1571L12.4133 28.4074L13.9103 26.0547L11.9455 24.8044L12.2855 24.2701L16.6978 27.0778L16.3578 27.6122L14.3843 26.3564L12.8872 28.709L14.8607 29.9648L14.5207 30.4991Z" fill="white"/>
<path d="M17.8528 25.5994L17.4278 26.104L14.6822 21.2974L15.1005 20.8005L20.3043 22.6882L19.8794 23.1928L15.5332 21.5629L15.5071 21.594L17.8528 25.5994ZM16.457 24.1056L18.1698 22.0716L18.5968 22.4312L16.884 24.4651L16.457 24.1056Z" fill="white"/>
<path d="M20.7042 22.167L20.3141 21.7361L20.4275 21.6335C20.5888 21.4875 20.6673 21.3223 20.6633 21.1381C20.6592 20.9538 20.5723 20.7287 20.4026 20.4628C20.2342 20.1957 19.9847 19.8657 19.6541 19.4727L18.0317 17.5441L20.39 15.4088L23.8941 19.2789L23.4254 19.7032L20.2978 16.2488L18.854 17.556L20.1897 19.1528C20.5419 19.5721 20.8172 19.9509 21.0158 20.2893C21.2144 20.6276 21.3072 20.939 21.2943 21.2235C21.2814 21.508 21.1326 21.7792 20.8478 22.037L20.7042 22.167Z" fill="white"/>
<path d="M22.1328 13.9092L22.65 13.5602L24.9552 16.9769L24.9976 16.9483L25.0663 11.93L25.5749 11.5868L28.5037 15.9276L27.978 16.2822L25.6785 12.874L25.6361 12.9026L25.5702 17.9068L25.0616 18.25L22.1328 13.9092Z" fill="white"/>
<path d="M31.4266 14.3891C31.1263 14.5423 30.8323 14.6272 30.5447 14.644C30.2585 14.66 29.9996 14.6114 29.768 14.4982C29.5372 14.3828 29.3534 14.2061 29.2168 13.9681L29.7901 13.6758C29.8788 13.8197 29.9965 13.9231 30.1431 13.9859C30.2891 14.0472 30.4506 14.0699 30.6279 14.054C30.8052 14.0381 30.9833 13.9846 31.1623 13.8933C31.3625 13.7912 31.5221 13.6658 31.6412 13.5172C31.7604 13.3685 31.8322 13.2096 31.8567 13.0404C31.8813 12.8712 31.8518 12.7046 31.7683 12.5408C31.6809 12.3695 31.5614 12.2402 31.41 12.1531C31.2578 12.0645 31.0808 12.0248 30.8791 12.034C30.6774 12.0432 30.4583 12.1081 30.2217 12.2288L29.8486 12.419L29.5934 11.9186L29.9665 11.7283C30.1515 11.6339 30.2968 11.5178 30.4023 11.3799C30.5093 11.2413 30.5713 11.0912 30.5883 10.9296C30.6068 10.7673 30.5743 10.6042 30.4907 10.4405C30.4103 10.2827 30.3054 10.1633 30.1761 10.0821C30.0468 10.0009 29.9018 9.96013 29.7411 9.95988C29.582 9.95886 29.4168 10.0021 29.2454 10.0894C29.0846 10.1714 28.948 10.2783 28.8356 10.4102C28.724 10.5398 28.6516 10.6827 28.6186 10.8391C28.5848 10.9939 28.6036 11.1506 28.6749 11.3091L28.1289 11.5876C28.0135 11.3388 27.978 11.0874 28.0224 10.8335C28.0661 10.5781 28.1731 10.342 28.3434 10.1252C28.5153 9.90757 28.7354 9.73032 29.0039 9.59342C29.292 9.44647 29.569 9.3788 29.8348 9.39039C30.0999 9.40047 30.3361 9.47206 30.5435 9.60518C30.7509 9.7383 30.9106 9.91481 31.0228 10.1347C31.1566 10.3971 31.2017 10.656 31.158 10.9114C31.1159 11.166 30.9954 11.3889 30.7967 11.5801L30.8153 11.6165C31.1343 11.515 31.4278 11.5229 31.696 11.6403C31.9634 11.7562 32.1725 11.962 32.3233 12.2578C32.4525 12.5111 32.4995 12.7737 32.4644 13.0458C32.43 13.3156 32.3238 13.5685 32.146 13.8044C31.9682 14.0403 31.7284 14.2352 31.4266 14.3891Z" fill="white"/>
<path d="M31.9756 8.22461L32.5618 8.01354L33.9563 11.8867L34.0043 11.8694L35.3009 7.02742L35.8776 6.81981L37.6491 11.7405L37.0532 11.955L35.6623 8.09152L35.6142 8.10882L34.3238 12.9377L33.7471 13.1453L31.9756 8.22461Z" fill="white"/>
<path d="M39.235 11.2698L38.1367 6.14453L39.8685 5.77343C40.2706 5.68727 40.6148 5.68942 40.9012 5.77987C41.1889 5.86829 41.4207 6.0219 41.5967 6.2407C41.7727 6.4595 41.8931 6.71989 41.9578 7.02187C42.0225 7.32385 42.0196 7.61152 41.9491 7.8849C41.8802 8.15792 41.7338 8.39519 41.51 8.59671C41.2859 8.79656 40.9744 8.93921 40.5757 9.02465L39.3344 9.29064L39.2164 8.74007L40.4377 8.47837C40.713 8.41938 40.9238 8.32446 41.0703 8.19361C41.2167 8.06276 41.3102 7.90838 41.3506 7.73046C41.3923 7.55051 41.3912 7.35793 41.3472 7.15272C41.3032 6.9475 41.2255 6.7722 41.1141 6.62682C41.0043 6.48107 40.8554 6.38037 40.6672 6.32472C40.4787 6.2674 40.2451 6.26859 39.9665 6.32829L38.8753 6.56211L39.8556 11.1368L39.235 11.2698Z" fill="white"/>
<path d="M48.2255 7.29756C48.2696 7.84915 48.2082 8.3338 48.0411 8.75151C47.8741 9.16922 47.6256 9.50092 47.2958 9.74662C46.9659 9.99231 46.5779 10.133 46.1319 10.1687C45.6859 10.2044 45.2805 10.1271 44.9157 9.93702C44.551 9.74689 44.253 9.45891 44.0217 9.07307C43.7903 8.68722 43.6526 8.21851 43.6085 7.66692C43.5643 7.11533 43.6258 6.63068 43.7928 6.21297C43.9599 5.79526 44.2083 5.46355 44.5382 5.21786C44.8681 4.97216 45.256 4.83147 45.7021 4.79579C46.1481 4.7601 46.5535 4.83733 46.9182 5.02746C47.2829 5.21758 47.581 5.50557 47.8123 5.89141C48.0436 6.27725 48.1814 6.74597 48.2255 7.29756ZM47.6126 7.34659C47.5764 6.89374 47.47 6.5176 47.2936 6.21818C47.1189 5.91862 46.8966 5.6991 46.6267 5.55964C46.3585 5.42004 46.0661 5.3629 45.7495 5.38824C45.4328 5.41357 45.1523 5.51653 44.9081 5.69713C44.6655 5.87759 44.4809 6.12965 44.3543 6.45332C44.2295 6.77685 44.1851 7.16504 44.2213 7.61789C44.2576 8.07074 44.3631 8.44694 44.5378 8.7465C44.7142 9.04593 44.9365 9.26544 45.2047 9.40504C45.4746 9.54451 45.7678 9.60157 46.0845 9.57624C46.4012 9.55091 46.6808 9.44801 46.9233 9.26755C47.1676 9.08696 47.3522 8.83489 47.4771 8.51136C47.6037 8.18769 47.6488 7.79944 47.6126 7.34659Z" fill="white"/>
<path d="M49.9723 9.93204L50.2861 4.70215L52.1146 4.81185C52.4789 4.83371 52.7756 4.91473 53.0047 5.05491C53.2338 5.19339 53.4 5.37165 53.5031 5.5897C53.6063 5.80604 53.6502 6.0419 53.6349 6.29727C53.6214 6.52199 53.5703 6.70515 53.4815 6.84676C53.3944 6.98847 53.2836 7.09801 53.1491 7.17537C53.0163 7.25283 52.8738 7.30749 52.7215 7.33936L52.7184 7.39044C52.8779 7.41025 53.0354 7.47609 53.191 7.58794C53.3466 7.69979 53.4731 7.85432 53.5706 8.05153C53.6682 8.24874 53.7086 8.48524 53.6921 8.76104C53.6764 9.02321 53.6026 9.25542 53.4709 9.45767C53.3392 9.65992 53.1411 9.81463 52.8767 9.92178C52.6122 10.0289 52.274 10.0701 51.862 10.0454L49.9723 9.93204ZM50.6394 9.40824L51.8958 9.48362C52.3094 9.50844 52.6079 9.44605 52.7912 9.29644C52.9762 9.14523 53.0756 8.95471 53.0894 8.72488C53.1001 8.54782 53.0648 8.38168 52.9835 8.22645C52.9024 8.06952 52.7811 7.94094 52.6197 7.8407C52.4583 7.73876 52.2636 7.68094 52.0355 7.66725L50.7484 7.59003L50.6394 9.40824ZM50.7815 7.03844L51.9562 7.10892C52.1469 7.12036 52.3211 7.09322 52.4788 7.02751C52.6382 6.9619 52.7671 6.8637 52.8655 6.73292C52.9656 6.60224 53.0212 6.44497 53.0322 6.26111C53.046 6.03128 52.9777 5.83155 52.8273 5.66192C52.677 5.49058 52.4281 5.3945 52.0808 5.37366L50.8857 5.30195L50.7815 7.03844Z" fill="white"/>
<path d="M55.3464 10.3696L54.6958 10.2435L57.5714 5.48303L58.2121 5.60724L59.1003 11.0974L58.4497 10.9713L57.7545 6.35986L57.7145 6.35209L55.3464 10.3696ZM55.9748 8.41412L58.5976 8.92261L58.4908 9.47317L55.8681 8.96469L55.9748 8.41412Z" fill="white"/>
<path d="M60.1533 11.3347L61.8301 6.38086L62.43 6.58391L61.6833 8.7899L64.3247 9.68396L65.0713 7.47797L65.6712 7.68101L63.9944 12.6348L63.3946 12.4318L64.1445 10.2161L61.5031 9.32205L60.7532 11.5377L60.1533 11.3347Z" fill="white"/>
<path d="M65.5049 13.2562L67.8584 8.60156L68.422 8.88655L67.374 10.9593L69.8559 12.2142L70.9039 10.1414L71.4675 10.4264L69.1141 15.081L68.5504 14.796L69.6031 12.7142L67.1212 11.4593L66.0686 13.5412L65.5049 13.2562Z" fill="white"/>
<path d="M72.7481 13.6766L73.9591 14.5471C74.2632 14.7657 74.4838 14.9998 74.621 15.2494C74.7596 15.4999 74.8177 15.7545 74.7953 16.0131C74.7744 16.2727 74.6755 16.5255 74.4986 16.7716C74.3217 17.0177 74.1111 17.1954 73.8667 17.3049C73.6238 17.4154 73.359 17.4484 73.0724 17.4038C72.7871 17.3602 72.4924 17.2291 72.1883 17.0104L70.5958 15.8657L73.6484 11.6191L74.1627 11.9888L71.432 15.7875L72.5103 16.5626C72.7038 16.7017 72.8954 16.7807 73.0852 16.7997C73.2773 16.8183 73.4521 16.7909 73.6097 16.7176C73.7696 16.6438 73.8992 16.5378 73.9986 16.3996C74.1447 16.1964 74.1923 15.9654 74.1414 15.7066C74.0915 15.4464 73.9214 15.2119 73.6311 15.0033L72.4202 14.1328L72.7481 13.6766ZM77.5798 14.4452L74.5272 18.6918L74.013 18.3221L77.0656 14.0755L77.5798 14.4452Z" fill="white"/>
<path d="M79.6446 16.145L80.0888 16.5819L77.202 19.5165L77.2384 19.5523L82.1641 18.6235L82.601 19.0533L78.9334 22.7816L78.4819 22.3375L81.3616 19.4102L81.3252 19.3743L76.4139 20.3031L75.977 19.8733L79.6446 16.145ZM82.3965 17.0181L82.797 17.412C82.6036 17.6086 82.3775 17.7026 82.1186 17.6939C81.8597 17.6852 81.6137 17.5662 81.3807 17.337C81.1513 17.1113 81.0302 16.8692 81.0172 16.6104C81.0055 16.3529 81.0963 16.1258 81.2897 15.9292L81.6902 16.3232C81.5971 16.4179 81.5414 16.5267 81.5231 16.6496C81.5061 16.7738 81.5613 16.8985 81.6887 17.0239C81.8162 17.1492 81.9424 17.203 82.0675 17.1851C82.1937 17.1684 82.3034 17.1127 82.3965 17.0181Z" fill="white"/>
<path d="M87.6734 25.5766L83.3848 28.5576L83.0239 28.0383L86.8517 25.3775L85.3495 23.2165L81.5217 25.8773L81.1607 25.358L85.4492 22.377L87.6734 25.5766Z" fill="white"/>
<path d="M88.6431 32.8656C88.1487 33.1101 87.6772 33.2321 87.2288 33.2316C86.7803 33.2311 86.3815 33.1235 86.0322 32.9088C85.6829 32.694 85.4095 32.3868 85.2118 31.9869C85.0141 31.5871 84.9359 31.1832 84.9773 30.7753C85.0187 30.3674 85.1754 29.9851 85.4472 29.6285C85.7191 29.2719 86.1023 28.9713 86.5967 28.7268C87.0912 28.4824 87.5626 28.3604 88.0111 28.3608C88.4595 28.3613 88.8584 28.4689 89.2076 28.6836C89.5569 28.8984 89.8304 29.2057 90.0281 29.6055C90.2258 30.0053 90.3039 30.4092 90.2625 30.8171C90.2211 31.225 90.0645 31.6073 89.7926 31.9639C89.5207 32.3205 89.1376 32.6211 88.6431 32.8656ZM88.3715 32.3162C88.7774 32.1155 89.0864 31.8782 89.2986 31.6043C89.5114 31.3319 89.6326 31.045 89.6621 30.7436C89.6924 30.4438 89.6374 30.1519 89.497 29.8681C89.3567 29.5842 89.1578 29.3626 88.9004 29.203C88.6438 29.0451 88.3422 28.9672 87.9958 28.9695C87.6501 28.9733 87.2743 29.0755 86.8684 29.2762C86.4624 29.4769 86.153 29.7135 85.9402 29.9859C85.728 30.2598 85.6068 30.5467 85.5766 30.8465C85.5471 31.1479 85.6025 31.4405 85.7428 31.7243C85.8832 32.0082 86.0817 32.2291 86.3383 32.3871C86.5957 32.5466 86.8972 32.6244 87.2429 32.6207C87.5893 32.6184 87.9655 32.5169 88.3715 32.3162Z" fill="white"/>
<path d="M85.5074 35.3012L87.2437 34.7283L87.3494 35.0484C87.4859 35.1252 87.6615 35.182 87.8762 35.2188C88.093 35.2566 88.3662 35.2588 88.6958 35.2253C89.0275 35.1929 89.4348 35.1097 89.9176 34.9755L92.048 34.3909L93.021 37.3397L88.588 38.8024L88.7768 39.3747L87.0501 39.9444L86.8613 39.3721L88.0544 38.9784L86.8991 35.4766L85.6962 35.8735L85.5074 35.3012ZM87.5862 35.7662L88.3991 38.2301L92.2986 36.9435L91.6937 35.1101L90.1064 35.5478C89.7378 35.6479 89.3984 35.7222 89.0882 35.7708C88.7796 35.8188 88.4996 35.8422 88.2481 35.8409C87.9984 35.8391 87.7777 35.8142 87.5862 35.7662Z" fill="white"/>
<path d="M93.6684 39.8623L91.7963 41.6079L91.8043 41.648L94.2006 42.5476L94.3456 43.279L91.4608 42.1742L89.2154 44.2958L89.0705 43.5643L90.9025 41.8267L90.8945 41.7866L88.5383 40.879L88.3933 40.1476L91.286 41.2925L93.5234 39.1309L93.6684 39.8623Z" fill="white"/>
<path d="M92.2238 48.8968C91.6737 48.9375 91.191 48.8735 90.7756 48.7045C90.3602 48.5356 90.031 48.286 89.788 47.9558C89.545 47.6255 89.407 47.238 89.374 46.7932C89.341 46.3484 89.4204 45.9447 89.612 45.5823C89.8036 45.2198 90.0924 44.9244 90.4784 44.6961C90.8643 44.4677 91.3323 44.3332 91.8824 44.2924C92.4325 44.2516 92.9152 44.3157 93.3307 44.4846C93.7461 44.6535 94.0753 44.9031 94.3182 45.2334C94.5612 45.5636 94.6992 45.9511 94.7322 46.3959C94.7652 46.8408 94.6858 47.2444 94.4942 47.6069C94.3026 47.9693 94.0138 48.2647 93.6278 48.4931C93.2419 48.7214 92.7739 48.856 92.2238 48.8968ZM92.1785 48.2856C92.6301 48.2521 93.0056 48.1483 93.3051 47.9741C93.6047 47.8017 93.8248 47.5814 93.9654 47.3132C94.1061 47.0467 94.1648 46.7555 94.1414 46.4397C94.118 46.124 94.017 45.8438 93.8384 45.5993C93.6599 45.3564 93.4097 45.171 93.0878 45.0429C92.766 44.9165 92.3793 44.8701 91.9277 44.9036C91.4761 44.9371 91.1005 45.04 90.8009 45.2125C90.5014 45.3866 90.2813 45.6069 90.1406 45.8734C90 46.1416 89.9414 46.4336 89.9648 46.7494C89.9882 47.0652 90.0892 47.3445 90.2677 47.5873C90.4463 47.8318 90.6964 48.0173 91.0182 48.1437C91.3401 48.2717 91.7269 48.319 92.1785 48.2856Z" fill="white"/>
<path d="M88.4117 49.9827L90.2401 50.1107L90.2165 50.4478C90.314 50.571 90.4553 50.6904 90.6405 50.806C90.8273 50.9234 91.08 51.0292 91.3984 51.1233C91.7185 51.2193 92.1279 51.2967 92.6268 51.3556L94.8253 51.6224L94.6079 54.7276L89.9398 54.4009L89.8976 55.0035L88.0794 54.8763L88.1216 54.2736L89.378 54.3616L89.6361 50.6741L88.3695 50.5854L88.4117 49.9827ZM90.1636 51.2037L89.982 53.7982L94.0883 54.0857L94.2234 52.1551L92.5846 51.9583C92.2047 51.9111 91.8616 51.8512 91.5553 51.7784C91.2507 51.7058 90.9821 51.6211 90.7493 51.5244C90.5183 51.4278 90.3231 51.3209 90.1636 51.2037Z" fill="white"/>
<path d="M10.4863 73.6489L11.5983 70.7428L11.2422 70.1781L9.13545 71.5063L8.78502 70.9505L13.375 68.0566L13.7254 68.6125L11.7352 69.8672L11.8878 70.1092L15.0367 70.6923L15.4549 71.3557L12.2679 70.7717L10.9045 74.3123L10.4863 73.6489Z" fill="white"/>
<path d="M11.9126 75.6667L11.4786 75.1294L16.9661 73.265L17.3934 73.794L14.4163 78.7665L13.9823 78.2292L16.5236 74.0868L16.4969 74.0538L11.9126 75.6667ZM13.7261 74.5297L15.4753 76.6955L15.0207 77.0627L13.2714 74.8969L13.7261 74.5297Z" fill="white"/>
<path d="M21.4717 78.1652L17.785 82.1465L17.3029 81.7L20.9896 77.7188L21.4717 78.1652ZM15.0946 79.6551L18.3079 78.7742L18.8901 75.7746L19.4733 76.3147L18.873 79.0375L20.3271 80.384L22.9958 79.5765L23.579 80.1166L20.6179 80.9278L19.9934 84.1914L19.4413 83.6802L19.995 80.9142L18.362 79.4021L15.6389 80.1591L15.0946 79.6551Z" fill="white"/>
<path d="M20.2593 86.0337L21.3239 84.4636L21.6134 84.6599C21.7742 84.6367 21.9545 84.5722 22.1543 84.4665C22.3565 84.3603 22.5824 84.1891 22.8322 83.953C23.0844 83.7164 23.3664 83.3901 23.6783 82.9742L25.0595 81.145L27.726 82.9531L25.0079 86.9616L25.5254 87.3125L24.4668 88.8739L23.9492 88.523L24.6808 87.4441L21.5143 85.297L20.7768 86.3846L20.2593 86.0337ZM22.2625 85.1L24.4904 86.6107L26.8814 83.0846L25.2236 81.9605L24.1958 83.3251C23.9562 83.6407 23.7243 83.9166 23.5 84.153C23.2768 84.3878 23.0614 84.5843 22.8539 84.7424C22.6474 84.899 22.4502 85.0182 22.2625 85.1Z" fill="white"/>
<path d="M32.078 88.2943C31.8275 88.8088 31.5181 89.2082 31.1498 89.4926C30.7815 89.7769 30.3859 89.9418 29.963 89.9874C29.5401 90.0329 29.1205 89.9544 28.7045 89.7518C28.2884 89.5492 27.9679 89.2674 27.7429 88.9064C27.5179 88.5454 27.4037 88.1323 27.4004 87.6671C27.397 87.2018 27.5206 86.7119 27.7711 86.1974C28.0216 85.6829 28.331 85.2834 28.6993 84.9991C29.0676 84.7148 29.4632 84.5498 29.8861 84.5043C30.3091 84.4588 30.7286 84.5373 31.1446 84.7398C31.5607 84.9424 31.8813 85.2242 32.1063 85.5852C32.3313 85.9462 32.4454 86.3593 32.4488 86.8246C32.4521 87.2898 32.3285 87.7797 32.078 88.2943ZM31.5063 88.0159C31.7119 87.5935 31.8149 87.2026 31.815 86.8431C31.8168 86.4845 31.7341 86.1721 31.5669 85.9061C31.4014 85.6408 31.171 85.4363 30.8756 85.2925C30.5802 85.1487 30.2763 85.093 29.9638 85.1256C29.6529 85.1589 29.356 85.2864 29.0732 85.5082C28.792 85.7308 28.5485 86.0533 28.3428 86.4757C28.1372 86.8982 28.0335 87.2887 28.0317 87.6474C28.0316 88.0068 28.1143 88.3191 28.2798 88.5844C28.4469 88.8504 28.6782 89.0553 28.9735 89.1992C29.2689 89.343 29.5721 89.3982 29.8829 89.3649C30.1954 89.3324 30.4923 89.2048 30.7735 88.9823C31.0564 88.7605 31.3006 88.4383 31.5063 88.0159Z" fill="white"/>
<path d="M34.6592 86.4775L35.4093 86.7062L35.8602 91.5522L35.921 91.5707L38.998 87.7999L39.7481 88.0285L38.1663 93.2189L37.5783 93.0397L38.7802 89.0962L38.7295 89.0808L35.9056 92.5299L35.3379 92.3569L34.9178 87.9191L34.8671 87.9036L33.6653 91.8471L33.0773 91.6679L34.6592 86.4775Z" fill="white"/>
<path d="M40.8269 93.8309L40.9206 93.2234L41.2558 93.2752C41.385 93.2951 41.4971 93.2865 41.5922 93.2493C41.689 93.2124 41.7724 93.1583 41.8424 93.0869C41.9142 93.0157 41.976 92.9395 42.0279 92.8581L42.1423 92.672L40.9219 88.2803L41.6236 88.3885L42.5866 91.9471L44.4516 88.8248L45.1428 88.9315L42.5958 93.1387C42.4966 93.295 42.3888 93.4374 42.2725 93.566C42.1579 93.6949 42.0136 93.7906 41.8395 93.8531C41.6672 93.9159 41.4449 93.9263 41.1725 93.8843L40.8269 93.8309Z" fill="white"/>
<path d="M52.021 89.087L52.1295 94.5131L51.4725 94.5262L51.3756 89.683L48.6414 89.7377L48.7382 94.5809L48.0812 94.594L47.9727 89.168L52.021 89.087Z" fill="white"/>
<path d="M55.0193 94.2939L54.3373 94.3972L55.4959 88.7265L56.1674 88.6248L58.9537 93.6977L58.2718 93.8011L55.9814 89.5223L55.9394 89.5287L55.0193 94.2939ZM54.9532 92.1573L57.702 91.7409L57.7895 92.3179L55.0406 92.7344L54.9532 92.1573Z" fill="white"/>
<path d="M64.9377 91.3923L65.4094 93.2422L64.7591 93.4351L64.3943 92.2058L64.0286 92.3144L63.8507 91.7149L64.9377 91.3923ZM60.6962 93.3034L59.1523 88.1016L59.7518 87.9237L61.1237 92.5464L63.8059 91.7503L62.4339 87.1276L63.0334 86.9497L64.5772 92.1515L60.6962 93.3034Z" fill="white"/>
<path d="M64.8174 86.3232L65.4057 86.0517L67.1994 89.9382L67.2477 89.916L68.1542 84.7832L68.7328 84.5161L71.0118 89.4538L70.4138 89.7298L68.6245 85.8529L68.5763 85.8752L67.675 90.9939L67.0963 91.261L64.8174 86.3232Z" fill="white"/>
<path d="M73.0233 88.3582L70.1475 83.7461L72.931 82.0105L73.2399 82.5059L71.0149 83.8933L71.9866 85.4517L74.0675 84.1542L74.3764 84.6497L72.2955 85.9471L73.2728 87.5146L75.5339 86.1047L75.8428 86.6002L73.0233 88.3582Z" fill="white"/>
<path d="M77.5756 85.4749L74.1572 81.2969L74.6632 80.8829L76.1854 82.7435L78.4132 80.9208L76.8909 79.0602L77.3969 78.6463L80.8153 82.8243L80.3093 83.2383L78.7804 81.3696L76.5526 83.1923L78.0816 85.061L77.5756 85.4749Z" fill="white"/>
<path d="M78.8933 77.9959L78.4736 77.5938L81.2816 74.6637L81.7013 75.0659L80.524 76.2944L84.0111 79.6362L83.5577 80.1092L80.0706 76.7674L78.8933 77.9959Z" fill="white"/>
<path d="M85.8385 77.6773L85.3536 77.2995L85.562 77.032C85.6423 76.9289 85.6894 76.8268 85.7033 76.7256C85.7183 76.6231 85.7116 76.5238 85.6833 76.4279C85.6561 76.3306 85.6197 76.2395 85.5739 76.1546L85.4671 75.9639L81.0371 74.8906L81.4735 74.3305L85.0504 75.2228L83.232 72.0732L83.6618 71.5214L86.0956 75.7953C86.1838 75.958 86.2557 76.1215 86.3113 76.2857C86.368 76.4486 86.3813 76.6213 86.3511 76.8037C86.322 76.9848 86.2228 77.184 86.0534 77.4014L85.8385 77.6773Z" fill="white"/>
<path d="M88.5972 64.0109C89.2949 64.0109 89.8605 63.4453 89.8605 62.7476C89.8605 62.05 89.2949 61.4844 88.5972 61.4844C87.8996 61.4844 87.334 62.05 87.334 62.7476C87.334 63.4453 87.8996 64.0109 88.5972 64.0109Z" fill="white"/>
<path d="M10.4859 64.0109C11.1836 64.0109 11.7492 63.4453 11.7492 62.7476C11.7492 62.05 11.1836 61.4844 10.4859 61.4844C9.78824 61.4844 9.22266 62.05 9.22266 62.7476C9.22266 63.4453 9.78824 64.0109 10.4859 64.0109Z" fill="white"/>
</svg>
