<svg width="98" height="99" viewBox="0 0 98 99" fill="none" xmlns="http://www.w3.org/2000/svg">
<path fill-rule="evenodd" clip-rule="evenodd" d="M49 0.740648C22.343 0.740648 0.733167 22.571 0.733167 49.5C0.733167 76.4291 22.343 98.2593 49 98.2593C75.657 98.2593 97.2668 76.4291 97.2668 49.5C97.2668 22.571 75.657 0.740648 49 0.740648ZM0 49.5C0 22.1619 21.938 0 49 0C76.062 0 98 22.1619 98 49.5C98 76.8381 76.062 99 49 99C21.938 99 0 76.8381 0 49.5Z" fill="white"/>
<path fill-rule="evenodd" clip-rule="evenodd" d="M48.9133 13.2467C28.8614 13.2467 12.6061 29.502 12.6061 49.5539C12.6061 69.6058 28.8614 85.861 48.9133 85.861C68.9651 85.861 85.2204 69.6058 85.2204 49.5539C85.2204 29.502 68.9651 13.2467 48.9133 13.2467ZM11.9043 49.5539C11.9043 29.1144 28.4738 12.5449 48.9133 12.5449C69.3527 12.5449 85.9222 29.1144 85.9222 49.5539C85.9222 69.9934 69.3527 86.5629 48.9133 86.5629C28.4738 86.5629 11.9043 69.9934 11.9043 49.5539Z" fill="white"/>
<path d="M67.0909 53.546H56.0436L54.3518 43.397C54.3165 43.1849 54.2071 42.9921 54.0432 42.853C53.8792 42.7139 53.6713 42.6374 53.4563 42.637H53.4444C53.2274 42.6391 53.0184 42.7188 52.8551 42.8617C52.6918 43.0047 52.5851 43.2013 52.5544 43.4162L50.8872 55.0933L48.9046 35.2733C48.8817 35.0525 48.7792 34.8477 48.6162 34.6971C48.4532 34.5465 48.2409 34.4604 48.0191 34.4551H48C47.7812 34.4549 47.5697 34.5338 47.4043 34.6771C47.239 34.8204 47.1309 35.0185 47.1 35.2351L44.4845 53.546H43.2309L41.6018 47.8432C41.4864 47.4396 41.0937 47.1569 40.6954 47.1842C40.4928 47.1912 40.2983 47.2658 40.143 47.3962C39.9876 47.5265 39.8803 47.705 39.8382 47.9034L38.6464 53.5461H28.9091C28.7897 53.546 28.6714 53.5695 28.5611 53.6151C28.4507 53.6608 28.3505 53.7277 28.266 53.8122C28.1816 53.8966 28.1146 53.9968 28.069 54.1072C28.0233 54.2175 27.9999 54.3358 28 54.4552C27.9998 54.5746 28.0232 54.6929 28.0688 54.8033C28.1145 54.9137 28.1814 55.014 28.2659 55.0984C28.3503 55.1829 28.4506 55.2498 28.561 55.2955C28.6714 55.3411 28.7897 55.3645 28.9091 55.3643H39.3818C39.5902 55.3643 39.7922 55.2927 39.9541 55.1614C40.1159 55.0302 40.2278 54.8473 40.2709 54.6434L40.8582 51.8634L41.67 54.7043C41.7243 54.8946 41.8392 55.0619 41.9972 55.1809C42.1552 55.3 42.3476 55.3644 42.5455 55.3643H45.2727C45.4914 55.3646 45.7029 55.2859 45.8682 55.1428C46.0336 54.9997 46.1417 54.8017 46.1728 54.5852L47.84 42.9088L49.8227 62.7279C49.8454 62.9487 49.9479 63.1537 50.1109 63.3043C50.2739 63.4549 50.4863 63.5409 50.7082 63.5461H50.7273C50.9459 63.5463 51.1573 63.4676 51.3227 63.3245C51.488 63.1814 51.5961 62.9834 51.6273 62.767L53.5237 49.4907L54.3764 54.6042C54.4118 54.8165 54.5213 55.0093 54.6854 55.1485C54.8495 55.2876 55.0577 55.3641 55.2729 55.3643H67.091C67.2105 55.3644 67.3287 55.341 67.4391 55.2953C67.5494 55.2497 67.6497 55.1827 67.7341 55.0983C67.8185 55.0138 67.8855 54.9136 67.9311 54.8032C67.9768 54.6929 68.0002 54.5746 68.0001 54.4552C68.0002 54.3358 67.9768 54.2175 67.9311 54.1072C67.8854 53.9968 67.8185 53.8965 67.734 53.8121C67.6496 53.7276 67.5493 53.6607 67.439 53.615C67.3286 53.5694 67.2103 53.5459 67.0909 53.546Z" fill="white"/>
<path d="M13.9397 33.9199L12.3436 33.122L12.4907 32.8278C12.449 32.6806 12.3666 32.5205 12.2432 32.3474C12.1191 32.1721 11.9315 31.9826 11.6803 31.779C11.4284 31.5732 11.0892 31.3507 10.6626 31.1115L8.78562 30.0506L10.1407 27.3399L14.2157 29.3769L14.4787 28.8508L16.0659 29.6443L15.8029 30.1704L14.7061 29.6221L13.097 32.8411L14.2027 33.3938L13.9397 33.9199ZM12.8205 32.1679L13.9527 29.903L10.3681 28.1111L9.52567 29.7964L10.9256 30.5854C11.2496 30.7696 11.5357 30.9517 11.7839 31.1315C12.0306 31.3105 12.2405 31.487 12.4137 31.6608C12.5853 31.8339 12.7209 32.003 12.8205 32.1679Z" fill="white"/>
<path d="M15.8394 23.2175C16.2808 23.5244 16.6069 23.8692 16.8176 24.2522C17.0283 24.6351 17.1243 25.0261 17.1055 25.4252C17.0867 25.8244 16.9532 26.2025 16.7051 26.5594C16.457 26.9164 16.1491 27.1732 15.7815 27.3299C15.4139 27.4866 15.014 27.5329 14.5816 27.4688C14.1493 27.4047 13.7124 27.2193 13.271 26.9124C12.8296 26.6056 12.5035 26.2607 12.2928 25.8778C12.082 25.4949 11.9861 25.1038 12.0049 24.7047C12.0237 24.3055 12.1572 23.9275 12.4053 23.5705C12.6534 23.2136 12.9613 22.9567 13.3289 22.8C13.6965 22.6433 14.0964 22.597 14.5288 22.6611C14.9611 22.7252 15.398 22.9107 15.8394 23.2175ZM15.4985 23.708C15.1361 23.4561 14.788 23.3041 14.4544 23.252C14.1218 23.1986 13.8199 23.2303 13.5488 23.347C13.2787 23.4623 13.0556 23.6467 12.8794 23.9001C12.7033 24.1535 12.6077 24.4276 12.5928 24.7223C12.5788 25.0157 12.6543 25.3097 12.8194 25.6043C12.9853 25.8975 13.2495 26.17 13.6119 26.4219C13.9743 26.6739 14.3219 26.8265 14.6545 26.8799C14.9881 26.932 15.29 26.9004 15.5601 26.785C15.8312 26.6683 16.0548 26.4832 16.231 26.2298C16.4071 25.9764 16.5022 25.703 16.5162 25.4096C16.5311 25.1149 16.4556 24.8209 16.2896 24.5277C16.1246 24.2332 15.8609 23.9599 15.4985 23.708Z" fill="white"/>
<path d="M18.8744 23.5147L15.1484 20.0439L16.3619 18.7413C16.6036 18.4817 16.8479 18.3095 17.0947 18.2245C17.3403 18.1384 17.5767 18.1241 17.8039 18.1817C18.03 18.2382 18.2339 18.3512 18.4159 18.5207C18.576 18.6698 18.6816 18.8215 18.7328 18.9756C18.7852 19.1286 18.7987 19.2794 18.7735 19.4281C18.7494 19.5755 18.7022 19.7162 18.6319 19.85L18.6683 19.8839C18.7818 19.7767 18.9285 19.6994 19.1086 19.6519C19.2888 19.6045 19.4829 19.6052 19.691 19.6542C19.8992 19.7031 20.1015 19.819 20.298 20.0021C20.4848 20.1761 20.6132 20.375 20.6833 20.5989C20.7534 20.8227 20.7468 21.0669 20.6636 21.3314C20.5803 21.5959 20.4019 21.8749 20.1285 22.1684L18.8744 23.5147ZM18.8945 22.6907L19.7283 21.7956C20.0028 21.5009 20.1407 21.2385 20.1419 21.0086C20.1431 20.7764 20.0618 20.584 19.898 20.4314C19.7719 20.3139 19.6255 20.2376 19.4589 20.2025C19.2911 20.1662 19.1197 20.1776 18.9447 20.2365C18.7684 20.2944 18.6046 20.4046 18.4532 20.5671L17.5991 21.4841L18.8945 22.6907ZM17.2061 21.118L17.9857 20.2811C18.1122 20.1453 18.1997 19.9979 18.248 19.839C18.2974 19.6789 18.3036 19.5216 18.2664 19.3669C18.2304 19.211 18.1469 19.0721 18.0159 18.9501C17.8522 18.7975 17.6602 18.7252 17.44 18.733C17.2185 18.7397 16.9926 18.8667 16.7621 19.1141L15.969 19.9656L17.2061 21.118Z" fill="white"/>
<path d="M22.3779 19.8114L19.082 15.9141L21.4341 13.925L21.7882 14.3436L19.908 15.9336L21.0217 17.2505L22.78 15.7635L23.1341 16.1822L21.3757 17.6692L22.4958 18.9936L24.4064 17.3779L24.7604 17.7966L22.3779 19.8114Z" fill="white"/>
<path d="M25.7915 16.9901L22.9766 12.7324L24.4152 11.7813C24.7492 11.5605 25.0621 11.4402 25.3539 11.4206C25.6461 11.3987 25.9109 11.4557 26.1481 11.5916C26.3854 11.7276 26.587 11.921 26.7528 12.1718C26.9187 12.4227 27.0181 12.6846 27.0512 12.9575C27.0856 13.2295 27.0371 13.4966 26.9057 13.7588C26.7734 14.0196 26.5416 14.2594 26.2103 14.4784L25.1792 15.1602L24.8768 14.7028L25.8913 14.0321C26.12 13.8809 26.2775 13.72 26.3639 13.5493C26.4503 13.3787 26.4802 13.2055 26.4537 13.0299C26.4276 12.8519 26.3583 12.6777 26.2455 12.5072C26.1328 12.3367 26.0002 12.2053 25.8475 12.1131C25.6963 12.0198 25.5255 11.9814 25.3351 11.9977C25.1438 12.0127 24.9324 12.0966 24.701 12.2497L23.7945 12.8489L26.3071 16.6493L25.7915 16.9901Z" fill="white"/>
<path d="M28.8658 11.6075L30.1612 10.9525C30.4865 10.788 30.7877 10.7025 31.0648 10.6961C31.3434 10.6889 31.5894 10.753 31.8026 10.8884C32.0174 11.0231 32.1913 11.222 32.3244 11.4852C32.4575 11.7484 32.5165 12.0101 32.5013 12.2703C32.4877 12.5297 32.3973 12.7732 32.2301 13.0007C32.0643 13.2275 31.8188 13.4231 31.4935 13.5876L29.79 14.4489L27.4932 9.90625L28.0433 9.62812L30.0978 13.6917L31.2513 13.1085C31.4583 13.0038 31.6126 12.8738 31.7141 12.7185C31.8164 12.5609 31.8713 12.3976 31.8787 12.2286C31.8868 12.0574 31.8535 11.8979 31.7787 11.75C31.6688 11.5326 31.4907 11.3878 31.2443 11.3156C30.9972 11.2418 30.7184 11.2835 30.4079 11.4405L29.1125 12.0954L28.8658 11.6075Z" fill="white"/>
<path d="M31.7854 8.39018L31.5898 7.87793L35.1663 6.51293L35.3618 7.02519L33.8623 7.59749L35.4868 11.8538L34.9093 12.0742L33.2848 7.81788L31.7854 8.39018Z" fill="white"/>
<path d="M37.3896 11.1834L36.0918 6.24707L39.071 5.46383L39.2104 5.99411L36.829 6.62019L37.2675 8.28813L39.4946 7.70261L39.634 8.23288L37.4069 8.81841L37.8479 10.496L40.2679 9.85977L40.4073 10.39L37.3896 11.1834Z" fill="white"/>
<path d="M47.1321 5.94981L46.5168 6.00819C46.4636 5.83466 46.3852 5.68522 46.2815 5.55987C46.1794 5.43436 46.0596 5.33225 45.9219 5.25351C45.7858 5.17297 45.6378 5.11692 45.4779 5.08536C45.318 5.05379 45.1537 5.04602 44.985 5.06203C44.6774 5.09122 44.406 5.1954 44.171 5.37458C43.9377 5.5536 43.7617 5.80144 43.6432 6.1181C43.5264 6.43461 43.4889 6.81285 43.5306 7.25283C43.5724 7.69281 43.6804 8.05724 43.8546 8.34613C44.0306 8.63485 44.25 8.84519 44.5128 8.97713C44.7773 9.10891 45.0634 9.16021 45.3711 9.13102C45.5398 9.11501 45.6997 9.07647 45.8508 9.01541C46.0019 8.95434 46.1368 8.87228 46.2555 8.76922C46.3757 8.66435 46.4742 8.54069 46.5508 8.39824C46.6289 8.25397 46.6778 8.09245 46.6976 7.91367L47.3129 7.85529C47.2912 8.11937 47.2289 8.35977 47.1259 8.57649C47.023 8.7932 46.8874 8.98214 46.7191 9.14331C46.5506 9.30282 46.3567 9.43055 46.1371 9.52648C45.9192 9.62226 45.6821 9.68231 45.4257 9.70663C44.9923 9.74775 44.5969 9.67846 44.2394 9.49875C43.8819 9.31905 43.5878 9.04319 43.3573 8.6712C43.1267 8.2992 42.986 7.84524 42.9351 7.30933C42.8843 6.77341 42.9371 6.30109 43.0936 5.89237C43.2501 5.48365 43.487 5.15743 43.8044 4.91369C44.1217 4.66996 44.497 4.52753 44.9304 4.48641C45.1868 4.46209 45.431 4.47647 45.663 4.52956C45.8967 4.58249 46.1113 4.67228 46.3069 4.79892C46.5023 4.9239 46.671 5.08314 46.8129 5.27663C46.9546 5.46847 47.061 5.69286 47.1321 5.94981Z" fill="white"/>
<path d="M48.2229 9.41367L48.376 4.30957L50.1604 4.3631C50.516 4.37377 50.8074 4.44404 51.0346 4.57392C51.262 4.70214 51.429 4.87095 51.5358 5.08037C51.6427 5.28812 51.6923 5.51661 51.6849 5.76583C51.6783 5.98515 51.6338 6.16508 51.5514 6.30563C51.4707 6.44622 51.366 6.55616 51.2372 6.63545C51.1101 6.71479 50.9729 6.7722 50.8254 6.80769L50.824 6.85753C50.9798 6.87219 51.1352 6.93173 51.29 7.03615C51.4449 7.14058 51.5727 7.28743 51.6735 7.4767C51.7742 7.66598 51.8205 7.8952 51.8125 8.16436C51.8048 8.42023 51.7397 8.6486 51.6173 8.84948C51.4949 9.05035 51.3064 9.20684 51.0519 9.31894C50.7975 9.43104 50.4692 9.48106 50.0671 9.469L48.2229 9.41367ZM48.8574 8.88392L50.0836 8.9207C50.4873 8.93282 50.7762 8.86332 50.9504 8.71223C51.1263 8.55952 51.2176 8.37102 51.2243 8.14672C51.2295 7.97392 51.1902 7.8131 51.1066 7.66424C51.0229 7.51373 50.901 7.392 50.7409 7.29906C50.5807 7.20445 50.3893 7.15381 50.1667 7.14713L48.9106 7.10945L48.8574 8.88392ZM48.9268 6.57112L50.0732 6.60552C50.2593 6.6111 50.4282 6.57958 50.5799 6.51096C50.7333 6.44239 50.856 6.34297 50.9481 6.21269C51.0418 6.08246 51.0913 5.92763 51.0967 5.74819C51.1034 5.52389 51.031 5.3313 50.8796 5.17044C50.7281 5.00791 50.4829 4.92156 50.144 4.9114L48.9776 4.8764L48.9268 6.57112Z" fill="white"/>
<path d="M57.9742 7.81866C57.8827 8.3516 57.7073 8.79564 57.4482 9.15078C57.1891 9.50593 56.8737 9.75996 56.502 9.91288C56.1303 10.0658 55.729 10.1053 55.298 10.0313C54.8671 9.95726 54.5019 9.78618 54.2025 9.51801C53.9031 9.24985 53.6905 8.90515 53.5647 8.48391C53.4389 8.06267 53.4218 7.58558 53.5133 7.05264C53.6048 6.51971 53.7801 6.07566 54.0392 5.72052C54.2983 5.36538 54.6137 5.11134 54.9854 4.95842C55.3571 4.8055 55.7585 4.76604 56.1894 4.84004C56.6204 4.91404 56.9856 5.08512 57.285 5.35329C57.5844 5.62145 57.797 5.96615 57.9228 6.38739C58.0486 6.80863 58.0657 7.28572 57.9742 7.81866ZM57.382 7.71698C57.4572 7.27944 57.4474 6.89759 57.3527 6.57144C57.2596 6.24558 57.1022 5.98401 56.8803 5.78674C56.6602 5.58975 56.3971 5.46499 56.0911 5.41245C55.7852 5.35992 55.4948 5.38963 55.2198 5.5016C54.9465 5.61385 54.7109 5.80791 54.5128 6.08379C54.3163 6.35994 54.1806 6.71679 54.1054 7.15433C54.0303 7.59186 54.0393 7.97357 54.1323 8.29944C54.227 8.62559 54.3845 8.88715 54.6046 9.08414C54.8265 9.28141 55.0904 9.40631 55.3963 9.45885C55.7023 9.51138 55.9919 9.48153 56.2651 9.36928C56.5401 9.25731 56.7758 9.06325 56.9722 8.78709C57.1703 8.51122 57.3069 8.15451 57.382 7.71698Z" fill="white"/>
<path d="M58.9492 10.7796L60.4805 5.93066L63.4069 6.85478L63.2424 7.37566L60.9032 6.63696L60.3858 8.27536L62.5734 8.96621L62.409 9.48708L60.2213 8.79624L59.7009 10.4441L62.078 11.1948L61.9135 11.7156L58.9492 10.7796Z" fill="white"/>
<path d="M70.0183 11.4938L69.4659 11.2166C69.513 11.0413 69.5259 10.873 69.5046 10.7118C69.4848 10.5512 69.4374 10.4011 69.3626 10.2613C69.29 10.1207 69.1943 9.99464 69.0756 9.88301C68.9569 9.77138 68.8218 9.67756 68.6703 9.60154C68.3941 9.46293 68.1089 9.40715 67.8146 9.4342C67.5218 9.462 67.2411 9.57862 66.9726 9.78404C66.7055 9.99021 66.4728 10.2908 66.2746 10.6858C66.0764 11.0808 65.9744 11.447 65.9687 11.7843C65.9645 12.1224 66.0387 12.4171 66.1914 12.6685C66.3456 12.9206 66.5608 13.116 66.837 13.2546C66.9885 13.3306 67.1444 13.3828 67.3049 13.4113C67.4653 13.4398 67.6232 13.4419 67.7786 13.4176C67.9361 13.3926 68.0852 13.34 68.2257 13.26C68.3685 13.1792 68.4957 13.0683 68.6074 12.9273L69.1598 13.2045C69.0012 13.4168 68.8208 13.5874 68.6185 13.7164C68.4162 13.8454 68.201 13.9335 67.9728 13.9807C67.7453 14.0265 67.5131 14.0317 67.2762 13.9964C67.0407 13.9619 66.8078 13.8869 66.5777 13.7714C66.1886 13.5761 65.8903 13.3074 65.6827 12.9653C65.4752 12.6232 65.3725 12.2333 65.3746 11.7957C65.3768 11.358 65.4986 10.8986 65.74 10.4175C65.9815 9.93638 66.277 9.56418 66.6266 9.30092C66.9763 9.03766 67.3502 8.88701 67.7486 8.84896C68.1469 8.81091 68.5406 8.88952 68.9296 9.08477C69.1598 9.20028 69.3591 9.34213 69.5275 9.5103C69.6974 9.67923 69.8317 9.86927 69.9302 10.0804C70.0294 10.2901 70.0878 10.5146 70.1053 10.7539C70.1235 10.9917 70.0945 11.2383 70.0183 11.4938Z" fill="white"/>
<path d="M69.0482 15.0528L71.8555 10.8164L74.4122 12.5106L74.1106 12.9657L72.0669 11.6114L71.1184 13.0429L73.0297 14.3094L72.7281 14.7645L70.8168 13.498L69.8628 14.9377L71.9396 16.3139L71.638 16.769L69.0482 15.0528Z" fill="white"/>
<path d="M72.7211 17.4981L76.0156 13.5996L77.3329 14.7128C77.6387 14.9712 77.8421 15.2377 77.9429 15.5122C78.0461 15.7865 78.0659 16.0566 78.0021 16.3225C77.9384 16.5884 77.8095 16.8362 77.6154 17.0659C77.4213 17.2956 77.1979 17.4647 76.9453 17.5731C76.6939 17.6827 76.424 17.7112 76.1354 17.6588C75.848 17.6051 75.5526 17.4502 75.2493 17.1938L74.3051 16.396L74.659 15.9772L75.588 16.7622C75.7973 16.9391 75.9961 17.0451 76.1841 17.08C76.3721 17.1149 76.5467 17.0949 76.7078 17.0201C76.8713 16.945 77.019 16.8295 77.1509 16.6734C77.2828 16.5173 77.3716 16.353 77.4172 16.1806C77.4642 16.0093 77.453 15.8345 77.3838 15.6564C77.3157 15.477 77.1757 15.2978 76.9638 15.1187L76.1338 14.4173L73.1932 17.897L72.7211 17.4981Z" fill="white"/>
<path d="M74.9722 20.9947L76.2845 19.7855L76.5074 20.0274C76.6597 20.0407 76.8387 20.0204 77.0443 19.9664C77.2523 19.9126 77.496 19.8044 77.7754 19.6418C78.0572 19.4793 78.3856 19.2411 78.7606 18.9272L80.4184 17.5486L82.472 19.7773L79.1218 22.8645L79.5203 23.297L78.2154 24.4995L77.8168 24.067L78.7185 23.2361L76.2798 20.5895L75.3708 21.4272L74.9722 20.9947ZM77.0073 20.5699L78.7232 22.432L81.6703 19.7163L80.3935 18.3307L79.1592 19.3597C78.8719 19.5972 78.6003 19.8001 78.3441 19.9684C78.0892 20.1355 77.8497 20.2692 77.6258 20.3694C77.403 20.4685 77.1969 20.5353 77.0073 20.5699Z" fill="white"/>
<path d="M82.708 27.702L81.1912 28.6632L80.829 28.138L81.822 27.4532L81.6183 27.1578L82.1025 26.8239L82.708 27.702ZM79.762 24.466L83.9639 21.5684L84.2978 22.0526L80.5637 24.6276L82.0578 26.7942L85.7918 24.2192L86.1257 24.7034L81.9239 27.6009L79.762 24.466Z" fill="white"/>
<path d="M82.8541 29.1398L87.3896 26.7988L88.8025 29.5361L88.3153 29.7876L87.1859 27.5995L85.6534 28.3905L86.7096 30.4369L86.2223 30.6883L85.1662 28.642L83.6248 29.4376L84.7724 31.6611L84.2852 31.9126L82.8541 29.1398Z" fill="white"/>
<path d="M18.5935 75.359L14.5102 78.4215L14.1394 77.927L17.784 75.1935L16.2408 73.1359L12.5962 75.8694L12.2253 75.375L16.3086 72.3125L18.5935 75.359Z" fill="white"/>
<path d="M16.1251 80.3541L19.749 76.7812L20.9563 78.0057C21.2366 78.29 21.4144 78.573 21.4897 78.8547C21.5673 79.1364 21.5625 79.4064 21.4751 79.6646C21.3878 79.9229 21.2374 80.1573 21.0239 80.3678C20.8103 80.5783 20.5732 80.726 20.3126 80.8108C20.0531 80.8968 19.7825 80.9007 19.5007 80.8226C19.2201 80.7433 18.9409 80.5627 18.6629 80.2807L17.7976 79.4031L18.1869 79.0193L19.0382 79.8828C19.2301 80.0774 19.4179 80.2006 19.6014 80.2523C19.785 80.3039 19.9601 80.2999 20.1269 80.2402C20.296 80.1805 20.4531 80.0791 20.5982 79.936C20.7433 79.793 20.8463 79.6379 20.9072 79.4708C20.9693 79.3049 20.9741 79.1304 20.9215 78.9473C20.8701 78.763 20.7472 78.5724 20.553 78.3754L19.7924 77.6039L16.5578 80.793L16.1251 80.3541Z" fill="white"/>
<path d="M24.935 84.7339C24.6066 85.1592 24.2461 85.4675 23.8533 85.6586C23.4605 85.8498 23.0654 85.926 22.6679 85.8873C22.2704 85.8486 21.8997 85.6964 21.5558 85.4309C21.2119 85.1653 20.971 84.8452 20.8329 84.4704C20.6949 84.0957 20.6687 83.6941 20.7543 83.2657C20.8399 82.8374 21.0469 82.4106 21.3753 81.9853C21.7037 81.56 22.0642 81.2518 22.457 81.0606C22.8498 80.8694 23.2449 80.7932 23.6424 80.832C24.0399 80.8707 24.4106 81.0228 24.7545 81.2884C25.0984 81.5539 25.3393 81.8741 25.4774 82.2488C25.6154 82.6236 25.6416 83.0252 25.556 83.4535C25.4704 83.8819 25.2634 84.3087 24.935 84.7339ZM24.4625 84.3691C24.7321 84.0199 24.9012 83.6802 24.9698 83.3498C25.0398 83.0204 25.0233 82.7175 24.9204 82.441C24.8188 82.1656 24.6459 81.9337 24.4018 81.7452C24.1576 81.5566 23.8888 81.4476 23.5954 81.4179C23.3032 81.3893 23.006 81.4499 22.7037 81.5999C22.4027 81.7509 22.1174 82.001 21.8478 82.3502C21.5782 82.6993 21.4084 83.0386 21.3385 83.368C21.2698 83.6984 21.2863 84.0013 21.3879 84.2767C21.4909 84.5531 21.6644 84.7856 21.9085 84.9741C22.1527 85.1626 22.4208 85.2712 22.713 85.2998C23.0064 85.3295 23.3037 85.2688 23.6046 85.1178C23.9069 84.9678 24.1929 84.7182 24.4625 84.3691Z" fill="white"/>
<path d="M29.0094 84.9727L29.7159 85.3636C30.0474 85.5471 30.3007 85.7841 30.476 86.0748C30.6512 86.3655 30.7391 86.6837 30.7395 87.0296C30.7399 87.3754 30.6435 87.7228 30.4505 88.0717C30.2574 88.4206 30.0138 88.6874 29.7198 88.8722C29.4257 89.057 29.1086 89.153 28.7684 89.1604C28.4283 89.1677 28.0925 89.0796 27.761 88.8962L27.0545 88.5052C26.723 88.3218 26.4697 88.0848 26.2944 87.7941C26.1192 87.5034 26.0313 87.1852 26.0309 86.8393C26.0305 86.4935 26.1269 86.1461 26.3199 85.7972C26.513 85.4483 26.7566 85.1815 27.0506 84.9967C27.3447 84.8119 27.6618 84.7159 28.002 84.7085C28.3421 84.7012 28.6779 84.7892 29.0094 84.9727ZM28.7439 85.4524C28.491 85.3124 28.2479 85.2472 28.0147 85.2568C27.783 85.2672 27.5686 85.3441 27.3715 85.4876C27.1758 85.6319 27.0055 85.8348 26.8607 86.0965C26.7175 86.3553 26.6372 86.6051 26.6197 86.8461C26.6036 87.0879 26.6527 87.3097 26.767 87.5115C26.8827 87.7142 27.067 87.8855 27.32 88.0255L28.0265 88.4165C28.2794 88.5565 28.5218 88.6213 28.7535 88.6109C28.9867 88.6013 29.2011 88.5244 29.3968 88.3801C29.5939 88.2366 29.7649 88.0341 29.9097 87.7724C30.0529 87.5136 30.1325 87.2634 30.1486 87.0216C30.1661 86.7806 30.117 86.5588 30.0013 86.3561C29.887 86.1543 29.7034 85.9834 29.4504 85.8434L28.7439 85.4524ZM29.9753 84.7096L27.3591 89.4372L26.8183 89.1379L29.4345 84.4104L29.9753 84.7096Z" fill="white"/>
<path d="M31.3119 91.2253L33.1494 86.4785L36.0142 87.5875L35.8168 88.0974L33.5268 87.2109L32.906 88.8148L35.0476 89.6439L34.8502 90.1538L32.7086 89.3247L32.0841 90.9379L34.4112 91.8387L34.2138 92.3486L31.3119 91.2253Z" fill="white"/>
<path d="M40.8941 90.565L40.2955 90.4109C40.3044 90.2296 40.2814 90.0624 40.2265 89.9093C40.1732 89.7566 40.0952 89.6199 39.9924 89.4991C39.8918 89.377 39.7716 89.274 39.6319 89.19C39.4923 89.106 39.3404 89.0429 39.1763 89.0007C38.877 88.9236 38.5864 88.9294 38.3045 89.0181C38.0242 89.1072 37.7746 89.2805 37.5555 89.5381C37.3381 89.7961 37.1743 90.1391 37.0641 90.5671C36.9539 90.9951 36.9317 91.3745 36.9975 91.7054C37.0648 92.0367 37.1997 92.3091 37.4021 92.5225C37.6062 92.7363 37.8578 92.8817 38.1571 92.9588C38.3212 93.0011 38.4847 93.0191 38.6475 93.013C38.8104 93.0069 38.9651 92.9756 39.1118 92.919C39.2605 92.8612 39.3951 92.7783 39.5155 92.6704C39.638 92.5612 39.7389 92.4259 39.8182 92.2645L40.4168 92.4186C40.3067 92.6596 40.1664 92.8646 39.996 93.0334C39.8255 93.2023 39.6338 93.3339 39.4207 93.4283C39.2081 93.5211 38.9823 93.5753 38.7432 93.591C38.5057 93.607 38.2623 93.583 38.0129 93.5187C37.5913 93.4102 37.2429 93.2107 36.9677 92.9202C36.6925 92.6297 36.5097 92.2704 36.4192 91.8422C36.3288 91.414 36.3506 90.9392 36.4849 90.4179C36.6191 89.8966 36.8293 89.4703 37.1153 89.1391C37.4013 88.8078 37.735 88.5815 38.1162 88.46C38.4975 88.3386 38.8989 88.3322 39.3205 88.4407C39.5699 88.5049 39.7947 88.6014 39.9948 88.7302C40.1966 88.8593 40.368 89.0167 40.5089 89.2023C40.6503 89.3862 40.7548 89.5933 40.8225 89.8235C40.8906 90.052 40.9145 90.2992 40.8941 90.565Z" fill="white"/>
<path d="M45.7199 91.2461L45.108 91.1658C45.095 90.985 45.0519 90.8221 44.979 90.677C44.9076 90.5321 44.8138 90.4059 44.6974 90.2986C44.5828 90.1899 44.4512 90.1023 44.3027 90.036C44.1541 89.9696 43.9959 89.9254 43.8281 89.9034C43.5222 89.8632 43.2349 89.9041 42.9662 90.0261C42.6992 90.1484 42.4727 90.3504 42.2868 90.6321C42.1025 90.9141 41.9816 91.2739 41.9242 91.7115C41.8667 92.149 41.8906 92.5278 41.9958 92.8478C42.1027 93.168 42.2693 93.4217 42.4958 93.6087C42.7238 93.7959 42.9908 93.9096 43.2968 93.9498C43.4646 93.9718 43.6288 93.97 43.7895 93.9442C43.9501 93.9184 44.0997 93.8687 44.2383 93.7948C44.3787 93.7196 44.502 93.6211 44.6083 93.4996C44.7165 93.3766 44.8001 93.2303 44.8592 93.0607L45.4711 93.141C45.3912 93.3932 45.2769 93.6133 45.1284 93.8013C44.9799 93.9893 44.8058 94.1429 44.6061 94.2623C44.4066 94.38 44.1893 94.461 43.9542 94.5055C43.7208 94.5501 43.4766 94.5557 43.2216 94.5222C42.7907 94.4656 42.4212 94.31 42.1133 94.0554C41.8054 93.8008 41.5807 93.4668 41.4393 93.0533C41.2978 92.6398 41.262 92.1666 41.332 91.6337C41.402 91.1008 41.5587 90.6528 41.8021 90.2899C42.0455 89.927 42.3489 89.6623 42.7121 89.4958C43.0753 89.3293 43.4723 89.2744 43.9033 89.331C44.1583 89.3645 44.3927 89.4329 44.6067 89.5363C44.8223 89.6399 45.0112 89.7751 45.1734 89.942C45.3357 90.1072 45.4644 90.2998 45.5593 90.5197C45.6545 90.738 45.708 90.9802 45.7199 91.2461Z" fill="white"/>
<path d="M46.5576 89.7549L47.1657 89.7462L47.2232 93.7633L47.273 93.7625L50.0065 89.7055L50.6046 89.697L50.6776 94.8005L50.0596 94.8094L50.0023 90.8023L49.9524 90.803L47.2287 94.8499L46.6307 94.8585L46.5576 89.7549Z" fill="white"/>
<path d="M56.9245 91.5368C57.0023 92.0695 56.9734 92.5439 56.8377 92.96C56.702 93.376 56.4818 93.7138 56.1772 93.9732C55.8725 94.2327 55.5048 94.3938 55.0741 94.4567C54.6434 94.5197 54.2449 94.4704 53.8788 94.3089C53.5127 94.1475 53.2051 93.8868 52.9561 93.5269C52.7071 93.167 52.5436 92.7207 52.4658 92.1881C52.388 91.6554 52.417 91.181 52.5527 90.7649C52.6883 90.3488 52.9085 90.0111 53.2132 89.7516C53.5178 89.4922 53.8855 89.331 54.3162 89.2681C54.747 89.2052 55.1454 89.2545 55.5115 89.4159C55.8777 89.5774 56.1852 89.8381 56.4343 90.198C56.6833 90.5579 56.8467 91.0041 56.9245 91.5368ZM56.3326 91.6233C56.2688 91.1859 56.1417 90.8275 55.9514 90.5481C55.7628 90.2683 55.5331 90.0693 55.2623 89.951C54.9931 89.8325 54.7056 89.7956 54.3998 89.8403C54.094 89.8849 53.8283 90.0027 53.6026 90.1935C53.3786 90.384 53.2154 90.6404 53.113 90.9626C53.0123 91.2846 52.9938 91.6643 53.0577 92.1016C53.1216 92.5389 53.2478 92.8974 53.4364 93.1772C53.6267 93.4567 53.8564 93.6557 54.1256 93.7742C54.3964 93.8925 54.6847 93.9293 54.9905 93.8846C55.2963 93.8399 55.5612 93.7223 55.7853 93.5318C56.011 93.341 56.1742 93.0846 56.2749 92.7626C56.3773 92.4404 56.3965 92.0606 56.3326 91.6233Z" fill="white"/>
<path d="M59.4382 93.5933L57.958 88.6934L58.5514 88.5141L59.2105 90.6961L61.8232 89.9069L61.164 87.7249L61.7574 87.5456L63.2376 92.4456L62.6442 92.6248L61.9822 90.4332L59.3695 91.2225L60.0315 93.4141L59.4382 93.5933Z" fill="white"/>
<path d="M65.5954 91.6173L65.0058 91.883L64.6186 86.4699L65.1992 86.2083L68.9973 90.0846L68.4077 90.3503L65.2581 87.0657L65.2218 87.0821L65.5954 91.6173ZM64.9957 89.7049L67.3725 88.634L67.5973 89.133L65.2205 90.2038L64.9957 89.7049Z" fill="white"/>
<path d="M70.1344 89.4876L69.8336 89.0055L69.9604 88.9264C70.1409 88.8138 70.2451 88.6685 70.273 88.4905C70.301 88.3124 70.2564 88.0808 70.1391 87.7956C70.0233 87.5095 69.8403 87.1487 69.5902 86.7133L68.363 84.5768L71.0018 82.9304L73.7036 87.2608L73.1792 87.588L70.7677 83.7227L69.1522 84.7306L70.161 86.4982C70.4273 86.9627 70.6267 87.3749 70.7592 87.7348C70.8917 88.0947 70.9271 88.4104 70.8654 88.6819C70.8038 88.9535 70.6136 89.1886 70.2951 89.3874L70.1344 89.4876Z" fill="white"/>
<path d="M75.6485 85.8766L75.148 86.2881L73.3539 81.1554L73.8467 80.7501L78.5361 83.5022L78.0355 83.9138L74.1285 81.5638L74.0977 81.5891L75.6485 85.8766ZM74.567 84.1846L76.5844 82.5257L76.9327 82.9492L74.9153 84.6081L74.567 84.1846Z" fill="white"/>
<path d="M76.0752 78.9326L76.5695 78.3867L80.8669 79.9418L80.9069 79.8975L78.9339 75.7753L79.4281 75.2294L83.2052 78.6491L82.8178 79.077L79.9481 76.4788L79.9147 76.5156L81.7157 80.2942L81.3417 80.7073L77.4034 79.2894L77.37 79.3263L80.2396 81.9245L79.8522 82.3524L76.0752 78.9326Z" fill="white"/>
<path d="M90.4605 51.2375C91.1582 51.2375 91.7238 50.6719 91.7238 49.9742C91.7238 49.2765 91.1582 48.7109 90.4605 48.7109C89.7629 48.7109 89.1973 49.2765 89.1973 49.9742C89.1973 50.6719 89.7629 51.2375 90.4605 51.2375Z" fill="white"/>
<path d="M7.34334 51.2375C8.04102 51.2375 8.6066 50.6719 8.6066 49.9742C8.6066 49.2765 8.04102 48.7109 7.34334 48.7109C6.64565 48.7109 6.08008 49.2765 6.08008 49.9742C6.08008 50.6719 6.64565 51.2375 7.34334 51.2375Z" fill="white"/>
</svg>
