<svg width="39" height="39" viewBox="0 0 39 39" fill="none" xmlns="http://www.w3.org/2000/svg">
<g clip-path="url(#clip0_78_35496)">
<path d="M1.53819 18.0025L10.7683 22.6026C10.9434 22.6896 11.1374 22.7318 11.3328 22.7255C11.5282 22.7192 11.719 22.6646 11.8881 22.5664L20.1039 17.7902L15.131 22.1969C15.0059 22.3077 14.9058 22.4437 14.8372 22.5961C14.7686 22.7485 14.7331 22.9136 14.7331 23.0807V33.8144C14.7331 34.9467 16.1784 35.4232 16.8563 34.5237L20.8462 29.219L30.7133 34.8382C30.8755 34.9304 31.0572 34.9829 31.2436 34.9912C31.43 34.9995 31.6157 34.9636 31.7855 34.8862C31.9552 34.8088 32.1042 34.6923 32.2202 34.5462C32.3362 34.4 32.4159 34.2285 32.4527 34.0456L38.6067 3.37797C38.6482 3.17044 38.6332 2.95554 38.5631 2.75582C38.493 2.55609 38.3705 2.37891 38.2084 2.24284C38.0463 2.10677 37.8505 2.01683 37.6417 1.98246C37.4328 1.94808 37.2186 1.97054 37.0214 2.04747L1.63569 15.8479C1.42292 15.9309 1.23881 16.0738 1.10572 16.2595C0.972637 16.4451 0.896297 16.6653 0.885972 16.8935C0.875647 17.1216 0.931781 17.3479 1.04756 17.5447C1.16334 17.7416 1.33378 17.9006 1.53819 18.0025ZM35.8702 5.02931L30.4617 31.9806L21.112 26.6555C20.8624 26.514 20.5699 26.468 20.2889 26.5262C20.008 26.5843 19.7578 26.7426 19.5849 26.9716L17.0922 30.2852V23.6107L30.5403 11.696C31.605 10.7539 30.3814 9.079 29.1658 9.793L11.2527 20.2074L4.97453 17.0793L35.8702 5.02931Z" fill="#F5F5F5"/>
</g>
<defs>
<clipPath id="clip0_78_35496">
<rect width="37.7447" height="37.7447" fill="white" transform="translate(0.884766 0.394531)"/>
</clipPath>
</defs>
</svg>
