<svg width="47" height="47" viewBox="0 0 47 47" fill="none" xmlns="http://www.w3.org/2000/svg">
<g clip-path="url(#clip0_78_35499)">
<path d="M43.2617 37.6664H37.4931C37.0552 37.6674 36.6229 37.5683 36.2291 37.3766C35.8354 37.1849 35.4907 36.9058 35.2214 36.5605L29.5971 29.386C29.474 29.2286 29.3049 29.1135 29.1133 29.0567C28.9217 28.9999 28.7171 29.0042 28.5281 29.0691C28.3392 29.1338 28.1751 29.2558 28.0587 29.4181C27.9423 29.5804 27.8793 29.775 27.8786 29.9747V32.859C27.8786 35.5153 25.2946 37.6664 22.11 37.6664C20.865 37.6777 19.6429 37.3316 18.5887 36.669C10.5126 31.501 5.03231 24.9754 0.273485 14.8564C0.0671827 14.4171 -0.0249017 13.9327 0.00576169 13.4483C0.036425 12.9639 0.188844 12.495 0.448901 12.0852C0.708959 11.6753 1.06824 11.3377 1.49347 11.1037C1.9187 10.8696 2.39613 10.7466 2.88153 10.7461H8.65013C9.21476 10.7448 9.76738 10.9092 10.2395 11.2189C10.7116 11.5286 11.0824 11.9701 11.3059 12.4886L11.9548 14.003C12.9353 16.278 14.252 18.3928 15.8609 20.2765C15.9133 20.3328 15.988 20.3638 16.065 20.3606C16.1001 20.3639 16.1356 20.3599 16.169 20.3487C16.2024 20.3374 16.2331 20.3193 16.2591 20.2955C16.2852 20.2718 16.306 20.2429 16.3202 20.2106C16.3344 20.1783 16.3417 20.1434 16.3415 20.1081V16.3465C15.0219 15.8751 14.2324 14.5234 14.4694 13.1424C14.7064 11.7616 15.9015 10.7508 17.303 10.7461H24.9942C26.5871 10.7461 27.8785 12.0376 27.8785 13.6304V20.3606C27.8789 20.5696 27.9473 20.7727 28.0734 20.9393C28.1995 21.1059 28.3765 21.2269 28.5775 21.2839C28.7786 21.3409 28.9927 21.3309 29.1875 21.2553C29.3823 21.1798 29.5472 21.0428 29.6572 20.8652L35.0291 12.1281C35.285 11.7042 35.6467 11.354 36.0786 11.1117C36.5105 10.8695 36.9979 10.7435 37.4931 10.7461H43.2617C43.7847 10.7463 44.2978 10.8888 44.7461 11.1582C45.1944 11.4276 45.561 11.8139 45.8067 12.2756C46.0524 12.7373 46.1679 13.2572 46.1408 13.7795C46.1137 14.3019 45.9451 14.807 45.653 15.2409L39.596 23.6414C39.4767 23.8056 39.4125 24.0034 39.4125 24.2063C39.4125 24.4093 39.4767 24.607 39.596 24.7712L45.6052 33.0995C45.9146 33.5305 46.0991 34.0386 46.1385 34.5677C46.1778 35.0969 46.0705 35.6266 45.8282 36.0987C45.586 36.5708 45.2182 36.9669 44.7654 37.2435C44.3126 37.5201 43.7923 37.6664 43.2617 37.6664ZM28.8402 27.0904C29.278 27.0895 29.7102 27.1887 30.1039 27.3804C30.4975 27.572 30.8422 27.8511 31.1115 28.1963L36.7357 35.3708C36.8253 35.4864 36.9401 35.58 37.0713 35.6446C37.2026 35.7091 37.3468 35.7429 37.4931 35.7433H43.2617C43.4392 35.7438 43.6134 35.6952 43.765 35.6027C43.9165 35.5103 44.0396 35.3778 44.1204 35.2197C44.2013 35.0617 44.2368 34.8844 44.2231 34.7074C44.2093 34.5304 44.1469 34.3606 44.0426 34.217L38.0339 25.8887C37.6789 25.3973 37.4878 24.8065 37.4878 24.2003C37.4878 23.5941 37.6789 23.0032 38.0339 22.5118L44.0788 14.1354C44.1739 13.9842 44.2239 13.809 44.2229 13.6304C44.2229 13.0995 43.7926 12.6689 43.2617 12.6689H37.4931C37.3292 12.669 37.1681 12.711 37.0251 12.791C36.882 12.8709 36.7618 12.9861 36.6758 13.1256L31.3037 21.8626C30.6312 22.9675 29.3053 23.4896 28.0599 23.1396C26.8146 22.79 25.9548 21.6538 25.9559 20.3606V13.6304C25.9559 13.0995 25.5252 12.6689 24.9943 12.6689H17.3029C16.7716 12.6689 16.3414 13.0995 16.3414 13.6304C16.3414 14.1613 16.7716 14.592 17.3029 14.592H18.2641V20.1082C18.2588 20.5539 18.1182 20.9874 17.861 21.3514C17.6038 21.7153 17.2421 21.9926 16.8238 22.1464C16.4055 22.3001 15.9503 22.3231 15.5186 22.2124C15.0869 22.1017 14.699 21.8624 14.4063 21.5263C12.6742 19.4981 11.2564 17.2214 10.2003 14.7723L9.53904 13.258C9.46552 13.083 9.34188 12.9337 9.18369 12.8289C9.02549 12.7241 8.83982 12.6684 8.65004 12.6689H2.88144C2.55335 12.6707 2.24869 12.8397 2.07338 13.1171C1.98714 13.2536 1.93667 13.4097 1.92664 13.5708C1.9166 13.732 1.94733 13.893 2.01596 14.0392C6.66708 23.9297 11.7745 30.0229 19.6341 35.0586C20.3788 35.5147 21.2368 35.752 22.11 35.7433C24.225 35.7433 25.9559 34.4456 25.9559 32.859V29.9747C25.9559 28.3818 27.2469 27.0904 28.8402 27.0904Z" fill="#F5F5F5"/>
</g>
<defs>
<clipPath id="clip0_78_35499">
<rect width="46.1467" height="46.1467" fill="white"/>
</clipPath>
</defs>
</svg>
