<svg width="39" height="39" viewBox="0 0 39 39" fill="none" xmlns="http://www.w3.org/2000/svg">
<g clip-path="url(#clip0_78_35488)">
<path d="M32.7527 5.75568C29.2955 2.29828 24.6997 0.394531 19.81 0.394531H19.8083C17.3899 0.394826 15.0331 0.863023 12.804 1.78659C10.5745 2.71008 8.57714 4.04537 6.8669 5.75568C3.4098 9.21272 1.50598 13.8093 1.50598 18.6984C1.50598 21.6141 2.20956 24.5117 3.54257 27.0933L0.465931 35.8828C0.249047 36.5027 0.402532 37.1765 0.867338 37.6411C1.19244 37.9665 1.62039 38.1393 2.06028 38.1393C2.24893 38.1393 2.43957 38.1076 2.62556 38.0425L11.415 34.9661C13.9967 36.2991 16.8942 37.0026 19.8099 37.0026C24.699 37.0026 29.2953 35.0986 32.7526 31.6415C36.2098 28.1845 38.1139 23.5879 38.1139 18.6987C38.1139 13.8093 36.2101 9.21272 32.7527 5.75568ZM31.1873 30.0761C28.1484 33.1154 24.1076 34.7887 19.81 34.7887C17.1808 34.7887 14.5689 34.1385 12.2565 32.9077C11.8373 32.6848 11.3416 32.6465 10.8967 32.8023L2.91138 35.597L5.70633 27.6116C5.86217 27.1662 5.82354 26.6706 5.60069 26.2516C4.37015 23.9397 3.71964 21.3279 3.71964 18.6984C3.71964 14.4008 5.39331 10.3599 8.43228 7.32106C11.471 4.28238 15.5111 2.60872 19.8085 2.60813H19.81C24.1078 2.60813 28.1484 4.2818 31.1873 7.32106C34.2266 10.36 35.9003 14.4005 35.9003 18.6984C35.9003 22.9963 34.2266 27.0371 31.1873 30.0761Z" fill="#F5F5F5"/>
<path d="M26.6129 20.3339C25.771 19.4919 24.4008 19.4919 23.5587 20.3339L22.6379 21.2548C20.3511 20.0088 18.5005 18.1583 17.2542 15.8715L18.1751 14.9506C19.0175 14.1086 19.0175 12.7385 18.1751 11.8964L15.6934 9.41473C14.8514 8.5727 13.4812 8.5727 12.6392 9.41473L10.6539 11.4C9.51678 12.5371 9.46009 14.4922 10.4942 16.9051C11.3921 19 13.0352 21.3026 15.121 23.3884C17.2068 25.4741 19.5093 27.1173 21.6043 28.0152C22.7507 28.5065 23.7934 28.7515 24.6945 28.7515C25.69 28.7515 26.5124 28.4524 27.1094 27.8554L29.0947 25.8698V25.8701C29.5028 25.4621 29.7273 24.9198 29.7273 24.3431C29.7273 23.7659 29.5028 23.2237 29.0946 22.8159L26.6129 20.3339ZM25.544 26.29C25.2195 26.6145 24.2214 26.7283 22.4766 25.9807C20.6341 25.1911 18.5777 23.7144 16.6864 21.823C14.795 19.9316 13.3185 17.8755 12.529 16.033C11.7811 14.2883 11.8948 13.2899 12.2194 12.9654L14.1666 11.0181L16.5717 13.4235L15.419 14.5765C14.8978 15.0977 14.7719 15.8882 15.1062 16.5437C16.6219 19.5155 18.9939 21.8875 21.9657 23.4031C22.6214 23.7374 23.4119 23.6119 23.9331 23.0903L25.0859 21.9376L27.4912 24.3431L25.544 26.29Z" fill="#F5F5F5"/>
</g>
<defs>
<clipPath id="clip0_78_35488">
<rect width="37.7447" height="37.7447" fill="white" transform="translate(0.369141 0.394531)"/>
</clipPath>
</defs>
</svg>
