<svg width="47" height="47" viewBox="0 0 47 47" fill="none" xmlns="http://www.w3.org/2000/svg">
<g clip-path="url(#clip0_78_35492)">
<path d="M31.03 22.0039L20.835 16.4258C20.2488 16.105 19.5559 16.117 18.9814 16.4574C18.4064 16.7982 18.0635 17.4002 18.0635 18.0685V29.1292C18.0635 29.7942 18.4043 30.3952 18.9754 30.7364C19.2736 30.9145 19.6042 31.004 19.9355 31.004C20.2455 31.0035 20.5505 30.9259 20.8231 30.7783L31.0183 25.2962C31.3153 25.1366 31.5637 24.8997 31.7372 24.6106C31.9107 24.3215 32.0029 23.9909 32.0041 23.6538C32.0055 23.3165 31.9157 22.9851 31.7442 22.6947C31.5727 22.4043 31.3259 22.1656 31.03 22.0039ZM20.7677 27.7377V19.4712L28.3874 23.6403L20.7677 27.7377Z" fill="white"/>
<path d="M46.6606 14.8431L46.6585 14.822C46.6194 14.4506 46.2304 11.1468 44.6243 9.46628C42.7678 7.48973 40.663 7.24963 39.6508 7.13453C39.5743 7.12609 39.4979 7.11693 39.4216 7.10704L39.341 7.09866C33.2404 6.65504 24.0271 6.59447 23.9349 6.59411L23.9268 6.59375L23.9187 6.59411C23.8265 6.59447 14.6131 6.65504 8.4575 7.09866L8.37621 7.10704C8.31068 7.11587 8.23849 7.12398 8.15999 7.13318C7.15945 7.24854 5.07727 7.4891 3.21555 9.53703C1.68578 11.1996 1.2436 14.4326 1.19817 14.7959L1.19294 14.8431C1.17915 14.9976 0.853516 18.6772 0.853516 22.3711V25.8241C0.853516 29.5181 1.17915 33.1976 1.19294 33.3525L1.19538 33.3757C1.23449 33.7411 1.62313 36.9845 3.22186 38.6656C4.96749 40.5759 7.1746 40.8287 8.36179 40.9646C8.54944 40.9861 8.71104 41.0044 8.82118 41.0237L8.92789 41.0385C12.4503 41.3737 23.4944 41.5387 23.9626 41.5455L23.9768 41.5459L23.9909 41.5455C24.0831 41.5451 33.296 41.4846 39.3968 41.0409L39.4773 41.0326C39.5545 41.0223 39.6411 41.0132 39.7361 41.0033C40.7311 40.8976 42.8019 40.6784 44.638 38.6581C46.1678 36.9954 46.6103 33.7622 46.6554 33.3993L46.6606 33.3521C46.6744 33.1972 47.0004 29.518 47.0004 25.8241V22.3711C47 18.6771 46.6744 14.998 46.6606 14.8431ZM44.2958 25.8241C44.2958 29.2431 43.9973 32.7641 43.969 33.0873C43.8543 33.9778 43.3877 36.0232 42.6424 36.8334C41.4933 38.0977 40.3128 38.223 39.4509 38.3142C39.3548 38.3241 39.2588 38.3349 39.163 38.3466C33.2622 38.7733 24.3968 38.8387 23.9884 38.8412C23.5304 38.8346 12.6478 38.668 9.2328 38.3508C9.05777 38.3223 8.86868 38.3005 8.66949 38.2779C7.65868 38.1621 6.27501 38.0037 5.21112 36.8334L5.18606 36.8066C4.45375 36.0437 4.00067 34.1309 3.88549 33.0979C3.86403 32.8536 3.55777 29.291 3.55777 25.8241V22.3711C3.55777 18.9561 3.85565 15.4388 3.88449 15.109C4.02149 14.0601 4.49675 12.1385 5.21112 11.3618C6.39542 10.0592 7.64426 9.91486 8.47021 9.81941C8.54908 9.81022 8.62262 9.80183 8.69058 9.793C14.6772 9.36416 23.6064 9.30044 23.9268 9.29801C24.2472 9.30008 33.1732 9.36416 39.1066 9.793C39.1794 9.80219 39.259 9.8113 39.3446 9.82121C40.1941 9.91801 41.4781 10.0645 42.6566 11.3213L42.6674 11.333C43.3998 12.0959 43.8529 14.0422 43.968 15.0959C43.9884 15.3265 44.2958 18.8968 44.2958 22.3711V25.8241Z" fill="white"/>
</g>
<defs>
<clipPath id="clip0_78_35492">
<rect width="46.1467" height="46.1467" fill="white" transform="translate(0.853516)"/>
</clipPath>
</defs>
</svg>
