<svg width="62" height="62" viewBox="0 0 62 62" fill="none" xmlns="http://www.w3.org/2000/svg">
<g clip-path="url(#clip0_78_11778)">
<path d="M31 0C13.894 0 0 13.894 0 31C0 48.106 13.894 62 31 62C48.106 62 62 48.106 62 31C62 13.894 48.106 0 31 0ZM31 59.3108C15.388 59.3108 2.68916 46.612 2.68916 31C2.68916 15.388 15.388 2.68916 31 2.68916C46.612 2.68916 59.3108 15.388 59.3108 31C59.3108 46.612 46.612 59.3108 31 59.3108Z" fill="white"/>
<path d="M47.134 24.2771H37.7219V14.8651C37.7219 14.1181 37.1243 13.5205 36.3774 13.5205H25.6207C24.8737 13.5205 24.2762 14.1181 24.2762 14.8651V24.2771H14.8641C14.1171 24.2771 13.5195 24.8747 13.5195 25.6217V36.3783C13.5195 37.1253 14.1171 37.7229 14.8641 37.7229H24.2762V47.135C24.2762 47.882 24.8737 48.4795 25.6207 48.4795H36.3774C37.1243 48.4795 37.7219 47.882 37.7219 47.135V37.7229H47.134C47.881 37.7229 48.4786 37.1253 48.4786 36.3783V25.6217C48.4039 24.8747 47.8063 24.2771 47.134 24.2771ZM45.8641 35.0338H36.3774C35.6304 35.0338 35.0328 35.6313 35.0328 36.3783V45.7904H26.9653V36.3783C26.9653 35.6313 26.3677 35.0338 25.6207 35.0338H16.2087V26.9663H25.6207C26.3677 26.9663 26.9653 26.3687 26.9653 25.6217V16.2097H35.1075V25.6217C35.1075 26.3687 35.7051 26.9663 36.4521 26.9663H45.8641V35.0338Z" fill="white"/>
</g>
<defs>
<clipPath id="clip0_78_11778">
<rect width="62" height="62" fill="white"/>
</clipPath>
</defs>
</svg>
