<svg width="31" height="31" viewBox="0 0 31 31" fill="none" xmlns="http://www.w3.org/2000/svg">
<g clip-path="url(#clip0_743_3676)">
<path d="M15.1562 0.0968018C6.87914 0.0968018 0.15625 6.81969 0.15625 15.0968C0.15625 23.3739 6.87914 30.0968 15.1562 30.0968C23.4334 30.0968 30.1562 23.3739 30.1562 15.0968C30.1562 6.81969 23.4334 0.0968018 15.1562 0.0968018ZM15.1562 28.7956C7.60203 28.7956 1.45745 22.651 1.45745 15.0968C1.45745 7.54258 7.60203 1.39801 15.1562 1.39801C22.7105 1.39801 28.855 7.54258 28.855 15.0968C28.855 22.651 22.7105 28.7956 15.1562 28.7956Z" fill="#0095E4"/>
<g clip-path="url(#clip1_743_3676)">
<mask id="mask0_743_3676" style="mask-type:luminance" maskUnits="userSpaceOnUse" x="6" y="6" width="18" height="19">
<path d="M6.29492 6.43931H23.4111V24.1077H6.29492V6.43931Z" fill="white"/>
</mask>
<g mask="url(#mask0_743_3676)">
<path d="M21.4047 8.78582H8.3001C7.56159 8.78582 6.96289 9.40384 6.96289 10.1662V11.5274L14.0543 16.9722C14.528 17.3359 15.1768 17.3359 15.6505 16.9722L22.7419 11.5274V10.1662C22.7419 9.40384 22.1432 8.78582 21.4047 8.78582Z" stroke="#0095E4" stroke-width="1.44405" stroke-miterlimit="10"/>
<path d="M22.0739 14.6213V20.3808C22.0739 20.7613 21.774 21.071 21.4053 21.071H8.30073C7.93206 21.071 7.63213 20.7613 7.63213 20.3808V14.6213L6.29492 13.5946V20.3808C6.29492 21.5225 7.19473 22.4513 8.30073 22.4513H21.4053C22.5113 22.4513 23.4111 21.5225 23.4111 20.3808V13.5946L22.0739 14.6213Z" fill="#0095E4"/>
</g>
</g>
</g>
<defs>
<clipPath id="clip0_743_3676">
<rect width="31" height="31" fill="white"/>
</clipPath>
<clipPath id="clip1_743_3676">
<rect width="17.1163" height="17.6684" fill="white" transform="translate(6.29102 6.43933)"/>
</clipPath>
</defs>
</svg>
