<svg width="27" height="27" viewBox="0 0 27 27" fill="none" xmlns="http://www.w3.org/2000/svg">
<g id="&#209;&#130;&#208;&#181;&#208;&#187;&#208;&#181;&#208;&#179;&#208;&#176;" clip-path="url(#clip0_133_5769)">
<g id="Group">
<path id="Vector" d="M0.467414 12.5957L7.07004 15.8863C7.19529 15.9486 7.33401 15.9788 7.4738 15.9743C7.61358 15.9697 7.75007 15.9306 7.87104 15.8605L13.748 12.4438L10.1908 15.5961C10.1013 15.6753 10.0297 15.7727 9.98063 15.8817C9.93157 15.9907 9.90619 16.1088 9.90617 16.2283V23.9065C9.90617 24.7165 10.94 25.0573 11.4249 24.4138L14.279 20.6192L21.3373 24.6388C21.4533 24.7048 21.5833 24.7423 21.7166 24.7483C21.85 24.7543 21.9828 24.7285 22.1043 24.6732C22.2257 24.6178 22.3323 24.5345 22.4153 24.4299C22.4982 24.3254 22.5552 24.2027 22.5815 24.0718L26.9837 2.13434C27.0134 1.98588 27.0026 1.83216 26.9525 1.68929C26.9024 1.54642 26.8147 1.41967 26.6988 1.32234C26.5828 1.225 26.4428 1.16067 26.2934 1.13608C26.144 1.11149 25.9907 1.12755 25.8497 1.18259L0.537164 11.0545C0.384958 11.1138 0.253259 11.2161 0.158058 11.3489C0.0628574 11.4816 0.00824888 11.6392 0.000862923 11.8024C-0.00652303 11.9656 0.0336312 12.1274 0.116451 12.2683C0.19927 12.4091 0.321192 12.5228 0.467414 12.5957ZM25.0262 3.31559L21.1573 22.5947L14.4692 18.7855C14.2906 18.6842 14.0814 18.6514 13.8804 18.693C13.6795 18.7346 13.5005 18.8478 13.3768 19.0116L11.5937 21.382V16.6075L21.2135 8.08446C21.9752 7.41059 21.0999 6.21246 20.2303 6.72321L7.41654 14.173L2.92554 11.9353L25.0262 3.31559Z" fill="#0095E4"/>
</g>
</g>
<defs>
<clipPath id="clip0_133_5769">
<rect width="27" height="27" fill="white"/>
</clipPath>
</defs>
</svg>
