<svg width="27" height="27" viewBox="0 0 27 27" fill="none" xmlns="http://www.w3.org/2000/svg">
<g id="&#208;&#178;&#208;&#176;&#209;&#130;&#209;&#129;&#208;&#176;&#208;&#191;&#208;&#176;" clip-path="url(#clip0_133_5761)">
<g id="Group">
<path id="Vector" d="M23.165 3.835C20.6919 1.36181 17.4044 0 13.9066 0H13.9054C12.1755 0.000210938 10.4896 0.335127 8.89502 0.995783C7.30023 1.65639 5.87144 2.61156 4.64806 3.835C2.17508 6.30793 0.813214 9.59602 0.813214 13.0934C0.813214 15.179 1.31651 17.2518 2.27005 19.0985L0.0692374 25.3859C-0.0859071 25.8293 0.0238859 26.3113 0.356376 26.6436C0.588935 26.8764 0.895058 27 1.20972 27C1.34467 27 1.48104 26.9773 1.61409 26.9308L7.90145 24.7302C9.74821 25.6837 11.8209 26.1869 13.9066 26.1869C17.4039 26.1869 20.6918 24.8249 23.1649 22.3519C25.638 19.879 27 16.5909 27 13.0936C27 9.59602 25.6382 6.30793 23.165 3.835ZM22.0452 21.2322C19.8714 23.4063 16.9809 24.6033 13.9066 24.6033C12.0259 24.6033 10.1575 24.1382 8.50342 23.2577C8.20352 23.0983 7.84898 23.0709 7.53073 23.1823L1.81854 25.1815L3.81786 19.4693C3.92934 19.1506 3.90171 18.7961 3.74229 18.4964C2.86205 16.8426 2.39672 14.9743 2.39672 13.0934C2.39672 10.0191 3.59395 7.12858 5.76782 4.95476C7.94148 2.78111 10.8315 1.58388 13.9056 1.58346H13.9066C16.981 1.58346 19.8714 2.78068 22.0452 4.95476C24.2193 7.12863 25.4165 10.0189 25.4165 13.0934C25.4165 16.1678 24.2193 19.0583 22.0452 21.2322Z" fill="#0095E4"/>
<path id="Vector_2" d="M18.7718 14.2631C18.1696 13.6608 17.1894 13.6608 16.5871 14.2631L15.9284 14.9219C14.2925 14.0305 12.9688 12.7068 12.0773 11.071L12.736 10.4122C13.3386 9.80989 13.3386 8.82982 12.736 8.22744L10.9608 6.45224C10.3584 5.84991 9.37832 5.84991 8.77599 6.45224L7.35585 7.87237C6.54243 8.6858 6.50187 10.0843 7.24158 11.8103C7.88388 13.3089 9.05928 14.956 10.5513 16.448C12.0433 17.9401 13.6904 19.1155 15.189 19.7578C16.009 20.1092 16.755 20.2845 17.3995 20.2845C18.1117 20.2845 18.7 20.0705 19.127 19.6434L20.5471 18.2231V18.2233C20.839 17.9314 20.9997 17.5435 20.9997 17.1309C20.9997 16.7181 20.839 16.3302 20.5471 16.0386L18.7718 14.2631ZM18.0072 18.5237C17.7751 18.7558 17.0611 18.8372 15.813 18.3024C14.495 17.7376 13.024 16.6812 11.6711 15.3283C10.3181 13.9753 9.26194 12.5045 8.69715 11.1865C8.16216 9.93846 8.24353 9.22427 8.47567 8.99214L9.86859 7.59921L11.5891 9.31983L10.7645 10.1446C10.3917 10.5175 10.3016 11.0829 10.5407 11.5518C11.6249 13.6776 13.3217 15.3744 15.4475 16.4586C15.9166 16.6977 16.4821 16.6079 16.8549 16.2348L17.6795 15.4103L19.4001 17.1309L18.0072 18.5237Z" fill="#0095E4"/>
</g>
</g>
<defs>
<clipPath id="clip0_133_5761">
<rect width="27" height="27" fill="white"/>
</clipPath>
</defs>
</svg>
