<svg width="344" height="79" viewBox="0 0 344 79" fill="none" xmlns="http://www.w3.org/2000/svg">
<path d="M145.324 37L144.7 34.96H141.58L140.956 37H139L142.024 28.396H144.244L147.28 37H145.324ZM143.644 31.444C143.604 31.308 143.552 31.136 143.488 30.928C143.424 30.72 143.36 30.508 143.296 30.292C143.232 30.076 143.18 29.888 143.14 29.728C143.1 29.888 143.044 30.088 142.972 30.328C142.908 30.56 142.844 30.784 142.78 31C142.724 31.208 142.68 31.356 142.648 31.444L142.036 33.436H144.268L143.644 31.444ZM155.385 37H153.573V33.304H150.177V37H148.365V28.432H150.177V31.792H153.573V28.432H155.385V37ZM165.317 32.704C165.317 33.368 165.233 33.972 165.065 34.516C164.905 35.052 164.657 35.516 164.321 35.908C163.993 36.3 163.569 36.6 163.049 36.808C162.537 37.016 161.933 37.12 161.237 37.12C160.541 37.12 159.933 37.016 159.413 36.808C158.901 36.592 158.477 36.292 158.141 35.908C157.813 35.516 157.565 35.048 157.397 34.504C157.237 33.96 157.157 33.356 157.157 32.692C157.157 31.804 157.301 31.032 157.589 30.376C157.885 29.72 158.333 29.212 158.933 28.852C159.541 28.484 160.313 28.3 161.249 28.3C162.177 28.3 162.941 28.484 163.541 28.852C164.141 29.212 164.585 29.724 164.873 30.388C165.169 31.044 165.317 31.816 165.317 32.704ZM159.065 32.704C159.065 33.304 159.141 33.82 159.293 34.252C159.445 34.684 159.681 35.016 160.001 35.248C160.321 35.48 160.733 35.596 161.237 35.596C161.757 35.596 162.173 35.48 162.485 35.248C162.805 35.016 163.037 34.684 163.181 34.252C163.333 33.82 163.409 33.304 163.409 32.704C163.409 31.8 163.241 31.092 162.905 30.58C162.569 30.068 162.017 29.812 161.249 29.812C160.737 29.812 160.321 29.928 160.001 30.16C159.681 30.392 159.445 30.724 159.293 31.156C159.141 31.588 159.065 32.104 159.065 32.704ZM173.411 37L171.347 30.28H171.299C171.307 30.44 171.319 30.68 171.335 31C171.351 31.32 171.367 31.664 171.383 32.032C171.399 32.392 171.407 32.72 171.407 33.016V37H169.787V28.432H172.259L174.287 34.984H174.323L176.471 28.432H178.943V37H177.251V32.944C177.251 32.672 177.255 32.36 177.263 32.008C177.279 31.656 177.291 31.324 177.299 31.012C177.315 30.692 177.327 30.452 177.335 30.292H177.287L175.079 37H173.411ZM186.039 37H181.107V28.432H186.039V29.92H182.919V31.804H185.823V33.292H182.919V35.5H186.039V37ZM189.79 32.548L186.91 28.432H188.782L191.554 32.584V28.432H193.246V32.584L196.018 28.432H197.89L195.01 32.548L198.058 37H196.114L193.246 32.656V37H191.554V32.656L188.686 37H186.742L189.79 32.548ZM205.851 28.432V35.488H206.991V39.496H205.239V37H199.875V39.496H198.123V35.488H198.783C199.007 35.04 199.223 34.568 199.431 34.072C199.639 33.576 199.831 33.044 200.007 32.476C200.191 31.908 200.355 31.292 200.499 30.628C200.643 29.956 200.763 29.224 200.859 28.432H205.851ZM202.299 29.944C202.243 30.36 202.163 30.804 202.059 31.276C201.955 31.74 201.831 32.216 201.687 32.704C201.551 33.192 201.399 33.672 201.23 34.144C201.063 34.616 200.883 35.064 200.691 35.488H204.039V29.944H202.299ZM212.531 34.492C212.291 35.036 212.035 35.508 211.763 35.908C211.499 36.3 211.159 36.6 210.743 36.808C210.327 37.016 209.783 37.12 209.111 37.12C208.903 37.12 208.675 37.104 208.427 37.072C208.179 37.04 207.951 36.996 207.743 36.94V35.38C207.935 35.46 208.147 35.516 208.379 35.548C208.611 35.58 208.827 35.596 209.027 35.596C209.291 35.596 209.503 35.552 209.663 35.464C209.831 35.376 209.963 35.256 210.059 35.104C210.163 34.944 210.247 34.772 210.311 34.588L207.347 28.432H209.267L210.863 32.14C210.903 32.22 210.951 32.324 211.007 32.452C211.063 32.58 211.119 32.712 211.175 32.848C211.231 32.984 211.275 33.104 211.307 33.208H211.367C211.399 33.112 211.439 32.996 211.487 32.86C211.543 32.716 211.599 32.572 211.655 32.428C211.719 32.276 211.775 32.144 211.823 32.032L213.311 28.432H215.183L212.531 34.492ZM223.284 37H221.472V33.304H218.076V37H216.264V28.432H218.076V31.792H221.472V28.432H223.284V37ZM230.683 37L230.059 34.96H226.939L226.315 37H224.359L227.383 28.396H229.603L232.639 37H230.683ZM229.003 31.444C228.963 31.308 228.911 31.136 228.847 30.928C228.783 30.72 228.719 30.508 228.655 30.292C228.591 30.076 228.539 29.888 228.499 29.728C228.459 29.888 228.403 30.088 228.331 30.328C228.267 30.56 228.203 30.784 228.139 31C228.083 31.208 228.039 31.356 228.007 31.444L227.395 33.436H229.627L229.003 31.444ZM236.461 28.432C237.565 28.432 238.369 28.672 238.873 29.152C239.385 29.624 239.641 30.276 239.641 31.108C239.641 31.484 239.585 31.844 239.473 32.188C239.361 32.524 239.173 32.828 238.909 33.1C238.653 33.364 238.313 33.572 237.889 33.724C237.465 33.876 236.941 33.952 236.317 33.952H235.537V37H233.725V28.432H236.461ZM236.365 29.92H235.537V32.464H236.137C236.481 32.464 236.777 32.42 237.025 32.332C237.273 32.244 237.465 32.104 237.601 31.912C237.737 31.72 237.805 31.472 237.805 31.168C237.805 30.744 237.689 30.432 237.457 30.232C237.225 30.024 236.861 29.92 236.365 29.92ZM249.036 32.704C249.036 33.368 248.952 33.972 248.784 34.516C248.624 35.052 248.376 35.516 248.04 35.908C247.712 36.3 247.288 36.6 246.768 36.808C246.256 37.016 245.652 37.12 244.956 37.12C244.26 37.12 243.652 37.016 243.132 36.808C242.62 36.592 242.196 36.292 241.86 35.908C241.532 35.516 241.284 35.048 241.116 34.504C240.956 33.96 240.876 33.356 240.876 32.692C240.876 31.804 241.02 31.032 241.308 30.376C241.604 29.72 242.052 29.212 242.652 28.852C243.26 28.484 244.032 28.3 244.968 28.3C245.896 28.3 246.66 28.484 247.26 28.852C247.86 29.212 248.304 29.724 248.592 30.388C248.888 31.044 249.036 31.816 249.036 32.704ZM242.784 32.704C242.784 33.304 242.86 33.82 243.012 34.252C243.164 34.684 243.4 35.016 243.72 35.248C244.04 35.48 244.452 35.596 244.956 35.596C245.476 35.596 245.892 35.48 246.204 35.248C246.524 35.016 246.756 34.684 246.9 34.252C247.052 33.82 247.128 33.304 247.128 32.704C247.128 31.8 246.96 31.092 246.624 30.58C246.288 30.068 245.736 29.812 244.968 29.812C244.456 29.812 244.04 29.928 243.72 30.16C243.4 30.392 243.164 30.724 243.012 31.156C242.86 31.588 242.784 32.104 242.784 32.704ZM257.284 28.432V35.488H258.424V39.496H256.672V37H251.308V39.496H249.556V35.488H250.216C250.44 35.04 250.656 34.568 250.864 34.072C251.072 33.576 251.264 33.044 251.44 32.476C251.624 31.908 251.788 31.292 251.932 30.628C252.076 29.956 252.196 29.224 252.292 28.432H257.284ZM253.732 29.944C253.676 30.36 253.596 30.804 253.492 31.276C253.388 31.74 253.264 32.216 253.12 32.704C252.984 33.192 252.832 33.672 252.664 34.144C252.496 34.616 252.316 35.064 252.124 35.488H255.472V29.944H253.732ZM266.76 37H264.948V33.304H261.552V37H259.74V28.432H261.552V31.792H264.948V28.432H266.76V37ZM274.16 37L273.536 34.96H270.416L269.792 37H267.836L270.86 28.396H273.08L276.116 37H274.16ZM272.48 31.444C272.44 31.308 272.388 31.136 272.324 30.928C272.26 30.72 272.196 30.508 272.132 30.292C272.068 30.076 272.016 29.888 271.976 29.728C271.936 29.888 271.88 30.088 271.808 30.328C271.744 30.56 271.68 30.784 271.616 31C271.56 31.208 271.516 31.356 271.484 31.444L270.872 33.436H273.104L272.48 31.444ZM280.081 33.712L278.077 37H276.061L278.497 33.232C278.265 33.136 278.033 32.996 277.801 32.812C277.569 32.62 277.377 32.368 277.225 32.056C277.073 31.736 276.997 31.344 276.997 30.88C276.997 30.088 277.281 29.484 277.849 29.068C278.417 28.644 279.213 28.432 280.237 28.432H283.021V37H281.209V33.712H280.081ZM280.309 29.92C279.997 29.92 279.729 29.956 279.505 30.028C279.289 30.1 279.121 30.216 279.001 30.376C278.889 30.536 278.833 30.748 278.833 31.012C278.833 31.388 278.957 31.688 279.205 31.912C279.461 32.128 279.845 32.236 280.357 32.236H281.209V29.92H280.309ZM147.064 55H145L141.892 50.656V55H140.08V46.432H141.892V50.584L144.964 46.432H146.896L143.776 50.548L147.064 55ZM154.923 55H153.111V47.944H151.011C150.963 48.312 150.911 48.712 150.855 49.144C150.807 49.576 150.751 50.016 150.687 50.464C150.631 50.904 150.571 51.324 150.507 51.724C150.443 52.116 150.379 52.464 150.315 52.768C150.211 53.264 150.071 53.688 149.895 54.04C149.727 54.392 149.491 54.66 149.187 54.844C148.891 55.028 148.503 55.12 148.023 55.12C147.863 55.12 147.711 55.108 147.567 55.084C147.423 55.06 147.287 55.028 147.159 54.988V53.5C147.263 53.532 147.363 53.56 147.458 53.584C147.563 53.608 147.675 53.62 147.795 53.62C147.955 53.62 148.087 53.568 148.191 53.464C148.295 53.36 148.387 53.184 148.467 52.936C148.547 52.68 148.627 52.328 148.707 51.88C148.747 51.688 148.795 51.416 148.851 51.064C148.907 50.704 148.971 50.284 149.043 49.804C149.123 49.316 149.203 48.788 149.283 48.22C149.363 47.644 149.439 47.048 149.511 46.432H154.923V55ZM157.084 46.432H158.716V50.572C158.716 50.772 158.712 50.996 158.704 51.244C158.696 51.492 158.688 51.736 158.68 51.976C158.672 52.208 158.664 52.412 158.656 52.588C158.648 52.756 158.64 52.872 158.632 52.936H158.668L162.628 46.432H164.8V55H163.18V50.884C163.18 50.668 163.184 50.432 163.192 50.176C163.2 49.912 163.208 49.66 163.216 49.42C163.232 49.18 163.244 48.972 163.252 48.796C163.268 48.612 163.28 48.492 163.288 48.436H163.24L159.268 55H157.084V46.432ZM173.983 55H172.171V51.304H168.775V55H166.963V46.432H168.775V49.792H172.171V46.432H173.983V55ZM176.139 46.432H177.771V50.572C177.771 50.772 177.767 50.996 177.759 51.244C177.751 51.492 177.743 51.736 177.735 51.976C177.727 52.208 177.719 52.412 177.711 52.588C177.703 52.756 177.695 52.872 177.687 52.936H177.723L181.683 46.432H183.855V55H182.235V50.884C182.235 50.668 182.239 50.432 182.247 50.176C182.255 49.912 182.263 49.66 182.271 49.42C182.287 49.18 182.299 48.972 182.307 48.796C182.323 48.612 182.335 48.492 182.343 48.436H182.295L178.323 55H176.139V46.432ZM193.002 55H190.938L187.83 50.656V55H186.018V46.432H187.83V50.584L190.902 46.432H192.834L189.714 50.548L193.002 55ZM199.324 55L198.7 52.96H195.58L194.956 55H193L196.024 46.396H198.244L201.28 55H199.324ZM197.644 49.444C197.604 49.308 197.552 49.136 197.488 48.928C197.424 48.72 197.36 48.508 197.296 48.292C197.232 48.076 197.18 47.888 197.14 47.728C197.1 47.888 197.044 48.088 196.972 48.328C196.908 48.56 196.844 48.784 196.78 49C196.724 49.208 196.68 49.356 196.648 49.444L196.036 51.436H198.268L197.644 49.444ZM212.044 55H209.98L206.872 50.656V55H205.06V46.432H206.872V50.584L209.944 46.432H211.876L208.756 50.548L212.044 55ZM218.367 55L217.743 52.96H214.623L213.999 55H212.043L215.067 46.396H217.287L220.323 55H218.367ZM216.687 49.444C216.647 49.308 216.595 49.136 216.531 48.928C216.467 48.72 216.403 48.508 216.339 48.292C216.275 48.076 216.223 47.888 216.183 47.728C216.143 47.888 216.087 48.088 216.015 48.328C215.951 48.56 215.887 48.784 215.823 49C215.767 49.208 215.723 49.356 215.691 49.444L215.079 51.436H217.311L216.687 49.444ZM224.144 46.432C225.248 46.432 226.052 46.672 226.556 47.152C227.068 47.624 227.324 48.276 227.324 49.108C227.324 49.484 227.268 49.844 227.156 50.188C227.044 50.524 226.856 50.828 226.592 51.1C226.336 51.364 225.996 51.572 225.572 51.724C225.148 51.876 224.624 51.952 224 51.952H223.22V55H221.408V46.432H224.144ZM224.048 47.92H223.22V50.464H223.82C224.164 50.464 224.46 50.42 224.708 50.332C224.956 50.244 225.148 50.104 225.284 49.912C225.42 49.72 225.488 49.472 225.488 49.168C225.488 48.744 225.372 48.432 225.14 48.232C224.908 48.024 224.544 47.92 224.048 47.92ZM234.936 46.432V53.488H236.076V57.496H234.324V55H228.96V57.496H227.208V53.488H227.868C228.092 53.04 228.308 52.568 228.516 52.072C228.724 51.576 228.916 51.044 229.092 50.476C229.276 49.908 229.44 49.292 229.584 48.628C229.728 47.956 229.848 47.224 229.944 46.432H234.936ZM231.384 47.944C231.328 48.36 231.248 48.804 231.144 49.276C231.04 49.74 230.916 50.216 230.772 50.704C230.636 51.192 230.484 51.672 230.316 52.144C230.148 52.616 229.968 53.064 229.776 53.488H233.124V47.944H231.384ZM237.393 46.432H239.025V50.572C239.025 50.772 239.021 50.996 239.013 51.244C239.005 51.492 238.997 51.736 238.989 51.976C238.981 52.208 238.973 52.412 238.965 52.588C238.957 52.756 238.949 52.872 238.941 52.936H238.977L242.937 46.432H245.109V55H243.489V50.884C243.489 50.668 243.493 50.432 243.501 50.176C243.509 49.912 243.517 49.66 243.525 49.42C243.541 49.18 243.553 48.972 243.561 48.796C243.577 48.612 243.589 48.492 243.597 48.436H243.549L239.577 55H237.393V46.432ZM255.047 50.704C255.047 51.368 254.963 51.972 254.795 52.516C254.635 53.052 254.387 53.516 254.051 53.908C253.723 54.3 253.299 54.6 252.779 54.808C252.267 55.016 251.663 55.12 250.967 55.12C250.271 55.12 249.663 55.016 249.143 54.808C248.631 54.592 248.207 54.292 247.871 53.908C247.543 53.516 247.295 53.048 247.127 52.504C246.967 51.96 246.887 51.356 246.887 50.692C246.887 49.804 247.031 49.032 247.319 48.376C247.615 47.72 248.063 47.212 248.663 46.852C249.271 46.484 250.043 46.3 250.979 46.3C251.907 46.3 252.671 46.484 253.271 46.852C253.871 47.212 254.315 47.724 254.603 48.388C254.899 49.044 255.047 49.816 255.047 50.704ZM248.795 50.704C248.795 51.304 248.871 51.82 249.023 52.252C249.175 52.684 249.411 53.016 249.731 53.248C250.051 53.48 250.463 53.596 250.967 53.596C251.487 53.596 251.903 53.48 252.215 53.248C252.535 53.016 252.767 52.684 252.911 52.252C253.063 51.82 253.139 51.304 253.139 50.704C253.139 49.8 252.971 49.092 252.635 48.58C252.299 48.068 251.747 47.812 250.979 47.812C250.467 47.812 250.051 47.928 249.731 48.16C249.411 48.392 249.175 48.724 249.023 49.156C248.871 49.588 248.795 50.104 248.795 50.704ZM261.832 55L261.208 52.96H258.088L257.464 55H255.508L258.532 46.396H260.752L263.788 55H261.832ZM260.152 49.444C260.112 49.308 260.06 49.136 259.996 48.928C259.932 48.72 259.868 48.508 259.804 48.292C259.74 48.076 259.688 47.888 259.648 47.728C259.608 47.888 259.552 48.088 259.48 48.328C259.416 48.56 259.352 48.784 259.288 49C259.232 49.208 259.188 49.356 259.156 49.444L258.544 51.436H260.776L260.152 49.444ZM271.893 55H270.081V51.304H266.685V55H264.873V46.432H266.685V49.792H270.081V46.432H271.893V55ZM279.461 46.432V47.932H275.861V55H274.049V46.432H279.461ZM280.775 46.432H282.407V50.572C282.407 50.772 282.403 50.996 282.395 51.244C282.387 51.492 282.379 51.736 282.371 51.976C282.363 52.208 282.355 52.412 282.347 52.588C282.339 52.756 282.331 52.872 282.323 52.936H282.359L286.319 46.432H288.491V55H286.871V50.884C286.871 50.668 286.875 50.432 286.883 50.176C286.891 49.912 286.899 49.66 286.907 49.42C286.923 49.18 286.935 48.972 286.943 48.796C286.959 48.612 286.971 48.492 286.979 48.436H286.931L282.959 55H280.775V46.432ZM298.43 50.704C298.43 51.368 298.346 51.972 298.178 52.516C298.018 53.052 297.77 53.516 297.434 53.908C297.106 54.3 296.682 54.6 296.162 54.808C295.65 55.016 295.046 55.12 294.35 55.12C293.654 55.12 293.046 55.016 292.526 54.808C292.014 54.592 291.59 54.292 291.254 53.908C290.926 53.516 290.678 53.048 290.51 52.504C290.35 51.96 290.27 51.356 290.27 50.692C290.27 49.804 290.414 49.032 290.702 48.376C290.998 47.72 291.446 47.212 292.046 46.852C292.654 46.484 293.426 46.3 294.362 46.3C295.29 46.3 296.054 46.484 296.654 46.852C297.254 47.212 297.698 47.724 297.986 48.388C298.282 49.044 298.43 49.816 298.43 50.704ZM292.178 50.704C292.178 51.304 292.254 51.82 292.406 52.252C292.558 52.684 292.794 53.016 293.114 53.248C293.434 53.48 293.846 53.596 294.35 53.596C294.87 53.596 295.286 53.48 295.598 53.248C295.918 53.016 296.15 52.684 296.294 52.252C296.446 51.82 296.522 51.304 296.522 50.704C296.522 49.8 296.354 49.092 296.018 48.58C295.682 48.068 295.13 47.812 294.362 47.812C293.85 47.812 293.434 47.928 293.114 48.16C292.794 48.392 292.558 48.724 292.406 49.156C292.254 49.588 292.178 50.104 292.178 50.704ZM306.751 55H304.939V47.944H302.839C302.791 48.312 302.739 48.712 302.683 49.144C302.635 49.576 302.579 50.016 302.515 50.464C302.459 50.904 302.399 51.324 302.335 51.724C302.271 52.116 302.207 52.464 302.143 52.768C302.039 53.264 301.899 53.688 301.723 54.04C301.555 54.392 301.319 54.66 301.015 54.844C300.719 55.028 300.331 55.12 299.851 55.12C299.691 55.12 299.539 55.108 299.395 55.084C299.251 55.06 299.115 55.028 298.987 54.988V53.5C299.091 53.532 299.191 53.56 299.287 53.584C299.391 53.608 299.503 53.62 299.623 53.62C299.783 53.62 299.915 53.568 300.019 53.464C300.123 53.36 300.215 53.184 300.295 52.936C300.375 52.68 300.455 52.328 300.535 51.88C300.575 51.688 300.623 51.416 300.679 51.064C300.735 50.704 300.799 50.284 300.871 49.804C300.951 49.316 301.031 48.788 301.111 48.22C301.191 47.644 301.267 47.048 301.339 46.432H306.751V55ZM316.688 50.704C316.688 51.368 316.604 51.972 316.436 52.516C316.276 53.052 316.028 53.516 315.692 53.908C315.364 54.3 314.94 54.6 314.42 54.808C313.908 55.016 313.304 55.12 312.608 55.12C311.912 55.12 311.304 55.016 310.784 54.808C310.272 54.592 309.848 54.292 309.512 53.908C309.184 53.516 308.936 53.048 308.768 52.504C308.608 51.96 308.528 51.356 308.528 50.692C308.528 49.804 308.672 49.032 308.96 48.376C309.256 47.72 309.704 47.212 310.304 46.852C310.912 46.484 311.684 46.3 312.62 46.3C313.548 46.3 314.312 46.484 314.912 46.852C315.512 47.212 315.956 47.724 316.244 48.388C316.54 49.044 316.688 49.816 316.688 50.704ZM310.436 50.704C310.436 51.304 310.512 51.82 310.664 52.252C310.816 52.684 311.052 53.016 311.372 53.248C311.692 53.48 312.104 53.596 312.608 53.596C313.128 53.596 313.544 53.48 313.856 53.248C314.176 53.016 314.408 52.684 314.552 52.252C314.704 51.82 314.78 51.304 314.78 50.704C314.78 49.8 314.612 49.092 314.276 48.58C313.94 48.068 313.388 47.812 312.62 47.812C312.108 47.812 311.692 47.928 311.372 48.16C311.052 48.392 310.816 48.724 310.664 49.156C310.512 49.588 310.436 50.104 310.436 50.704ZM323.875 46.432V47.932H320.275V55H318.463V46.432H323.875ZM325.189 46.432H326.821V50.572C326.821 50.772 326.817 50.996 326.809 51.244C326.801 51.492 326.793 51.736 326.785 51.976C326.777 52.208 326.769 52.412 326.761 52.588C326.753 52.756 326.745 52.872 326.737 52.936H326.773L330.733 46.432H332.905V55H331.285V50.884C331.285 50.668 331.289 50.432 331.297 50.176C331.305 49.912 331.313 49.66 331.321 49.42C331.337 49.18 331.349 48.972 331.357 48.796C331.373 48.612 331.385 48.492 331.393 48.436H331.345L327.373 55H325.189V46.432ZM335.068 46.432H336.7V50.572C336.7 50.772 336.696 50.996 336.688 51.244C336.68 51.492 336.672 51.736 336.664 51.976C336.656 52.208 336.648 52.412 336.64 52.588C336.632 52.756 336.624 52.872 336.616 52.936H336.652L340.612 46.432H342.784V55H341.164V50.884C341.164 50.668 341.168 50.432 341.176 50.176C341.184 49.912 341.192 49.66 341.2 49.42C341.216 49.18 341.228 48.972 341.236 48.796C341.252 48.612 341.264 48.492 341.272 48.436H341.224L337.252 55H335.068V46.432Z" fill="#1C407F"/>
<path d="M81.5048 78.2567C81.268 78.2766 81.0304 78.2284 80.8211 78.118C80.6118 78.0075 80.4398 77.8396 80.3261 77.6347C79.8762 76.6769 80.4655 75.8372 82.0625 75.1033L82.2653 75.0224L82.354 74.9789C83.0574 74.6741 83.8686 74.4005 84.6354 74.1454L85.0537 74.0086C86.638 73.4924 88.7356 72.8082 88.9891 72.236C88.9609 72.171 88.9459 72.1013 88.9447 72.0307L86.2641 66.5885C86.207 66.4531 86.207 66.301 86.2641 66.1655C86.2918 66.0983 86.333 66.0372 86.3853 65.986C86.4375 65.9347 86.4997 65.8942 86.5683 65.867C87.2337 65.6058 87.8357 65.4005 88.4314 65.245C88.733 65.1478 89.0397 65.0668 89.3503 65.0025C91.5833 64.4518 93.8937 64.2669 96.1881 64.4551H96.2578C96.3846 64.4551 96.7648 64.5049 96.7711 64.5049C100.31 64.8394 103.617 66.3799 106.119 68.8587C106.207 68.9448 106.262 69.0583 106.275 69.1799C106.287 69.3014 106.257 69.4235 106.188 69.5254C106.119 69.6273 106.017 69.7027 105.898 69.7388C105.779 69.7748 105.651 69.7693 105.535 69.7232C104.72 69.3526 103.825 69.1805 102.927 69.2217C102.029 69.2628 101.154 69.5159 100.377 69.9596C103.546 71.614 105.225 73.5173 105.58 75.8994C105.596 76.0013 105.581 76.1054 105.537 76.1991C105.494 76.2928 105.423 76.3719 105.334 76.4268C105.245 76.4816 105.142 76.5098 105.037 76.5078C104.932 76.5058 104.83 76.4738 104.743 76.4156C101.486 74.2387 97.7724 73.5795 93.4631 74.388L92.9181 74.5C90.4001 75.0885 87.9482 75.9219 85.5987 76.9879C83.8052 77.672 82.4491 78.2567 81.5048 78.2567ZM82.8293 75.9056C82.7157 75.9654 82.5969 76.0154 82.4744 76.0549C81.9865 76.285 81.1119 76.7515 81.2894 77.1371C81.4668 77.5228 83.5961 76.6147 85.136 75.9616C87.5581 74.8622 90.0839 73.9977 92.6773 73.3804L93.235 73.2685C97.3542 72.4972 100.941 72.9761 104.141 74.7363C103.425 73.0819 101.765 71.6887 99.0208 70.3825C98.935 70.343 98.8613 70.2818 98.8073 70.2054C98.7532 70.1289 98.7206 70.0398 98.7129 69.947C98.7052 69.8542 98.7226 69.7611 98.7633 69.677C98.804 69.593 98.8666 69.5209 98.9448 69.4682C100.293 68.4549 101.972 67.9595 103.666 68.075C101.584 66.6359 99.159 65.749 96.6254 65.5C96.3909 65.5 96.2071 65.4689 96.0614 65.4441C93.8855 65.2685 91.695 65.4471 89.5784 65.9727C89.5784 65.9727 88.9891 66.1096 88.8116 66.1593L88.7419 66.1904C88.3363 66.3024 87.9181 66.4392 87.4745 66.5947L89.9206 71.5705C89.9346 71.5947 89.9473 71.6196 89.9587 71.6451C90.0319 71.7967 90.0699 71.9625 90.0699 72.1303C90.0699 72.2981 90.0319 72.4638 89.9587 72.6154C89.5151 73.623 87.6202 74.2387 85.4276 74.954L84.9142 75.1219C84.2488 75.3707 83.482 75.6257 82.8293 75.9056Z" fill="#1C407F"/>
<path d="M43.7844 78.2499C42.8402 78.2499 41.4777 77.6715 39.7413 76.9375C38.74 76.5084 37.5993 76.0295 36.3699 75.5817L35.1785 75.1649C29.2976 73.2492 24.6587 73.6162 20.6029 76.3342C20.5147 76.389 20.4126 76.418 20.3082 76.418C20.2039 76.418 20.1017 76.389 20.0136 76.3342C19.9242 76.2795 19.8532 76.2002 19.8092 76.1063C19.7653 76.0123 19.7504 75.9077 19.7664 75.8056C20.1213 73.4234 21.7816 71.5202 24.9692 69.8657C24.1928 69.4236 23.3193 69.1713 22.4226 69.1302C21.5259 69.0891 20.6322 69.2603 19.8171 69.6294C19.704 69.6706 19.5801 69.6735 19.4652 69.6374C19.3503 69.6013 19.251 69.5284 19.1834 69.4303C19.1154 69.3288 19.0846 69.2076 19.0961 69.0867C19.1076 68.9657 19.1608 68.8522 19.2468 68.7648C21.1153 66.8855 23.4777 65.5508 26.0719 64.9086C26.2367 64.8588 26.4775 64.8091 26.8451 64.7282C29.2351 64.239 31.6959 64.18 34.1075 64.5541L34.3927 64.6038C35.9089 64.8526 37.3953 65.2528 38.8287 65.798C38.8978 65.8243 38.9605 65.8644 39.0129 65.9158C39.0653 65.9672 39.1061 66.0288 39.1329 66.0966C39.1627 66.1643 39.1781 66.2373 39.1781 66.3112C39.1781 66.385 39.1627 66.458 39.1329 66.5257L36.4206 72.0177V72.0675C36.6424 72.7455 38.7083 73.4296 39.7032 73.7593L41.0214 74.1884C43.2964 74.941 44.697 75.5568 45.1025 76.4773C45.1822 76.647 45.2234 76.8316 45.2234 77.0184C45.2234 77.2052 45.1822 77.3898 45.1025 77.5595C44.9857 77.7968 44.795 77.9915 44.5581 78.1156C44.3212 78.2397 44.0503 78.2867 43.7844 78.2499ZM28.4484 72.9196C30.8585 72.9596 33.2464 73.3796 35.5207 74.1635L36.7501 74.5927C38.0175 75.0467 39.1519 75.5319 40.1722 75.9611C41.7058 76.6141 43.8034 77.5035 44.0252 77.1117C44.0408 77.0808 44.049 77.0467 44.049 77.0122C44.049 76.9777 44.0408 76.9436 44.0252 76.9127C43.7337 76.2534 41.5347 75.5194 40.5904 75.2085L39.2723 74.7793C37.2698 74.12 35.7108 73.5354 35.3179 72.6148C35.2099 72.3407 35.2099 72.0369 35.3179 71.7627C35.3261 71.7301 35.3389 71.6986 35.3559 71.6694L37.8908 66.5942C36.7036 66.1808 35.4824 65.8687 34.2406 65.6612L33.9617 65.6177C31.6855 65.2595 29.3618 65.3122 27.1049 65.7731C27.1049 65.7731 26.6042 65.8789 26.4712 65.9224H26.4015C24.7201 66.3491 23.1342 67.0788 21.7246 68.0744C23.4204 67.9614 25.1003 68.4565 26.4522 69.4677C26.5306 69.5199 26.5933 69.592 26.6334 69.6763C26.6736 69.7606 26.6898 69.854 26.6803 69.9466C26.6729 70.0389 26.6409 70.1278 26.5875 70.2042C26.5341 70.2806 26.4612 70.3419 26.3761 70.382C23.6321 71.6632 21.9401 73.0627 21.2556 74.7358C23.4542 73.5333 25.9316 72.9078 28.4484 72.9196Z" fill="#1C407F"/>
<path d="M62.6295 77.2114C58.8352 77.1814 55.0561 76.7371 51.362 75.8866L50.4367 75.6689C48.8081 75.277 47.116 74.7919 45.2592 74.201L45.1135 74.1575L43.5102 73.6288C43.5102 73.6288 42.661 73.3241 42.4582 73.2681H42.3758C39.4037 72.2605 36.9258 71.4022 36.3745 72.0241L36.2731 72.1734C36.2128 72.2914 36.1102 72.3833 35.9851 72.4315C35.8599 72.4798 35.721 72.4809 35.595 72.4346C35.4725 72.3883 35.3717 72.2992 35.312 72.1844C35.2524 72.0696 35.238 71.9372 35.2718 71.8127V71.7318L39.6191 62.8998C40.1388 61.7305 41.9322 61.9046 42.5216 61.9606L43.4341 62.0912C44.9908 62.404 46.5205 62.8345 48.0096 63.3787C48.6433 63.6088 49.277 63.8079 49.9107 64.0007L50.4748 64.1873C53.1399 65.0999 55.8849 65.7703 58.6751 66.19L59.1504 66.2522C60.3028 66.3916 61.4621 66.4684 62.6232 66.4824C64.8456 66.4515 67.0588 66.193 69.2265 65.7111C69.2791 65.7046 69.3324 65.7046 69.385 65.7111C69.385 65.7111 69.9046 65.5681 69.968 65.5494C72.3398 64.973 74.6775 64.2691 76.9706 63.4409L77.6043 63.217C77.6653 63.2082 77.7272 63.2082 77.7881 63.217C77.7881 63.217 78.2951 63.0242 78.4915 62.9558C79.1633 62.7381 79.8667 62.5328 80.5955 62.3338L81.5777 62.1161C83.8655 61.6745 85.1899 61.9357 85.6145 62.906L87.2052 66.134L89.9112 71.6261C89.943 71.6967 89.9602 71.7728 89.9619 71.85C89.9621 71.9669 89.9229 72.0805 89.8503 72.1732C89.7777 72.2659 89.6759 72.3324 89.5608 72.3622C89.4456 72.3921 89.3236 72.3836 89.2139 72.3382C89.1042 72.2928 89.0128 72.213 88.9542 72.1112L88.8845 72.0117C88.3332 71.3897 85.8744 72.2418 83.029 73.2059C82.1481 73.5044 81.1848 73.8278 80.1455 74.1699L79.9998 74.2073C79.4611 74.3752 78.8908 74.5556 78.2951 74.7297L76.6728 75.1962C74.8666 75.6875 73.1619 76.0732 71.4699 76.3779L69.8539 76.6454C67.4636 77.0108 65.0487 77.2 62.6295 77.2114ZM42.6293 72.2356C43.0594 72.3436 43.4827 72.4765 43.8967 72.6337L45.481 73.1561L45.6268 73.1997C47.4583 73.7843 49.1249 74.257 50.7282 74.6426L51.6408 74.8603C55.2533 75.696 58.9498 76.132 62.6612 76.1602C65.0165 76.142 67.3673 75.957 69.6955 75.6067L71.2798 75.3455C72.9401 75.0469 74.6132 74.6675 76.3876 74.1824L77.9972 73.7221C78.5739 73.5542 79.1379 73.3738 79.6893 73.1997L79.8287 73.1561C80.8616 72.8203 81.8186 72.4968 82.6931 72.1983C85.1519 71.3648 86.9707 70.7491 88.2191 70.7491H88.3015L84.6513 63.3352C84.4992 62.9931 83.6944 62.7816 81.8186 63.1424L80.8616 63.3538C80.1772 63.5218 79.4991 63.7208 78.9605 63.9012L77.9972 64.2246L77.3635 64.4423C75.0404 65.2775 72.6732 65.9897 70.2722 66.5757C70.2722 66.5757 69.7715 66.7125 69.4864 66.756C67.251 67.2446 64.9702 67.5051 62.6802 67.5335C61.4725 67.5239 60.2663 67.445 59.068 67.2971L58.5864 67.2287C55.7273 66.8042 52.9143 66.1213 50.1832 65.1887L49.6192 64.9958L47.8195 64.3739C46.362 63.8433 44.8638 63.4273 43.3391 63.1299L42.5026 63.0055C41.4886 62.9122 40.8169 63.0055 40.6774 63.3352L37.0209 70.7988C38.2883 70.7491 40.1388 71.4208 42.68 72.2667L42.6293 72.2356Z" fill="#1C407F"/>
<path d="M48.3131 68.3482L48.4715 67.7635C48.3258 67.5756 48.1503 67.4118 47.9519 67.2784C47.7561 67.1483 47.5428 67.0457 47.3181 66.9736C47.0594 66.8789 46.7837 66.8372 46.5079 66.8511C46.2322 66.865 45.9623 66.9342 45.7148 67.0545C45.4706 67.1851 45.2556 67.3625 45.0825 67.5762C44.9095 67.7898 44.7818 68.0354 44.7072 68.2984C44.5702 68.6859 44.5375 69.1015 44.6122 69.505C44.6857 69.8857 44.8656 70.2389 45.1318 70.5251C45.3917 70.8146 45.7268 71.0296 46.1014 71.147C46.3976 71.241 46.7038 71.3015 47.0139 71.3274C47.2698 71.3388 47.5257 71.3029 47.7681 71.2217L47.8188 71.3087C47.736 71.39 47.6598 71.4773 47.5906 71.57C47.3013 71.6129 47.0081 71.6254 46.7161 71.6073C46.4362 71.5874 46.1597 71.5352 45.8923 71.4518C45.3936 71.3028 44.9377 71.0407 44.5615 70.6868C44.2266 70.3798 43.9889 69.9847 43.877 69.5486C43.7739 69.1006 43.7947 68.6336 43.9373 68.1962C44.0799 67.7587 44.3392 67.3667 44.6882 67.0607C45.0307 66.7668 45.454 66.5786 45.9049 66.5196C46.4464 66.4591 46.9948 66.5208 47.5083 66.6999C47.8731 66.8233 48.2219 66.9882 48.5476 67.1913C48.744 67.3095 48.8961 67.3965 49.0228 67.4587C48.803 67.7385 48.6356 68.0544 48.5285 68.3917L48.3131 68.3482Z" fill="#1C407F"/>
<path d="M49.4816 67.7203L49.5323 67.5088C49.9886 67.6394 50.3245 67.7265 50.5336 67.7762C50.7427 67.826 51.0786 67.9006 51.5159 67.9877L51.4588 68.1992L51.2117 68.137C51.0025 68.0872 50.8631 68.0934 50.7997 68.1681C50.6456 68.5084 50.5329 68.8654 50.4639 69.2316L50.1407 70.5316C50.0429 70.8595 49.9855 71.1978 49.9696 71.5392C49.9774 71.6487 50.0071 71.7556 50.0572 71.8538C50.1072 71.952 50.1765 72.0395 50.2611 72.1114C50.4986 72.3164 50.7872 72.4559 51.0976 72.5157C51.4277 72.6088 51.7762 72.6195 52.1115 72.5468C52.3177 72.4941 52.4976 72.3705 52.6185 72.1985C52.8176 71.8545 52.9568 71.4803 53.0304 71.0913L53.3473 69.8474C53.4582 69.5204 53.5159 69.1782 53.5184 68.8336C53.4804 68.7403 53.3473 68.6594 53.1065 68.6035L52.9354 68.5599L52.9861 68.3547L53.8733 68.591C54.0761 68.6408 54.3359 68.6968 54.6401 68.7527L54.5894 68.9642L54.3549 68.9082C54.2925 68.8822 54.2239 68.8736 54.1567 68.8835C54.0896 68.8934 54.0266 68.9213 53.9747 68.9642C53.8232 69.272 53.7145 69.5983 53.6515 69.9345L53.341 71.1784C53.2587 71.5668 53.1311 71.9445 52.9607 72.3042C52.8558 72.4926 52.703 72.6512 52.5171 72.7644C52.3039 72.8934 52.0631 72.9722 51.8137 72.9946C51.5011 73.0232 51.1859 72.9979 50.8821 72.9199C50.5667 72.8469 50.2636 72.7296 49.9822 72.5716C49.7782 72.4582 49.6011 72.3034 49.4626 72.1176C49.3598 71.9631 49.2988 71.7854 49.2852 71.6014C49.2849 71.2899 49.3297 70.98 49.4182 70.6808L49.5893 70.0589L49.8428 69.0513C49.9455 68.7038 50.0155 68.3478 50.052 67.9877C50.052 67.9006 49.9189 67.8384 49.7224 67.7887L49.4816 67.7203Z" fill="#1C407F"/>
<path d="M60.0441 70.1586L58.7767 72.1489C58.3014 72.8953 57.9085 73.5545 57.5979 74.1143H57.4585C57.3951 73.9029 57.2114 73.3555 56.9008 72.4785L55.9186 69.8165L55.6271 72.4412C55.5592 72.7876 55.5463 73.1421 55.589 73.4924C55.6271 73.5794 55.7792 73.6354 56.039 73.6665H56.1657V73.878C55.8489 73.8282 55.589 73.7909 55.3863 73.7722C55.1835 73.7536 54.949 73.7349 54.5117 73.7038V73.4861H54.7399C54.844 73.5099 54.9533 73.4989 55.0504 73.455C55.1155 73.3961 55.158 73.3171 55.1708 73.2311C55.2342 72.9201 55.2849 72.578 55.3292 72.2111L55.5383 70.2892C55.5801 69.9839 55.6055 69.6766 55.6144 69.3687C55.6149 69.3327 55.6079 69.297 55.5937 69.2638C55.5795 69.2306 55.5585 69.2007 55.532 69.1759C55.4253 69.1173 55.3057 69.0852 55.1835 69.0826H54.9997V68.8711L55.7538 68.9768L56.3178 69.0141C56.5333 69.6361 56.7804 70.3576 57.0593 71.1289L57.769 73.0632L58.7957 71.4523C59.1569 70.8925 59.5751 70.2083 60.0631 69.4122C60.3483 69.462 60.5511 69.4868 60.6968 69.4993C60.8426 69.5117 61.0834 69.5366 61.4383 69.5553V69.773H61.2101C61.0073 69.773 60.8806 69.773 60.8299 69.8352C60.7319 70.068 60.6803 70.3171 60.6778 70.5691L60.399 73.057C60.3426 73.3732 60.3319 73.6957 60.3673 74.0148C60.4053 74.1019 60.5321 74.1516 60.7475 74.1765H60.9503V74.388C60.6335 74.3382 60.3166 74.2947 60.0314 74.2636C59.7462 74.2325 59.3977 74.2014 59.0175 74.1827V73.965H59.2456C59.423 73.965 59.5371 73.965 59.5878 73.8842C59.6804 73.5572 59.7377 73.2216 59.7589 72.8828L60.0441 70.1586Z" fill="#1C407F"/>
<path d="M64.9577 73.9088C64.9577 73.5543 64.9133 72.9385 64.8183 72.0429L64.7106 71.0602C64.6662 70.6559 64.6155 70.3138 64.5585 70.0215C64.545 69.9212 64.5128 69.8242 64.4634 69.7354C64.3697 69.6954 64.2675 69.6784 64.1656 69.6856H63.8867V69.4741C64.2733 69.4741 64.5204 69.4244 64.6599 69.4119L65.5914 69.3062L66.3456 69.2191C66.6593 69.1848 66.976 69.1848 67.2898 69.2191C67.6141 69.2499 67.9277 69.3497 68.2087 69.5114C68.4847 69.6734 68.7155 69.8999 68.8804 70.1707C69.0559 70.4698 69.1619 70.8033 69.191 71.1472C69.2389 71.4995 69.2119 71.8578 69.1115 72.1993C69.0112 72.5408 68.8397 72.8582 68.6079 73.1313C68.3597 73.4124 68.0572 73.6423 67.7178 73.8078C67.3784 73.9733 67.0089 74.0711 66.6307 74.0954L66.2061 74.1265L65.4076 74.1825C65.2239 74.1825 64.9894 74.2447 64.7042 74.3006V74.1389L64.9577 73.9088ZM65.7055 73.8155C65.9819 73.8352 66.2593 73.8352 66.5357 73.8155C67.0825 73.7971 67.6015 73.5746 67.9869 73.1935C68.1897 72.9422 68.3359 72.6514 68.4156 72.3404C68.4954 72.0295 68.5069 71.7055 68.4495 71.3898C68.4398 71.1129 68.3724 70.8409 68.2514 70.5906C68.1304 70.3403 67.9584 70.1169 67.7461 69.9344C67.5119 69.7726 67.2474 69.658 66.9679 69.5972C66.6883 69.5363 66.3993 69.5304 66.1174 69.5799C65.8288 69.6147 65.543 69.6687 65.2619 69.7416C65.2571 69.9909 65.2698 70.2403 65.2999 70.4879L65.5407 72.7084C65.5851 73.0816 65.6421 73.461 65.7055 73.8155Z" fill="#1C407F"/>
<path d="M71.4343 71.004L71.6181 71.825L71.7258 72.2915C71.7955 72.59 71.8462 72.8015 71.8843 72.9135C72.2201 72.8637 72.575 72.8015 72.9553 72.7144C73.1701 72.6725 73.3818 72.6164 73.589 72.5465C73.7076 72.5044 73.8204 72.448 73.9248 72.3786C73.9248 72.1733 73.9248 71.9183 73.9248 71.6073L74.1466 71.5638C74.1973 72.0614 74.2417 72.3972 74.2797 72.559L74.3177 72.7082C74.0643 72.7891 73.8108 72.8513 73.5573 72.9073L73.025 73.013C72.4293 73.1249 71.9983 73.212 71.7195 73.2742C71.4407 73.3364 71.0858 73.411 70.6675 73.523L70.6232 73.3115H70.7246C70.854 73.2936 70.9776 73.2468 71.0858 73.1747C71.1364 73.0858 71.1522 72.9819 71.1301 72.8824C71.1301 72.7393 71.0541 72.4283 70.9464 71.9494L70.5281 70.1208C70.4647 69.8223 70.4014 69.5735 70.3443 69.3869C70.3161 69.2723 70.2735 69.1616 70.2176 69.0572C70.1943 69.0275 70.1638 69.004 70.1289 68.9888C70.0281 68.973 69.9254 68.973 69.8247 68.9888L69.5522 69.0199L69.5078 68.8085L69.8754 68.7338L70.2366 68.6654L70.6992 68.5783L71.9666 68.2736L72.6004 68.1367C72.8158 68.087 73.025 68.0497 73.2341 68.0186C73.2152 68.3754 73.245 68.7331 73.3228 69.0821L73.0947 69.1319C73.0505 68.9207 72.9912 68.7129 72.9172 68.5099C72.5756 68.4768 72.2308 68.4999 71.8969 68.5783C71.5864 68.6467 71.2632 68.7276 70.9337 68.8333C70.9844 69.0386 71.0287 69.2501 71.0668 69.4553L71.1745 69.9715L71.3266 70.6495C71.5547 70.6122 71.7575 70.5811 71.9286 70.5438C72.2399 70.4943 72.5441 70.4087 72.8348 70.2887C72.8919 70.239 72.9046 70.1146 72.8348 69.9218L72.7905 69.7041L73.0186 69.6543C73.0757 69.9964 73.1327 70.2763 73.177 70.4629C73.2214 70.6495 73.2848 70.9232 73.3672 71.2093L73.139 71.259L73.0947 71.0662C73.044 70.8485 72.9743 70.7304 72.8792 70.6993C72.5681 70.6924 72.2579 70.7344 71.9603 70.8236L71.4343 71.004Z" fill="#1C407F"/>
<path d="M74.664 70.1524C74.5491 69.8352 74.5039 69.4979 74.5312 69.1624C74.5585 68.8269 74.6577 68.5008 74.8224 68.2056C75.1916 67.5911 75.7927 67.1442 76.4954 66.9616C77.1428 66.724 77.8591 66.7441 78.4916 67.0176C78.7764 67.1606 79.0274 67.3607 79.2283 67.605C79.4292 67.8493 79.5755 68.1323 79.6577 68.4357C79.7723 68.7719 79.8151 69.1276 79.7835 69.4808C79.7519 69.8339 79.6465 70.1768 79.4739 70.4882C79.2969 70.8067 79.0565 71.087 78.7669 71.3125C78.4773 71.5379 78.1445 71.7039 77.7882 71.8006C77.3596 71.9414 76.9012 71.9714 76.4574 71.8877C76.0431 71.8031 75.6637 71.5996 75.3674 71.303C75.0405 70.9817 74.799 70.5866 74.664 70.1524ZM75.2533 69.6797C75.3847 70.122 75.6117 70.5315 75.9187 70.8801C76.165 71.1761 76.4962 71.3928 76.8693 71.502C77.2189 71.6028 77.5907 71.6028 77.9403 71.502C78.2603 71.4118 78.548 71.2351 78.7705 70.992C78.9852 70.7463 79.1199 70.443 79.157 70.1213C79.2028 69.7205 79.1574 69.3147 79.024 68.9333C78.903 68.521 78.686 68.142 78.3902 67.8262C78.1508 67.5613 77.8346 67.3747 77.484 67.2913C77.1245 67.2114 76.7494 67.2308 76.4004 67.3473C76.0768 67.435 75.7834 67.6069 75.5512 67.8448C75.3336 68.0738 75.1921 68.3623 75.1456 68.6721C75.1037 69.0116 75.1405 69.3561 75.2533 69.6797Z" fill="#1C407F"/>
<path d="M43.8134 14.7119L25.4758 22.0017C25.2001 22.1113 25.0671 22.4196 25.1788 22.6902C25.2905 22.9608 25.6045 23.0914 25.8803 22.9817L44.2179 15.6919C44.4936 15.5823 44.6266 15.2741 44.5149 15.0034C44.4032 14.7328 44.0892 14.6023 43.8134 14.7119Z" fill="#1C407F"/>
<path d="M42.9228 12.6592L24.5852 19.949C24.3095 20.0586 24.1765 20.3668 24.2882 20.6375C24.3998 20.9081 24.7139 21.0386 24.9896 20.929L43.3273 13.6392C43.603 13.5296 43.736 13.2213 43.6243 12.9507C43.5126 12.6801 43.1985 12.5496 42.9228 12.6592Z" fill="#1C407F"/>
<path d="M16.4453 21.9056V55.7845C16.4453 55.9247 16.5021 56.0591 16.6031 56.1583C16.7041 56.2574 16.8411 56.3131 16.984 56.3131C17.1268 56.3131 17.2638 56.2574 17.3649 56.1583C17.4659 56.0591 17.5226 55.9247 17.5226 55.7845V21.9056C17.5226 21.7654 17.4659 21.6309 17.3649 21.5318C17.2638 21.4327 17.1268 21.377 16.984 21.377C16.8411 21.377 16.7041 21.4327 16.6031 21.5318C16.5021 21.6309 16.4453 21.7654 16.4453 21.9056Z" fill="#1C407F"/>
<path d="M17.3145 28.4427C28.9496 24.0018 40.5509 19.4987 52.1184 14.9335C52.7521 14.6847 52.4796 13.6584 51.8332 13.9134C40.2446 18.4746 28.6264 22.9776 16.9786 27.4227C16.3449 27.6715 16.611 28.6666 17.2638 28.4427H17.3145Z" fill="#1C407F"/>
<path d="M17.1729 54.4467C27.3125 54.3286 37.452 53.4516 47.4901 52.5186C48.9667 52.3818 50.4559 52.2698 51.9262 52.0335C52.6042 51.9215 52.3191 50.9015 51.6346 51.0135C46.6916 51.8158 41.5648 51.9837 36.5711 52.3507C30.1199 52.8234 23.6496 53.3147 17.1793 53.3894C17.0364 53.3894 16.8994 53.4451 16.7984 53.5442C16.6974 53.6434 16.6406 53.7778 16.6406 53.9181C16.6406 54.0583 16.6974 54.1927 16.7984 54.2919C16.8994 54.391 17.0364 54.4467 17.1793 54.4467H17.1729Z" fill="#1C407F"/>
<path d="M51.2383 6.66149C51.3143 28.1257 51.3904 43.2397 51.4664 64.7039C51.4664 64.8441 51.5232 64.9786 51.6242 65.0778C51.7252 65.1769 51.8622 65.2326 52.0051 65.2326C52.1479 65.2326 52.285 65.1769 52.386 65.0778C52.487 64.9786 52.5437 64.8441 52.5437 64.7039C52.4677 43.2397 52.3916 28.1257 52.3156 6.66149C52.3156 6.52128 52.2589 6.38681 52.1578 6.28766C52.0568 6.18851 51.9198 6.13281 51.7769 6.13281C51.6341 6.13281 51.4971 6.18851 51.3961 6.28766C51.295 6.38681 51.2383 6.52128 51.2383 6.66149Z" fill="#1C407F"/>
<path d="M36.082 33.8723V26.9373L40.8223 25.6934V32.8025L36.082 33.8723Z" fill="#1C407F"/>
<path d="M48.9805 17.49V51.4746C48.995 51.6073 49.0591 51.73 49.1602 51.8192C49.2614 51.9084 49.3926 51.9578 49.5286 51.9578C49.6646 51.9578 49.7958 51.9084 49.897 51.8192C49.9982 51.73 50.0622 51.6073 50.0768 51.4746V17.49C50.0622 17.3573 49.9982 17.2346 49.897 17.1454C49.7958 17.0562 49.6646 17.0068 49.5286 17.0068C49.3926 17.0068 49.2614 17.0562 49.1602 17.1454C49.0591 17.2346 48.995 17.3573 48.9805 17.49Z" fill="#1C407F"/>
<path d="M27.0976 35.7382V29.3506L24.0938 30.1778V36.4784L27.0976 35.7382Z" fill="#1C407F"/>
<path d="M17.0488 22.4034C17.1824 22.3892 17.306 22.3271 17.3957 22.2289C17.4855 22.1308 17.5351 22.0035 17.5351 21.8716C17.5351 21.7397 17.4855 21.6125 17.3957 21.5143C17.306 21.4162 17.1824 21.354 17.0488 21.3398C16.9152 21.354 16.7917 21.4162 16.7019 21.5143C16.6121 21.6125 16.5625 21.7397 16.5625 21.8716C16.5625 22.0035 16.6121 22.1308 16.7019 22.2289C16.7917 22.3271 16.9152 22.3892 17.0488 22.4034Z" fill="#1C407F"/>
<path d="M17.206 22.0482C28.9044 16.9854 40.774 12.3206 52.3457 6.96541H51.8007L71.8643 16.3634L103.715 31.2907L111.054 34.78C111.178 34.8452 111.323 34.8615 111.46 34.8258C111.596 34.79 111.714 34.7047 111.789 34.5872L112.6 33.4863C113.005 32.9327 112.074 32.4041 111.668 32.9514L110.857 34.0523L111.599 33.8657L84.2726 21.0406L52.8274 6.28124C52.6085 6.13 52.3473 6.04883 52.0796 6.04883C51.8119 6.04883 51.5507 6.13 51.3318 6.28124C47.5802 7.99373 43.8095 9.66269 40.0199 11.2881C32.2505 14.597 24.4177 17.7877 16.661 21.1339C16.0272 21.4076 16.5722 22.3157 17.206 22.0482Z" fill="#1C407F"/>
<path d="M61.9821 7.69942V5.06226C61.9676 4.93114 61.9043 4.80988 61.8043 4.72179C61.7043 4.63369 61.5746 4.58496 61.4403 4.58496C61.3059 4.58496 61.1762 4.63369 61.0762 4.72179C60.9762 4.80988 60.9129 4.93114 60.8984 5.06226V7.69942C60.8984 7.84022 60.955 7.97533 61.0558 8.07547C61.1567 8.17561 61.2937 8.23268 61.4371 8.23432C61.5806 8.23115 61.7174 8.17378 61.8189 8.07415C61.9204 7.97451 61.9789 7.84029 61.9821 7.69942Z" fill="#1C407F"/>
<path d="M65.2179 9.32309V4.64586C65.2179 4.50565 65.1612 4.37118 65.0602 4.27203C64.9592 4.17289 64.8221 4.11719 64.6793 4.11719C64.5364 4.11719 64.3994 4.17289 64.2984 4.27203C64.1974 4.37118 64.1406 4.50565 64.1406 4.64586V9.32309C64.1406 9.46331 64.1974 9.59778 64.2984 9.69692C64.3994 9.79607 64.5364 9.85177 64.6793 9.85177C64.8221 9.85177 64.9592 9.79607 65.0602 9.69692C65.1612 9.59778 65.2179 9.46331 65.2179 9.32309Z" fill="#1C407F"/>
<path d="M64.1563 3.87438V4.80734C64.1561 4.87675 64.17 4.94551 64.1972 5.00958C64.2244 5.07366 64.2643 5.13177 64.3147 5.18052C64.4158 5.27918 64.5523 5.335 64.6949 5.33602C64.7656 5.33619 64.8357 5.32253 64.901 5.29583C64.9663 5.26913 65.0255 5.22993 65.0751 5.18052C65.1745 5.08053 65.2312 4.94702 65.2336 4.80734V3.87438C65.2337 3.80497 65.2198 3.73621 65.1926 3.67214C65.1654 3.60807 65.1255 3.54995 65.0751 3.5012C64.974 3.40254 64.8375 3.34672 64.6949 3.3457C64.6242 3.34553 64.5541 3.35919 64.4889 3.38589C64.4236 3.41259 64.3644 3.45179 64.3147 3.5012C64.2142 3.60046 64.1573 3.73444 64.1563 3.87438Z" fill="#1C407F"/>
<path d="M75.3372 21.9619L78.284 23.1312V20.805L75.2422 19.3496V21.9619H75.3372Z" fill="#1C407F"/>
<path d="M11.9922 59.1927V64.8402C11.9922 64.9805 12.0489 65.1149 12.15 65.2141C12.251 65.3132 12.388 65.3689 12.5308 65.3689C12.6737 65.3689 12.8107 65.3132 12.9117 65.2141C13.0128 65.1149 13.0695 64.9805 13.0695 64.8402V59.1927C13.0695 59.0525 13.0128 58.9181 12.9117 58.8189C12.8107 58.7198 12.6737 58.6641 12.5308 58.6641C12.388 58.6641 12.251 58.7198 12.15 58.8189C12.0489 58.9181 11.9922 59.0525 11.9922 59.1927Z" fill="#1C407F"/>
<path d="M12.2262 65.6052H25.2808C25.4237 65.6052 25.5607 65.5495 25.6617 65.4504C25.7627 65.3512 25.8195 65.2167 25.8195 65.0765C25.8195 64.9363 25.7627 64.8018 25.6617 64.7027C25.5607 64.6035 25.4237 64.5479 25.2808 64.5479H12.2262C12.0833 64.5479 11.9463 64.6035 11.8453 64.7027C11.7443 64.8018 11.6875 64.9363 11.6875 65.0765C11.6875 65.2167 11.7443 65.3512 11.8453 65.4504C11.9463 65.5495 12.0833 65.6052 12.2262 65.6052Z" fill="#1C407F"/>
<path d="M11.4632 65.0771V66.4641C11.4029 66.8996 11.4029 67.3411 11.4632 67.7765C11.666 68.3985 12.3187 68.3363 12.8511 68.3985C14.1185 68.527 15.3859 68.6369 16.6534 68.7281C19.765 68.952 17.5596 68.6597 20.6712 68.8898C21.3683 68.9396 21.3619 67.876 20.6712 67.8263C16.0387 67.4904 16.7231 67.7578 12.0969 67.2603L12.4835 67.4158L12.3441 67.2665L12.5025 67.6397V65.0834C12.5025 64.9431 12.4458 64.8087 12.3447 64.7095C12.2437 64.6104 12.1067 64.5547 11.9639 64.5547C11.821 64.5547 11.684 64.6104 11.583 64.7095C11.4819 64.8087 11.4252 64.9431 11.4252 65.0834L11.4632 65.0771Z" fill="#1C407F"/>
<path d="M25.0273 56.2015V65.1828C25.0273 65.323 25.0841 65.4575 25.1851 65.5566C25.2861 65.6558 25.4231 65.7115 25.566 65.7115C25.7089 65.7115 25.8459 65.6558 25.9469 65.5566C26.0479 65.4575 26.1047 65.323 26.1047 65.1828V56.2015C26.1047 56.0613 26.0479 55.9268 25.9469 55.8277C25.8459 55.7286 25.7089 55.6729 25.566 55.6729C25.4231 55.6729 25.2861 55.7286 25.1851 55.8277C25.0841 55.9268 25.0273 56.0613 25.0273 56.2015Z" fill="#1C407F"/>
<path d="M30.3047 56.7918V64.6659C30.3192 64.797 30.3825 64.9183 30.4825 65.0064C30.5825 65.0945 30.7121 65.1432 30.8465 65.1432C30.9809 65.1432 31.1105 65.0945 31.2105 65.0064C31.3106 64.9183 31.3739 64.797 31.3883 64.6659V56.7918C31.3739 56.6606 31.3106 56.5394 31.2105 56.4513C31.1105 56.3632 30.9809 56.3145 30.8465 56.3145C30.7121 56.3145 30.5825 56.3632 30.4825 56.4513C30.3825 56.5394 30.3192 56.6606 30.3047 56.7918Z" fill="#1C407F"/>
<path d="M24.0439 56.7917C26.4077 56.9161 28.7714 56.8353 31.1352 57.0716C31.2781 57.0716 31.4151 57.0159 31.5161 56.9168C31.6171 56.8176 31.6739 56.6831 31.6739 56.5429C31.6739 56.4027 31.6171 56.2682 31.5161 56.1691C31.4151 56.07 31.2781 56.0142 31.1352 56.0142C28.7714 55.7717 26.4077 55.8588 24.0439 55.7344C23.3468 55.697 23.3531 56.7544 24.0439 56.7917Z" fill="#1C407F"/>
<path d="M37.9219 56.2504V65.5799C37.9219 65.7202 37.9786 65.8546 38.0796 65.9538C38.1807 66.0529 38.3177 66.1086 38.4605 66.1086C38.6034 66.1086 38.7404 66.0529 38.8414 65.9538C38.9424 65.8546 38.9992 65.7202 38.9992 65.5799V56.2504C38.9992 56.1101 38.9424 55.9757 38.8414 55.8765C38.7404 55.7774 38.6034 55.7217 38.4605 55.7217C38.3177 55.7217 38.1807 55.7774 38.0796 55.8765C37.9786 55.9757 37.9219 56.1101 37.9219 56.2504Z" fill="#1C407F"/>
<path d="M30.6533 56.9789C33.3994 56.8628 36.1455 56.8275 38.8916 56.8731C39.0345 56.8731 39.1715 56.8174 39.2725 56.7183C39.3735 56.6192 39.4303 56.4847 39.4303 56.3445C39.4303 56.2043 39.3735 56.0698 39.2725 55.9706C39.1715 55.8715 39.0345 55.8158 38.8916 55.8158C36.1455 55.766 33.3994 55.8013 30.6533 55.9215C29.9625 55.9526 29.9562 57.01 30.6533 56.9789Z" fill="#1C407F"/>
<path d="M24.4993 56.3385C24.6514 55.8907 25.2788 55.7166 25.6844 55.5549C26.2821 55.3576 26.9109 55.267 27.5412 55.2874C28.0971 55.3043 28.642 55.4445 29.1348 55.6977C29.6276 55.9508 30.0556 56.3103 30.3866 56.749C30.7858 57.3026 31.7174 56.749 31.3181 56.2142C30.874 55.6003 30.2869 55.0994 29.6057 54.7532C28.9245 54.407 28.1689 54.2255 27.4018 54.2238C26.5696 54.2171 25.7444 54.3736 24.9746 54.6841C24.6321 54.7873 24.3171 54.9635 24.052 55.2C23.7869 55.4366 23.5782 55.7276 23.441 56.0524C23.2192 56.6744 24.2585 56.9792 24.4803 56.3385H24.4993Z" fill="#1C407F"/>
<path d="M30.2673 57.5198C30.2916 57.4715 30.3237 57.4274 30.3623 57.3892L30.2609 57.4949C30.2917 57.4627 30.3257 57.4335 30.3623 57.4079L30.2356 57.4949C30.2631 57.4767 30.293 57.4621 30.3243 57.4514L30.1659 57.5074L30.28 57.4763H30.1088H30.2293H30.0582H30.1342L29.9821 57.4203L30.0518 57.4576L29.9377 57.4141C30.0681 57.514 30.2286 57.5687 30.394 57.5696C30.5598 57.5706 30.7209 57.5157 30.8503 57.4141C30.9072 57.3692 30.953 57.3124 30.9846 57.2478C31.0161 57.1832 31.0324 57.1125 31.0324 57.0409C31.0324 56.9693 31.0161 56.8986 30.9846 56.834C30.953 56.7694 30.9072 56.7126 30.8503 56.6677C30.7796 56.6141 30.7031 56.5682 30.6222 56.5309C30.4848 56.4774 30.3389 56.4479 30.1912 56.4438C30.0945 56.4315 29.9965 56.4315 29.8997 56.4438C29.805 56.4596 29.7132 56.4889 29.6272 56.5309C29.5453 56.5689 29.4687 56.617 29.3991 56.6739C29.2277 56.8109 29.1019 56.995 29.0379 57.2026C28.9969 57.3228 28.9776 57.4491 28.9808 57.5758C28.9841 57.6995 29.0098 57.8217 29.0569 57.9365C29.1203 58.097 29.2225 58.2401 29.3547 58.3533C29.495 58.4694 29.6593 58.5543 29.8363 58.602C30.0328 58.6423 30.2356 58.6423 30.432 58.602C30.5308 58.5862 30.6268 58.5569 30.7172 58.515C30.8054 58.4787 30.8868 58.4282 30.958 58.3657C31.0147 58.3202 31.061 58.2634 31.0938 58.1991C31.1265 58.1347 31.1451 58.0644 31.1482 57.9925C31.1467 57.9203 31.1289 57.8494 31.0961 57.7848C31.0632 57.7203 31.016 57.6637 30.958 57.6193C30.8286 57.5177 30.6675 57.4628 30.5018 57.4638C30.3358 57.4617 30.1744 57.5167 30.0455 57.6193H29.9948L30.1279 57.5385C30.1037 57.557 30.0755 57.5698 30.0455 57.5758L30.1976 57.526C30.162 57.5325 30.1254 57.5325 30.0898 57.526H30.2609C30.2189 57.5323 30.1762 57.5323 30.1342 57.526H30.3053H30.1659L30.318 57.5758C30.2728 57.5614 30.2301 57.5404 30.1912 57.5136L30.318 57.6007C30.2876 57.5791 30.2599 57.5541 30.2356 57.526L30.337 57.638C30.2996 57.6001 30.2695 57.5558 30.2483 57.5074L30.3116 57.638C30.2869 57.5819 30.2678 57.5236 30.2546 57.4638V57.6007C30.2423 57.5307 30.2423 57.4592 30.2546 57.3892V57.5323" fill="#1C407F"/>
<path d="M30.5128 59.0869H30.4621H30.6079C30.509 59.0993 30.4089 59.0993 30.31 59.0869H30.4558C30.3486 59.0762 30.2438 59.0489 30.1453 59.006L30.272 59.062C30.1639 59.0199 30.0633 58.9611 29.9742 58.8878L30.0819 58.9749C29.9888 58.9053 29.9057 58.8237 29.8347 58.7323L29.9235 58.8443C29.8622 58.7658 29.8111 58.6802 29.7714 58.5893L29.8221 58.7137C29.7834 58.6243 29.7578 58.5301 29.746 58.4338V58.5768C29.7334 58.5006 29.7334 58.4229 29.746 58.3467V58.4898C29.7519 58.4406 29.7647 58.3924 29.7841 58.3467L29.727 58.4711C29.7445 58.4339 29.7658 58.3985 29.7904 58.3654L29.708 58.4711L29.7841 58.4027L29.6763 58.4835C29.7142 58.4571 29.7545 58.4342 29.7967 58.4151L29.67 58.4711C29.7389 58.443 29.8114 58.4242 29.8854 58.4151H29.746C29.8114 58.4089 29.8771 58.4089 29.9425 58.4151H29.8031C29.86 58.4208 29.9157 58.4355 29.9678 58.4587L29.8347 58.4027C29.875 58.4218 29.9132 58.4447 29.9488 58.4711L29.8411 58.384C29.8719 58.4121 29.8995 58.4434 29.9235 58.4773L29.8411 58.3654L29.8918 58.4524L29.8347 58.3218C29.8384 58.3611 29.8384 58.4007 29.8347 58.44V58.2969V58.3716V58.2285C29.8375 58.2575 29.8375 58.2866 29.8347 58.3156L29.8918 58.185C29.8808 58.2138 29.8659 58.241 29.8474 58.2658L29.9298 58.1539L29.8664 58.2161L29.9742 58.1352H29.9171L30.0439 58.0793H29.9615H30.1072H30.0375H30.1833H30.1389C30.005 58.0534 29.866 58.0773 29.7489 58.1462C29.6319 58.2151 29.545 58.3243 29.5052 58.4524C29.4803 58.5838 29.5052 58.7195 29.5753 58.8341C29.6453 58.9487 29.7556 59.0341 29.8854 59.0744C30.0459 59.1152 30.2151 59.1086 30.3717 59.0555C30.5284 59.0024 30.6657 58.9051 30.7663 58.7759C30.8637 58.6543 30.9252 58.5088 30.9442 58.3553C30.9632 58.2017 30.9389 58.046 30.8741 57.9051C30.7452 57.65 30.5217 57.453 30.2494 57.3546C29.9771 57.2563 29.6768 57.2641 29.4102 57.3764C29.2594 57.4301 29.1235 57.5177 29.0135 57.6322C28.9034 57.7467 28.8223 57.8849 28.7764 58.0357C28.7099 58.2697 28.7099 58.517 28.7764 58.751C28.891 59.1556 29.1467 59.5078 29.4989 59.7461C29.6929 59.8798 29.9126 59.9736 30.1446 60.0217C30.3766 60.0698 30.6161 60.0713 30.8487 60.026C30.9163 60.0087 30.9797 59.9783 31.0352 59.9367C31.0907 59.895 31.1371 59.8429 31.1719 59.7835C31.2418 59.6603 31.26 59.5153 31.2226 59.3792C31.2056 59.3126 31.1749 59.2501 31.1324 59.1955C31.0899 59.141 31.0365 59.0955 30.9754 59.062C30.8498 58.9943 30.7032 58.9743 30.5635 59.006L30.5128 59.0869Z" fill="#1C407F"/>
<path d="M26.5722 57.3394C26.3843 57.5258 26.2736 57.7741 26.2617 58.0361V58.1356C26.2704 58.2133 26.2852 58.2902 26.3061 58.3657C26.3531 58.507 26.4309 58.6365 26.5342 58.7451C26.6053 58.8264 26.6913 58.8939 26.7877 58.9441C26.9281 59.0136 27.0809 59.0558 27.2376 59.0685C27.3464 59.09 27.4584 59.09 27.5672 59.0685C27.6405 59.0487 27.7108 59.0194 27.7763 58.9814C27.8451 58.9466 27.9073 58.9003 27.9601 58.8446C28.0469 58.7564 28.1084 58.6473 28.1385 58.5282C28.1685 58.4092 28.166 58.2845 28.1312 58.1667C28.1009 58.0549 28.0394 57.9537 27.9538 57.8743C27.8307 57.7632 27.671 57.6992 27.5038 57.694C27.3618 57.6975 27.2262 57.753 27.1236 57.8495C27.0231 57.9487 26.9662 58.0827 26.9651 58.2226C26.9659 58.3645 27.0227 58.5005 27.1236 58.6021C27.2291 58.694 27.363 58.7487 27.5038 58.7575H27.3581L27.2313 58.7016L27.1236 58.6207L27.0412 58.515V58.5523L26.9905 58.4217C26.9905 58.4217 26.9905 58.4217 26.9905 58.4652V58.3222C26.9938 58.3278 26.9956 58.3343 26.9956 58.3408C26.9956 58.3474 26.9938 58.3538 26.9905 58.3595V58.2226C26.9877 58.2349 26.9877 58.2477 26.9905 58.26L27.0412 58.1356V58.1729L27.1299 58.0672L27.0856 58.1045L27.1933 58.0236C27.1726 58.0417 27.149 58.0564 27.1236 58.0672L27.2503 58.0112H27.1426H27.282C27.2421 58.0173 27.2015 58.0173 27.1616 58.0112H27.301C27.253 58.0054 27.206 57.9928 27.1616 57.9739L27.2883 58.0236C27.2504 58.0064 27.2143 57.9856 27.1806 57.9614L27.2883 58.0423C27.2558 58.0186 27.226 57.9915 27.1996 57.9614L27.282 58.0672L27.225 57.9676L27.282 58.092C27.2755 58.0529 27.2755 58.013 27.282 57.9739V58.1169C27.2757 58.0715 27.2757 58.0255 27.282 57.9801V58.1169C27.2888 58.0719 27.3015 58.028 27.32 57.9863L27.263 58.1107C27.3069 58.0815 27.3536 58.0565 27.4024 58.0361L27.3137 58.1418L27.3707 58.0796C27.4213 58.0309 27.4615 57.9729 27.4889 57.9088C27.5164 57.8447 27.5305 57.7759 27.5305 57.7064C27.5305 57.6369 27.5164 57.5681 27.4889 57.504C27.4615 57.4399 27.4213 57.3819 27.3707 57.3332C27.2696 57.2346 27.1331 57.1787 26.9905 57.1777C26.8466 57.1815 26.7091 57.2368 26.6039 57.3332L26.5722 57.3394Z" fill="#1C407F"/>
<path d="M27.8532 57.5132V57.4634V57.6065C27.8561 57.5817 27.8561 57.5566 27.8532 57.5318C27.8088 57.6189 27.8025 57.6376 27.8532 57.594C27.7898 57.6687 27.7771 57.6811 27.8152 57.6438C27.8785 57.5754 27.7011 57.7184 27.8152 57.6438C27.8359 57.6257 27.8594 57.611 27.8849 57.6002C27.7455 57.65 27.9292 57.6002 27.8849 57.6002C27.9467 57.5799 28.0104 57.5653 28.075 57.5567H27.9356C28.0367 57.5474 28.1386 57.5474 28.2398 57.5567H28.094C28.1539 57.5655 28.2131 57.578 28.2714 57.594C28.2714 57.594 28.3538 57.594 28.3602 57.594H28.2905H28.3412L28.4806 57.6749C28.5249 57.6749 28.3728 57.5878 28.4806 57.6749L28.5439 57.7309L28.5883 57.7868C28.658 57.8552 28.5249 57.6873 28.5883 57.7868L28.6707 57.9299C28.7214 58.0232 28.6263 57.8117 28.6707 57.9299C28.6688 57.9568 28.6688 57.9838 28.6707 58.0107C28.6743 58.0646 28.6743 58.1186 28.6707 58.1725V58.0294C28.6707 58.0294 28.6707 58.0667 28.6707 58.0854C28.6743 58.2248 28.7308 58.3579 28.8291 58.4586C28.9044 58.5322 29.0003 58.5824 29.1046 58.6027C29.2089 58.623 29.317 58.6125 29.4153 58.5726C29.5136 58.5327 29.5976 58.4651 29.6568 58.3784C29.716 58.2917 29.7478 58.1898 29.748 58.0854C29.7236 57.7266 29.5838 57.3847 29.3488 57.1089C29.1374 56.8603 28.8512 56.6839 28.5313 56.6051C28.2015 56.5133 27.8503 56.5286 27.53 56.6486C27.3298 56.7018 27.1504 56.8126 27.0149 56.9666C26.8794 57.1207 26.7939 57.311 26.7695 57.5132C26.7695 57.6534 26.8263 57.7878 26.9273 57.887C27.0283 57.9861 27.1653 58.0418 27.3082 58.0418C27.4511 58.0418 27.5881 57.9861 27.6891 57.887C27.7901 57.7878 27.8469 57.6534 27.8469 57.5132H27.8532Z" fill="#1C407F"/>
<path d="M25.1833 55.8465C24.8979 55.8547 24.6224 55.9503 24.3951 56.1198C24.1679 56.2893 24.0003 56.5243 23.9158 56.7919C23.8324 57.0813 23.8665 57.3912 24.0109 57.6565C24.0932 57.7995 24.2137 57.9178 24.3594 57.9986C24.543 58.0911 24.7538 58.1176 24.9551 58.0732C25.1179 58.0352 25.2656 57.9508 25.3797 57.8306C25.4648 57.74 25.5277 57.6315 25.5635 57.5134C25.5952 57.3889 25.5952 57.2586 25.5635 57.134C25.5253 57.0012 25.4369 56.8877 25.3163 56.8168C25.2536 56.7814 25.1842 56.7587 25.1124 56.7501C25.0405 56.7416 24.9676 56.7473 24.8981 56.767C24.8305 56.7844 24.7671 56.8148 24.7116 56.8564C24.6561 56.8981 24.6097 56.9501 24.5749 57.0096C24.508 57.1337 24.49 57.2776 24.5242 57.4139V57.2708V57.3206V57.1838C24.5269 57.1982 24.5269 57.2129 24.5242 57.2273L24.5812 57.1029L24.5495 57.1589L24.6319 57.0532L24.5749 57.1091L24.6826 57.0221C24.6619 57.0401 24.6384 57.0548 24.6129 57.0656L24.7397 57.0096H24.6573H24.803H24.7206H24.8601H24.7967L24.9234 57.0656L24.8601 57.0283L24.9678 57.1091L24.9044 57.0469L24.9868 57.1527C24.9622 57.1196 24.941 57.0841 24.9234 57.0469L24.9805 57.1713C24.962 57.1296 24.9492 57.0857 24.9424 57.0407V57.1776C24.9358 57.1259 24.9358 57.0737 24.9424 57.0221V57.1589C24.9504 57.0947 24.9674 57.0319 24.9931 56.9723L24.9361 57.0967C24.9674 57.038 25.0034 56.9818 25.0438 56.9288L24.9551 57.0407C24.9997 56.9814 25.0531 56.929 25.1136 56.8852L24.9995 56.9723C25.0534 56.9309 25.1132 56.8974 25.1769 56.8728L25.0438 56.9225C25.1065 56.8966 25.1727 56.8798 25.2403 56.8728H25.0945H25.1959C25.3388 56.8728 25.4758 56.8171 25.5768 56.7179C25.6778 56.6188 25.7346 56.4843 25.7346 56.3441C25.733 56.2044 25.6757 56.0709 25.575 55.9721C25.4743 55.8733 25.3383 55.817 25.1959 55.8154L25.1833 55.8465Z" fill="#1C407F"/>
<path d="M33.207 56.4812V65.0084C33.2215 65.1396 33.2848 65.2608 33.3848 65.3489C33.4848 65.437 33.6145 65.4857 33.7489 65.4857C33.8832 65.4857 34.0129 65.437 34.1129 65.3489C34.2129 65.2608 34.2762 65.1396 34.2907 65.0084V56.4812C34.2762 56.3501 34.2129 56.2288 34.1129 56.1407C34.0129 56.0526 33.8832 56.0039 33.7489 56.0039C33.6145 56.0039 33.4848 56.0526 33.3848 56.1407C33.2848 56.2288 33.2215 56.3501 33.207 56.4812Z" fill="#1C407F"/>
<path d="M26.7695 58.4897V64.8774C26.7695 65.0176 26.8263 65.1521 26.9273 65.2512C27.0283 65.3504 27.1653 65.406 27.3082 65.406C27.4511 65.406 27.5881 65.3504 27.6891 65.2512C27.7901 65.1521 27.8469 65.0176 27.8469 64.8774V58.4711C27.8469 58.3308 27.7901 58.1964 27.6891 58.0972C27.5881 57.9981 27.4511 57.9424 27.3082 57.9424C27.1653 57.9424 27.0283 57.9981 26.9273 58.0972C26.8263 58.1964 26.7695 58.3308 26.7695 58.4711V58.4897Z" fill="#1C407F"/>
<path d="M16.7485 55.0629L8.15526 58.5522C8.02545 58.5924 7.91514 58.6779 7.8451 58.7924C7.77506 58.907 7.75014 59.0428 7.77503 59.1741C7.81356 59.3028 7.90044 59.4122 8.0181 59.4804C8.13576 59.5485 8.27539 59.5702 8.40875 59.5411L17.0083 56.0518C17.1362 56.0092 17.2442 55.9231 17.3128 55.8089C17.3815 55.6948 17.4061 55.5603 17.3822 55.4299C17.3632 55.3628 17.3309 55.3001 17.2871 55.2453C17.2433 55.1906 17.189 55.1448 17.1272 55.1107C17.0653 55.0767 16.9973 55.0549 16.9269 55.0467C16.8564 55.0384 16.7851 55.044 16.7168 55.0629H16.7485Z" fill="#1C407F"/>
<path d="M8.09726 59.7214H25.7527C25.8956 59.7214 26.0326 59.6657 26.1336 59.5666C26.2346 59.4674 26.2914 59.333 26.2914 59.1927C26.2914 59.0525 26.2346 58.9181 26.1336 58.8189C26.0326 58.7198 25.8956 58.6641 25.7527 58.6641H8.09726C7.95439 58.6641 7.81738 58.7198 7.71636 58.8189C7.61535 58.9181 7.55859 59.0525 7.55859 59.1927C7.55859 59.333 7.61535 59.4674 7.71636 59.5666C7.81738 59.6657 7.95439 59.7214 8.09726 59.7214Z" fill="#1C407F"/>
<path d="M19.1641 59.5164V64.9337C19.1785 65.0649 19.2419 65.1861 19.3419 65.2742C19.4419 65.3623 19.5715 65.411 19.7059 65.411C19.8403 65.411 19.9699 65.3623 20.0699 65.2742C20.1699 65.1861 20.2333 65.0649 20.2477 64.9337V59.5164C20.2333 59.3852 20.1699 59.264 20.0699 59.1759C19.9699 59.0878 19.8403 59.0391 19.7059 59.0391C19.5715 59.0391 19.4419 59.0878 19.3419 59.1759C19.2419 59.264 19.1785 59.3852 19.1641 59.5164Z" fill="#1C407F"/>
<path d="M20.1719 65.1693V68.2045C20.1719 68.3447 20.2286 68.4792 20.3296 68.5784C20.4307 68.6775 20.5677 68.7332 20.7105 68.7332C20.8534 68.7332 20.9904 68.6775 21.0914 68.5784C21.1924 68.4792 21.2492 68.3447 21.2492 68.2045V65.1693C21.2492 65.0291 21.1924 64.8946 21.0914 64.7955C20.9904 64.6963 20.8534 64.6406 20.7105 64.6406C20.5677 64.6406 20.4307 64.6963 20.3296 64.7955C20.2286 64.8946 20.1719 65.0291 20.1719 65.1693Z" fill="#1C407F"/>
<path d="M13.6523 65.1704V67.8574C13.6523 67.9893 13.7058 68.1159 13.8008 68.2092C13.8959 68.3025 14.0249 68.3549 14.1593 68.3549C14.2938 68.3549 14.4227 68.3025 14.5178 68.2092C14.6129 68.1159 14.6663 67.9893 14.6663 67.8574V65.1704C14.6663 65.0385 14.6129 64.9119 14.5178 64.8186C14.4227 64.7253 14.2938 64.6729 14.1593 64.6729C14.0249 64.6729 13.8959 64.7253 13.8008 64.8186C13.7058 64.9119 13.6523 65.0385 13.6523 65.1704Z" fill="#1C407F"/>
<path d="M16.668 65.1704V67.8574C16.668 67.9893 16.7214 68.1159 16.8165 68.2092C16.9115 68.3025 17.0405 68.3549 17.1749 68.3549C17.3094 68.3549 17.4384 68.3025 17.5334 68.2092C17.6285 68.1159 17.6819 67.9893 17.6819 67.8574V65.1704C17.6819 65.0385 17.6285 64.9119 17.5334 64.8186C17.4384 64.7253 17.3094 64.6729 17.1749 64.6729C17.0405 64.6729 16.9115 64.7253 16.8165 64.8186C16.7214 64.9119 16.668 65.0385 16.668 65.1704Z" fill="#1C407F"/>
<path d="M89.2617 56.1082V65.1268C89.2762 65.2579 89.3395 65.3791 89.4395 65.4672C89.5395 65.5553 89.6692 65.6041 89.8035 65.6041C89.9379 65.6041 90.0676 65.5553 90.1676 65.4672C90.2676 65.3791 90.3309 65.2579 90.3454 65.1268V56.1082C90.3309 55.977 90.2676 55.8558 90.1676 55.7677C90.0676 55.6796 89.9379 55.6309 89.8035 55.6309C89.6692 55.6309 89.5395 55.6796 89.4395 55.7677C89.3395 55.8558 89.2762 55.977 89.2617 56.1082Z" fill="#1C407F"/>
<path d="M49.5827 18.1051C50.3897 17.7779 51.2148 17.4955 52.0542 17.2593C52.1848 17.2202 52.296 17.135 52.3662 17.0201C52.4364 16.9052 52.4607 16.7688 52.4344 16.6373C52.3946 16.5095 52.3075 16.4009 52.1902 16.333C52.0729 16.2651 51.9339 16.2427 51.8007 16.2703C50.9617 16.5053 50.1366 16.7857 49.3292 17.11C49.1945 17.1522 49.0798 17.2405 49.006 17.3588C48.9477 17.4515 48.92 17.5598 48.9268 17.6686C48.9336 17.7774 48.9744 17.8815 49.0438 17.9666C49.1132 18.0517 49.2077 18.1137 49.3144 18.1441C49.4211 18.1744 49.5347 18.1717 49.6397 18.1362L49.5827 18.1051Z" fill="#1C407F"/>
<path d="M47.6256 16.8679C48.1643 17.2659 48.7346 17.6391 49.2733 18.0434C49.4009 18.1124 49.5508 18.1302 49.6916 18.0931C49.7583 18.0757 49.8207 18.0452 49.8752 18.0035C49.9296 17.9619 49.9749 17.9098 50.0084 17.8506C50.0454 17.7905 50.0696 17.7237 50.0794 17.6542C50.0892 17.5847 50.0844 17.5139 50.0654 17.4463C50.0235 17.3154 49.9361 17.2031 49.8183 17.1291C49.2796 16.7248 48.7093 16.3516 48.1706 15.9473C48.0452 15.8787 47.8974 15.8609 47.7587 15.8976C47.6225 15.9332 47.5063 16.0205 47.4355 16.1401C47.3983 16.2013 47.3741 16.2691 47.3643 16.3397C47.3545 16.4102 47.3593 16.482 47.3785 16.5506C47.4262 16.6785 47.5124 16.7891 47.6256 16.8679Z" fill="#1C407F"/>
<path d="M33.1857 40.2414V37.2373L29.8524 37.8593H29.7383V40.7204V40.7763C30.8696 40.6596 31.9932 40.4789 33.1033 40.2352L33.1857 40.2414Z" fill="#1C407F"/>
<path d="M27.0869 55.1751C30.0822 55.0715 33.0797 55.0176 36.0793 55.0134C36.2222 55.0134 36.3592 54.9577 36.4602 54.8586C36.5612 54.7594 36.618 54.6249 36.618 54.4847C36.618 54.3445 36.5612 54.21 36.4602 54.1109C36.3592 54.0118 36.2222 53.9561 36.0793 53.9561C33.084 53.9561 30.0865 54.01 27.0869 54.1178C26.3961 54.1178 26.3898 55.2 27.0869 55.1751Z" fill="#1C407F"/>
<path d="M36.4122 55.0569C36.5263 55.0569 36.3172 55.0569 36.4122 55.0569H36.4946L36.6594 55.0942C36.7763 55.12 36.8907 55.1554 37.0016 55.2C37.0016 55.2 37.0586 55.2 37.0776 55.2C37.0966 55.2 36.9762 55.1564 37.0776 55.2C37.1307 55.2198 37.1817 55.2448 37.2297 55.2746C37.3368 55.325 37.4386 55.3854 37.5339 55.455L37.5402 55.5483C37.5973 55.5856 37.4389 55.4612 37.5402 55.5483L37.667 55.654C37.7519 55.7281 37.8324 55.807 37.9078 55.8904L38.0155 56.021C37.9141 55.9028 38.0155 56.021 38.0599 56.0894C38.1275 56.186 38.1868 56.288 38.2373 56.3942C38.3096 56.5154 38.428 56.6035 38.5664 56.6391C38.7049 56.6747 38.8521 56.6548 38.9756 56.5839C39.0992 56.5129 39.1889 56.3967 39.2252 56.2609C39.2614 56.125 39.2412 55.9805 39.1689 55.8593C38.9018 55.3507 38.5089 54.9162 38.0261 54.5956C37.5433 54.275 36.9862 54.0786 36.4059 54.0245C36.3349 54.0236 36.2645 54.0367 36.1987 54.063C36.133 54.0893 36.0733 54.1282 36.0231 54.1774C35.9729 54.2267 35.9333 54.2853 35.9065 54.3498C35.8797 54.4143 35.8664 54.4835 35.8672 54.5531C35.8705 54.6923 35.9282 54.825 36.0286 54.9235C36.1289 55.0219 36.264 55.0786 36.4059 55.0818L36.4122 55.0569Z" fill="#1C407F"/>
<path d="M38.6949 56.2819C43.0549 56.2135 47.4149 55.9523 51.7749 55.9958C51.9178 55.9958 52.0548 55.9401 52.1558 55.841C52.2568 55.7418 52.3136 55.6074 52.3136 55.4671C52.3136 55.3269 52.2568 55.1925 52.1558 55.0933C52.0548 54.9942 51.9178 54.9385 51.7749 54.9385C47.4149 54.8949 43.0549 55.1562 38.6949 55.2246C38.552 55.2246 38.415 55.2803 38.314 55.3794C38.213 55.4786 38.1563 55.613 38.1562 55.7532C38.1563 55.8935 38.213 56.0279 38.314 56.1271C38.415 56.2262 38.552 56.2819 38.6949 56.2819Z" fill="#1C407F"/>
<path d="M29.7148 44.3524V50.709L33.2827 50.3856V43.7305C32.1737 43.9108 30.8239 44.1099 29.7148 44.2591V44.3524Z" fill="#1C407F"/>
<path d="M40.7969 49.6957L36.082 50.0814V43.3703L36.4242 43.2646C37.7804 43.078 39.4281 42.8789 40.7969 42.6426V49.6957Z" fill="#1C407F"/>
<path d="M17.1046 46.2935C16.835 46.0629 16.5131 45.8991 16.1658 45.8157C15.8185 45.7324 15.4558 45.732 15.1083 45.8145C14.8939 45.83 14.6884 45.9056 14.5165 46.0325C14.3446 46.1593 14.2135 46.3319 14.1387 46.5298C14.0861 46.6989 14.0647 46.8758 14.0754 47.0523C14.0754 47.1393 14.0754 47.2202 14.0754 47.3011V47.4255C14.0772 47.378 14.0916 47.3318 14.1172 47.2914C14.1427 47.2511 14.1786 47.218 14.2211 47.1953L14.4936 47.1269H14.5507L14.7851 47.2637C14.7851 47.2637 14.7851 47.1953 14.7344 47.1642C14.6771 47.0775 14.609 46.9981 14.5316 46.9279C14.3713 46.7922 14.1763 46.7019 13.9676 46.6667C13.5193 46.6075 13.065 46.7212 12.7002 46.9839C12.3333 47.1736 12.0543 47.4941 11.9207 47.8795C11.8633 48.0887 11.8789 48.3108 11.9651 48.5103C12.0512 48.7099 12.2029 48.8753 12.396 48.9804C12.4558 49.0268 12.5249 49.0602 12.5988 49.0785C12.6727 49.0968 12.7498 49.0994 12.8248 49.0863C12.8998 49.0731 12.9712 49.0445 13.0341 49.0023C13.097 48.9601 13.1501 48.9053 13.1899 48.8415C13.2296 48.7777 13.2551 48.7063 13.2647 48.632C13.2742 48.5578 13.2676 48.4825 13.2453 48.4109C13.223 48.3394 13.1854 48.2734 13.1352 48.2171C13.0849 48.1609 13.023 48.1158 12.9537 48.0847C12.9579 48.0946 12.96 48.1052 12.96 48.1158C12.96 48.1265 12.9579 48.1371 12.9537 48.1469V48.0847C12.9537 48.1283 12.9093 48.1594 12.9537 48.0847L13.0297 48.0039C13.1964 47.8552 13.396 47.7466 13.6128 47.6867H13.7268C13.8092 47.6867 13.6381 47.6867 13.7268 47.6867C13.7902 47.6867 13.7839 47.7302 13.7268 47.6867C13.7571 47.7317 13.7826 47.7796 13.8029 47.8297C13.8507 47.9198 13.9193 47.9976 14.0032 48.0571C14.087 48.1165 14.1839 48.156 14.286 48.1723C14.3881 48.1886 14.4927 48.1813 14.5915 48.151C14.6902 48.1207 14.7804 48.0682 14.8548 47.9977C14.9516 47.8794 15.0214 47.7421 15.0597 47.5952C15.0979 47.4482 15.1037 47.2949 15.0766 47.1456C15.0766 47.0834 15.0766 47.0212 15.0766 46.959C15.0727 46.928 15.0727 46.8967 15.0766 46.8657C15.0386 46.8657 15.14 46.8657 15.159 46.8657C15.382 46.837 15.6078 46.837 15.8308 46.8657C15.9966 46.8767 16.1524 46.9476 16.268 47.0647C16.7433 47.5685 17.5355 46.8159 17.0348 46.3183L17.1046 46.2935Z" fill="#1C407F"/>
<path d="M13.1037 48.4513C12.6515 48.3717 12.1858 48.4108 11.754 48.5649C11.3221 48.7189 10.9395 48.9823 10.6449 49.3283C10.4752 49.4834 10.359 49.6866 10.3124 49.9095C10.2658 50.1325 10.2912 50.3641 10.3851 50.5723C10.7168 50.9812 11.1714 51.2771 11.6842 51.4182L11.4434 50.5287C11.38 50.6034 11.2089 50.5785 11.0948 50.5909C10.8945 50.603 10.6985 50.6537 10.5181 50.7402C10.1585 50.9133 9.88137 51.2165 9.745 51.5861C9.6153 51.9392 9.63353 52.3284 9.7957 52.6683C9.87704 52.8482 9.99327 53.0109 10.1379 53.1472C10.271 53.2778 10.5372 53.34 10.6449 53.4769L10.5055 52.9606C10.5055 53.0228 9.87174 53.1099 9.7957 53.1286C9.49917 53.1766 9.21244 53.2711 8.94651 53.4085C8.70048 53.5736 8.4961 53.7916 8.34894 54.046C8.20178 54.3004 8.11572 54.5844 8.09733 54.8763C7.93256 56.1203 8.655 57.501 10.0682 57.4326L9.92878 56.3939C9.62499 56.4808 9.36825 56.6815 9.21408 56.9527C9.05991 57.2239 9.0207 57.5438 9.10494 57.8431C9.15742 57.9884 9.23863 58.122 9.34391 58.2363C9.44918 58.3506 9.57644 58.4434 9.71837 58.5093C9.8603 58.5752 10.0141 58.6129 10.1709 58.6203C10.3278 58.6276 10.4845 58.6045 10.6322 58.5522C11.2659 58.3158 10.9934 57.3082 10.3407 57.5321C10.2076 57.5819 10.0175 57.4824 10.214 57.414C10.759 57.2336 10.7146 56.3442 10.0682 56.3753C9.17465 56.4188 8.97186 55.2682 9.25703 54.6213C9.4218 54.2543 9.77669 54.2108 10.1442 54.1424C10.4974 54.0973 10.8366 53.9785 11.1392 53.7941C11.2876 53.7125 11.4072 53.5884 11.4819 53.4384C11.5567 53.2883 11.583 53.1195 11.5574 52.9544C11.4434 52.5377 10.9744 52.5812 10.797 52.2516C10.6195 51.9219 10.9491 51.6669 11.2659 51.6296C11.4412 51.6373 11.6162 51.6093 11.7798 51.5472C11.9434 51.4851 12.0921 51.3903 12.2165 51.2689C12.2795 51.2018 12.3242 51.1202 12.3464 51.0316C12.3687 50.943 12.3678 50.8504 12.3437 50.7622C12.3197 50.6741 12.2734 50.5934 12.209 50.5275C12.1447 50.4617 12.0644 50.4129 11.9757 50.3857C11.9123 50.3857 11.2533 50.0685 11.2976 49.9938L11.361 50.168C11.3887 50.1126 11.4227 50.0604 11.4624 50.0125C11.526 49.9325 11.5982 49.8595 11.6778 49.7948C11.8361 49.6666 12.0198 49.5722 12.2173 49.5176C12.4148 49.463 12.6217 49.4494 12.8249 49.4776C13.503 49.5771 13.7945 48.5571 13.1101 48.4513H13.1037Z" fill="#1C407F"/>
<path d="M13.5297 50.2617C13.4289 50.2461 13.3263 50.2461 13.2255 50.2617C13.1297 50.286 13.0379 50.3237 12.953 50.3737C12.8675 50.4212 12.7904 50.4822 12.7249 50.554C12.6322 50.66 12.5612 50.7825 12.5157 50.9148C12.4801 51.006 12.4628 51.1032 12.465 51.2009C12.4638 51.3 12.4788 51.3987 12.5094 51.4932C12.5338 51.5845 12.5746 51.6709 12.6298 51.7482C12.6664 51.8061 12.7089 51.8603 12.7565 51.9099C12.8107 51.9589 12.8678 52.0046 12.9276 52.0468C12.9869 52.083 13.0544 52.1044 13.1241 52.109C13.1946 52.1277 13.269 52.1277 13.3396 52.109C13.4718 52.0724 13.5848 51.9877 13.6555 51.8721C13.7262 51.7565 13.7492 51.6187 13.7198 51.487L13.6628 51.3564C13.6109 51.2858 13.541 51.23 13.46 51.1947L13.5677 51.2755C13.5387 51.2501 13.5112 51.2232 13.4853 51.1947L13.574 51.3004C13.547 51.2689 13.5256 51.2331 13.5107 51.1947L13.5614 51.3191C13.5585 51.2797 13.5585 51.2402 13.5614 51.2009V51.3377C13.555 51.2965 13.555 51.2546 13.5614 51.2133V51.3564C13.5585 51.3191 13.5585 51.2817 13.5614 51.2444L13.5043 51.375C13.5196 51.3419 13.5387 51.3105 13.5614 51.2817L13.4726 51.3875L13.5677 51.3004L13.46 51.3813C13.4916 51.359 13.5256 51.3402 13.5614 51.3253L13.4346 51.375H13.555H13.4156H13.5297C13.6027 51.3779 13.6752 51.3606 13.7388 51.3253C13.8052 51.3074 13.8648 51.2706 13.9099 51.2195C14.0104 51.1203 14.0673 50.9863 14.0683 50.8464C14.0676 50.7045 14.0108 50.5685 13.9099 50.467L13.8022 50.3861C13.7204 50.3363 13.6259 50.3105 13.5297 50.3115V50.2617Z" fill="#1C407F"/>
<path d="M12.2671 52.5503C12.1353 52.6992 12.0374 52.8739 11.9799 53.0629C11.9224 53.2518 11.9066 53.4507 11.9336 53.6461C11.9606 53.8415 12.0298 54.029 12.1364 54.1962C12.2431 54.3633 12.3849 54.5061 12.5523 54.6152L12.3051 53.9933C12.3875 53.7631 12.6917 53.6947 12.4699 53.7631L12.3178 53.8129L12.0073 53.9373C11.8333 54.0014 11.6675 54.0848 11.513 54.1861C11.3084 54.3006 11.1449 54.4745 11.0451 54.6839C10.9452 54.8932 10.9139 55.1278 10.9553 55.3554C11.0236 55.5502 11.1387 55.726 11.291 55.8678C11.4432 56.0096 11.628 56.1134 11.8298 56.1702C12.2439 56.3583 12.7104 56.4043 13.1543 56.3008C13.2845 56.2617 13.3951 56.1762 13.4643 56.0611C13.5335 55.946 13.5563 55.8096 13.5282 55.6788C13.491 55.5493 13.4044 55.4389 13.2863 55.3706C13.1683 55.3022 13.0279 55.2812 12.8945 55.3118C12.8945 55.3118 12.7487 55.3429 12.8121 55.3118C12.8754 55.2807 12.7614 55.3118 12.755 55.3118C12.7487 55.3118 12.6346 55.3118 12.7107 55.3118H12.603C12.4528 55.276 12.3048 55.2324 12.1593 55.1812C12.2734 55.2372 12.0896 55.1812 12.1593 55.1812L12.0896 55.1439C12.0896 55.1439 11.9756 55.0817 12.0453 55.1439C12.0453 55.2185 12.0073 55.0382 12.0453 55.1439C12.0453 55.0693 12.0136 55.2621 12.0453 55.1439V55.2061V55.1688C12.0073 55.2185 12.0009 55.231 12.0453 55.1688L12.1086 55.1128C12.1467 55.0693 12.0326 55.1564 12.1086 55.1128C12.2221 55.0385 12.3432 54.9759 12.4699 54.9262H12.5142L12.6346 54.8827L12.8564 54.808C12.9768 54.7749 13.087 54.7133 13.1776 54.6288C13.2682 54.5442 13.3363 54.4392 13.3761 54.3229C13.4117 54.207 13.4067 54.0828 13.3619 53.9701C13.3171 53.8573 13.2351 53.7625 13.1289 53.7009L13.0719 53.6823C13.0719 53.6823 13.0719 53.6263 13.0339 53.6201C12.9959 53.6139 12.9959 53.5641 13.0022 53.5579C13.0402 53.6761 13.0085 53.5517 13.0022 53.5579C12.9642 53.4397 13.0022 53.5143 13.0022 53.4895C13.0022 53.4459 13.0022 53.4459 13.0022 53.4895C13.0022 53.5392 13.0022 53.533 13.0022 53.4895V53.3837C13.0058 53.3611 13.0058 53.338 13.0022 53.3153C13.0022 53.2593 12.9515 53.39 13.0022 53.3153L13.0339 53.2531C13.0339 53.2034 12.9515 53.3464 13.0339 53.2531C13.0929 53.2058 13.1412 53.1469 13.1757 53.0802C13.2101 53.0135 13.2299 52.9404 13.2337 52.8657C13.2376 52.791 13.2254 52.7163 13.198 52.6465C13.1707 52.5767 13.1287 52.5133 13.0748 52.4604C13.0209 52.4075 12.9563 52.3663 12.8852 52.3394C12.814 52.3125 12.738 52.3006 12.6618 52.3044C12.5857 52.3082 12.5113 52.3276 12.4433 52.3614C12.3753 52.3952 12.3152 52.4426 12.2671 52.5005V52.5503Z" fill="#1C407F"/>
<path d="M14.8206 49.7513C14.872 49.6502 14.9336 49.5543 15.0043 49.4652L14.9156 49.5709C14.9651 49.514 15.018 49.46 15.074 49.4092L14.9663 49.4963C15.0047 49.4656 15.0474 49.4405 15.0931 49.4216L14.9663 49.4714H15.0804H14.9346H15.0614H14.9219L15.0424 49.5087L14.9156 49.4589C14.9815 49.4857 15.0434 49.5213 15.0994 49.5647L14.9853 49.4776C15.0636 49.5391 15.1377 49.6056 15.2071 49.6766C15.309 49.7742 15.445 49.8298 15.5874 49.8321C15.6581 49.8323 15.7281 49.8186 15.7934 49.7919C15.8587 49.7652 15.9179 49.726 15.9676 49.6766C16.0667 49.5768 16.1221 49.4429 16.1221 49.3035C16.1221 49.164 16.0667 49.0301 15.9676 48.9303C15.8348 48.7865 15.6811 48.6628 15.5113 48.5633C15.2772 48.4197 14.9947 48.3727 14.7255 48.4327C14.5382 48.5003 14.3668 48.6047 14.2219 48.7394C14.077 48.8742 13.9616 49.0364 13.8826 49.2164C13.8106 49.3387 13.7901 49.4838 13.8256 49.6207C13.8679 49.76 13.9632 49.8781 14.0918 49.9503C14.2159 50.0195 14.3626 50.0387 14.5009 50.0039C14.6392 49.9691 14.7583 49.883 14.8332 49.7637L14.8206 49.7513Z" fill="#1C407F"/>
<path d="M47.3594 8.7445V15.5364C47.3594 15.6766 47.4161 15.8111 47.5171 15.9103C47.6182 16.0094 47.7552 16.0651 47.898 16.0651C48.0409 16.0651 48.1779 16.0094 48.2789 15.9103C48.3799 15.8111 48.4367 15.6766 48.4367 15.5364V8.7445C48.4367 8.60428 48.3799 8.46981 48.2789 8.37067C48.1779 8.27152 48.0409 8.21582 47.898 8.21582C47.7552 8.21582 47.6182 8.27152 47.5171 8.37067C47.4161 8.46981 47.3594 8.60428 47.3594 8.7445Z" fill="#1C407F"/>
<path d="M52.2031 13.9322L51.8008 14.9131L111.128 38.3558L111.53 37.375L52.2031 13.9322Z" fill="#1C407F"/>
<path d="M55.6613 15.7418L54.4509 17.2967C54.4139 17.3568 54.3898 17.4236 54.38 17.4931C54.3702 17.5626 54.3749 17.6333 54.3939 17.701C54.4343 17.8327 54.5221 17.9454 54.641 18.0182C54.7033 18.0547 54.7725 18.0785 54.8443 18.0881C54.9162 18.0977 54.9893 18.093 55.0593 18.0742L55.186 18.0182C55.2661 17.9728 55.3336 17.9087 55.3825 17.8316L56.5929 16.2767C56.6299 16.2166 56.654 16.1498 56.6639 16.0803C56.6737 16.0108 56.6689 15.9401 56.6499 15.8724C56.6118 15.7396 56.5234 15.6261 56.4028 15.5552C56.3405 15.5187 56.2713 15.4949 56.1995 15.4853C56.1276 15.4757 56.0545 15.4804 55.9845 15.4992L55.8578 15.5552C55.7777 15.6006 55.7102 15.6647 55.6613 15.7418Z" fill="#1C407F"/>
<path d="M55.5958 16.1588C55.4649 16.3758 55.3188 16.5836 55.1585 16.7807L55.2409 16.675C55.1395 16.8056 55.0318 16.9362 54.9241 17.0606C54.8257 17.1613 54.7692 17.2944 54.7656 17.4338C54.7659 17.5382 54.7976 17.6402 54.8568 17.7269C54.916 17.8136 55.0001 17.8811 55.0983 17.921C55.1966 17.9609 55.3047 17.9714 55.409 17.9511C55.5133 17.9308 55.6092 17.8807 55.6845 17.807C56.0065 17.4615 56.297 17.089 56.5527 16.6937C56.5897 16.6336 56.6139 16.5668 56.6237 16.4973C56.6335 16.4278 56.6287 16.357 56.6097 16.2894C56.5694 16.1577 56.4815 16.0449 56.3626 15.9722C56.3003 15.9357 56.2312 15.9119 56.1593 15.9023C56.0874 15.8927 56.0143 15.8974 55.9443 15.9162C55.8109 15.9573 55.6965 16.0432 55.6211 16.1588H55.5958Z" fill="#1C407F"/>
<path d="M51.8456 17.0981L55.0142 18.342C55.1477 18.3727 55.288 18.3516 55.4061 18.2833C55.5241 18.2149 55.6108 18.1045 55.648 17.9751C55.6835 17.8399 55.6644 17.6965 55.5948 17.5747C55.5251 17.453 55.4102 17.3625 55.2741 17.322L52.1435 16.078C52.0101 16.0489 51.8705 16.0706 51.7528 16.1388C51.6352 16.2069 51.5483 16.3164 51.5098 16.445C51.4845 16.5756 51.5086 16.7107 51.5774 16.8251C51.6462 16.9395 51.755 17.0255 51.8837 17.067L51.8456 17.0981Z" fill="#1C407F"/>
<path d="M104.564 57.383L91.4521 56.4998L86.0781 56.3132L86.1161 55.2559L91.5091 55.4425L104.64 56.3257L104.564 57.383Z" fill="#1C407F"/>
<path d="M103.804 66.613V56.904L103.265 57.4327L111.263 58.0547C111.954 58.1044 111.954 57.0471 111.263 56.9911L103.265 56.3691C103.123 56.3708 102.987 56.427 102.886 56.5258C102.785 56.6246 102.728 56.7581 102.727 56.8978V66.6068C102.727 67.2848 103.804 67.9938 103.804 67.3096V66.613Z" fill="#1C407F"/>
<path d="M101.441 56.948V65.9355C101.456 66.0666 101.519 66.1879 101.619 66.276C101.719 66.3641 101.849 66.4128 101.983 66.4128C102.118 66.4128 102.247 66.3641 102.347 66.276C102.447 66.1879 102.511 66.0666 102.525 65.9355V56.948C102.511 56.8169 102.447 56.6956 102.347 56.6075C102.247 56.5194 102.118 56.4707 101.983 56.4707C101.849 56.4707 101.719 56.5194 101.619 56.6075C101.519 56.6956 101.456 56.8169 101.441 56.948Z" fill="#1C407F"/>
<path d="M90.3555 52.9799V55.7849C90.3555 55.9252 90.4122 56.0596 90.5132 56.1588C90.6143 56.2579 90.7513 56.3136 90.8941 56.3136C91.037 56.3136 91.174 56.2579 91.275 56.1588C91.376 56.0596 91.4328 55.9252 91.4328 55.7849V52.9799C91.4328 52.8396 91.376 52.7052 91.275 52.606C91.174 52.5069 91.037 52.4512 90.8941 52.4512C90.7513 52.4512 90.6143 52.5069 90.5132 52.606C90.4122 52.7052 90.3555 52.8396 90.3555 52.9799Z" fill="#1C407F"/>
<path d="M104.081 54.8451C104.081 54.9197 104.081 54.9881 104.081 55.0566V54.9135C104.036 55.2183 103.973 55.5355 103.916 55.834C103.848 56.1244 103.806 56.4198 103.789 56.7172C103.789 56.8574 103.846 56.9919 103.947 57.0911C104.048 57.1902 104.185 57.2459 104.328 57.2459C104.471 57.2459 104.608 57.1902 104.709 57.0911C104.81 56.9919 104.866 56.8574 104.866 56.7172C104.866 56.6488 104.866 56.5804 104.866 56.512V56.6488C104.911 56.344 104.974 56.0268 105.031 55.7283C105.099 55.438 105.141 55.1425 105.158 54.8451C105.156 54.7054 105.099 54.5718 104.998 54.473C104.898 54.3742 104.762 54.318 104.619 54.3164C104.477 54.3196 104.342 54.3763 104.242 54.4748C104.142 54.5732 104.084 54.7059 104.081 54.8451Z" fill="#1C407F"/>
<path d="M111.128 57.0593C111.271 57.0593 111.408 57.0036 111.509 56.9045C111.61 56.8053 111.667 56.6708 111.667 56.5306C111.667 56.3904 111.61 56.2559 111.509 56.1568C111.408 56.0577 111.271 56.002 111.128 56.002C110.986 56.002 110.849 56.0577 110.748 56.1568C110.647 56.2559 110.59 56.3904 110.59 56.5306C110.59 56.6708 110.647 56.8053 110.748 56.9045C110.849 57.0036 110.986 57.0593 111.128 57.0593Z" fill="#1C407F"/>
<path d="M90.9766 56.015V64.7226C90.9766 64.8628 91.0333 64.9973 91.1343 65.0964C91.2353 65.1956 91.3724 65.2513 91.5152 65.2513C91.6581 65.2513 91.7951 65.1956 91.8961 65.0964C91.9971 64.9973 92.0539 64.8628 92.0539 64.7226V56.015C92.0539 55.8748 91.9971 55.7403 91.8961 55.6412C91.7951 55.542 91.6581 55.4863 91.5152 55.4863C91.3724 55.4863 91.2353 55.542 91.1343 55.6412C91.0333 55.7403 90.9766 55.8748 90.9766 56.015Z" fill="#1C407F"/>
<path d="M63.4238 50.9954V43.5317L58.3984 42.6299V50.4854" fill="#1C407F"/>
<path d="M70.2741 51.9838V44.7254L65.9648 43.8857V51.0198" fill="#1C407F"/>
<path d="M58.4114 66.9861C58.198 65.0087 58.2128 63.0141 58.4558 61.04C58.5847 60.5012 58.8532 60.0042 59.2352 59.597C59.4464 59.3982 59.6975 59.2446 59.9724 59.1461C60.2473 59.0476 60.5401 59.0063 60.8322 59.0248C61.2989 58.9988 61.7639 59.1 62.1757 59.3171C63.0629 59.8334 63.3354 61.0214 63.4431 62.0787C63.6107 63.6282 63.6383 65.1892 63.5255 66.7435" fill="#1C407F"/>
<path d="M75.6859 63.8704C75.5972 62.1849 75.4958 63.0805 75.6859 61.4198C75.761 60.9719 75.9387 60.5466 76.2056 60.1759C76.3294 60.0176 76.4902 59.891 76.6744 59.8065C76.8586 59.7221 77.0608 59.6824 77.2639 59.6907C77.5832 59.6693 77.9005 59.7548 78.1638 59.9333C78.7468 60.3749 78.9306 61.3763 79.0066 62.2657C79.1207 63.5656 79.1397 62.3155 79.07 63.6216L75.6859 63.8704Z" fill="#1C407F"/>
<path d="M65.9688 66.4325L66.0068 63.5527C65.9736 62.6908 66.0741 61.8288 66.3046 60.9964C66.399 60.6078 66.5964 60.2507 66.8769 59.9612C67.1574 59.6717 67.5109 59.4602 67.9016 59.3482C68.3146 59.3066 68.7311 59.3803 69.1033 59.5608C69.4755 59.7412 69.7882 60.0211 70.0055 60.3682C70.3595 61.183 70.5489 62.0575 70.5632 62.9432C70.6488 64.0217 70.6488 65.1052 70.5632 66.1837" fill="#1C407F"/>
<path d="M74.7045 23.4541C74.6322 23.3357 74.5166 23.249 74.3813 23.2115C74.2405 23.1745 74.0906 23.1923 73.963 23.2613L73.6652 23.4976C73.6652 23.4536 73.6562 23.41 73.6388 23.3694C73.6214 23.3288 73.5959 23.292 73.5638 23.2613C73.616 23.213 73.6533 23.1511 73.6712 23.0828C73.6892 23.0146 73.6871 22.9428 73.6652 22.8757C73.1145 22.3728 72.4321 22.0303 71.6943 21.8867C71.4091 21.98 71.3077 22.092 71.3838 22.3781C71.4978 22.801 71.8147 23.3919 71.9351 23.8211V51.9218C71.9351 52.5064 73.2025 52.8236 73.5638 52.4815C73.6398 52.4983 73.7187 52.4981 73.7946 52.4809C73.8706 52.4637 73.9416 52.43 74.0025 52.3822C74.0633 52.3344 74.1124 52.2738 74.1462 52.2049C74.1799 52.1359 74.1975 52.0604 74.1975 51.9839V24.4057L74.2799 24.3373L74.5017 24.1756C74.5633 24.146 74.6158 24.101 74.6538 24.045C74.702 23.9938 74.7368 23.9319 74.7552 23.8646C74.774 23.7953 74.774 23.7224 74.7552 23.6531C74.7575 23.5834 74.74 23.5145 74.7045 23.4541Z" fill="#1C407F"/>
<path d="M54.6523 17.6078V49.9503C54.6523 50.0905 54.7091 50.225 54.8101 50.3242C54.9111 50.4233 55.0481 50.479 55.191 50.479C55.3339 50.479 55.4709 50.4233 55.5719 50.3242C55.6729 50.225 55.7297 50.0905 55.7297 49.9503V17.6078C55.7297 17.4676 55.6729 17.3331 55.5719 17.2339C55.4709 17.1348 55.3339 17.0791 55.191 17.0791C55.0481 17.0791 54.9111 17.1348 54.8101 17.2339C54.7091 17.3331 54.6523 17.4676 54.6523 17.6078Z" fill="#1C407F"/>
<path d="M104.692 55.3739L90.8257 53.5391L85.5532 53.9931L52.3906 50.5785L52.5047 49.5273L85.5595 52.942L90.8511 52.4879L104.837 54.3227L104.692 55.3739Z" fill="#1C407F"/>
<path d="M52.6001 53.9926L81.973 56.0265L86.0985 56.3126C86.7893 56.3624 86.7893 55.2988 86.0985 55.249L56.7256 53.2214L52.6001 52.9353C51.9093 52.8855 51.9093 53.9491 52.6001 53.9926Z" fill="#1C407F"/>
<path d="M101.098 34.3198V54.3908C101.098 54.536 101.156 54.6752 101.261 54.7779C101.366 54.8805 101.507 54.9382 101.655 54.9382C101.803 54.9382 101.945 54.8805 102.05 54.7779C102.154 54.6752 102.213 54.536 102.213 54.3908V34.3198C102.213 34.1746 102.154 34.0354 102.05 33.9328C101.945 33.8301 101.803 33.7725 101.655 33.7725C101.507 33.7725 101.366 33.8301 101.261 33.9328C101.156 34.0354 101.098 34.1746 101.098 34.3198Z" fill="#1C407F"/>
<path d="M102.074 34.9168V54.3908C102.089 54.5251 102.154 54.6493 102.256 54.7396C102.358 54.8299 102.491 54.8798 102.629 54.8798C102.766 54.8798 102.899 54.8299 103.001 54.7396C103.104 54.6493 103.169 54.5251 103.183 54.3908V34.9168C103.169 34.7825 103.104 34.6583 103.001 34.568C102.899 34.4777 102.766 34.4277 102.629 34.4277C102.491 34.4277 102.358 34.4777 102.256 34.568C102.154 34.6583 102.089 34.7825 102.074 34.9168Z" fill="#1C407F"/>
<path d="M104.522 55.9213C106.594 56.0395 108.667 56.2448 110.72 56.5433C110.858 56.5733 111.003 56.5517 111.126 56.4827C111.249 56.4138 111.341 56.3023 111.385 56.1701C111.422 56.0341 111.403 55.8892 111.332 55.7669C111.261 55.6446 111.143 55.5549 111.005 55.517C108.857 55.2061 106.696 54.9821 104.522 54.8578C103.831 54.8142 103.831 55.8716 104.522 55.9151V55.9213Z" fill="#1C407F"/>
<path d="M85.7969 53.2968V47.5C86.7031 47.6493 87.4002 47.7177 88.3318 47.867L88.3761 47.9665V52.7619L85.7969 53.2968Z" fill="#1C407F"/>
<path d="M83.918 53.103V47.0761L80.6797 46.5723V52.8417L83.918 53.103Z" fill="#1C407F"/>
<path d="M89.7969 52.9478V48.084L92.3951 48.5069V52.9354" fill="#1C407F"/>
<path d="M92.9102 64.9959V57.582L94.9824 57.7686V64.7098L92.9102 64.9959Z" fill="#1C407F"/>
<path d="M95.7617 64.9959V57.7686L97.834 57.9489V64.9959H95.7617Z" fill="#1C407F"/>
<path d="M98.7227 65.6366V58.0361L100.795 58.1419V65.6429L98.7227 65.6366Z" fill="#1C407F"/>
<path d="M94.1406 53.4768V48.8369L96.4157 49.2039L96.5107 49.2847V53.6385" fill="#1C407F"/>
<path d="M98.1445 53.9556V49.4961L99.7605 49.8382H99.8429V54.0489" fill="#1C407F"/>
<path d="M80.6863 38.7549L83.4747 39.4452L83.7091 39.5323V33.3126L83.2275 33.1384C82.315 32.8461 81.4594 32.5165 80.5469 32.249V38.7549H80.6863Z" fill="#1C407F"/>
<path d="M92.2896 35.8564V41.5164L89.9258 40.8944V35.0479L90.0018 35.0976L92.2896 35.8564Z" fill="#1C407F"/>
<path d="M106.314 48.2336V46.9462L105.129 46.6787V47.9911L106.314 48.2336Z" fill="#1C407F"/>
<path d="M109.33 48.8746V47.5871L108.145 47.3135V48.6258L109.33 48.8746Z" fill="#1C407F"/>
<path d="M109.15 55.6604V51.3564L108.199 51.2568V55.4987" fill="#1C407F"/>
<path d="M105.129 55.2496V50.6719L106.314 50.8585V55.3491" fill="#1C407F"/>
<path d="M106.314 40.2039V44.8003L105.129 44.4831V39.8867L106.314 40.2039Z" fill="#1C407F"/>
<path d="M109.316 41.118V45.5962L108.238 45.279V40.8008L109.316 41.118Z" fill="#1C407F"/>
<path d="M104.638 68.3045L103.789 67.2969C104.328 67.2969 104.936 67.185 110.709 66.818V34.6123H111.799V67.7759L111.292 67.8443C108.884 67.9873 105.025 68.2859 104.638 68.3045Z" fill="#1C407F"/>
<path d="M104.641 59.2798C104.644 59.2217 104.659 59.1649 104.685 59.1125C104.71 59.0602 104.746 59.0133 104.791 58.9746C104.835 58.9359 104.886 58.9061 104.942 58.8869C104.998 58.8678 105.057 58.8597 105.116 58.863L109.489 59.0496C109.607 59.0561 109.718 59.108 109.798 59.1942C109.877 59.2803 109.919 59.3938 109.914 59.5099C109.907 59.6276 109.853 59.738 109.764 59.8172C109.676 59.8964 109.558 59.9379 109.438 59.9328L105.066 59.74C104.947 59.7336 104.837 59.6817 104.757 59.5955C104.678 59.5093 104.636 59.3959 104.641 59.2798Z" fill="#1C407F"/>
<path d="M52.5107 0.982501L73.4235 11.9479L105.743 28.8966L110.585 31.4343C110.936 31.6898 111.319 31.8989 111.726 32.0562C111.789 32.0562 111.852 32.1495 111.916 32.1557C111.548 32.1557 111.719 31.4654 111.649 32.2615C111.649 32.6036 111.649 32.9643 111.649 33.3064L112.467 32.8461L97.8914 25.5069L70.1725 11.5933L58.9303 5.93962C57.0862 5.01288 55.2167 3.83113 53.2775 3.09721C53.0982 3.02513 52.9044 2.99437 52.711 3.00731C52.5177 3.02025 52.3299 3.07654 52.1622 3.17184L49.0379 4.50286L36.7945 9.71499C29.1645 12.9617 21.4204 16.028 13.8792 19.4737L13.4292 19.6603C12.7955 19.934 13.3468 20.8421 13.9742 20.5746L48.3155 5.95828L53.1001 3.92443H52.5551L72.6567 14.0253L104.552 30.0473L111.884 33.7293C111.966 33.7744 112.058 33.7979 112.152 33.7975C112.246 33.7972 112.339 33.773 112.42 33.7273C112.502 33.6816 112.57 33.616 112.618 33.5368C112.666 33.4576 112.693 33.3675 112.695 33.2753V31.683C112.695 31.5903 112.671 31.499 112.624 31.4183C112.577 31.3377 112.51 31.2703 112.429 31.2228L92.321 20.6493L60.4132 3.92443L53.0557 0.068202C52.422 -0.255224 51.896 0.659076 52.5107 0.982501Z" fill="#1C407F"/>
<path d="M52.1172 0.540756V3.39561C52.1172 3.53582 52.1739 3.67029 52.275 3.76944C52.376 3.86859 52.513 3.92428 52.6558 3.92428C52.7987 3.92428 52.9357 3.86859 53.0367 3.76944C53.1378 3.67029 53.1945 3.53582 53.1945 3.39561V0.540756C53.1945 0.399964 53.138 0.264845 53.0371 0.164709C52.9363 0.0645735 52.7993 0.00749649 52.6558 0.00585938C52.5134 0.0105929 52.3783 0.0686555 52.2781 0.168127C52.1779 0.267598 52.1203 0.400932 52.1172 0.540756Z" fill="#1C407F"/>
<path d="M80.3945 15.431V17.4275C80.409 17.5587 80.4723 17.6799 80.5723 17.768C80.6723 17.8561 80.802 17.9048 80.9364 17.9048C81.0708 17.9048 81.2004 17.8561 81.3004 17.768C81.4004 17.6799 81.4637 17.5587 81.4782 17.4275V15.431C81.4749 15.2907 81.4163 15.1572 81.3146 15.0586C81.2129 14.9599 81.0762 14.9039 80.9332 14.9023C80.7908 14.904 80.6548 14.9602 80.5541 15.059C80.4535 15.1578 80.3962 15.2913 80.3945 15.431Z" fill="#1C407F"/>
<path d="M68.6875 9.28004V11.6C68.6875 11.7408 68.744 11.8759 68.8449 11.976C68.9457 12.0762 69.0827 12.1333 69.2262 12.1349C69.3697 12.1317 69.5064 12.0743 69.608 11.9747C69.7095 11.8751 69.7679 11.7409 69.7712 11.6V9.28004C69.7567 9.14891 69.6934 9.02766 69.5934 8.93956C69.4934 8.85146 69.3637 8.80273 69.2293 8.80273C69.095 8.80273 68.9653 8.85146 68.8653 8.93956C68.7653 9.02766 68.702 9.14891 68.6875 9.28004Z" fill="#1C407F"/>
<path d="M0.538662 64.6228H12.2435C12.3863 64.6228 12.5233 64.5671 12.6244 64.4679C12.7254 64.3688 12.7821 64.2343 12.7821 64.0941C12.7821 63.9539 12.7254 63.8194 12.6244 63.7203C12.5233 63.6211 12.3863 63.5654 12.2435 63.5654H0.538662C0.3958 63.5654 0.258789 63.6211 0.15777 63.7203C0.0567513 63.8194 0 63.9539 0 64.0941C0 64.2343 0.0567513 64.3688 0.15777 64.4679C0.258789 64.5671 0.3958 64.6228 0.538662 64.6228Z" fill="#1C407F"/>
<path d="M111.375 64.6228H123.46C123.603 64.6228 123.74 64.5671 123.841 64.4679C123.942 64.3688 123.998 64.2343 123.998 64.0941C123.998 63.9539 123.942 63.8194 123.841 63.7203C123.74 63.6211 123.603 63.5654 123.46 63.5654H111.375C111.232 63.5654 111.095 63.6211 110.994 63.7203C110.893 63.8194 110.836 63.9539 110.836 64.0941C110.836 64.2343 110.893 64.3688 110.994 64.4679C111.095 64.5671 111.232 64.6228 111.375 64.6228Z" fill="#1C407F"/>
<path d="M63.7393 26.8128L58.1562 25.0713V33.3062L63.0422 34.6434L63.7393 34.7927V26.8128Z" fill="#1C407F"/>
<path d="M70.5781 36.541V28.9964L66.0977 27.541V35.241L70.5781 36.541Z" fill="#1C407F"/>
<path d="M98 40L103.583 41.3372V44.1361L98 42.9855V40Z" fill="#1C407F"/>
<path d="M70.4946 38.9105L66.0586 37.9277V40.6209L70.4946 41.5041V38.9105Z" fill="#1C407F"/>
<path d="M76.0209 37.6602L75.9766 30.6133L79.0628 31.6706V38.4066L76.0209 37.6602Z" fill="#1C407F"/>
<path d="M80.3945 23.97L80.4072 22.0107L99.8434 30.6126V31.8441L80.3945 23.97Z" fill="#1C407F"/>
<path d="M79.2214 43.2082L75.793 42.4556V40.1543L79.2214 40.9629V43.2082Z" fill="#1C407F"/>
<path d="M75.8946 45.5221L79.0632 46.1316V52.7929L75.6602 52.202V45.4785L75.8946 45.5221Z" fill="#1C407F"/>
<path d="M83.918 44.091L80.6797 43.3446V41.1553L83.918 41.9265V44.091Z" fill="#1C407F"/>
<path d="M85.5634 42.2998L88.3517 42.9031V44.9494L85.5 44.3461L85.5634 42.2998Z" fill="#1C407F"/>
<path d="M89.8164 43.208L92.5034 43.8362L92.5414 45.7581L89.8164 45.1734V43.208Z" fill="#1C407F"/>
<path d="M93.9414 44.1104L96.5207 44.6763L96.5587 46.4116L93.9414 45.883V44.1104Z" fill="#1C407F"/>
<path d="M85.6289 33.7793C86.5225 34.0592 87.1498 34.2769 88.0434 34.5568V40.5401L85.6606 39.9182L85.6289 39.6507V33.7793Z" fill="#1C407F"/>
<path d="M96.5739 42.4866C96.5423 40.6953 96.5359 39.0533 96.5739 37.262L94.0391 36.3975V41.8646L96.5739 42.4866Z" fill="#1C407F"/>
<path d="M99.7615 43.3139L98.38 42.9469L98.1328 42.8474V42.7665C98.1328 41.0623 98.1328 39.3602 98.1328 37.6602L99.7488 38.1826V43.3077L99.7615 43.3139Z" fill="#1C407F"/>
<path d="M98.1425 45.1367L99.7585 45.4788V47.0773L98.1172 46.7476L98.1425 45.1367Z" fill="#1C407F"/>
<path d="M102.879 31.7082V33.089H102.689L101.422 32.467V30.9121L101.466 30.9743C101.897 31.1485 102.322 31.4221 102.734 31.5963L102.879 31.7082Z" fill="#1C407F"/>
<path d="M40.8173 38.9104L36.0391 39.7563V36.7459L40.8173 35.7881V38.9104Z" fill="#1C407F"/>
<path d="M24.1055 38.9599L27.141 38.3379V41.1492L24.1055 41.6281V38.9599Z" fill="#1C407F"/>
<path d="M29.6523 35.2535L33.2899 34.4387V27.709L29.6523 28.6482V35.2535Z" fill="#1C407F"/>
<path d="M105.007 65.8851L104.957 62.7006C104.935 62.3789 105.013 62.0583 105.178 61.7801C105.419 61.4442 105.736 61.3447 106.047 61.5997C106.636 62.0848 106.458 63.2106 106.458 63.9818V65.8851H105.007Z" fill="#1C407F"/>
<path d="M108.184 65.8287L108.146 62.8495C108.122 62.5541 108.179 62.2579 108.311 61.9912C108.501 61.6802 108.748 61.5869 108.989 61.8232C109.451 62.2773 109.312 63.3284 109.312 64.0499V65.8287H108.184Z" fill="#1C407F"/>
<path d="M52.3208 3.54163L51.4141 6.59277L52.4483 6.88883L53.355 3.83769L52.3208 3.54163Z" fill="#1C407F"/>
<path d="M52.4512 0.0661637L13.2812 17.3516L13.723 18.3159L52.893 1.03052L52.4512 0.0661637Z" fill="#1C407F"/>
<path d="M14.2847 17.4893H13.125V20.114H14.2847V17.4893Z" fill="#1C407F"/>
<path d="M68.0745 10.8778H66.9908V5.69675L67.5548 5.1121L64.9566 3.96767C63.3596 4.58964 61.6549 5.25515 61.4394 5.37955L60.8438 4.49635C61.1353 4.29732 63.4357 3.41412 64.7728 2.9041L64.9819 2.82324L68.873 4.54611V5.28625L68.0745 6.12592V10.8778Z" fill="#1C407F"/>
<path d="M97.9992 25.6938V23.7035C97.9992 23.6341 97.9853 23.5653 97.9582 23.5012C97.9311 23.437 97.8915 23.3787 97.8414 23.3297C97.7914 23.2806 97.732 23.2416 97.6667 23.215C97.6013 23.1885 97.5313 23.1748 97.4605 23.1748C97.3898 23.1748 97.3198 23.1885 97.2544 23.215C97.189 23.2416 97.1297 23.2806 97.0796 23.3297C97.0296 23.3787 96.99 23.437 96.9629 23.5012C96.9358 23.5653 96.9219 23.6341 96.9219 23.7035V25.6938C96.9219 25.834 96.9786 25.9685 97.0796 26.0676C97.1807 26.1668 97.3177 26.2225 97.4605 26.2225C97.6034 26.2225 97.7404 26.1668 97.8414 26.0676C97.9425 25.9685 97.9992 25.834 97.9992 25.6938Z" fill="#1C407F"/>
<path d="M99.3592 22.6834V23.3862L99.9042 22.8575H99.7965C99.6541 22.8591 99.5181 22.9153 99.4174 23.0141C99.3167 23.1129 99.2595 23.2465 99.2578 23.3862V26.9376C99.2578 27.0779 99.3146 27.2123 99.4156 27.3115C99.5166 27.4106 99.6536 27.4663 99.7965 27.4663C99.9393 27.4663 100.076 27.4106 100.177 27.3115C100.278 27.2123 100.335 27.0779 100.335 26.9376V23.3862L99.7965 23.9149H99.9042C100.047 23.9132 100.183 23.857 100.283 23.7582C100.384 23.6594 100.441 23.5259 100.443 23.3862V22.6834C100.428 22.5522 100.365 22.431 100.265 22.3429C100.165 22.2548 100.035 22.2061 99.901 22.2061C99.7667 22.2061 99.637 22.2548 99.537 22.3429C99.437 22.431 99.3737 22.5522 99.3592 22.6834Z" fill="#1C407F"/>
<path d="M101.941 28.0885H101.795C101.672 28.0885 101.554 28.0409 101.466 27.9559C101.378 27.8709 101.328 27.7554 101.326 27.6345V24.1328L101.656 23.7845L100.179 23.1065C100.121 23.0819 100.059 23.0691 99.9954 23.0691C99.9322 23.0691 99.8696 23.0819 99.8116 23.1065C99.0638 23.4051 98.316 23.7285 97.9105 23.8964C97.811 23.9382 97.6998 23.9449 97.5959 23.9154C97.4919 23.8859 97.4016 23.8221 97.3401 23.7347L97.2577 23.6103C97.2192 23.5556 97.1934 23.4932 97.1822 23.4276C97.1709 23.3621 97.1745 23.2949 97.1927 23.2308C97.2108 23.1667 97.2431 23.1073 97.2871 23.0568C97.3312 23.0063 97.3861 22.966 97.4478 22.9386C98.0309 22.6836 99.0005 22.3166 99.837 21.9621L100.052 21.875L102.987 23.206V23.716C102.988 23.8279 102.947 23.9362 102.872 24.0208L102.524 24.394C102.449 24.4786 102.409 24.5869 102.41 24.6988V27.6158C102.412 27.6773 102.401 27.7385 102.378 27.7958C102.355 27.853 102.321 27.9053 102.277 27.9493C102.233 27.9934 102.181 28.0284 102.123 28.0523C102.066 28.0762 102.004 28.0885 101.941 28.0885Z" fill="#1C407F"/>
<path d="M17.1284 29.8415L19.0296 29.2195L18.3452 28.7095C18.3072 36.9154 18.3072 45.1192 18.3452 53.3209C18.3597 53.452 18.423 53.5733 18.523 53.6614C18.623 53.7495 18.7526 53.7982 18.887 53.7982C19.0214 53.7982 19.151 53.7495 19.2511 53.6614C19.3511 53.5733 19.4144 53.452 19.4288 53.3209C19.3655 45.1192 19.3655 36.9154 19.4288 28.7095C19.4278 28.6282 19.4078 28.5482 19.3705 28.4756C19.3331 28.403 19.2794 28.3397 19.2135 28.2905C19.1475 28.2414 19.0709 28.2076 18.9897 28.1918C18.9084 28.176 18.8245 28.1786 18.7444 28.1995L16.8433 28.8214C16.2096 29.0267 16.4694 30.0654 17.1348 29.8415H17.1284Z" fill="#1C407F"/>
<path d="M18.9873 26.862L18.3633 28.5586L19.3766 28.9176L20.0006 27.2211L18.9873 26.862Z" fill="#1C407F"/>
<path d="M13.9539 19.646L13.4453 20.5781L16.7917 22.3369L17.3003 21.4048L13.9539 19.646Z" fill="#1C407F"/>
<path d="M24.1445 51.2878L27.142 51.0576V44.7197L24.2649 45.1427L24.1445 45.2235V51.2878Z" fill="#1C407F"/>
<path d="M89.387 59.709L52.2891 58.2225L52.3017 57.4326L89.3997 58.9191L89.387 59.709Z" fill="#1C407F"/>
<path d="M84.2852 62.5883C84.2876 62.0308 84.3861 61.4777 84.5767 60.9525C84.8238 60.3305 85.2104 60.1501 85.5653 60.1377C85.8826 60.1743 86.1766 60.3196 86.3954 60.5482C87.0735 61.108 87.1115 62.9677 87.1876 64.4666C87.289 66.6497 87.3143 63.9939 87.2446 66.1895L84.2852 62.5883Z" fill="#1C407F"/>
</svg>
