<svg width="300" height="79" viewBox="0 0 300 79" fill="none" xmlns="http://www.w3.org/2000/svg">
<path d="M132.324 41L131.7 38.96H128.58L127.956 41H126L129.024 32.396H131.244L134.28 41H132.324ZM130.644 35.444C130.604 35.308 130.552 35.136 130.488 34.928C130.424 34.72 130.36 34.508 130.296 34.292C130.232 34.076 130.18 33.888 130.14 33.728C130.1 33.888 130.044 34.088 129.972 34.328C129.908 34.56 129.844 34.784 129.78 35C129.724 35.208 129.68 35.356 129.648 35.444L129.036 37.436H131.268L130.644 35.444ZM142.385 41H140.573V37.304H137.177V41H135.365V32.432H137.177V35.792H140.573V32.432H142.385V41ZM152.317 36.704C152.317 37.368 152.233 37.972 152.065 38.516C151.905 39.052 151.657 39.516 151.321 39.908C150.993 40.3 150.569 40.6 150.049 40.808C149.537 41.016 148.933 41.12 148.237 41.12C147.541 41.12 146.933 41.016 146.413 40.808C145.901 40.592 145.477 40.292 145.141 39.908C144.813 39.516 144.565 39.048 144.397 38.504C144.237 37.96 144.157 37.356 144.157 36.692C144.157 35.804 144.301 35.032 144.589 34.376C144.885 33.72 145.333 33.212 145.933 32.852C146.541 32.484 147.313 32.3 148.249 32.3C149.177 32.3 149.941 32.484 150.541 32.852C151.141 33.212 151.585 33.724 151.873 34.388C152.169 35.044 152.317 35.816 152.317 36.704ZM146.065 36.704C146.065 37.304 146.141 37.82 146.293 38.252C146.445 38.684 146.681 39.016 147.001 39.248C147.321 39.48 147.733 39.596 148.237 39.596C148.757 39.596 149.173 39.48 149.485 39.248C149.805 39.016 150.037 38.684 150.181 38.252C150.333 37.82 150.409 37.304 150.409 36.704C150.409 35.8 150.241 35.092 149.905 34.58C149.569 34.068 149.017 33.812 148.249 33.812C147.737 33.812 147.321 33.928 147.001 34.16C146.681 34.392 146.445 34.724 146.293 35.156C146.141 35.588 146.065 36.104 146.065 36.704ZM160.411 41L158.347 34.28H158.299C158.307 34.44 158.319 34.68 158.335 35C158.351 35.32 158.367 35.664 158.383 36.032C158.399 36.392 158.407 36.72 158.407 37.016V41H156.787V32.432H159.259L161.287 38.984H161.323L163.471 32.432H165.943V41H164.251V36.944C164.251 36.672 164.255 36.36 164.263 36.008C164.279 35.656 164.291 35.324 164.299 35.012C164.315 34.692 164.327 34.452 164.335 34.292H164.287L162.079 41H160.411ZM173.039 41H168.107V32.432H173.039V33.92H169.919V35.804H172.823V37.292H169.919V39.5H173.039V41ZM176.79 36.548L173.91 32.432H175.782L178.554 36.584V32.432H180.246V36.584L183.018 32.432H184.89L182.01 36.548L185.058 41H183.114L180.246 36.656V41H178.554V36.656L175.686 41H173.742L176.79 36.548ZM192.851 32.432V39.488H193.991V43.496H192.239V41H186.875V43.496H185.123V39.488H185.783C186.007 39.04 186.223 38.568 186.431 38.072C186.639 37.576 186.831 37.044 187.007 36.476C187.191 35.908 187.355 35.292 187.499 34.628C187.643 33.956 187.763 33.224 187.859 32.432H192.851ZM189.299 33.944C189.243 34.36 189.163 34.804 189.059 35.276C188.955 35.74 188.831 36.216 188.687 36.704C188.551 37.192 188.399 37.672 188.23 38.144C188.063 38.616 187.883 39.064 187.691 39.488H191.039V33.944H189.299ZM199.531 38.492C199.291 39.036 199.035 39.508 198.763 39.908C198.499 40.3 198.159 40.6 197.743 40.808C197.327 41.016 196.783 41.12 196.111 41.12C195.903 41.12 195.675 41.104 195.427 41.072C195.179 41.04 194.951 40.996 194.743 40.94V39.38C194.935 39.46 195.147 39.516 195.379 39.548C195.611 39.58 195.827 39.596 196.027 39.596C196.291 39.596 196.503 39.552 196.663 39.464C196.831 39.376 196.963 39.256 197.059 39.104C197.163 38.944 197.247 38.772 197.311 38.588L194.347 32.432H196.267L197.863 36.14C197.903 36.22 197.951 36.324 198.007 36.452C198.063 36.58 198.119 36.712 198.175 36.848C198.231 36.984 198.275 37.104 198.307 37.208H198.367C198.399 37.112 198.439 36.996 198.487 36.86C198.543 36.716 198.599 36.572 198.655 36.428C198.719 36.276 198.775 36.144 198.823 36.032L200.311 32.432H202.183L199.531 38.492ZM210.284 41H208.472V37.304H205.076V41H203.264V32.432H205.076V35.792H208.472V32.432H210.284V41ZM217.683 41L217.059 38.96H213.939L213.315 41H211.359L214.383 32.396H216.603L219.639 41H217.683ZM216.003 35.444C215.963 35.308 215.911 35.136 215.847 34.928C215.783 34.72 215.719 34.508 215.655 34.292C215.591 34.076 215.539 33.888 215.499 33.728C215.459 33.888 215.403 34.088 215.331 34.328C215.267 34.56 215.203 34.784 215.139 35C215.083 35.208 215.039 35.356 215.007 35.444L214.395 37.436H216.627L216.003 35.444ZM223.461 32.432C224.565 32.432 225.369 32.672 225.873 33.152C226.385 33.624 226.641 34.276 226.641 35.108C226.641 35.484 226.585 35.844 226.473 36.188C226.361 36.524 226.173 36.828 225.909 37.1C225.653 37.364 225.313 37.572 224.889 37.724C224.465 37.876 223.941 37.952 223.317 37.952H222.537V41H220.725V32.432H223.461ZM223.365 33.92H222.537V36.464H223.137C223.481 36.464 223.777 36.42 224.025 36.332C224.273 36.244 224.465 36.104 224.601 35.912C224.737 35.72 224.805 35.472 224.805 35.168C224.805 34.744 224.689 34.432 224.457 34.232C224.225 34.024 223.861 33.92 223.365 33.92ZM236.036 36.704C236.036 37.368 235.952 37.972 235.784 38.516C235.624 39.052 235.376 39.516 235.04 39.908C234.712 40.3 234.288 40.6 233.768 40.808C233.256 41.016 232.652 41.12 231.956 41.12C231.26 41.12 230.652 41.016 230.132 40.808C229.62 40.592 229.196 40.292 228.86 39.908C228.532 39.516 228.284 39.048 228.116 38.504C227.956 37.96 227.876 37.356 227.876 36.692C227.876 35.804 228.02 35.032 228.308 34.376C228.604 33.72 229.052 33.212 229.652 32.852C230.26 32.484 231.032 32.3 231.968 32.3C232.896 32.3 233.66 32.484 234.26 32.852C234.86 33.212 235.304 33.724 235.592 34.388C235.888 35.044 236.036 35.816 236.036 36.704ZM229.784 36.704C229.784 37.304 229.86 37.82 230.012 38.252C230.164 38.684 230.4 39.016 230.72 39.248C231.04 39.48 231.452 39.596 231.956 39.596C232.476 39.596 232.892 39.48 233.204 39.248C233.524 39.016 233.756 38.684 233.9 38.252C234.052 37.82 234.128 37.304 234.128 36.704C234.128 35.8 233.96 35.092 233.624 34.58C233.288 34.068 232.736 33.812 231.968 33.812C231.456 33.812 231.04 33.928 230.72 34.16C230.4 34.392 230.164 34.724 230.012 35.156C229.86 35.588 229.784 36.104 229.784 36.704ZM244.284 32.432V39.488H245.424V43.496H243.672V41H238.308V43.496H236.556V39.488H237.216C237.44 39.04 237.656 38.568 237.864 38.072C238.072 37.576 238.264 37.044 238.44 36.476C238.624 35.908 238.788 35.292 238.932 34.628C239.076 33.956 239.196 33.224 239.292 32.432H244.284ZM240.732 33.944C240.676 34.36 240.596 34.804 240.492 35.276C240.388 35.74 240.264 36.216 240.12 36.704C239.984 37.192 239.832 37.672 239.664 38.144C239.496 38.616 239.316 39.064 239.124 39.488H242.472V33.944H240.732ZM253.76 41H251.948V37.304H248.552V41H246.74V32.432H248.552V35.792H251.948V32.432H253.76V41ZM261.16 41L260.536 38.96H257.416L256.792 41H254.836L257.86 32.396H260.08L263.116 41H261.16ZM259.48 35.444C259.44 35.308 259.388 35.136 259.324 34.928C259.26 34.72 259.196 34.508 259.132 34.292C259.068 34.076 259.016 33.888 258.976 33.728C258.936 33.888 258.88 34.088 258.808 34.328C258.744 34.56 258.68 34.784 258.616 35C258.56 35.208 258.516 35.356 258.484 35.444L257.872 37.436H260.104L259.48 35.444ZM267.081 37.712L265.077 41H263.061L265.497 37.232C265.265 37.136 265.033 36.996 264.801 36.812C264.569 36.62 264.377 36.368 264.225 36.056C264.073 35.736 263.997 35.344 263.997 34.88C263.997 34.088 264.281 33.484 264.849 33.068C265.417 32.644 266.213 32.432 267.237 32.432H270.021V41H268.209V37.712H267.081ZM267.309 33.92C266.997 33.92 266.729 33.956 266.505 34.028C266.289 34.1 266.121 34.216 266.001 34.376C265.889 34.536 265.833 34.748 265.833 35.012C265.833 35.388 265.957 35.688 266.205 35.912C266.461 36.128 266.845 36.236 267.357 36.236H268.209V33.92H267.309ZM134.064 59H132L128.892 54.656V59H127.08V50.432H128.892V54.584L131.964 50.432H133.896L130.776 54.548L134.064 59ZM141.923 59H140.111V51.944H138.011C137.963 52.312 137.911 52.712 137.855 53.144C137.807 53.576 137.751 54.016 137.687 54.464C137.631 54.904 137.571 55.324 137.507 55.724C137.443 56.116 137.379 56.464 137.315 56.768C137.211 57.264 137.071 57.688 136.895 58.04C136.727 58.392 136.491 58.66 136.187 58.844C135.891 59.028 135.503 59.12 135.023 59.12C134.863 59.12 134.711 59.108 134.567 59.084C134.423 59.06 134.287 59.028 134.159 58.988V57.5C134.263 57.532 134.363 57.56 134.458 57.584C134.563 57.608 134.675 57.62 134.795 57.62C134.955 57.62 135.087 57.568 135.191 57.464C135.295 57.36 135.387 57.184 135.467 56.936C135.547 56.68 135.627 56.328 135.707 55.88C135.747 55.688 135.795 55.416 135.851 55.064C135.907 54.704 135.971 54.284 136.043 53.804C136.123 53.316 136.203 52.788 136.283 52.22C136.363 51.644 136.439 51.048 136.511 50.432H141.923V59ZM144.084 50.432H145.716V54.572C145.716 54.772 145.712 54.996 145.704 55.244C145.696 55.492 145.688 55.736 145.68 55.976C145.672 56.208 145.664 56.412 145.656 56.588C145.648 56.756 145.64 56.872 145.632 56.936H145.668L149.628 50.432H151.8V59H150.18V54.884C150.18 54.668 150.184 54.432 150.192 54.176C150.2 53.912 150.208 53.66 150.216 53.42C150.232 53.18 150.244 52.972 150.252 52.796C150.268 52.612 150.28 52.492 150.288 52.436H150.24L146.268 59H144.084V50.432ZM160.983 59H159.171V55.304H155.775V59H153.963V50.432H155.775V53.792H159.171V50.432H160.983V59ZM163.139 50.432H164.771V54.572C164.771 54.772 164.767 54.996 164.759 55.244C164.751 55.492 164.743 55.736 164.735 55.976C164.727 56.208 164.719 56.412 164.711 56.588C164.703 56.756 164.695 56.872 164.687 56.936H164.723L168.683 50.432H170.855V59H169.235V54.884C169.235 54.668 169.239 54.432 169.247 54.176C169.255 53.912 169.263 53.66 169.271 53.42C169.287 53.18 169.299 52.972 169.307 52.796C169.323 52.612 169.335 52.492 169.343 52.436H169.295L165.323 59H163.139V50.432ZM180.002 59H177.938L174.83 54.656V59H173.018V50.432H174.83V54.584L177.902 50.432H179.834L176.714 54.548L180.002 59ZM186.324 59L185.7 56.96H182.58L181.956 59H180L183.024 50.396H185.244L188.28 59H186.324ZM184.644 53.444C184.604 53.308 184.552 53.136 184.488 52.928C184.424 52.72 184.36 52.508 184.296 52.292C184.232 52.076 184.18 51.888 184.14 51.728C184.1 51.888 184.044 52.088 183.972 52.328C183.908 52.56 183.844 52.784 183.78 53C183.724 53.208 183.68 53.356 183.648 53.444L183.036 55.436H185.268L184.644 53.444ZM199.044 59H196.98L193.872 54.656V59H192.06V50.432H193.872V54.584L196.944 50.432H198.876L195.756 54.548L199.044 59ZM205.367 59L204.743 56.96H201.623L200.999 59H199.043L202.067 50.396H204.287L207.323 59H205.367ZM203.687 53.444C203.647 53.308 203.595 53.136 203.531 52.928C203.467 52.72 203.403 52.508 203.339 52.292C203.275 52.076 203.223 51.888 203.183 51.728C203.143 51.888 203.087 52.088 203.015 52.328C202.951 52.56 202.887 52.784 202.823 53C202.767 53.208 202.723 53.356 202.691 53.444L202.079 55.436H204.311L203.687 53.444ZM211.144 50.432C212.248 50.432 213.052 50.672 213.556 51.152C214.068 51.624 214.324 52.276 214.324 53.108C214.324 53.484 214.268 53.844 214.156 54.188C214.044 54.524 213.856 54.828 213.592 55.1C213.336 55.364 212.996 55.572 212.572 55.724C212.148 55.876 211.624 55.952 211 55.952H210.22V59H208.408V50.432H211.144ZM211.048 51.92H210.22V54.464H210.82C211.164 54.464 211.46 54.42 211.708 54.332C211.956 54.244 212.148 54.104 212.284 53.912C212.42 53.72 212.488 53.472 212.488 53.168C212.488 52.744 212.372 52.432 212.14 52.232C211.908 52.024 211.544 51.92 211.048 51.92ZM221.936 50.432V57.488H223.076V61.496H221.324V59H215.96V61.496H214.208V57.488H214.868C215.092 57.04 215.308 56.568 215.516 56.072C215.724 55.576 215.916 55.044 216.092 54.476C216.276 53.908 216.44 53.292 216.584 52.628C216.728 51.956 216.848 51.224 216.944 50.432H221.936ZM218.384 51.944C218.328 52.36 218.248 52.804 218.144 53.276C218.04 53.74 217.916 54.216 217.772 54.704C217.636 55.192 217.484 55.672 217.316 56.144C217.148 56.616 216.968 57.064 216.776 57.488H220.124V51.944H218.384ZM224.393 50.432H226.025V54.572C226.025 54.772 226.021 54.996 226.013 55.244C226.005 55.492 225.997 55.736 225.989 55.976C225.981 56.208 225.973 56.412 225.965 56.588C225.957 56.756 225.949 56.872 225.941 56.936H225.977L229.937 50.432H232.109V59H230.489V54.884C230.489 54.668 230.493 54.432 230.501 54.176C230.509 53.912 230.517 53.66 230.525 53.42C230.541 53.18 230.553 52.972 230.561 52.796C230.577 52.612 230.589 52.492 230.597 52.436H230.549L226.577 59H224.393V50.432ZM242.047 54.704C242.047 55.368 241.963 55.972 241.795 56.516C241.635 57.052 241.387 57.516 241.051 57.908C240.723 58.3 240.299 58.6 239.779 58.808C239.267 59.016 238.663 59.12 237.967 59.12C237.271 59.12 236.663 59.016 236.143 58.808C235.631 58.592 235.207 58.292 234.871 57.908C234.543 57.516 234.295 57.048 234.127 56.504C233.967 55.96 233.887 55.356 233.887 54.692C233.887 53.804 234.031 53.032 234.319 52.376C234.615 51.72 235.063 51.212 235.663 50.852C236.271 50.484 237.043 50.3 237.979 50.3C238.907 50.3 239.671 50.484 240.271 50.852C240.871 51.212 241.315 51.724 241.603 52.388C241.899 53.044 242.047 53.816 242.047 54.704ZM235.795 54.704C235.795 55.304 235.871 55.82 236.023 56.252C236.175 56.684 236.411 57.016 236.731 57.248C237.051 57.48 237.463 57.596 237.967 57.596C238.487 57.596 238.903 57.48 239.215 57.248C239.535 57.016 239.767 56.684 239.911 56.252C240.063 55.82 240.139 55.304 240.139 54.704C240.139 53.8 239.971 53.092 239.635 52.58C239.299 52.068 238.747 51.812 237.979 51.812C237.467 51.812 237.051 51.928 236.731 52.16C236.411 52.392 236.175 52.724 236.023 53.156C235.871 53.588 235.795 54.104 235.795 54.704ZM250.368 59H248.556V51.944H246.456C246.408 52.312 246.356 52.712 246.3 53.144C246.252 53.576 246.196 54.016 246.132 54.464C246.076 54.904 246.016 55.324 245.952 55.724C245.888 56.116 245.824 56.464 245.76 56.768C245.656 57.264 245.516 57.688 245.34 58.04C245.172 58.392 244.936 58.66 244.632 58.844C244.336 59.028 243.948 59.12 243.468 59.12C243.308 59.12 243.156 59.108 243.012 59.084C242.868 59.06 242.732 59.028 242.604 58.988V57.5C242.708 57.532 242.808 57.56 242.904 57.584C243.008 57.608 243.12 57.62 243.24 57.62C243.4 57.62 243.532 57.568 243.636 57.464C243.74 57.36 243.832 57.184 243.912 56.936C243.992 56.68 244.072 56.328 244.152 55.88C244.192 55.688 244.24 55.416 244.296 55.064C244.352 54.704 244.416 54.284 244.488 53.804C244.568 53.316 244.648 52.788 244.728 52.22C244.808 51.644 244.884 51.048 244.956 50.432H250.368V59ZM260.305 54.704C260.305 55.368 260.221 55.972 260.053 56.516C259.893 57.052 259.645 57.516 259.309 57.908C258.981 58.3 258.557 58.6 258.037 58.808C257.525 59.016 256.921 59.12 256.225 59.12C255.529 59.12 254.921 59.016 254.401 58.808C253.889 58.592 253.465 58.292 253.129 57.908C252.801 57.516 252.553 57.048 252.385 56.504C252.225 55.96 252.145 55.356 252.145 54.692C252.145 53.804 252.289 53.032 252.577 52.376C252.873 51.72 253.321 51.212 253.921 50.852C254.529 50.484 255.301 50.3 256.237 50.3C257.165 50.3 257.929 50.484 258.529 50.852C259.129 51.212 259.573 51.724 259.861 52.388C260.157 53.044 260.305 53.816 260.305 54.704ZM254.053 54.704C254.053 55.304 254.129 55.82 254.281 56.252C254.433 56.684 254.669 57.016 254.989 57.248C255.309 57.48 255.721 57.596 256.225 57.596C256.745 57.596 257.161 57.48 257.473 57.248C257.793 57.016 258.025 56.684 258.169 56.252C258.321 55.82 258.397 55.304 258.397 54.704C258.397 53.8 258.229 53.092 257.893 52.58C257.557 52.068 257.005 51.812 256.237 51.812C255.725 51.812 255.309 51.928 254.989 52.16C254.669 52.392 254.433 52.724 254.281 53.156C254.129 53.588 254.053 54.104 254.053 54.704ZM267.492 50.432V51.932H263.892V59H262.08V50.432H267.492ZM268.807 50.432H270.439V54.572C270.439 54.772 270.435 54.996 270.427 55.244C270.419 55.492 270.411 55.736 270.403 55.976C270.395 56.208 270.387 56.412 270.379 56.588C270.371 56.756 270.363 56.872 270.355 56.936H270.391L274.351 50.432H276.523V59H274.903V54.884C274.903 54.668 274.907 54.432 274.915 54.176C274.923 53.912 274.931 53.66 274.939 53.42C274.955 53.18 274.967 52.972 274.975 52.796C274.991 52.612 275.003 52.492 275.011 52.436H274.963L270.991 59H268.807V50.432ZM278.685 50.432H280.317V54.572C280.317 54.772 280.313 54.996 280.305 55.244C280.297 55.492 280.289 55.736 280.281 55.976C280.273 56.208 280.265 56.412 280.257 56.588C280.249 56.756 280.241 56.872 280.233 56.936H280.269L284.229 50.432H286.401V59H284.781V54.884C284.781 54.668 284.785 54.432 284.793 54.176C284.801 53.912 284.809 53.66 284.817 53.42C284.833 53.18 284.845 52.972 284.853 52.796C284.869 52.612 284.881 52.492 284.889 52.436H284.841L280.869 59H278.685V50.432Z" fill="#1C407F"/>
<path d="M81.5029 78.2567C81.2661 78.2766 81.0285 78.2284 80.8191 78.118C80.6098 78.0075 80.4378 77.8396 80.3242 77.6347C79.8742 76.6769 80.4636 75.8372 82.0605 75.1033L82.2633 75.0224L82.3521 74.9789C83.0555 74.6741 83.8666 74.4005 84.6334 74.1454L85.0517 74.0086C86.636 73.4924 88.7336 72.8082 88.9871 72.236C88.959 72.171 88.9439 72.1013 88.9427 72.0307L86.2621 66.5885C86.2051 66.4531 86.2051 66.301 86.2621 66.1655C86.2898 66.0983 86.3311 66.0372 86.3833 65.986C86.4356 65.9347 86.4978 65.8942 86.5663 65.867C87.2317 65.6058 87.8337 65.4005 88.4294 65.245C88.731 65.1478 89.0378 65.0668 89.3483 65.0025C91.5814 64.4518 93.8917 64.2669 96.1862 64.4551H96.2559C96.3826 64.4551 96.7629 64.5049 96.7692 64.5049C100.308 64.8394 103.615 66.3799 106.117 68.8587C106.205 68.9448 106.26 69.0583 106.273 69.1799C106.285 69.3014 106.255 69.4235 106.186 69.5254C106.117 69.6273 106.015 69.7027 105.896 69.7388C105.777 69.7748 105.649 69.7693 105.534 69.7232C104.718 69.3526 103.823 69.1805 102.925 69.2217C102.027 69.2628 101.152 69.5159 100.375 69.9596C103.544 71.614 105.223 73.5173 105.578 75.8994C105.594 76.0013 105.579 76.1054 105.535 76.1991C105.492 76.2928 105.421 76.3719 105.332 76.4268C105.243 76.4816 105.14 76.5098 105.035 76.5078C104.93 76.5058 104.828 76.4738 104.741 76.4157C101.484 74.2387 97.7705 73.5795 93.4612 74.388L92.9162 74.5C90.3982 75.0885 87.9462 75.9219 85.5967 76.9879C83.8033 77.672 82.4471 78.2567 81.5029 78.2567ZM82.8274 75.9056C82.7137 75.9654 82.595 76.0154 82.4725 76.0549C81.9845 76.285 81.11 76.7515 81.2874 77.1371C81.4648 77.5228 83.5942 76.6147 85.1341 75.9616C87.5562 74.8622 90.0819 73.9977 92.6754 73.3804L93.233 73.2685C97.3522 72.4972 100.939 72.9761 104.139 74.7363C103.423 73.0819 101.763 71.6887 99.0189 70.3825C98.933 70.343 98.8594 70.2818 98.8053 70.2054C98.7512 70.1289 98.7187 70.0398 98.711 69.947C98.7033 69.8542 98.7206 69.7611 98.7614 69.677C98.8021 69.593 98.8647 69.5209 98.9429 69.4682C100.291 68.4549 101.97 67.9595 103.664 68.075C101.582 66.6359 99.1571 65.749 96.6234 65.5C96.389 65.5 96.2052 65.4689 96.0594 65.4441C93.8835 65.2685 91.693 65.4471 89.5765 65.9727C89.5765 65.9727 88.9871 66.1096 88.8097 66.1593L88.74 66.1904C88.3344 66.3024 87.9161 66.4392 87.4725 66.5947L89.9187 71.5705C89.9326 71.5947 89.9453 71.6196 89.9567 71.6451C90.03 71.7967 90.068 71.9625 90.068 72.1303C90.068 72.2981 90.03 72.4638 89.9567 72.6154C89.5131 73.623 87.6183 74.2387 85.4256 74.954L84.9123 75.1219C84.2469 75.3707 83.4801 75.6257 82.8274 75.9056Z" fill="#1C407F"/>
<path d="M43.7844 78.2499C42.8402 78.2499 41.4777 77.6715 39.7413 76.9375C38.74 76.5084 37.5993 76.0295 36.3699 75.5817L35.1785 75.1649C29.2976 73.2492 24.6587 73.6162 20.6029 76.3342C20.5147 76.389 20.4126 76.418 20.3082 76.418C20.2039 76.418 20.1017 76.389 20.0136 76.3342C19.9242 76.2795 19.8532 76.2002 19.8092 76.1062C19.7653 76.0123 19.7504 75.9077 19.7664 75.8056C20.1213 73.4234 21.7816 71.5202 24.9692 69.8657C24.1928 69.4236 23.3193 69.1713 22.4226 69.1302C21.5259 69.0891 20.6322 69.2603 19.8171 69.6294C19.704 69.6706 19.5801 69.6735 19.4652 69.6374C19.3503 69.6013 19.251 69.5284 19.1834 69.4303C19.1154 69.3288 19.0846 69.2076 19.0961 69.0867C19.1076 68.9657 19.1608 68.8522 19.2468 68.7648C21.1153 66.8855 23.4777 65.5508 26.0719 64.9086C26.2367 64.8588 26.4775 64.8091 26.8451 64.7282C29.2351 64.239 31.6959 64.18 34.1075 64.5541L34.3927 64.6038C35.9089 64.8526 37.3953 65.2528 38.8287 65.798C38.8978 65.8243 38.9605 65.8644 39.0129 65.9158C39.0653 65.9672 39.1061 66.0288 39.1329 66.0966C39.1627 66.1643 39.1781 66.2373 39.1781 66.3112C39.1781 66.385 39.1627 66.458 39.1329 66.5257L36.4206 72.0177V72.0675C36.6424 72.7455 38.7083 73.4296 39.7032 73.7593L41.0214 74.1884C43.2964 74.941 44.697 75.5568 45.1025 76.4773C45.1822 76.647 45.2234 76.8316 45.2234 77.0184C45.2234 77.2052 45.1822 77.3898 45.1025 77.5595C44.9857 77.7968 44.795 77.9915 44.5581 78.1156C44.3212 78.2397 44.0503 78.2867 43.7844 78.2499ZM28.4484 72.9196C30.8585 72.9596 33.2464 73.3796 35.5207 74.1635L36.7501 74.5927C38.0175 75.0467 39.1519 75.5319 40.1722 75.9611C41.7058 76.6141 43.8034 77.5035 44.0252 77.1117C44.0408 77.0808 44.049 77.0467 44.049 77.0122C44.049 76.9777 44.0408 76.9436 44.0252 76.9127C43.7337 76.2534 41.5347 75.5195 40.5904 75.2085L39.2723 74.7793C37.2698 74.12 35.7108 73.5354 35.3179 72.6148C35.2099 72.3407 35.2099 72.0369 35.3179 71.7627C35.3261 71.7301 35.3389 71.6986 35.3559 71.6694L37.8908 66.5942C36.7036 66.1808 35.4824 65.8687 34.2406 65.6612L33.9617 65.6177C31.6855 65.2595 29.3618 65.3122 27.1049 65.7731C27.1049 65.7731 26.6042 65.8789 26.4712 65.9224H26.4015C24.7201 66.3491 23.1342 67.0788 21.7246 68.0744C23.4204 67.9614 25.1003 68.4565 26.4522 69.4677C26.5306 69.5199 26.5933 69.592 26.6334 69.6763C26.6736 69.7606 26.6898 69.854 26.6803 69.9466C26.6729 70.0389 26.6409 70.1278 26.5875 70.2042C26.5341 70.2806 26.4612 70.3419 26.3761 70.382C23.6321 71.6632 21.9401 73.0627 21.2556 74.7358C23.4542 73.5333 25.9316 72.9078 28.4484 72.9196Z" fill="#1C407F"/>
<path d="M62.6295 77.2114C58.8352 77.1814 55.0561 76.7371 51.362 75.8866L50.4367 75.6689C48.8081 75.277 47.116 74.7919 45.2592 74.201L45.1135 74.1575L43.5102 73.6288C43.5102 73.6288 42.661 73.3241 42.4582 73.2681H42.3758C39.4037 72.2605 36.9258 71.4022 36.3745 72.0241L36.2731 72.1734C36.2128 72.2914 36.1102 72.3833 35.9851 72.4315C35.8599 72.4798 35.721 72.4809 35.595 72.4346C35.4725 72.3883 35.3717 72.2992 35.312 72.1844C35.2524 72.0696 35.238 71.9372 35.2718 71.8127V71.7318L39.6191 62.8998C40.1388 61.7305 41.9322 61.9046 42.5216 61.9606L43.4341 62.0912C44.9908 62.404 46.5205 62.8345 48.0096 63.3787C48.6433 63.6088 49.277 63.8079 49.9107 64.0007L50.4748 64.1873C53.1399 65.0999 55.8849 65.7703 58.6751 66.19L59.1504 66.2522C60.3028 66.3916 61.4621 66.4684 62.6232 66.4824C64.8456 66.4515 67.0588 66.193 69.2265 65.7111C69.2791 65.7046 69.3324 65.7046 69.385 65.7111C69.385 65.7111 69.9046 65.5681 69.968 65.5494C72.3398 64.973 74.6775 64.2691 76.9706 63.4409L77.6043 63.217C77.6653 63.2082 77.7272 63.2082 77.7881 63.217C77.7881 63.217 78.2951 63.0242 78.4915 62.9558C79.1633 62.7381 79.8667 62.5328 80.5955 62.3338L81.5777 62.1161C83.8655 61.6745 85.1899 61.9357 85.6145 62.906L87.2052 66.134L89.9112 71.6261C89.943 71.6967 89.9602 71.7728 89.9619 71.85C89.9621 71.9669 89.9229 72.0805 89.8503 72.1732C89.7777 72.2659 89.6759 72.3324 89.5608 72.3622C89.4456 72.3921 89.3236 72.3836 89.2139 72.3382C89.1042 72.2928 89.0128 72.213 88.9542 72.1112L88.8845 72.0117C88.3332 71.3897 85.8744 72.2418 83.029 73.2059C82.1481 73.5044 81.1848 73.8278 80.1455 74.1699L79.9998 74.2072C79.4611 74.3752 78.8908 74.5556 78.2951 74.7297L76.6728 75.1962C74.8666 75.6875 73.1619 76.0732 71.4699 76.3779L69.8539 76.6454C67.4636 77.0108 65.0487 77.2 62.6295 77.2114ZM42.6293 72.2356C43.0594 72.3436 43.4827 72.4765 43.8967 72.6337L45.481 73.1561L45.6268 73.1997C47.4583 73.7843 49.1249 74.257 50.7282 74.6426L51.6408 74.8603C55.2533 75.696 58.9498 76.132 62.6612 76.1602C65.0165 76.142 67.3673 75.957 69.6955 75.6067L71.2798 75.3455C72.9401 75.0469 74.6132 74.6675 76.3876 74.1824L77.9972 73.7221C78.5739 73.5542 79.1379 73.3738 79.6893 73.1997L79.8287 73.1561C80.8616 72.8203 81.8186 72.4968 82.6931 72.1983C85.1519 71.3648 86.9707 70.7491 88.2191 70.7491H88.3015L84.6513 63.3352C84.4992 62.9931 83.6944 62.7816 81.8186 63.1424L80.8616 63.3538C80.1772 63.5218 79.4991 63.7208 78.9605 63.9012L77.9972 64.2246L77.3635 64.4423C75.0404 65.2775 72.6732 65.9897 70.2722 66.5757C70.2722 66.5757 69.7715 66.7125 69.4864 66.756C67.251 67.2446 64.9702 67.5051 62.6802 67.5335C61.4725 67.5239 60.2663 67.445 59.068 67.2971L58.5864 67.2287C55.7273 66.8042 52.9143 66.1213 50.1832 65.1887L49.6192 64.9958L47.8195 64.3739C46.362 63.8433 44.8638 63.4273 43.3391 63.1299L42.5026 63.0055C41.4886 62.9122 40.8169 63.0055 40.6774 63.3352L37.0209 70.7988C38.2883 70.7491 40.1388 71.4208 42.68 72.2667L42.6293 72.2356Z" fill="#1C407F"/>
<path d="M48.315 68.3482L48.4735 67.7635C48.3277 67.5756 48.1523 67.4118 47.9538 67.2784C47.7581 67.1483 47.5448 67.0457 47.3201 66.9736C47.0614 66.8789 46.7857 66.8372 46.5099 66.8511C46.2342 66.865 45.9642 66.9342 45.7168 67.0545C45.4726 67.1851 45.2576 67.3625 45.0845 67.5762C44.9114 67.7898 44.7838 68.0354 44.7092 68.2984C44.5722 68.6859 44.5394 69.1015 44.6141 69.505C44.6876 69.8857 44.8675 70.2389 45.1338 70.5251C45.3937 70.8146 45.7288 71.0296 46.1033 71.147C46.3996 71.241 46.7057 71.3015 47.0159 71.3274C47.2718 71.3388 47.5276 71.3029 47.77 71.2217L47.8207 71.3087C47.738 71.39 47.6617 71.4773 47.5926 71.57C47.3033 71.6129 47.0101 71.6254 46.7181 71.6073C46.4382 71.5874 46.1617 71.5352 45.8942 71.4518C45.3956 71.3028 44.9397 71.0408 44.5634 70.6868C44.2285 70.3798 43.9909 69.9847 43.879 69.5486C43.7758 69.1006 43.7966 68.6336 43.9393 68.1962C44.0819 67.7587 44.3412 67.3667 44.6901 67.0607C45.0327 66.7668 45.4559 66.5786 45.9069 66.5196C46.4483 66.4591 46.9967 66.5208 47.5102 66.6999C47.875 66.8233 48.2238 66.9882 48.5495 67.1913C48.746 67.3095 48.8981 67.3965 49.0248 67.4587C48.805 67.7385 48.6376 68.0544 48.5305 68.3917L48.315 68.3482Z" fill="#1C407F"/>
<path d="M49.4797 67.7203L49.5304 67.5088C49.9866 67.6394 50.3225 67.7265 50.5316 67.7762C50.7408 67.826 51.0766 67.9006 51.5139 67.9877L51.4569 68.1992L51.2097 68.137C51.0006 68.0872 50.8612 68.0934 50.7978 68.1681C50.6436 68.5084 50.5309 68.8654 50.4619 69.2316L50.1387 70.5316C50.041 70.8595 49.9835 71.1978 49.9676 71.5392C49.9754 71.6487 50.0052 71.7556 50.0552 71.8538C50.1052 71.952 50.1745 72.0395 50.2591 72.1114C50.4966 72.3164 50.7853 72.4559 51.0956 72.5157C51.4257 72.6088 51.7743 72.6195 52.1096 72.5468C52.3157 72.4941 52.4957 72.3705 52.6166 72.1985C52.8156 71.8545 52.9549 71.4803 53.0285 71.0913L53.3454 69.8474C53.4562 69.5204 53.514 69.1782 53.5165 68.8336C53.4784 68.7403 53.3453 68.6594 53.1045 68.6035L52.9334 68.5599L52.9841 68.3547L53.8713 68.591C54.0741 68.6408 54.334 68.6968 54.6381 68.7527L54.5874 68.9642L54.353 68.9082C54.2905 68.8822 54.2219 68.8736 54.1548 68.8835C54.0877 68.8934 54.0247 68.9213 53.9727 68.9642C53.8212 69.272 53.7125 69.5983 53.6495 69.9345L53.339 71.1784C53.2568 71.5668 53.1292 71.9445 52.9588 72.3042C52.8539 72.4926 52.701 72.6512 52.5152 72.7644C52.3019 72.8934 52.0612 72.9722 51.8117 72.9946C51.4992 73.0232 51.1839 72.9979 50.8802 72.9199C50.5647 72.8469 50.2616 72.7296 49.9803 72.5716C49.7762 72.4582 49.5991 72.3034 49.4606 72.1176C49.3579 71.9631 49.2968 71.7854 49.2832 71.6014C49.2829 71.2899 49.3278 70.98 49.4163 70.6808L49.5874 70.0589L49.8409 69.0513C49.9436 68.7038 50.0136 68.3478 50.05 67.9877C50.05 67.9006 49.9169 67.8384 49.7205 67.7887L49.4797 67.7203Z" fill="#1C407F"/>
<path d="M60.0461 70.1586L58.7786 72.1489C58.3033 72.8953 57.9104 73.5545 57.5999 74.1143H57.4605C57.3971 73.9029 57.2133 73.3555 56.9028 72.4785L55.9205 69.8165L55.629 72.4412C55.5611 72.7876 55.5483 73.1421 55.591 73.4924C55.629 73.5794 55.7811 73.6354 56.0409 73.6665H56.1677V73.878C55.8508 73.8282 55.591 73.7909 55.3882 73.7722C55.1854 73.7536 54.9509 73.7349 54.5137 73.7038V73.4861H54.7418C54.846 73.5099 54.9552 73.4989 55.0523 73.455C55.1174 73.3961 55.1599 73.3171 55.1727 73.2311C55.2361 72.9201 55.2868 72.578 55.3312 72.2111L55.5403 70.2892C55.5821 69.9839 55.6074 69.6766 55.6163 69.3687C55.6169 69.3327 55.6098 69.297 55.5957 69.2638C55.5815 69.2306 55.5605 69.2007 55.534 69.1759C55.4273 69.1173 55.3076 69.0852 55.1854 69.0826H55.0016V68.8711L55.7558 68.9768L56.3198 69.0141C56.5352 69.6361 56.7824 70.3576 57.0612 71.1289L57.771 73.0632L58.7976 71.4523C59.1588 70.8925 59.5771 70.2083 60.0651 69.4122C60.3502 69.462 60.553 69.4868 60.6988 69.4993C60.8445 69.5117 61.0853 69.5366 61.4402 69.5553V69.773H61.2121C61.0093 69.773 60.8826 69.773 60.8319 69.8352C60.7339 70.068 60.6822 70.3171 60.6798 70.5691L60.4009 73.057C60.3445 73.3732 60.3339 73.6957 60.3692 74.0148C60.4073 74.1019 60.534 74.1516 60.7495 74.1765H60.9523V74.388C60.6354 74.3382 60.3185 74.2947 60.0334 74.2636C59.7482 74.2325 59.3997 74.2014 59.0194 74.1827V73.965H59.2476C59.425 73.965 59.5391 73.965 59.5898 73.8842C59.6823 73.5572 59.7397 73.2216 59.7609 72.8828L60.0461 70.1586Z" fill="#1C407F"/>
<path d="M64.9558 73.9088C64.9558 73.5543 64.9114 72.9385 64.8163 72.0429L64.7086 71.0602C64.6642 70.6559 64.6135 70.3138 64.5565 70.0215C64.5431 69.9212 64.5108 69.8242 64.4615 69.7354C64.3677 69.6954 64.2655 69.6784 64.1636 69.6856H63.8848V69.4741C64.2713 69.4741 64.5185 69.4244 64.6579 69.4119L65.5895 69.3062L66.3436 69.2191C66.6574 69.1848 66.9741 69.1848 67.2878 69.2191C67.6121 69.2499 67.9257 69.3497 68.2067 69.5114C68.4827 69.6734 68.7135 69.8999 68.8785 70.1707C69.0539 70.4698 69.16 70.8033 69.189 71.1472C69.237 71.4995 69.2099 71.8578 69.1096 72.1993C69.0092 72.5408 68.8377 72.8582 68.606 73.1313C68.3578 73.4124 68.0552 73.6423 67.7158 73.8078C67.3764 73.9733 67.0069 74.0711 66.6288 74.0954L66.2042 74.1265L65.4057 74.1825C65.2219 74.1825 64.9874 74.2447 64.7023 74.3006V74.1389L64.9558 73.9088ZM65.7035 73.8155C65.9799 73.8352 66.2574 73.8352 66.5337 73.8155C67.0805 73.7971 67.5995 73.5746 67.9849 73.1935C68.1878 72.9422 68.3339 72.6514 68.4137 72.3404C68.4934 72.0295 68.505 71.7055 68.4475 71.3898C68.4378 71.1129 68.3704 70.8409 68.2494 70.5906C68.1284 70.3403 67.9565 70.1169 67.7441 69.9344C67.51 69.7726 67.2455 69.658 66.9659 69.5972C66.6864 69.5363 66.3973 69.5304 66.1155 69.5799C65.8269 69.6147 65.541 69.6687 65.2599 69.7416C65.2551 69.9909 65.2678 70.2403 65.298 70.4879L65.5388 72.7084C65.5831 73.0816 65.6402 73.461 65.7035 73.8155Z" fill="#1C407F"/>
<path d="M71.4324 71.004L71.6161 71.825L71.7239 72.2915C71.7936 72.59 71.8443 72.8015 71.8823 72.9135C72.2182 72.8637 72.5731 72.8015 72.9533 72.7144C73.1681 72.6725 73.3799 72.6164 73.587 72.5465C73.7056 72.5044 73.8184 72.448 73.9229 72.3786C73.9229 72.1733 73.9229 71.9183 73.9229 71.6073L74.1447 71.5638C74.1954 72.0614 74.2397 72.3972 74.2778 72.559L74.3158 72.7082C74.0623 72.7891 73.8088 72.8513 73.5553 72.9073L73.023 73.013C72.4273 73.1249 71.9964 73.212 71.7175 73.2742C71.4387 73.3364 71.0838 73.411 70.6656 73.523L70.6212 73.3115H70.7226C70.8521 73.2936 70.9756 73.2468 71.0838 73.1747C71.1345 73.0858 71.1503 72.9819 71.1282 72.8824C71.1282 72.7393 71.0521 72.4283 70.9444 71.9494L70.5261 70.1208C70.4628 69.8223 70.3994 69.5735 70.3424 69.3869C70.3141 69.2723 70.2715 69.1616 70.2156 69.0572C70.1924 69.0275 70.1618 69.004 70.1269 68.9888C70.0261 68.973 69.9235 68.973 69.8227 68.9888L69.5502 69.0199L69.5059 68.8085L69.8734 68.7338L70.2346 68.6654L70.6973 68.5783L71.9647 68.2736L72.5984 68.1367C72.8139 68.087 73.023 68.0497 73.2321 68.0186C73.2132 68.3754 73.2431 68.7331 73.3209 69.0821L73.0927 69.1319C73.0485 68.9207 72.9892 68.7129 72.9153 68.5099C72.5737 68.4768 72.2288 68.4999 71.895 68.5783C71.5845 68.6467 71.2613 68.7276 70.9317 68.8333C70.9824 69.0386 71.0268 69.2501 71.0648 69.4553L71.1725 69.9715L71.3246 70.6495C71.5528 70.6122 71.7556 70.5811 71.9267 70.5438C72.238 70.4943 72.5422 70.4087 72.8329 70.2887C72.8899 70.239 72.9026 70.1146 72.8329 69.9218L72.7885 69.7041L73.0167 69.6543C73.0737 69.9964 73.1307 70.2763 73.1751 70.4629C73.2195 70.6495 73.2828 70.9232 73.3652 71.2093L73.1371 71.259L73.0927 71.0662C73.042 70.8485 72.9723 70.7304 72.8772 70.6993C72.5662 70.6924 72.2559 70.7344 71.9584 70.8236L71.4324 71.004Z" fill="#1C407F"/>
<path d="M74.664 70.1524C74.5491 69.8352 74.5039 69.4979 74.5312 69.1624C74.5585 68.8269 74.6577 68.5008 74.8224 68.2056C75.1916 67.5911 75.7927 67.1442 76.4954 66.9616C77.1428 66.724 77.8591 66.7441 78.4916 67.0176C78.7764 67.1606 79.0274 67.3607 79.2283 67.605C79.4292 67.8493 79.5755 68.1323 79.6577 68.4357C79.7723 68.7719 79.8151 69.1276 79.7835 69.4808C79.7519 69.8339 79.6465 70.1768 79.4739 70.4882C79.2969 70.8067 79.0565 71.087 78.7669 71.3125C78.4773 71.5379 78.1445 71.7039 77.7882 71.8006C77.3596 71.9414 76.9012 71.9714 76.4574 71.8877C76.0431 71.8031 75.6637 71.5996 75.3674 71.303C75.0405 70.9817 74.799 70.5866 74.664 70.1524ZM75.2533 69.6797C75.3847 70.122 75.6117 70.5315 75.9187 70.8801C76.165 71.1761 76.4962 71.3928 76.8693 71.502C77.2189 71.6028 77.5907 71.6028 77.9403 71.502C78.2603 71.4118 78.548 71.2351 78.7705 70.992C78.9852 70.7463 79.1199 70.443 79.157 70.1213C79.2028 69.7205 79.1574 69.3147 79.024 68.9333C78.903 68.521 78.686 68.142 78.3902 67.8262C78.1508 67.5613 77.8346 67.3747 77.484 67.2913C77.1245 67.2114 76.7494 67.2308 76.4004 67.3473C76.0768 67.435 75.7834 67.6069 75.5512 67.8448C75.3336 68.0738 75.1921 68.3623 75.1456 68.6721C75.1037 69.0116 75.1405 69.3561 75.2533 69.6797Z" fill="#1C407F"/>
<path d="M43.8154 14.7119L25.4778 22.0017C25.202 22.1113 25.0691 22.4196 25.1807 22.6902C25.2924 22.9608 25.6065 23.0914 25.8822 22.9817L44.2198 15.6919C44.4956 15.5823 44.6286 15.2741 44.5169 15.0034C44.4052 14.7328 44.0911 14.6023 43.8154 14.7119Z" fill="#1C407F"/>
<path d="M42.9228 12.6592L24.5852 19.949C24.3095 20.0586 24.1765 20.3668 24.2882 20.6375C24.3998 20.9081 24.7139 21.0386 24.9896 20.929L43.3273 13.6392C43.603 13.5296 43.736 13.2213 43.6243 12.9507C43.5126 12.6801 43.1985 12.5496 42.9228 12.6592Z" fill="#1C407F"/>
<path d="M16.4453 21.9056V55.7845C16.4453 55.9247 16.5021 56.0591 16.6031 56.1583C16.7041 56.2574 16.8411 56.3131 16.984 56.3131C17.1268 56.3131 17.2638 56.2574 17.3649 56.1583C17.4659 56.0591 17.5226 55.9247 17.5226 55.7845V21.9056C17.5226 21.7654 17.4659 21.6309 17.3649 21.5318C17.2638 21.4327 17.1268 21.377 16.984 21.377C16.8411 21.377 16.7041 21.4327 16.6031 21.5318C16.5021 21.6309 16.4453 21.7654 16.4453 21.9056Z" fill="#1C407F"/>
<path d="M17.3125 28.4427C28.9476 24.0018 40.5489 19.4987 52.1164 14.9335C52.7501 14.6847 52.4776 13.6584 51.8312 13.9134C40.2426 18.4746 28.6244 22.9776 16.9766 27.4227C16.3429 27.6715 16.6091 28.6666 17.2618 28.4427H17.3125Z" fill="#1C407F"/>
<path d="M17.1729 54.4467C27.3125 54.3286 37.452 53.4516 47.4901 52.5186C48.9667 52.3818 50.4559 52.2698 51.9262 52.0335C52.6042 51.9215 52.3191 50.9015 51.6346 51.0135C46.6916 51.8158 41.5648 51.9837 36.5711 52.3507C30.1199 52.8234 23.6496 53.3147 17.1793 53.3894C17.0364 53.3894 16.8994 53.4451 16.7984 53.5442C16.6974 53.6434 16.6406 53.7778 16.6406 53.9181C16.6406 54.0583 16.6974 54.1927 16.7984 54.2919C16.8994 54.391 17.0364 54.4467 17.1793 54.4467H17.1729Z" fill="#1C407F"/>
<path d="M51.2363 6.66149C51.3124 28.1257 51.3884 43.2397 51.4645 64.7039C51.4645 64.8441 51.5212 64.9786 51.6222 65.0778C51.7233 65.1769 51.8603 65.2326 52.0031 65.2326C52.146 65.2326 52.283 65.1769 52.384 65.0778C52.485 64.9786 52.5418 64.8441 52.5418 64.7039C52.4657 43.2397 52.3897 28.1257 52.3137 6.66149C52.3137 6.52128 52.2569 6.38681 52.1559 6.28766C52.0549 6.18851 51.9179 6.13281 51.775 6.13281C51.6321 6.13281 51.4951 6.18851 51.3941 6.28766C51.2931 6.38681 51.2363 6.52128 51.2363 6.66149Z" fill="#1C407F"/>
<path d="M36.084 33.8723V26.9373L40.8242 25.6934V32.8025L36.084 33.8723Z" fill="#1C407F"/>
<path d="M48.9805 17.49V51.4746C48.995 51.6073 49.0591 51.73 49.1602 51.8192C49.2614 51.9084 49.3926 51.9578 49.5286 51.9578C49.6646 51.9578 49.7958 51.9084 49.897 51.8192C49.9982 51.73 50.0622 51.6073 50.0768 51.4746V17.49C50.0622 17.3573 49.9982 17.2346 49.897 17.1454C49.7958 17.0562 49.6646 17.0068 49.5286 17.0068C49.3926 17.0068 49.2614 17.0562 49.1602 17.1454C49.0591 17.2346 48.995 17.3573 48.9805 17.49Z" fill="#1C407F"/>
<path d="M27.0976 35.7382V29.3506L24.0938 30.1778V36.4784L27.0976 35.7382Z" fill="#1C407F"/>
<path d="M17.0469 22.4034C17.1805 22.3892 17.304 22.3271 17.3938 22.2289C17.4835 22.1308 17.5332 22.0035 17.5332 21.8716C17.5332 21.7397 17.4835 21.6125 17.3938 21.5143C17.304 21.4162 17.1805 21.354 17.0469 21.3398C16.9133 21.354 16.7897 21.4162 16.7 21.5143C16.6102 21.6125 16.5605 21.7397 16.5605 21.8716C16.5605 22.0035 16.6102 22.1308 16.7 22.2289C16.7897 22.3271 16.9133 22.3892 17.0469 22.4034Z" fill="#1C407F"/>
<path d="M17.206 22.0482C28.9044 16.9854 40.774 12.3206 52.3457 6.96541H51.8007L71.8643 16.3634L103.715 31.2907L111.054 34.78C111.178 34.8452 111.323 34.8615 111.46 34.8258C111.596 34.79 111.714 34.7047 111.789 34.5872L112.6 33.4863C113.005 32.9327 112.074 32.4041 111.668 32.9514L110.857 34.0523L111.599 33.8657L84.2726 21.0406L52.8274 6.28124C52.6085 6.13 52.3473 6.04883 52.0796 6.04883C51.8119 6.04883 51.5507 6.13 51.3318 6.28124C47.5802 7.99373 43.8095 9.66269 40.0199 11.2881C32.2505 14.597 24.4177 17.7877 16.661 21.1339C16.0272 21.4076 16.5722 22.3157 17.206 22.0482Z" fill="#1C407F"/>
<path d="M61.9841 7.69942V5.06226C61.9696 4.93114 61.9063 4.80988 61.8063 4.72179C61.7062 4.63369 61.5766 4.58496 61.4422 4.58496C61.3078 4.58496 61.1782 4.63369 61.0782 4.72179C60.9782 4.80988 60.9149 4.93114 60.9004 5.06226V7.69942C60.9004 7.84022 60.9569 7.97533 61.0578 8.07547C61.1586 8.17561 61.2956 8.23268 61.4391 8.23432C61.5826 8.23115 61.7193 8.17378 61.8209 8.07415C61.9224 7.97451 61.9808 7.84029 61.9841 7.69942Z" fill="#1C407F"/>
<path d="M65.216 9.32309V4.64586C65.216 4.50565 65.1592 4.37118 65.0582 4.27203C64.9572 4.17289 64.8202 4.11719 64.6773 4.11719C64.5345 4.11719 64.3975 4.17289 64.2964 4.27203C64.1954 4.37118 64.1387 4.50565 64.1387 4.64586V9.32309C64.1387 9.46331 64.1954 9.59778 64.2964 9.69693C64.3975 9.79607 64.5345 9.85177 64.6773 9.85177C64.8202 9.85177 64.9572 9.79607 65.0582 9.69693C65.1592 9.59778 65.216 9.46331 65.216 9.32309Z" fill="#1C407F"/>
<path d="M64.1582 3.87438V4.80734C64.158 4.87675 64.1719 4.94551 64.1992 5.00958C64.2264 5.07366 64.2663 5.13177 64.3166 5.18052C64.4178 5.27918 64.5543 5.335 64.6969 5.33602C64.7676 5.33619 64.8376 5.32253 64.9029 5.29583C64.9682 5.26913 65.0274 5.22993 65.0771 5.18052C65.1765 5.08053 65.2332 4.94702 65.2355 4.80734V3.87438C65.2357 3.80497 65.2218 3.73621 65.1946 3.67214C65.1674 3.60807 65.1274 3.54995 65.0771 3.5012C64.976 3.40254 64.8395 3.34672 64.6969 3.3457C64.6261 3.34553 64.5561 3.35919 64.4908 3.38589C64.4255 3.41259 64.3663 3.45179 64.3166 3.5012C64.2161 3.60046 64.1592 3.73444 64.1582 3.87438Z" fill="#1C407F"/>
<path d="M75.3372 21.9619L78.284 23.1312V20.805L75.2422 19.3496V21.9619H75.3372Z" fill="#1C407F"/>
<path d="M11.9902 59.1927V64.8402C11.9902 64.9805 12.047 65.1149 12.148 65.2141C12.249 65.3132 12.386 65.3689 12.5289 65.3689C12.6718 65.3689 12.8088 65.3132 12.9098 65.2141C13.0108 65.1149 13.0676 64.9805 13.0676 64.8402V59.1927C13.0676 59.0525 13.0108 58.9181 12.9098 58.8189C12.8088 58.7198 12.6718 58.6641 12.5289 58.6641C12.386 58.6641 12.249 58.7198 12.148 58.8189C12.047 58.9181 11.9902 59.0525 11.9902 59.1927Z" fill="#1C407F"/>
<path d="M12.2242 65.6052H25.2788C25.4217 65.6052 25.5587 65.5495 25.6597 65.4504C25.7608 65.3512 25.8175 65.2167 25.8175 65.0765C25.8175 64.9363 25.7608 64.8018 25.6597 64.7027C25.5587 64.6035 25.4217 64.5479 25.2788 64.5479H12.2242C12.0813 64.5479 11.9443 64.6035 11.8433 64.7027C11.7423 64.8018 11.6855 64.9363 11.6855 65.0765C11.6855 65.2167 11.7423 65.3512 11.8433 65.4504C11.9443 65.5495 12.0813 65.6052 12.2242 65.6052Z" fill="#1C407F"/>
<path d="M11.4632 65.0771V66.4641C11.4029 66.8996 11.4029 67.3411 11.4632 67.7765C11.666 68.3985 12.3187 68.3363 12.8511 68.3985C14.1185 68.527 15.3859 68.6369 16.6534 68.7281C19.765 68.952 17.5596 68.6597 20.6712 68.8898C21.3683 68.9396 21.3619 67.876 20.6712 67.8263C16.0387 67.4904 16.7231 67.7578 12.0969 67.2603L12.4835 67.4158L12.3441 67.2665L12.5025 67.6397V65.0834C12.5025 64.9431 12.4458 64.8087 12.3447 64.7095C12.2437 64.6104 12.1067 64.5547 11.9639 64.5547C11.821 64.5547 11.684 64.6104 11.583 64.7095C11.4819 64.8087 11.4252 64.9431 11.4252 65.0834L11.4632 65.0771Z" fill="#1C407F"/>
<path d="M25.0254 56.2015V65.1828C25.0254 65.323 25.0821 65.4575 25.1832 65.5566C25.2842 65.6558 25.4212 65.7115 25.5641 65.7115C25.7069 65.7115 25.8439 65.6558 25.9449 65.5566C26.046 65.4575 26.1027 65.323 26.1027 65.1828V56.2015C26.1027 56.0613 26.046 55.9268 25.9449 55.8277C25.8439 55.7286 25.7069 55.6729 25.5641 55.6729C25.4212 55.6729 25.2842 55.7286 25.1832 55.8277C25.0821 55.9268 25.0254 56.0613 25.0254 56.2015Z" fill="#1C407F"/>
<path d="M30.3047 56.7918V64.6659C30.3192 64.797 30.3825 64.9183 30.4825 65.0064C30.5825 65.0945 30.7121 65.1432 30.8465 65.1432C30.9809 65.1432 31.1105 65.0945 31.2105 65.0064C31.3106 64.9183 31.3739 64.797 31.3883 64.6659V56.7918C31.3739 56.6606 31.3106 56.5394 31.2105 56.4513C31.1105 56.3632 30.9809 56.3145 30.8465 56.3145C30.7121 56.3145 30.5825 56.3632 30.4825 56.4513C30.3825 56.5394 30.3192 56.6606 30.3047 56.7918Z" fill="#1C407F"/>
<path d="M24.0439 56.7917C26.4077 56.9161 28.7714 56.8353 31.1352 57.0716C31.2781 57.0716 31.4151 57.0159 31.5161 56.9168C31.6171 56.8176 31.6739 56.6831 31.6739 56.5429C31.6739 56.4027 31.6171 56.2682 31.5161 56.1691C31.4151 56.07 31.2781 56.0142 31.1352 56.0142C28.7714 55.7717 26.4077 55.8588 24.0439 55.7344C23.3468 55.697 23.3531 56.7544 24.0439 56.7917Z" fill="#1C407F"/>
<path d="M37.9219 56.2504V65.5799C37.9219 65.7202 37.9786 65.8546 38.0796 65.9538C38.1807 66.0529 38.3177 66.1086 38.4605 66.1086C38.6034 66.1086 38.7404 66.0529 38.8414 65.9538C38.9424 65.8546 38.9992 65.7202 38.9992 65.5799V56.2504C38.9992 56.1101 38.9424 55.9757 38.8414 55.8765C38.7404 55.7774 38.6034 55.7217 38.4605 55.7217C38.3177 55.7217 38.1807 55.7774 38.0796 55.8765C37.9786 55.9757 37.9219 56.1101 37.9219 56.2504Z" fill="#1C407F"/>
<path d="M30.6533 56.9789C33.3994 56.8628 36.1455 56.8275 38.8916 56.8731C39.0345 56.8731 39.1715 56.8174 39.2725 56.7183C39.3735 56.6192 39.4303 56.4847 39.4303 56.3445C39.4303 56.2043 39.3735 56.0698 39.2725 55.9706C39.1715 55.8715 39.0345 55.8158 38.8916 55.8158C36.1455 55.766 33.3994 55.8013 30.6533 55.9215C29.9625 55.9526 29.9562 57.01 30.6533 56.9789Z" fill="#1C407F"/>
<path d="M24.4993 56.3385C24.6514 55.8907 25.2788 55.7166 25.6844 55.5549C26.2821 55.3576 26.9109 55.267 27.5412 55.2874C28.0971 55.3043 28.642 55.4445 29.1348 55.6977C29.6276 55.9508 30.0556 56.3103 30.3866 56.749C30.7858 57.3026 31.7174 56.749 31.3181 56.2142C30.874 55.6003 30.2869 55.0994 29.6057 54.7532C28.9245 54.407 28.1689 54.2255 27.4018 54.2238C26.5696 54.2171 25.7444 54.3736 24.9746 54.6841C24.6321 54.7873 24.3171 54.9635 24.052 55.2C23.7869 55.4366 23.5782 55.7276 23.441 56.0524C23.2192 56.6744 24.2585 56.9792 24.4803 56.3385H24.4993Z" fill="#1C407F"/>
<path d="M30.2673 57.5198C30.2916 57.4715 30.3237 57.4274 30.3623 57.3892L30.2609 57.4949C30.2917 57.4627 30.3257 57.4335 30.3623 57.4079L30.2356 57.4949C30.2631 57.4767 30.293 57.4621 30.3243 57.4514L30.1659 57.5074L30.28 57.4763H30.1088H30.2293H30.0582H30.1342L29.9821 57.4203L30.0518 57.4576L29.9377 57.4141C30.0681 57.514 30.2286 57.5687 30.394 57.5696C30.5598 57.5706 30.7209 57.5157 30.8503 57.4141C30.9072 57.3692 30.953 57.3124 30.9846 57.2478C31.0161 57.1832 31.0324 57.1125 31.0324 57.0409C31.0324 56.9693 31.0161 56.8986 30.9846 56.834C30.953 56.7694 30.9072 56.7126 30.8503 56.6677C30.7796 56.6141 30.7031 56.5682 30.6222 56.5309C30.4848 56.4774 30.3389 56.4479 30.1912 56.4438C30.0945 56.4315 29.9965 56.4315 29.8997 56.4438C29.805 56.4596 29.7132 56.4889 29.6272 56.5309C29.5453 56.5689 29.4687 56.617 29.3991 56.6739C29.2277 56.8109 29.1019 56.995 29.0379 57.2026C28.9969 57.3228 28.9776 57.4491 28.9808 57.5758C28.9841 57.6995 29.0098 57.8217 29.0569 57.9365C29.1203 58.097 29.2225 58.2401 29.3547 58.3533C29.495 58.4694 29.6593 58.5543 29.8363 58.602C30.0328 58.6423 30.2356 58.6423 30.432 58.602C30.5308 58.5862 30.6268 58.5569 30.7172 58.515C30.8054 58.4787 30.8868 58.4282 30.958 58.3657C31.0147 58.3202 31.061 58.2634 31.0938 58.1991C31.1265 58.1347 31.1451 58.0644 31.1482 57.9925C31.1467 57.9203 31.1289 57.8494 31.0961 57.7848C31.0632 57.7203 31.016 57.6637 30.958 57.6193C30.8286 57.5177 30.6675 57.4628 30.5018 57.4638C30.3358 57.4617 30.1744 57.5167 30.0455 57.6193H29.9948L30.1279 57.5385C30.1037 57.557 30.0755 57.5698 30.0455 57.5758L30.1976 57.526C30.162 57.5325 30.1254 57.5325 30.0898 57.526H30.2609C30.2189 57.5323 30.1762 57.5323 30.1342 57.526H30.3053H30.1659L30.318 57.5758C30.2728 57.5614 30.2301 57.5404 30.1912 57.5136L30.318 57.6007C30.2876 57.5791 30.2599 57.5541 30.2356 57.526L30.337 57.638C30.2996 57.6001 30.2695 57.5558 30.2483 57.5074L30.3116 57.638C30.2869 57.5819 30.2678 57.5236 30.2546 57.4638V57.6007C30.2423 57.5307 30.2423 57.4592 30.2546 57.3892V57.5323" fill="#1C407F"/>
<path d="M30.5128 59.0869H30.4621H30.6079C30.509 59.0993 30.4089 59.0993 30.31 59.0869H30.4558C30.3486 59.0762 30.2438 59.0489 30.1453 59.006L30.272 59.062C30.1639 59.0199 30.0633 58.9611 29.9742 58.8878L30.0819 58.9749C29.9888 58.9053 29.9057 58.8237 29.8347 58.7323L29.9235 58.8443C29.8622 58.7658 29.8111 58.6802 29.7714 58.5893L29.8221 58.7137C29.7834 58.6243 29.7578 58.5301 29.746 58.4338V58.5768C29.7334 58.5006 29.7334 58.4229 29.746 58.3467V58.4898C29.7519 58.4406 29.7647 58.3924 29.7841 58.3467L29.727 58.4711C29.7445 58.4339 29.7658 58.3985 29.7904 58.3654L29.708 58.4711L29.7841 58.4027L29.6763 58.4835C29.7142 58.4571 29.7545 58.4342 29.7967 58.4151L29.67 58.4711C29.7389 58.443 29.8114 58.4242 29.8854 58.4151H29.746C29.8114 58.4089 29.8771 58.4089 29.9425 58.4151H29.8031C29.86 58.4208 29.9157 58.4355 29.9678 58.4587L29.8347 58.4027C29.875 58.4218 29.9132 58.4447 29.9488 58.4711L29.8411 58.384C29.8719 58.4121 29.8995 58.4434 29.9235 58.4773L29.8411 58.3654L29.8918 58.4524L29.8347 58.3218C29.8384 58.3611 29.8384 58.4007 29.8347 58.44V58.2969V58.3716V58.2285C29.8375 58.2575 29.8375 58.2866 29.8347 58.3156L29.8918 58.185C29.8808 58.2138 29.8659 58.241 29.8474 58.2658L29.9298 58.1539L29.8664 58.2161L29.9742 58.1352H29.9171L30.0439 58.0793H29.9615H30.1072H30.0375H30.1833H30.1389C30.005 58.0534 29.866 58.0773 29.7489 58.1462C29.6319 58.2151 29.545 58.3243 29.5052 58.4524C29.4803 58.5838 29.5052 58.7195 29.5753 58.8341C29.6453 58.9487 29.7556 59.0341 29.8854 59.0744C30.0459 59.1152 30.2151 59.1086 30.3717 59.0555C30.5284 59.0024 30.6657 58.9051 30.7663 58.7759C30.8637 58.6543 30.9252 58.5088 30.9442 58.3553C30.9632 58.2017 30.9389 58.046 30.8741 57.9051C30.7452 57.65 30.5217 57.453 30.2494 57.3546C29.9771 57.2563 29.6768 57.2641 29.4102 57.3764C29.2594 57.4301 29.1235 57.5177 29.0135 57.6322C28.9034 57.7467 28.8223 57.8849 28.7764 58.0357C28.7099 58.2697 28.7099 58.517 28.7764 58.751C28.891 59.1556 29.1467 59.5078 29.4989 59.7461C29.6929 59.8798 29.9126 59.9736 30.1446 60.0217C30.3766 60.0698 30.6161 60.0713 30.8487 60.026C30.9163 60.0087 30.9797 59.9783 31.0352 59.9367C31.0907 59.895 31.1371 59.8429 31.1719 59.7835C31.2418 59.6603 31.26 59.5153 31.2226 59.3792C31.2056 59.3126 31.1749 59.2501 31.1324 59.1955C31.0899 59.141 31.0365 59.0955 30.9754 59.062C30.8498 58.9943 30.7032 58.9743 30.5635 59.006L30.5128 59.0869Z" fill="#1C407F"/>
<path d="M26.5722 57.3394C26.3843 57.5258 26.2736 57.7741 26.2617 58.0361V58.1356C26.2704 58.2133 26.2852 58.2902 26.3061 58.3657C26.3531 58.507 26.4309 58.6365 26.5342 58.7451C26.6053 58.8264 26.6913 58.8939 26.7877 58.9441C26.9281 59.0136 27.0809 59.0558 27.2376 59.0685C27.3464 59.09 27.4584 59.09 27.5672 59.0685C27.6405 59.0487 27.7108 59.0194 27.7763 58.9814C27.8451 58.9466 27.9073 58.9003 27.9601 58.8446C28.0469 58.7564 28.1084 58.6473 28.1385 58.5282C28.1685 58.4092 28.166 58.2845 28.1312 58.1667C28.1009 58.0549 28.0394 57.9537 27.9538 57.8743C27.8307 57.7632 27.671 57.6992 27.5038 57.694C27.3618 57.6975 27.2262 57.753 27.1236 57.8495C27.0231 57.9487 26.9662 58.0827 26.9651 58.2226C26.9659 58.3645 27.0227 58.5005 27.1236 58.6021C27.2291 58.694 27.363 58.7487 27.5038 58.7575H27.3581L27.2313 58.7016L27.1236 58.6207L27.0412 58.515V58.5523L26.9905 58.4217C26.9905 58.4217 26.9905 58.4217 26.9905 58.4652V58.3222C26.9938 58.3278 26.9956 58.3343 26.9956 58.3408C26.9956 58.3474 26.9938 58.3538 26.9905 58.3595V58.2226C26.9877 58.2349 26.9877 58.2477 26.9905 58.26L27.0412 58.1356V58.1729L27.1299 58.0672L27.0856 58.1045L27.1933 58.0236C27.1726 58.0417 27.149 58.0564 27.1236 58.0672L27.2503 58.0112H27.1426H27.282C27.2421 58.0173 27.2015 58.0173 27.1616 58.0112H27.301C27.253 58.0054 27.206 57.9928 27.1616 57.9739L27.2883 58.0236C27.2504 58.0064 27.2143 57.9856 27.1806 57.9614L27.2883 58.0423C27.2558 58.0186 27.226 57.9915 27.1996 57.9614L27.282 58.0672L27.225 57.9676L27.282 58.092C27.2755 58.0529 27.2755 58.013 27.282 57.9739V58.1169C27.2757 58.0715 27.2757 58.0255 27.282 57.9801V58.1169C27.2888 58.0719 27.3015 58.028 27.32 57.9863L27.263 58.1107C27.3069 58.0815 27.3536 58.0565 27.4024 58.0361L27.3137 58.1418L27.3707 58.0796C27.4213 58.0309 27.4615 57.9729 27.4889 57.9088C27.5164 57.8447 27.5305 57.7759 27.5305 57.7064C27.5305 57.6369 27.5164 57.5681 27.4889 57.504C27.4615 57.4399 27.4213 57.3819 27.3707 57.3332C27.2696 57.2346 27.1331 57.1787 26.9905 57.1777C26.8466 57.1815 26.7091 57.2368 26.6039 57.3332L26.5722 57.3394Z" fill="#1C407F"/>
<path d="M27.8512 57.5132V57.4634V57.6065C27.8541 57.5817 27.8541 57.5566 27.8512 57.5318C27.8069 57.6189 27.8005 57.6376 27.8512 57.594C27.7879 57.6687 27.7752 57.6811 27.8132 57.6438C27.6991 57.7184 27.8766 57.5754 27.8132 57.6438C27.8339 57.6257 27.8575 57.611 27.8829 57.6002C27.7435 57.65 27.9273 57.6002 27.8829 57.6002C27.9448 57.5799 28.0084 57.5653 28.073 57.5567H27.9336C28.0348 57.5474 28.1366 57.5474 28.2378 57.5567H28.0921C28.1519 57.5655 28.2112 57.578 28.2695 57.594C28.2695 57.594 28.3519 57.594 28.3582 57.594H28.2885H28.3392L28.4786 57.6749C28.3709 57.5878 28.523 57.6749 28.4786 57.6749L28.542 57.7309L28.5864 57.7868C28.523 57.6873 28.6561 57.8552 28.5864 57.7868L28.6687 57.9299C28.6244 57.8117 28.7194 58.0232 28.6687 57.9299C28.6668 57.9568 28.6668 57.9838 28.6687 58.0107C28.6723 58.0646 28.6723 58.1186 28.6687 58.1725V58.0294C28.6687 58.0294 28.6687 58.0667 28.6687 58.0854C28.6723 58.2248 28.7288 58.3579 28.8272 58.4586C28.9025 58.5322 28.9984 58.5824 29.1027 58.6027C29.207 58.623 29.3151 58.6125 29.4134 58.5726C29.5116 58.5327 29.5957 58.4651 29.6549 58.3784C29.7141 58.2917 29.7458 58.1898 29.7461 58.0854C29.7217 57.7266 29.5819 57.3847 29.3468 57.1089C29.1355 56.8603 28.8493 56.6839 28.5293 56.6051C28.1995 56.5133 27.8483 56.5286 27.528 56.6486C27.3279 56.7018 27.1485 56.8126 27.013 56.9666C26.8774 57.1207 26.792 57.311 26.7676 57.5132C26.7676 57.6534 26.8243 57.7878 26.9253 57.887C27.0264 57.9861 27.1634 58.0418 27.3062 58.0418C27.4491 58.0418 27.5861 57.9861 27.6871 57.887C27.7882 57.7878 27.8449 57.6534 27.8449 57.5132H27.8512Z" fill="#1C407F"/>
<path d="M25.1833 55.8465C24.8979 55.8547 24.6224 55.9503 24.3951 56.1198C24.1679 56.2893 24.0003 56.5243 23.9158 56.7919C23.8324 57.0813 23.8665 57.3912 24.0109 57.6565C24.0932 57.7995 24.2137 57.9178 24.3594 57.9986C24.543 58.0911 24.7538 58.1176 24.9551 58.0732C25.1179 58.0352 25.2656 57.9508 25.3797 57.8306C25.4648 57.74 25.5277 57.6315 25.5635 57.5134C25.5952 57.3889 25.5952 57.2586 25.5635 57.134C25.5253 57.0012 25.4369 56.8877 25.3163 56.8168C25.2536 56.7814 25.1842 56.7587 25.1124 56.7501C25.0405 56.7416 24.9676 56.7473 24.8981 56.767C24.8305 56.7844 24.7671 56.8148 24.7116 56.8564C24.6561 56.8981 24.6097 56.9501 24.5749 57.0096C24.508 57.1337 24.49 57.2776 24.5242 57.4139V57.2708V57.3206V57.1838C24.5269 57.1982 24.5269 57.2129 24.5242 57.2273L24.5812 57.1029L24.5495 57.1589L24.6319 57.0532L24.5749 57.1091L24.6826 57.0221C24.6619 57.0401 24.6384 57.0548 24.6129 57.0656L24.7397 57.0096H24.6573H24.803H24.7206H24.8601H24.7967L24.9234 57.0656L24.8601 57.0283L24.9678 57.1091L24.9044 57.0469L24.9868 57.1527C24.9622 57.1196 24.941 57.0841 24.9234 57.0469L24.9805 57.1713C24.962 57.1296 24.9492 57.0857 24.9424 57.0407V57.1776C24.9358 57.1259 24.9358 57.0737 24.9424 57.0221V57.1589C24.9504 57.0947 24.9674 57.0319 24.9931 56.9723L24.9361 57.0967C24.9674 57.038 25.0034 56.9818 25.0438 56.9288L24.9551 57.0407C24.9997 56.9814 25.0531 56.929 25.1136 56.8852L24.9995 56.9723C25.0534 56.9309 25.1132 56.8974 25.1769 56.8728L25.0438 56.9225C25.1065 56.8966 25.1727 56.8798 25.2403 56.8728H25.0945H25.1959C25.3388 56.8728 25.4758 56.8171 25.5768 56.7179C25.6778 56.6188 25.7346 56.4843 25.7346 56.3441C25.733 56.2044 25.6757 56.0709 25.575 55.9721C25.4743 55.8733 25.3383 55.817 25.1959 55.8154L25.1833 55.8465Z" fill="#1C407F"/>
<path d="M33.207 56.4812V65.0084C33.2215 65.1396 33.2848 65.2608 33.3848 65.3489C33.4848 65.437 33.6145 65.4857 33.7489 65.4857C33.8832 65.4857 34.0129 65.437 34.1129 65.3489C34.2129 65.2608 34.2762 65.1396 34.2907 65.0084V56.4812C34.2762 56.3501 34.2129 56.2288 34.1129 56.1407C34.0129 56.0526 33.8832 56.0039 33.7489 56.0039C33.6145 56.0039 33.4848 56.0526 33.3848 56.1407C33.2848 56.2288 33.2215 56.3501 33.207 56.4812Z" fill="#1C407F"/>
<path d="M26.7676 58.4897V64.8774C26.7676 65.0176 26.8243 65.1521 26.9253 65.2512C27.0264 65.3504 27.1634 65.406 27.3062 65.406C27.4491 65.406 27.5861 65.3504 27.6871 65.2512C27.7882 65.1521 27.8449 65.0176 27.8449 64.8774V58.4711C27.8449 58.3308 27.7882 58.1964 27.6871 58.0972C27.5861 57.9981 27.4491 57.9424 27.3062 57.9424C27.1634 57.9424 27.0264 57.9981 26.9253 58.0972C26.8243 58.1964 26.7676 58.3308 26.7676 58.4711V58.4897Z" fill="#1C407F"/>
<path d="M16.7485 55.0629L8.15526 58.5522C8.02545 58.5924 7.91514 58.6779 7.8451 58.7924C7.77506 58.907 7.75014 59.0428 7.77503 59.1741C7.81356 59.3028 7.90044 59.4122 8.0181 59.4804C8.13576 59.5485 8.27539 59.5702 8.40875 59.5411L17.0083 56.0518C17.1362 56.0092 17.2442 55.9231 17.3128 55.8089C17.3815 55.6948 17.4061 55.5603 17.3822 55.4299C17.3632 55.3628 17.3309 55.3001 17.2871 55.2453C17.2433 55.1906 17.189 55.1448 17.1272 55.1107C17.0653 55.0767 16.9973 55.0549 16.9269 55.0467C16.8564 55.0384 16.7851 55.044 16.7168 55.0629H16.7485Z" fill="#1C407F"/>
<path d="M8.09921 59.7214H25.7547C25.8975 59.7214 26.0345 59.6657 26.1355 59.5666C26.2366 59.4674 26.2933 59.333 26.2933 59.1927C26.2933 59.0525 26.2366 58.9181 26.1355 58.8189C26.0345 58.7198 25.8975 58.6641 25.7547 58.6641H8.09921C7.95635 58.6641 7.81934 58.7198 7.71832 58.8189C7.6173 58.9181 7.56055 59.0525 7.56055 59.1927C7.56055 59.333 7.6173 59.4674 7.71832 59.5666C7.81934 59.6657 7.95635 59.7214 8.09921 59.7214Z" fill="#1C407F"/>
<path d="M19.1641 59.5164V64.9337C19.1785 65.0649 19.2419 65.1861 19.3419 65.2742C19.4419 65.3623 19.5715 65.411 19.7059 65.411C19.8403 65.411 19.9699 65.3623 20.0699 65.2742C20.1699 65.1861 20.2333 65.0649 20.2477 64.9337V59.5164C20.2333 59.3852 20.1699 59.264 20.0699 59.1759C19.9699 59.0878 19.8403 59.0391 19.7059 59.0391C19.5715 59.0391 19.4419 59.0878 19.3419 59.1759C19.2419 59.264 19.1785 59.3852 19.1641 59.5164Z" fill="#1C407F"/>
<path d="M20.1719 65.1693V68.2045C20.1719 68.3447 20.2286 68.4792 20.3296 68.5784C20.4307 68.6775 20.5677 68.7332 20.7105 68.7332C20.8534 68.7332 20.9904 68.6775 21.0914 68.5784C21.1924 68.4792 21.2492 68.3447 21.2492 68.2045V65.1693C21.2492 65.0291 21.1924 64.8946 21.0914 64.7955C20.9904 64.6963 20.8534 64.6406 20.7105 64.6406C20.5677 64.6406 20.4307 64.6963 20.3296 64.7955C20.2286 64.8946 20.1719 65.0291 20.1719 65.1693Z" fill="#1C407F"/>
<path d="M13.6504 65.1704V67.8574C13.6504 67.9893 13.7038 68.1159 13.7989 68.2092C13.894 68.3025 14.0229 68.3549 14.1574 68.3549C14.2918 68.3549 14.4208 68.3025 14.5159 68.2092C14.6109 68.1159 14.6643 67.9893 14.6643 67.8574V65.1704C14.6643 65.0385 14.6109 64.9119 14.5159 64.8186C14.4208 64.7253 14.2918 64.6729 14.1574 64.6729C14.0229 64.6729 13.894 64.7253 13.7989 64.8186C13.7038 64.9119 13.6504 65.0385 13.6504 65.1704Z" fill="#1C407F"/>
<path d="M16.668 65.1704V67.8574C16.668 67.9893 16.7214 68.1159 16.8165 68.2092C16.9115 68.3025 17.0405 68.3549 17.1749 68.3549C17.3094 68.3549 17.4384 68.3025 17.5334 68.2092C17.6285 68.1159 17.6819 67.9893 17.6819 67.8574V65.1704C17.6819 65.0385 17.6285 64.9119 17.5334 64.8186C17.4384 64.7253 17.3094 64.6729 17.1749 64.6729C17.0405 64.6729 16.9115 64.7253 16.8165 64.8186C16.7214 64.9119 16.668 65.0385 16.668 65.1704Z" fill="#1C407F"/>
<path d="M89.2598 56.1082V65.1268C89.2742 65.2579 89.3376 65.3791 89.4376 65.4672C89.5376 65.5553 89.6672 65.6041 89.8016 65.6041C89.936 65.6041 90.0656 65.5553 90.1656 65.4672C90.2656 65.3791 90.329 65.2579 90.3434 65.1268V56.1082C90.329 55.977 90.2656 55.8558 90.1656 55.7677C90.0656 55.6796 89.936 55.6309 89.8016 55.6309C89.6672 55.6309 89.5376 55.6796 89.4376 55.7677C89.3376 55.8558 89.2742 55.977 89.2598 56.1082Z" fill="#1C407F"/>
<path d="M49.5827 18.1051C50.3897 17.7779 51.2148 17.4955 52.0542 17.2593C52.1848 17.2202 52.296 17.135 52.3662 17.0201C52.4364 16.9052 52.4607 16.7688 52.4344 16.6373C52.3946 16.5095 52.3075 16.4009 52.1902 16.333C52.0729 16.2651 51.9339 16.2427 51.8007 16.2703C50.9617 16.5053 50.1366 16.7857 49.3292 17.11C49.1945 17.1522 49.0798 17.2405 49.006 17.3588C48.9477 17.4515 48.92 17.5598 48.9268 17.6686C48.9336 17.7774 48.9744 17.8815 49.0438 17.9666C49.1132 18.0517 49.2077 18.1137 49.3144 18.1441C49.4211 18.1744 49.5347 18.1717 49.6397 18.1362L49.5827 18.1051Z" fill="#1C407F"/>
<path d="M47.6237 16.8679C48.1623 17.2659 48.7327 17.6391 49.2713 18.0434C49.399 18.1124 49.5489 18.1302 49.6896 18.0931C49.7563 18.0757 49.8188 18.0452 49.8732 18.0035C49.9277 17.9619 49.973 17.9098 50.0065 17.8506C50.0435 17.7905 50.0676 17.7237 50.0774 17.6542C50.0872 17.5847 50.0825 17.5139 50.0635 17.4463C50.0216 17.3154 49.9341 17.2031 49.8163 17.1291C49.2777 16.7248 48.7073 16.3516 48.1687 15.9473C48.0432 15.8787 47.8954 15.8609 47.7568 15.8976C47.6205 15.9332 47.5043 16.0205 47.4336 16.1401C47.3964 16.2013 47.3722 16.2691 47.3624 16.3397C47.3526 16.4102 47.3574 16.482 47.3765 16.5506C47.4242 16.6785 47.5104 16.7891 47.6237 16.8679Z" fill="#1C407F"/>
<path d="M33.1877 40.2414V37.2373L29.8543 37.8593H29.7402V40.7204V40.7763C30.8716 40.6596 31.9951 40.4789 33.1053 40.2352L33.1877 40.2414Z" fill="#1C407F"/>
<path d="M27.0849 55.1751C30.0803 55.0715 33.0778 55.0176 36.0774 55.0134C36.2202 55.0134 36.3573 54.9577 36.4583 54.8586C36.5593 54.7594 36.616 54.6249 36.616 54.4847C36.616 54.3445 36.5593 54.21 36.4583 54.1109C36.3573 54.0118 36.2202 53.9561 36.0774 53.9561C33.082 53.9561 30.0845 54.01 27.0849 54.1178C26.3941 54.1178 26.3878 55.2 27.0849 55.1751Z" fill="#1C407F"/>
<path d="M36.4142 55.0569C36.3191 55.0569 36.5282 55.0569 36.4142 55.0569H36.4966L36.6613 55.0942C36.7782 55.12 36.8927 55.1554 37.0035 55.2C37.0035 55.2 37.0606 55.2 37.0796 55.2C36.9782 55.1564 37.0986 55.2 37.0796 55.2C37.1327 55.2198 37.1837 55.2448 37.2317 55.2746C37.3387 55.325 37.4406 55.3854 37.5359 55.455L37.5422 55.5483C37.4408 55.4612 37.5992 55.5856 37.5422 55.5483L37.6689 55.654C37.7539 55.7281 37.8343 55.807 37.9098 55.8904L38.0175 56.021C37.9161 55.9028 38.0175 56.021 38.0618 56.0894C38.1294 56.186 38.1888 56.288 38.2393 56.3942C38.3116 56.5154 38.4299 56.6035 38.5684 56.6391C38.7069 56.6747 38.854 56.6548 38.9776 56.5839C39.1011 56.5129 39.1909 56.3967 39.2271 56.2609C39.2634 56.125 39.2431 55.9805 39.1709 55.8593C38.9038 55.3507 38.5108 54.9162 38.028 54.5956C37.5453 54.275 36.9881 54.0786 36.4078 54.0245C36.3369 54.0236 36.2664 54.0367 36.2007 54.063C36.135 54.0893 36.0752 54.1282 36.0251 54.1774C35.9749 54.2267 35.9352 54.2853 35.9084 54.3498C35.8817 54.4143 35.8683 54.4835 35.8692 54.5531C35.8724 54.6923 35.9302 54.825 36.0305 54.9235C36.1308 55.0219 36.266 55.0786 36.4078 55.0818L36.4142 55.0569Z" fill="#1C407F"/>
<path d="M38.6949 56.2819C43.0549 56.2135 47.4149 55.9523 51.7749 55.9958C51.9178 55.9958 52.0548 55.9401 52.1558 55.841C52.2568 55.7418 52.3136 55.6074 52.3136 55.4671C52.3136 55.3269 52.2568 55.1925 52.1558 55.0933C52.0548 54.9942 51.9178 54.9385 51.7749 54.9385C47.4149 54.8949 43.0549 55.1562 38.6949 55.2246C38.552 55.2246 38.415 55.2803 38.314 55.3794C38.213 55.4786 38.1563 55.613 38.1562 55.7532C38.1563 55.8935 38.213 56.0279 38.314 56.1271C38.415 56.2262 38.552 56.2819 38.6949 56.2819Z" fill="#1C407F"/>
<path d="M29.7148 44.3524V50.709L33.2827 50.3856V43.7305C32.1737 43.9108 30.8239 44.1099 29.7148 44.2591V44.3524Z" fill="#1C407F"/>
<path d="M40.7989 49.6957L36.084 50.0814V43.3703L36.4262 43.2646C37.7824 43.078 39.43 42.8789 40.7989 42.6426V49.6957Z" fill="#1C407F"/>
<path d="M17.1026 46.2935C16.8331 46.0629 16.5112 45.8991 16.1638 45.8157C15.8165 45.7324 15.4539 45.732 15.1064 45.8145C14.8919 45.83 14.6865 45.9056 14.5146 46.0325C14.3427 46.1593 14.2115 46.3319 14.1368 46.5298C14.0842 46.6989 14.0627 46.8758 14.0734 47.0523C14.0734 47.1393 14.0734 47.2202 14.0734 47.3011V47.4255C14.0753 47.378 14.0897 47.3318 14.1152 47.2914C14.1408 47.2511 14.1766 47.218 14.2192 47.1953L14.4917 47.1269H14.5487L14.7832 47.2637C14.7832 47.2637 14.7832 47.1953 14.7325 47.1642C14.6752 47.0775 14.607 46.9981 14.5297 46.9279C14.3693 46.7922 14.1744 46.7019 13.9657 46.6667C13.5173 46.6075 13.063 46.7212 12.6982 46.9839C12.3313 47.1736 12.0524 47.4941 11.9188 47.8795C11.8614 48.0887 11.877 48.3108 11.9631 48.5103C12.0493 48.7099 12.201 48.8753 12.3941 48.9804C12.4538 49.0268 12.523 49.0602 12.5969 49.0785C12.6708 49.0968 12.7478 49.0994 12.8228 49.0863C12.8979 49.0731 12.9692 49.0445 13.0322 49.0023C13.0951 48.9601 13.1482 48.9053 13.1879 48.8415C13.2277 48.7777 13.2532 48.7063 13.2627 48.632C13.2723 48.5578 13.2657 48.4825 13.2433 48.4109C13.221 48.3394 13.1835 48.2734 13.1332 48.2171C13.0829 48.1609 13.0211 48.1158 12.9517 48.0847C12.9559 48.0946 12.9581 48.1052 12.9581 48.1158C12.9581 48.1265 12.9559 48.1371 12.9517 48.1469V48.0847C12.9074 48.1594 12.9517 48.1283 12.9517 48.0847L13.0278 48.0039C13.1944 47.8552 13.394 47.7466 13.6108 47.6867H13.7249C13.6361 47.6867 13.8073 47.6867 13.7249 47.6867C13.7819 47.7302 13.7882 47.6867 13.7249 47.6867C13.7551 47.7317 13.7806 47.7796 13.8009 47.8297C13.8488 47.9198 13.9174 47.9976 14.0012 48.0571C14.0851 48.1165 14.1819 48.156 14.2841 48.1723C14.3862 48.1886 14.4908 48.1813 14.5895 48.151C14.6883 48.1207 14.7784 48.0682 14.8529 47.9977C14.9496 47.8794 15.0195 47.7421 15.0577 47.5952C15.096 47.4482 15.1018 47.2949 15.0747 47.1456C15.0747 47.0834 15.0747 47.0212 15.0747 46.959C15.0708 46.928 15.0708 46.8967 15.0747 46.8657C15.0367 46.8657 15.1381 46.8657 15.1571 46.8657C15.38 46.837 15.6059 46.837 15.8288 46.8657C15.9946 46.8767 16.1504 46.9476 16.2661 47.0647C16.7414 47.5685 17.5335 46.8159 17.0329 46.3183L17.1026 46.2935Z" fill="#1C407F"/>
<path d="M13.1037 48.4513C12.6515 48.3717 12.1858 48.4108 11.754 48.5649C11.3221 48.7189 10.9395 48.9823 10.6449 49.3283C10.4752 49.4834 10.359 49.6866 10.3124 49.9095C10.2658 50.1325 10.2912 50.3641 10.3851 50.5723C10.7168 50.9812 11.1714 51.2771 11.6842 51.4182L11.4434 50.5287C11.38 50.6034 11.2089 50.5785 11.0948 50.5909C10.8945 50.603 10.6985 50.6537 10.5181 50.7402C10.1585 50.9133 9.88137 51.2165 9.745 51.5861C9.6153 51.9392 9.63353 52.3284 9.7957 52.6683C9.87704 52.8482 9.99327 53.0109 10.1379 53.1472C10.271 53.2778 10.5372 53.34 10.6449 53.4769L10.5055 52.9606C10.5055 53.0228 9.87174 53.1099 9.7957 53.1286C9.49917 53.1766 9.21244 53.2711 8.94651 53.4085C8.70048 53.5736 8.4961 53.7916 8.34894 54.046C8.20178 54.3004 8.11572 54.5844 8.09733 54.8763C7.93256 56.1203 8.655 57.501 10.0682 57.4326L9.92878 56.3939C9.62499 56.4808 9.36825 56.6815 9.21408 56.9527C9.05991 57.2239 9.0207 57.5438 9.10494 57.8431C9.15742 57.9884 9.23863 58.122 9.34391 58.2363C9.44918 58.3506 9.57644 58.4434 9.71837 58.5093C9.8603 58.5752 10.0141 58.6129 10.1709 58.6203C10.3278 58.6276 10.4845 58.6045 10.6322 58.5522C11.2659 58.3158 10.9934 57.3082 10.3407 57.5321C10.2076 57.5819 10.0175 57.4824 10.214 57.414C10.759 57.2336 10.7146 56.3442 10.0682 56.3753C9.17465 56.4188 8.97186 55.2682 9.25703 54.6213C9.4218 54.2543 9.77669 54.2108 10.1442 54.1424C10.4974 54.0973 10.8366 53.9785 11.1392 53.7941C11.2876 53.7125 11.4072 53.5884 11.4819 53.4384C11.5567 53.2883 11.583 53.1195 11.5574 52.9544C11.4434 52.5377 10.9744 52.5812 10.797 52.2516C10.6195 51.9219 10.9491 51.6669 11.2659 51.6296C11.4412 51.6373 11.6162 51.6093 11.7798 51.5472C11.9434 51.4851 12.0921 51.3903 12.2165 51.2689C12.2795 51.2018 12.3242 51.1202 12.3464 51.0316C12.3687 50.943 12.3678 50.8504 12.3437 50.7622C12.3197 50.6741 12.2734 50.5934 12.209 50.5275C12.1447 50.4617 12.0644 50.4129 11.9757 50.3857C11.9123 50.3857 11.2533 50.0685 11.2976 49.9938L11.361 50.168C11.3887 50.1126 11.4227 50.0604 11.4624 50.0125C11.526 49.9325 11.5982 49.8595 11.6778 49.7948C11.8361 49.6666 12.0198 49.5722 12.2173 49.5176C12.4148 49.463 12.6217 49.4494 12.8249 49.4776C13.503 49.5771 13.7945 48.5571 13.1101 48.4513H13.1037Z" fill="#1C407F"/>
<path d="M13.5297 50.2617C13.4289 50.2461 13.3263 50.2461 13.2255 50.2617C13.1297 50.286 13.0379 50.3237 12.953 50.3737C12.8675 50.4212 12.7904 50.4822 12.7249 50.554C12.6322 50.66 12.5612 50.7825 12.5157 50.9148C12.4801 51.006 12.4628 51.1032 12.465 51.2009C12.4638 51.3 12.4788 51.3987 12.5094 51.4932C12.5338 51.5845 12.5746 51.6709 12.6298 51.7482C12.6664 51.8061 12.7089 51.8603 12.7565 51.9099C12.8107 51.9589 12.8678 52.0046 12.9276 52.0468C12.9869 52.083 13.0544 52.1044 13.1241 52.109C13.1946 52.1277 13.269 52.1277 13.3396 52.109C13.4718 52.0724 13.5848 51.9877 13.6555 51.8721C13.7262 51.7565 13.7492 51.6187 13.7198 51.487L13.6628 51.3564C13.6109 51.2858 13.541 51.23 13.46 51.1947L13.5677 51.2755C13.5387 51.2501 13.5112 51.2232 13.4853 51.1947L13.574 51.3004C13.547 51.2689 13.5256 51.2331 13.5107 51.1947L13.5614 51.3191C13.5585 51.2797 13.5585 51.2402 13.5614 51.2009V51.3377C13.555 51.2965 13.555 51.2546 13.5614 51.2133V51.3564C13.5585 51.3191 13.5585 51.2817 13.5614 51.2444L13.5043 51.375C13.5196 51.3419 13.5387 51.3105 13.5614 51.2817L13.4726 51.3875L13.5677 51.3004L13.46 51.3813C13.4916 51.359 13.5256 51.3402 13.5614 51.3253L13.4346 51.375H13.555H13.4156H13.5297C13.6027 51.3779 13.6752 51.3606 13.7388 51.3253C13.8052 51.3074 13.8648 51.2706 13.9099 51.2195C14.0104 51.1203 14.0673 50.9863 14.0683 50.8464C14.0676 50.7045 14.0108 50.5685 13.9099 50.467L13.8022 50.3861C13.7204 50.3363 13.6259 50.3105 13.5297 50.3115V50.2617Z" fill="#1C407F"/>
<path d="M12.269 52.5503C12.1373 52.6992 12.0394 52.8739 11.9819 53.0629C11.9244 53.2518 11.9086 53.4507 11.9356 53.6461C11.9626 53.8415 12.0317 54.029 12.1384 54.1962C12.2451 54.3633 12.3868 54.5061 12.5542 54.6152L12.3071 53.9933C12.3894 53.7631 12.6936 53.6947 12.4718 53.7631L12.3197 53.8129L12.0092 53.9373C11.8353 54.0014 11.6694 54.0848 11.5149 54.1861C11.3103 54.3006 11.1469 54.4745 11.047 54.6839C10.9472 54.8932 10.9158 55.1278 10.9572 55.3554C11.0255 55.5502 11.1407 55.726 11.2929 55.8678C11.4451 56.0096 11.63 56.1134 11.8318 56.1702C12.2458 56.3583 12.7123 56.4043 13.1562 56.3008C13.2865 56.2617 13.3971 56.1762 13.4663 56.0611C13.5355 55.946 13.5583 55.8096 13.5301 55.6788C13.493 55.5493 13.4063 55.4389 13.2883 55.3706C13.1702 55.3022 13.0299 55.2812 12.8964 55.3118C12.8964 55.3118 12.7507 55.3429 12.814 55.3118C12.8774 55.2807 12.7633 55.3118 12.757 55.3118C12.7507 55.3118 12.6366 55.3118 12.7126 55.3118H12.6049C12.4548 55.276 12.3067 55.2324 12.1613 55.1812C12.0916 55.1812 12.2754 55.2372 12.1613 55.1812L12.0916 55.1439C12.0916 55.1439 11.9775 55.0817 12.0472 55.1439C12.0092 55.0382 12.0472 55.2185 12.0472 55.1439C12.0155 55.2621 12.0472 55.0693 12.0472 55.1439V55.2061V55.1688C12.0029 55.231 12.0092 55.2185 12.0472 55.1688L12.1106 55.1128C12.0346 55.1564 12.1486 55.0693 12.1106 55.1128C12.2241 55.0385 12.3451 54.9759 12.4718 54.9262H12.5162L12.6366 54.8827L12.8584 54.808C12.9787 54.7749 13.089 54.7133 13.1796 54.6288C13.2701 54.5442 13.3383 54.4392 13.378 54.3229C13.4136 54.207 13.4086 54.0828 13.3638 53.9701C13.319 53.8573 13.237 53.7625 13.1309 53.7009L13.0739 53.6823C13.0739 53.6823 13.0739 53.6263 13.0358 53.6201C12.9978 53.6139 12.9978 53.5641 13.0041 53.5579C13.0105 53.5517 13.0422 53.6761 13.0041 53.5579C12.9661 53.4397 13.0041 53.5143 13.0041 53.4895C13.0041 53.4459 13.0041 53.4459 13.0041 53.4895C13.0041 53.533 13.0041 53.5392 13.0041 53.4895V53.3837C13.0077 53.3611 13.0077 53.338 13.0041 53.3153C12.9534 53.39 13.0041 53.2593 13.0041 53.3153L13.0358 53.2531C12.9534 53.3464 13.0358 53.2034 13.0358 53.2531C13.0949 53.2058 13.1432 53.1469 13.1776 53.0802C13.212 53.0135 13.2318 52.9404 13.2357 52.8657C13.2395 52.791 13.2274 52.7163 13.2 52.6465C13.1726 52.5767 13.1306 52.5133 13.0767 52.4604C13.0228 52.4075 12.9583 52.3663 12.8871 52.3394C12.816 52.3125 12.7399 52.3006 12.6638 52.3044C12.5877 52.3082 12.5132 52.3276 12.4452 52.3614C12.3772 52.3952 12.3172 52.4426 12.269 52.5005V52.5503Z" fill="#1C407F"/>
<path d="M14.8225 49.7513C14.8739 49.6502 14.9355 49.5543 15.0063 49.4652L14.9176 49.5709C14.9671 49.514 15.02 49.46 15.076 49.4092L14.9683 49.4963C15.0067 49.4656 15.0494 49.4405 15.095 49.4216L14.9683 49.4714H15.0823H14.9366H15.0633H14.9239L15.0443 49.5087L14.9176 49.4589C14.9835 49.4857 15.0453 49.5213 15.1013 49.5647L14.9873 49.4776C15.0656 49.5391 15.1397 49.6056 15.2091 49.6766C15.311 49.7742 15.447 49.8298 15.5893 49.8321C15.66 49.8323 15.7301 49.8186 15.7954 49.7919C15.8607 49.7652 15.9199 49.726 15.9695 49.6766C16.0686 49.5768 16.1241 49.4429 16.1241 49.3035C16.1241 49.164 16.0686 49.0301 15.9695 48.9303C15.8368 48.7865 15.683 48.6628 15.5133 48.5633C15.2792 48.4197 14.9967 48.3727 14.7274 48.4327C14.5401 48.5003 14.3688 48.6047 14.2239 48.7394C14.079 48.8742 13.9635 49.0364 13.8846 49.2164C13.8125 49.3387 13.7921 49.4838 13.8276 49.6207C13.8699 49.76 13.9652 49.8781 14.0937 49.9503C14.2179 50.0195 14.3645 50.0387 14.5028 50.0039C14.6411 49.9691 14.7603 49.883 14.8352 49.7637L14.8225 49.7513Z" fill="#1C407F"/>
<path d="M47.3574 8.7445V15.5364C47.3574 15.6766 47.4142 15.8111 47.5152 15.9103C47.6162 16.0094 47.7532 16.0651 47.8961 16.0651C48.0389 16.0651 48.176 16.0094 48.277 15.9103C48.378 15.8111 48.4347 15.6766 48.4347 15.5364V8.7445C48.4347 8.60428 48.378 8.46981 48.277 8.37067C48.176 8.27152 48.0389 8.21582 47.8961 8.21582C47.7532 8.21582 47.6162 8.27152 47.5152 8.37067C47.4142 8.46981 47.3574 8.60428 47.3574 8.7445Z" fill="#1C407F"/>
<path d="M52.2012 13.9322L51.7988 14.9131L111.126 38.3558L111.528 37.375L52.2012 13.9322Z" fill="#1C407F"/>
<path d="M55.6594 15.7418L54.449 17.2967C54.412 17.3568 54.3878 17.4236 54.378 17.4931C54.3682 17.5626 54.3729 17.6333 54.3919 17.701C54.4323 17.8327 54.5202 17.9454 54.6391 18.0182C54.7014 18.0547 54.7705 18.0785 54.8424 18.0881C54.9143 18.0977 54.9874 18.093 55.0573 18.0742L55.1841 18.0182C55.2642 17.9728 55.3316 17.9087 55.3805 17.8316L56.5909 16.2767C56.6279 16.2166 56.6521 16.1498 56.6619 16.0803C56.6717 16.0108 56.667 15.9401 56.648 15.8724C56.6098 15.7396 56.5214 15.6261 56.4008 15.5552C56.3385 15.5187 56.2694 15.4949 56.1975 15.4853C56.1257 15.4757 56.0525 15.4804 55.9826 15.4992L55.8558 15.5552C55.7757 15.6006 55.7083 15.6647 55.6594 15.7418Z" fill="#1C407F"/>
<path d="M55.5958 16.1588C55.4649 16.3758 55.3188 16.5836 55.1585 16.7807L55.2409 16.675C55.1395 16.8056 55.0318 16.9362 54.9241 17.0606C54.8257 17.1613 54.7692 17.2944 54.7656 17.4338C54.7659 17.5382 54.7976 17.6402 54.8568 17.7269C54.916 17.8136 55.0001 17.8811 55.0983 17.921C55.1966 17.9609 55.3047 17.9714 55.409 17.9511C55.5133 17.9308 55.6092 17.8807 55.6845 17.807C56.0065 17.4615 56.297 17.089 56.5527 16.6937C56.5897 16.6336 56.6139 16.5668 56.6237 16.4973C56.6335 16.4278 56.6287 16.357 56.6097 16.2894C56.5694 16.1577 56.4815 16.0449 56.3626 15.9722C56.3003 15.9357 56.2312 15.9119 56.1593 15.9023C56.0874 15.8927 56.0143 15.8974 55.9443 15.9162C55.8109 15.9573 55.6965 16.0432 55.6211 16.1588H55.5958Z" fill="#1C407F"/>
<path d="M51.8437 17.0981L55.0123 18.342C55.1457 18.3727 55.2861 18.3516 55.4041 18.2833C55.5222 18.2149 55.6088 18.1045 55.646 17.9751C55.6815 17.8399 55.6625 17.6965 55.5928 17.5747C55.5231 17.453 55.4082 17.3625 55.2721 17.322L52.1415 16.078C52.0082 16.0489 51.8685 16.0706 51.7509 16.1388C51.6332 16.2069 51.5463 16.3164 51.5078 16.445C51.4826 16.5756 51.5066 16.7107 51.5754 16.8251C51.6442 16.9395 51.7531 17.0255 51.8817 17.067L51.8437 17.0981Z" fill="#1C407F"/>
<path d="M104.564 57.383L91.4521 56.4998L86.0781 56.3132L86.1161 55.2559L91.5091 55.4425L104.64 56.3257L104.564 57.383Z" fill="#1C407F"/>
<path d="M103.804 66.613V56.904L103.265 57.4327L111.263 58.0547C111.954 58.1044 111.954 57.0471 111.263 56.9911L103.265 56.3691C103.123 56.3708 102.987 56.427 102.886 56.5258C102.785 56.6246 102.728 56.7581 102.727 56.8978V66.6068C102.727 67.2848 103.804 67.9938 103.804 67.3096V66.613Z" fill="#1C407F"/>
<path d="M101.439 56.948V65.9355C101.454 66.0666 101.517 66.1879 101.617 66.276C101.717 66.3641 101.847 66.4128 101.981 66.4128C102.116 66.4128 102.245 66.3641 102.345 66.276C102.445 66.1879 102.509 66.0666 102.523 65.9355V56.948C102.509 56.8169 102.445 56.6956 102.345 56.6075C102.245 56.5194 102.116 56.4707 101.981 56.4707C101.847 56.4707 101.717 56.5194 101.617 56.6075C101.517 56.6956 101.454 56.8169 101.439 56.948Z" fill="#1C407F"/>
<path d="M90.3555 52.9799V55.7849C90.3555 55.9252 90.4122 56.0596 90.5132 56.1588C90.6143 56.2579 90.7513 56.3136 90.8941 56.3136C91.037 56.3136 91.174 56.2579 91.275 56.1588C91.376 56.0596 91.4328 55.9252 91.4328 55.7849V52.9799C91.4328 52.8396 91.376 52.7052 91.275 52.606C91.174 52.5069 91.037 52.4512 90.8941 52.4512C90.7513 52.4512 90.6143 52.5069 90.5132 52.606C90.4122 52.7052 90.3555 52.8396 90.3555 52.9799Z" fill="#1C407F"/>
<path d="M104.083 54.8451C104.083 54.9197 104.083 54.9881 104.083 55.0566V54.9135C104.038 55.2183 103.975 55.5355 103.918 55.834C103.85 56.1244 103.808 56.4198 103.791 56.7172C103.791 56.8574 103.848 56.9919 103.949 57.0911C104.05 57.1902 104.187 57.2459 104.33 57.2459C104.473 57.2459 104.61 57.1902 104.711 57.0911C104.812 56.9919 104.868 56.8574 104.868 56.7172C104.868 56.6488 104.868 56.5804 104.868 56.512V56.6488C104.913 56.344 104.976 56.0268 105.033 55.7283C105.101 55.438 105.143 55.1425 105.16 54.8451C105.158 54.7054 105.101 54.5718 105 54.473C104.9 54.3742 104.764 54.318 104.621 54.3164C104.479 54.3196 104.344 54.3763 104.244 54.4748C104.144 54.5732 104.086 54.7059 104.083 54.8451Z" fill="#1C407F"/>
<path d="M111.128 57.0593C111.271 57.0593 111.408 57.0036 111.509 56.9045C111.61 56.8053 111.667 56.6708 111.667 56.5306C111.667 56.3904 111.61 56.2559 111.509 56.1568C111.408 56.0577 111.271 56.002 111.128 56.002C110.986 56.002 110.849 56.0577 110.748 56.1568C110.647 56.2559 110.59 56.3904 110.59 56.5306C110.59 56.6708 110.647 56.8053 110.748 56.9045C110.849 57.0036 110.986 57.0593 111.128 57.0593Z" fill="#1C407F"/>
<path d="M90.9766 56.015V64.7226C90.9766 64.8628 91.0333 64.9973 91.1343 65.0964C91.2353 65.1956 91.3724 65.2513 91.5152 65.2513C91.6581 65.2513 91.7951 65.1956 91.8961 65.0964C91.9971 64.9973 92.0539 64.8628 92.0539 64.7226V56.015C92.0539 55.8748 91.9971 55.7403 91.8961 55.6412C91.7951 55.542 91.6581 55.4863 91.5152 55.4863C91.3724 55.4863 91.2353 55.542 91.1343 55.6412C91.0333 55.7403 90.9766 55.8748 90.9766 56.015Z" fill="#1C407F"/>
<path d="M63.4219 50.9954V43.5317L58.3965 42.6299V50.4854" fill="#1C407F"/>
<path d="M70.2741 51.9838V44.7254L65.9648 43.8857V51.0198" fill="#1C407F"/>
<path d="M58.4094 66.9861C58.196 65.0087 58.2109 63.0141 58.4538 61.04C58.5828 60.5012 58.8513 60.0042 59.2333 59.597C59.4445 59.3982 59.6955 59.2446 59.9705 59.1461C60.2454 59.0476 60.5382 59.0063 60.8303 59.0248C61.297 58.9988 61.7619 59.1 62.1737 59.3171C63.0609 59.8334 63.3334 61.0214 63.4412 62.0787C63.6087 63.6282 63.6363 65.1892 63.5236 66.7435" fill="#1C407F"/>
<path d="M75.6859 63.8704C75.5972 62.1849 75.4958 63.0805 75.6859 61.4198C75.761 60.9719 75.9387 60.5466 76.2056 60.1759C76.3294 60.0176 76.4902 59.891 76.6744 59.8065C76.8586 59.7221 77.0608 59.6824 77.2639 59.6907C77.5832 59.6693 77.9005 59.7548 78.1638 59.9333C78.7468 60.3749 78.9306 61.3763 79.0066 62.2657C79.1207 63.5656 79.1397 62.3155 79.07 63.6216L75.6859 63.8704Z" fill="#1C407F"/>
<path d="M65.9707 66.4325L66.0087 63.5527C65.9756 62.6908 66.076 61.8288 66.3066 60.9964C66.4009 60.6078 66.5984 60.2507 66.8789 59.9612C67.1593 59.6717 67.5129 59.4602 67.9036 59.3482C68.3165 59.3066 68.733 59.3803 69.1052 59.5608C69.4774 59.7412 69.7902 60.0211 70.0075 60.3682C70.3615 61.183 70.5509 62.0575 70.5652 62.9432C70.6508 64.0217 70.6508 65.1052 70.5652 66.1837" fill="#1C407F"/>
<path d="M74.7025 23.4541C74.6302 23.3357 74.5146 23.249 74.3793 23.2115C74.2386 23.1745 74.0887 23.1923 73.961 23.2613L73.6632 23.4976C73.6632 23.4536 73.6543 23.41 73.6369 23.3694C73.6195 23.3288 73.5939 23.292 73.5618 23.2613C73.6141 23.213 73.6513 23.1511 73.6693 23.0828C73.6872 23.0146 73.6851 22.9428 73.6632 22.8757C73.1126 22.3728 72.4301 22.0303 71.6923 21.8867C71.4072 21.98 71.3058 22.092 71.3818 22.3781C71.4959 22.801 71.8127 23.3919 71.9331 23.8211V51.9218C71.9331 52.5064 73.2006 52.8236 73.5618 52.4815C73.6378 52.4983 73.7167 52.4981 73.7927 52.4809C73.8686 52.4637 73.9396 52.43 74.0005 52.3822C74.0614 52.3344 74.1105 52.2738 74.1442 52.2049C74.178 52.1359 74.1955 52.0604 74.1955 51.9839V24.4057L74.2779 24.3373L74.4997 24.1756C74.5613 24.146 74.6138 24.101 74.6518 24.045C74.7 23.9938 74.7348 23.9319 74.7532 23.8646C74.772 23.7953 74.772 23.7224 74.7532 23.6531C74.7556 23.5834 74.738 23.5145 74.7025 23.4541Z" fill="#1C407F"/>
<path d="M54.6523 17.6078V49.9503C54.6523 50.0905 54.7091 50.225 54.8101 50.3242C54.9111 50.4233 55.0481 50.479 55.191 50.479C55.3339 50.479 55.4709 50.4233 55.5719 50.3242C55.6729 50.225 55.7297 50.0905 55.7297 49.9503V17.6078C55.7297 17.4676 55.6729 17.3331 55.5719 17.2339C55.4709 17.1348 55.3339 17.0791 55.191 17.0791C55.0481 17.0791 54.9111 17.1348 54.8101 17.2339C54.7091 17.3331 54.6523 17.4676 54.6523 17.6078Z" fill="#1C407F"/>
<path d="M104.692 55.3739L90.8257 53.5391L85.5532 53.9931L52.3906 50.5785L52.5047 49.5273L85.5595 52.942L90.8511 52.4879L104.837 54.3227L104.692 55.3739Z" fill="#1C407F"/>
<path d="M52.6001 53.9926L81.973 56.0265L86.0985 56.3126C86.7893 56.3624 86.7893 55.2988 86.0985 55.249L56.7256 53.2214L52.6001 52.9353C51.9093 52.8855 51.9093 53.9491 52.6001 53.9926Z" fill="#1C407F"/>
<path d="M101.098 34.3198V54.3908C101.098 54.536 101.156 54.6752 101.261 54.7779C101.366 54.8805 101.507 54.9382 101.655 54.9382C101.803 54.9382 101.945 54.8805 102.05 54.7779C102.154 54.6752 102.213 54.536 102.213 54.3908V34.3198C102.213 34.1746 102.154 34.0354 102.05 33.9328C101.945 33.8301 101.803 33.7725 101.655 33.7725C101.507 33.7725 101.366 33.8301 101.261 33.9328C101.156 34.0354 101.098 34.1746 101.098 34.3198Z" fill="#1C407F"/>
<path d="M102.074 34.9168V54.3908C102.089 54.5251 102.154 54.6493 102.256 54.7396C102.358 54.8299 102.491 54.8798 102.629 54.8798C102.766 54.8798 102.899 54.8299 103.001 54.7396C103.104 54.6493 103.169 54.5251 103.183 54.3908V34.9168C103.169 34.7825 103.104 34.6583 103.001 34.568C102.899 34.4777 102.766 34.4277 102.629 34.4277C102.491 34.4277 102.358 34.4777 102.256 34.568C102.154 34.6583 102.089 34.7825 102.074 34.9168Z" fill="#1C407F"/>
<path d="M104.52 55.9213C106.592 56.0395 108.665 56.2448 110.718 56.5433C110.856 56.5733 111.001 56.5517 111.124 56.4827C111.247 56.4138 111.339 56.3023 111.383 56.1701C111.42 56.0341 111.401 55.8892 111.33 55.7669C111.259 55.6446 111.141 55.5549 111.003 55.517C108.855 55.2061 106.694 54.9821 104.52 54.8578C103.829 54.8142 103.829 55.8716 104.52 55.9151V55.9213Z" fill="#1C407F"/>
<path d="M85.7988 53.2968V47.5C86.705 47.6493 87.4021 47.7177 88.3337 47.867L88.3781 47.9665V52.7619L85.7988 53.2968Z" fill="#1C407F"/>
<path d="M83.918 53.103V47.0761L80.6797 46.5723V52.8417L83.918 53.103Z" fill="#1C407F"/>
<path d="M89.7988 52.9478V48.084L92.3971 48.5069V52.9354" fill="#1C407F"/>
<path d="M92.9102 64.9959V57.582L94.9824 57.7686V64.7098L92.9102 64.9959Z" fill="#1C407F"/>
<path d="M95.7617 64.9959V57.7686L97.834 57.9489V64.9959H95.7617Z" fill="#1C407F"/>
<path d="M98.7207 65.6366V58.0361L100.793 58.1419V65.6429L98.7207 65.6366Z" fill="#1C407F"/>
<path d="M94.1387 53.4768V48.8369L96.4137 49.2039L96.5088 49.2847V53.6385" fill="#1C407F"/>
<path d="M98.1445 53.9556V49.4961L99.7605 49.8382H99.8429V54.0489" fill="#1C407F"/>
<path d="M80.6843 38.7549L83.4727 39.4452L83.7072 39.5323V33.3126L83.2256 33.1384C82.313 32.8461 81.4575 32.5165 80.5449 32.249V38.7549H80.6843Z" fill="#1C407F"/>
<path d="M92.2876 35.8564V41.5164L89.9238 40.8944V35.0479L89.9999 35.0976L92.2876 35.8564Z" fill="#1C407F"/>
<path d="M106.312 48.2336V46.9462L105.127 46.6787V47.9911L106.312 48.2336Z" fill="#1C407F"/>
<path d="M109.33 48.8746V47.5871L108.145 47.3135V48.6258L109.33 48.8746Z" fill="#1C407F"/>
<path d="M109.152 55.6604V51.3564L108.201 51.2568V55.4987" fill="#1C407F"/>
<path d="M105.127 55.2496V50.6719L106.312 50.8585V55.3491" fill="#1C407F"/>
<path d="M106.312 40.2039V44.8003L105.127 44.4831V39.8867L106.312 40.2039Z" fill="#1C407F"/>
<path d="M109.318 41.118V45.5962L108.24 45.279V40.8008L109.318 41.118Z" fill="#1C407F"/>
<path d="M104.64 68.3045L103.791 67.2969C104.33 67.2969 104.938 67.185 110.711 66.818V34.6123H111.801V67.7759L111.294 67.8443C108.886 67.9873 105.027 68.2859 104.64 68.3045Z" fill="#1C407F"/>
<path d="M104.641 59.2798C104.644 59.2217 104.659 59.1649 104.685 59.1125C104.71 59.0602 104.746 59.0133 104.791 58.9746C104.835 58.9359 104.886 58.9061 104.942 58.8869C104.998 58.8678 105.057 58.8597 105.116 58.863L109.489 59.0496C109.607 59.0561 109.718 59.108 109.798 59.1942C109.877 59.2803 109.919 59.3938 109.914 59.5099C109.907 59.6276 109.853 59.738 109.764 59.8172C109.676 59.8964 109.558 59.9379 109.438 59.9328L105.066 59.74C104.947 59.7336 104.837 59.6817 104.757 59.5955C104.678 59.5093 104.636 59.3959 104.641 59.2798Z" fill="#1C407F"/>
<path d="M52.5107 0.982501L73.4235 11.9479L105.743 28.8966L110.585 31.4343C110.936 31.6898 111.319 31.8989 111.726 32.0562C111.789 32.0562 111.852 32.1495 111.916 32.1557C111.548 32.1557 111.719 31.4654 111.649 32.2615C111.649 32.6036 111.649 32.9643 111.649 33.3064L112.467 32.8461L97.8914 25.5069L70.1725 11.5933L58.9303 5.93962C57.0862 5.01288 55.2167 3.83113 53.2775 3.09721C53.0982 3.02513 52.9044 2.99437 52.711 3.00731C52.5177 3.02025 52.3299 3.07654 52.1622 3.17184L49.0379 4.50286L36.7945 9.71499C29.1645 12.9617 21.4204 16.028 13.8792 19.4737L13.4292 19.6603C12.7955 19.934 13.3468 20.8421 13.9742 20.5746L48.3155 5.95828L53.1001 3.92443H52.5551L72.6567 14.0253L104.552 30.0473L111.884 33.7293C111.966 33.7744 112.058 33.7979 112.152 33.7975C112.246 33.7972 112.339 33.773 112.42 33.7273C112.502 33.6816 112.57 33.616 112.618 33.5368C112.666 33.4576 112.693 33.3675 112.695 33.2753V31.6831C112.695 31.5903 112.671 31.499 112.624 31.4183C112.577 31.3377 112.51 31.2703 112.429 31.2228L92.321 20.6493L60.4132 3.92443L53.0557 0.068202C52.422 -0.255224 51.896 0.659076 52.5107 0.982501Z" fill="#1C407F"/>
<path d="M52.1172 0.540756V3.39561C52.1172 3.53582 52.1739 3.67029 52.275 3.76944C52.376 3.86859 52.513 3.92428 52.6558 3.92428C52.7987 3.92428 52.9357 3.86859 53.0367 3.76944C53.1378 3.67029 53.1945 3.53582 53.1945 3.39561V0.540756C53.1945 0.399964 53.138 0.264845 53.0371 0.164709C52.9363 0.0645735 52.7993 0.00749649 52.6558 0.00585938C52.5134 0.0105929 52.3783 0.0686555 52.2781 0.168127C52.1779 0.267598 52.1203 0.400932 52.1172 0.540756Z" fill="#1C407F"/>
<path d="M80.3926 15.431V17.4275C80.407 17.5587 80.4704 17.6799 80.5704 17.768C80.6704 17.8561 80.8 17.9048 80.9344 17.9048C81.0688 17.9048 81.1984 17.8561 81.2984 17.768C81.3985 17.6799 81.4618 17.5587 81.4762 17.4275V15.431C81.473 15.2907 81.4143 15.1572 81.3126 15.0586C81.2109 14.9599 81.0742 14.9039 80.9312 14.9023C80.7889 14.904 80.6528 14.9602 80.5522 15.059C80.4515 15.1578 80.3942 15.2913 80.3926 15.431Z" fill="#1C407F"/>
<path d="M68.6895 9.28004V11.6C68.6894 11.7408 68.746 11.8759 68.8468 11.976C68.9477 12.0762 69.0847 12.1333 69.2281 12.1349C69.3716 12.1317 69.5084 12.0743 69.6099 11.9747C69.7114 11.8751 69.7699 11.7409 69.7731 11.6V9.28004C69.7586 9.14891 69.6953 9.02766 69.5953 8.93956C69.4953 8.85146 69.3657 8.80273 69.2313 8.80273C69.0969 8.80273 68.9673 8.85146 68.8672 8.93956C68.7672 9.02766 68.7039 9.14891 68.6895 9.28004Z" fill="#1C407F"/>
<path d="M0.538662 64.6228H12.2435C12.3863 64.6228 12.5233 64.5671 12.6244 64.4679C12.7254 64.3688 12.7821 64.2343 12.7821 64.0941C12.7821 63.9539 12.7254 63.8194 12.6244 63.7203C12.5233 63.6211 12.3863 63.5654 12.2435 63.5654H0.538662C0.3958 63.5654 0.258789 63.6211 0.15777 63.7203C0.0567513 63.8194 0 63.9539 0 64.0941C0 64.2343 0.0567513 64.3688 0.15777 64.4679C0.258789 64.5671 0.3958 64.6228 0.538662 64.6228Z" fill="#1C407F"/>
<path d="M111.377 64.6228H123.462C123.604 64.6228 123.741 64.5671 123.842 64.4679C123.944 64.3688 124 64.2343 124 64.0941C124 63.9539 123.944 63.8194 123.842 63.7203C123.741 63.6211 123.604 63.5654 123.462 63.5654H111.377C111.234 63.5654 111.097 63.6211 110.996 63.7203C110.895 63.8194 110.838 63.9539 110.838 64.0941C110.838 64.2343 110.895 64.3688 110.996 64.4679C111.097 64.5671 111.234 64.6228 111.377 64.6228Z" fill="#1C407F"/>
<path d="M63.7393 26.8128L58.1562 25.0713V33.3062L63.0422 34.6434L63.7393 34.7927V26.8128Z" fill="#1C407F"/>
<path d="M70.5781 36.541V28.9964L66.0977 27.541V35.241L70.5781 36.541Z" fill="#1C407F"/>
<path d="M58.1562 36.0371L63.7393 37.3744V40.1732L58.1562 39.0226V36.0371Z" fill="#1C407F"/>
<path d="M70.4946 38.9105L66.0586 37.9277V40.6209L70.4946 41.5041V38.9105Z" fill="#1C407F"/>
<path d="M76.0209 37.6602L75.9766 30.6133L79.0628 31.6706V38.4066L76.0209 37.6602Z" fill="#1C407F"/>
<path d="M80.3926 23.97L80.4053 22.0107L99.8414 30.6126V31.8441L80.3926 23.97Z" fill="#1C407F"/>
<path d="M79.2214 43.2082L75.793 42.4556V40.1543L79.2214 40.9629V43.2082Z" fill="#1C407F"/>
<path d="M75.8946 45.5221L79.0632 46.1316V52.7929L75.6602 52.202V45.4785L75.8946 45.5221Z" fill="#1C407F"/>
<path d="M83.918 44.091L80.6797 43.3446V41.1553L83.918 41.9265V44.091Z" fill="#1C407F"/>
<path d="M85.5634 42.2998L88.3517 42.9031V44.9494L85.5 44.3461L85.5634 42.2998Z" fill="#1C407F"/>
<path d="M89.8164 43.208L92.5034 43.8362L92.5414 45.7581L89.8164 45.1734V43.208Z" fill="#1C407F"/>
<path d="M93.9434 44.1104L96.5226 44.6763L96.5606 46.4116L93.9434 45.883V44.1104Z" fill="#1C407F"/>
<path d="M85.6289 33.7793C86.5225 34.0592 87.1498 34.2769 88.0434 34.5568V40.5401L85.6606 39.9182L85.6289 39.6507V33.7793Z" fill="#1C407F"/>
<path d="M96.572 42.4866C96.5403 40.6953 96.534 39.0533 96.572 37.262L94.0371 36.3975V41.8646L96.572 42.4866Z" fill="#1C407F"/>
<path d="M99.7595 43.3139L98.378 42.9469L98.1309 42.8474V42.7665C98.1309 41.0623 98.1309 39.3602 98.1309 37.6602L99.7468 38.1826V43.3077L99.7595 43.3139Z" fill="#1C407F"/>
<path d="M98.1445 45.1367L99.7605 45.4788V47.0773L98.1191 46.7476L98.1445 45.1367Z" fill="#1C407F"/>
<path d="M102.879 31.7082V33.089H102.689L101.422 32.467V30.9121L101.466 30.9743C101.897 31.1485 102.322 31.4221 102.734 31.5963L102.879 31.7082Z" fill="#1C407F"/>
<path d="M40.8173 38.9104L36.0391 39.7563V36.7459L40.8173 35.7881V38.9104Z" fill="#1C407F"/>
<path d="M24.1055 38.9599L27.141 38.3379V41.1492L24.1055 41.6281V38.9599Z" fill="#1C407F"/>
<path d="M29.6523 35.2535L33.2899 34.4387V27.709L29.6523 28.6482V35.2535Z" fill="#1C407F"/>
<path d="M105.007 65.8851L104.957 62.7006C104.935 62.3789 105.013 62.0583 105.178 61.7801C105.419 61.4442 105.736 61.3447 106.047 61.5997C106.636 62.0848 106.458 63.2106 106.458 63.9818V65.8851H105.007Z" fill="#1C407F"/>
<path d="M108.182 65.8287L108.144 62.8495C108.12 62.5541 108.177 62.2579 108.309 61.9912C108.499 61.6802 108.746 61.5869 108.987 61.8232C109.449 62.2773 109.31 63.3284 109.31 64.0499V65.8287H108.182Z" fill="#1C407F"/>
<path d="M52.3188 3.54163L51.4121 6.59277L52.4463 6.88883L53.3531 3.83769L52.3188 3.54163Z" fill="#1C407F"/>
<path d="M52.4512 0.0661637L13.2812 17.3516L13.723 18.3159L52.893 1.03052L52.4512 0.0661637Z" fill="#1C407F"/>
<path d="M14.2847 17.4893H13.125V20.114H14.2847V17.4893Z" fill="#1C407F"/>
<path d="M68.0745 10.8778H66.9908V5.69675L67.5548 5.1121L64.9566 3.96767C63.3596 4.58964 61.6549 5.25515 61.4394 5.37955L60.8438 4.49635C61.1353 4.29732 63.4357 3.41412 64.7728 2.9041L64.9819 2.82324L68.873 4.54611V5.28625L68.0745 6.12592V10.8778Z" fill="#1C407F"/>
<path d="M97.9972 25.6938V23.7035C97.9972 23.6341 97.9833 23.5653 97.9562 23.5012C97.9292 23.437 97.8895 23.3787 97.8395 23.3297C97.7895 23.2806 97.7301 23.2416 97.6647 23.215C97.5994 23.1885 97.5293 23.1748 97.4586 23.1748C97.3878 23.1748 97.3178 23.1885 97.2524 23.215C97.1871 23.2416 97.1277 23.2806 97.0777 23.3297C97.0277 23.3787 96.988 23.437 96.9609 23.5012C96.9339 23.5653 96.9199 23.6341 96.9199 23.7035V25.6938C96.9199 25.834 96.9767 25.9685 97.0777 26.0676C97.1787 26.1668 97.3157 26.2225 97.4586 26.2225C97.6014 26.2225 97.7385 26.1668 97.8395 26.0676C97.9405 25.9685 97.9972 25.834 97.9972 25.6938Z" fill="#1C407F"/>
<path d="M99.3592 22.6834V23.3862L99.9042 22.8575H99.7965C99.6541 22.8591 99.5181 22.9153 99.4174 23.0141C99.3167 23.1129 99.2595 23.2465 99.2578 23.3862V26.9376C99.2578 27.0779 99.3146 27.2123 99.4156 27.3115C99.5166 27.4106 99.6536 27.4663 99.7965 27.4663C99.9393 27.4663 100.076 27.4106 100.177 27.3115C100.278 27.2123 100.335 27.0779 100.335 26.9376V23.3862L99.7965 23.9149H99.9042C100.047 23.9132 100.183 23.857 100.283 23.7582C100.384 23.6594 100.441 23.5259 100.443 23.3862V22.6834C100.428 22.5522 100.365 22.431 100.265 22.3429C100.165 22.2548 100.035 22.2061 99.901 22.2061C99.7667 22.2061 99.637 22.2548 99.537 22.3429C99.437 22.431 99.3737 22.5522 99.3592 22.6834Z" fill="#1C407F"/>
<path d="M101.941 28.0885H101.795C101.672 28.0885 101.554 28.0409 101.466 27.9559C101.378 27.8709 101.328 27.7554 101.326 27.6345V24.1328L101.656 23.7845L100.179 23.1065C100.121 23.0819 100.059 23.0691 99.9954 23.0691C99.9322 23.0691 99.8696 23.0819 99.8116 23.1065C99.0638 23.4051 98.316 23.7285 97.9105 23.8964C97.811 23.9382 97.6998 23.9449 97.5959 23.9154C97.4919 23.8859 97.4016 23.8221 97.3401 23.7347L97.2577 23.6103C97.2192 23.5556 97.1934 23.4932 97.1822 23.4276C97.1709 23.3621 97.1745 23.2949 97.1927 23.2308C97.2108 23.1667 97.2431 23.1073 97.2871 23.0568C97.3312 23.0063 97.3861 22.966 97.4478 22.9386C98.0309 22.6836 99.0005 22.3166 99.837 21.9621L100.052 21.875L102.987 23.206V23.716C102.988 23.8279 102.947 23.9362 102.872 24.0208L102.524 24.394C102.449 24.4786 102.409 24.5869 102.41 24.6988V27.6158C102.412 27.6773 102.401 27.7385 102.378 27.7958C102.355 27.853 102.321 27.9053 102.277 27.9493C102.233 27.9934 102.181 28.0284 102.123 28.0523C102.066 28.0762 102.004 28.0885 101.941 28.0885Z" fill="#1C407F"/>
<path d="M17.1304 29.8415L19.0316 29.2195L18.3471 28.7095C18.3091 36.9154 18.3091 45.1192 18.3471 53.3209C18.3616 53.452 18.4249 53.5733 18.5249 53.6614C18.6249 53.7495 18.7546 53.7982 18.889 53.7982C19.0234 53.7982 19.153 53.7495 19.253 53.6614C19.353 53.5733 19.4163 53.452 19.4308 53.3209C19.3674 45.1192 19.3674 36.9154 19.4308 28.7095C19.4297 28.6282 19.4097 28.5482 19.3724 28.4756C19.3351 28.403 19.2814 28.3397 19.2154 28.2905C19.1494 28.2414 19.0729 28.2076 18.9916 28.1918C18.9103 28.176 18.8265 28.1786 18.7464 28.1995L16.8452 28.8214C16.2115 29.0267 16.4713 30.0654 17.1367 29.8415H17.1304Z" fill="#1C407F"/>
<path d="M18.9873 26.862L18.3633 28.5586L19.3766 28.9176L20.0006 27.2211L18.9873 26.862Z" fill="#1C407F"/>
<path d="M13.9559 19.646L13.4473 20.5781L16.7936 22.3369L17.3022 21.4048L13.9559 19.646Z" fill="#1C407F"/>
<path d="M24.1445 51.2878L27.142 51.0576V44.7197L24.2649 45.1427L24.1445 45.2235V51.2878Z" fill="#1C407F"/>
<path d="M89.387 59.709L52.2891 58.2225L52.3017 57.4326L89.3997 58.9191L89.387 59.709Z" fill="#1C407F"/>
<path d="M84.2852 62.5883C84.2876 62.0308 84.3861 61.4777 84.5767 60.9525C84.8238 60.3305 85.2104 60.1501 85.5653 60.1377C85.8826 60.1743 86.1766 60.3196 86.3954 60.5482C87.0735 61.108 87.1115 62.9677 87.1876 64.4666C87.289 66.6497 87.3143 63.9939 87.2446 66.1895L84.2852 62.5883Z" fill="#1C407F"/>
</svg>
