<svg width="69" height="68" viewBox="0 0 69 68" fill="none" xmlns="http://www.w3.org/2000/svg">
<g clip-path="url(#clip0_131_5458)">
<path d="M34.0195 0C15.2581 0 0.0195312 15.2386 0.0195312 34C0.0195312 52.7614 15.2581 68 34.0195 68C52.781 68 68.0195 52.7614 68.0195 34C68.0195 15.2386 52.781 0 34.0195 0ZM34.0195 65.0506C16.8966 65.0506 2.96893 51.1229 2.96893 34C2.96893 16.8771 16.8966 2.9494 34.0195 2.9494C51.1424 2.9494 65.0701 16.8771 65.0701 34C65.0701 51.1229 51.1424 65.0506 34.0195 65.0506Z" fill="#0095E4"/>
<g clip-path="url(#clip1_131_5458)">
<mask id="mask0_131_5458" style="mask-type:luminance" maskUnits="userSpaceOnUse" x="14" y="14" width="39" height="40">
<path d="M14 14.0004H52.9999V53.0002H14V14.0004Z" fill="white"/>
</mask>
<g mask="url(#mask0_131_5458)">
<path d="M48.4296 19.1799H18.5703C16.8876 19.1799 15.5234 20.544 15.5234 22.2267V25.2314L31.6815 37.2499C32.7609 38.0528 34.239 38.0528 35.3184 37.2499L51.4765 25.2314V22.2267C51.4765 20.544 50.1123 19.1799 48.4296 19.1799Z" stroke="#0095E4" stroke-width="3.65625" stroke-miterlimit="10"/>
<path d="M49.953 32.0606V44.7737C49.953 45.6136 49.2696 46.2971 48.4296 46.2971H18.5703C17.7303 46.2971 17.0469 45.6136 17.0469 44.7737V32.0606L14 29.7943V44.7737C14 47.2938 16.0502 49.344 18.5703 49.344H48.4296C50.9496 49.344 52.9999 47.2938 52.9999 44.7737V29.7943L49.953 32.0606Z" fill="#0095E4"/>
</g>
</g>
</g>
<defs>
<clipPath id="clip0_131_5458">
<rect width="68" height="68" fill="white" transform="translate(0.0195312)"/>
</clipPath>
<clipPath id="clip1_131_5458">
<rect width="39" height="39" fill="white" transform="translate(14 14)"/>
</clipPath>
</defs>
</svg>
