<svg width="40" height="40" viewBox="0 0 40 40" fill="none" xmlns="http://www.w3.org/2000/svg">
<g clip-path="url(#clip0_404_1745)">
<path d="M20 0C8.96385 0 0 8.96385 0 20C0 31.0361 8.96385 40 20 40C31.0361 40 40 31.0361 40 20C40 8.96385 31.0361 0 20 0ZM20 38.2651C9.92771 38.2651 1.73494 30.0723 1.73494 20C1.73494 9.92771 9.92771 1.73494 20 1.73494C30.0723 1.73494 38.2651 9.92771 38.2651 20C38.2651 30.0723 30.0723 38.2651 20 38.2651Z" fill="#0095E4"/>
<path d="M30.4096 15.6627H24.3374V9.59037C24.3374 9.10844 23.9518 8.7229 23.4699 8.7229H16.5301C16.0482 8.7229 15.6627 9.10844 15.6627 9.59037V15.6627H9.59037C9.10844 15.6627 8.7229 16.0482 8.7229 16.5301V23.4699C8.7229 23.9518 9.10844 24.3374 9.59037 24.3374H15.6627V30.4096C15.6627 30.8916 16.0482 31.2771 16.5301 31.2771H23.4699C23.9518 31.2771 24.3374 30.8916 24.3374 30.4096V24.3374H30.4096C30.8916 24.3374 31.2771 23.9518 31.2771 23.4699V16.5301C31.2289 16.0482 30.8434 15.6627 30.4096 15.6627ZM29.5904 22.6024H23.4699C22.988 22.6024 22.6024 22.988 22.6024 23.4699V29.5422H17.3976V23.4699C17.3976 22.988 17.0121 22.6024 16.5301 22.6024H10.4578V17.3976H16.5301C17.0121 17.3976 17.3976 17.0121 17.3976 16.5301V10.4578H22.6506V16.5301C22.6506 17.0121 23.0362 17.3976 23.5181 17.3976H29.5904V22.6024Z" fill="#0095E4"/>
</g>
<defs>
<clipPath id="clip0_404_1745">
<rect width="40" height="40" fill="white"/>
</clipPath>
</defs>
</svg>
