<svg width="19" height="19" viewBox="0 0 19 19" fill="none" xmlns="http://www.w3.org/2000/svg">
<g clip-path="url(#clip0_404_1731)">
<path d="M17.3958 14.1603C17.7934 14.6282 17.9923 15.1603 17.9923 15.7568C17.9923 16.3533 17.7934 16.8738 17.3958 17.3182C16.9513 17.7627 16.4309 17.9849 15.8344 17.9849C15.2379 17.9849 14.7057 17.7627 14.2379 17.3182L11.2905 14.3709C10.0975 14.9557 8.90455 15.2481 7.71157 15.2481C5.60631 15.2481 3.81098 14.5054 2.3256 13.02C0.840224 11.5346 0.0975342 9.7393 0.0975342 7.63403C0.0975342 6.25391 0.436715 4.97906 1.11508 3.80947C1.79344 2.63988 2.71742 1.7159 3.88701 1.03754C5.0566 0.359179 6.33145 0.0199966 7.71157 0.0199966C9.81683 0.0199966 11.6122 0.762688 13.0975 2.24807C14.5829 3.73345 15.3256 5.52877 15.3256 7.63403C15.3256 8.82701 15.0332 10.02 14.4484 11.213L17.3958 14.1603ZM3.58876 11.7568C3.58876 11.7568 3.87239 12.0405 4.43964 12.6077C5.00689 13.175 6.09753 13.4586 7.71157 13.4586C9.3256 13.4586 10.6999 12.8913 11.8344 11.7568C12.9689 10.6223 13.5361 9.24807 13.5361 7.63403C13.5361 6.02 12.9689 4.64573 11.8344 3.51122C10.6999 2.37672 9.3256 1.80947 7.71157 1.80947C6.09753 1.80947 4.72327 2.37672 3.58876 3.51122C2.45426 4.64573 1.88701 6.02 1.88701 7.63403C1.88701 9.24807 2.45426 10.6223 3.58876 11.7568Z" fill="#31609F"/>
</g>
<defs>
<clipPath id="clip0_404_1731">
<rect width="18" height="18" fill="white" transform="matrix(1 0 0 -1 0.0799561 18.02)"/>
</clipPath>
</defs>
</svg>
