<svg width="56" height="65" viewBox="0 0 56 65" fill="none" xmlns="http://www.w3.org/2000/svg">
<path d="M30.768 30.9312C30.9627 27.9319 31.284 21.5245 30.988 15.4859C31.3507 15.5332 31.706 15.6045 32.0494 15.7039C32.8454 15.8945 33.518 16.1959 34.074 16.6012C34.264 16.7505 34.4474 16.8892 34.614 17.0072L34.6174 17.0112C34.704 17.0965 34.802 17.1605 34.9047 17.2145C38.1887 19.6105 40.0767 20.1425 41.1 20.1425C41.3594 20.1425 41.5634 20.1092 41.7207 20.0612C42.3687 19.8725 42.79 19.1825 42.6007 18.5359C42.4114 17.8865 41.7834 17.5212 41.1354 17.6932C41.1254 17.6992 40.1254 17.7479 37.548 16.0712C39.0014 15.2012 40.586 14.9279 40.606 14.9245C40.9182 14.8647 41.1949 14.6857 41.3773 14.4253C41.5597 14.165 41.6335 13.8438 41.5831 13.53C41.5328 13.2161 41.3621 12.9342 41.1074 12.744C40.8527 12.5538 40.5339 12.4703 40.2187 12.5112C40.0954 12.5319 37.5107 12.9605 35.4174 14.5672C34.589 13.9896 33.6589 13.5739 32.676 13.3419C32.0934 13.1705 31.4727 13.0705 30.8274 13.0179C30.5054 9.09454 29.8607 5.56788 28.668 3.57121C28.5014 3.29341 28.2314 3.09296 27.9173 3.01375C27.6032 2.93453 27.2705 2.983 26.992 3.14854C26.7138 3.31532 26.5131 3.58567 26.434 3.90026C26.3549 4.21486 26.4038 4.54799 26.57 4.82654C29.148 9.14254 28.842 23.8399 28.2547 31.8465C28.2391 32.0543 28.2682 32.263 28.3399 32.4586C28.4117 32.6542 28.5245 32.8321 28.6707 32.9805L29.2554 33.4485L29.8174 33.4079C31.2894 33.2932 38.95 33.0692 45.1647 39.2852C45.2778 39.3991 45.4124 39.4895 45.5606 39.5512C45.7088 39.6129 45.8677 39.6446 46.0282 39.6447C46.1888 39.6448 46.3477 39.6131 46.4959 39.5515C46.6442 39.4899 46.7788 39.3997 46.892 39.2859C47.1212 39.0566 47.2499 38.7457 47.2499 38.4215C47.2499 38.0974 47.1212 37.7865 46.892 37.5572C40.9274 31.5899 33.7154 30.8239 30.768 30.9312ZM29.76 39.5605C29.5668 39.5485 29.3732 39.5754 29.1906 39.6398C29.008 39.7042 28.8403 39.8046 28.6974 39.9352L28.25 40.4412L28.2307 40.9499C28.1494 43.0885 27.978 54.1079 32.64 61.0992C32.7287 61.2331 32.843 61.3482 32.9763 61.4378C33.1096 61.5274 33.2593 61.5897 33.4168 61.6213C33.5743 61.6528 33.7365 61.6529 33.894 61.6215C34.0515 61.5902 34.2013 61.528 34.3347 61.4385C34.4682 61.3495 34.5829 61.235 34.6722 61.1017C34.7614 60.9683 34.8236 60.8187 34.855 60.6614C34.8865 60.504 34.8866 60.342 34.8554 60.1845C34.8243 60.0271 34.7624 59.8774 34.6734 59.7439C30.9494 54.1579 30.6374 45.2705 30.6527 42.1005C32.7067 42.3725 36.9774 43.3225 40.2754 46.6192C40.5068 46.8372 40.814 46.9565 41.1319 46.9518C41.4498 46.9471 41.7533 46.8187 41.9782 46.594C42.203 46.3692 42.3315 46.0657 42.3363 45.7478C42.3411 45.43 42.2219 45.1227 42.004 44.8912C37.32 40.2072 30.986 39.6299 29.76 39.5605ZM4.32337 24.9779C4.4971 24.9775 4.66875 24.9401 4.82695 24.8683C4.98515 24.7965 5.12627 24.6919 5.24095 24.5614C5.35563 24.4309 5.44124 24.2775 5.49212 24.1114C5.54299 23.9453 5.55796 23.7702 5.53603 23.5979C5.6527 22.8365 7.24803 18.7232 13.2314 13.6385C17.116 10.3345 18.0834 9.18654 18.598 8.57788L19.05 7.87121L18.8947 7.26521C18.524 5.80921 18.1154 4.63254 17.6447 3.66521C17.5029 3.37374 17.2511 3.15053 16.9447 3.0447C16.6384 2.93887 16.3025 2.95907 16.011 3.10088C15.7196 3.24268 15.4964 3.49446 15.3905 3.80083C15.2847 4.1072 15.3049 4.44307 15.4467 4.73454C15.7934 5.44588 16.106 6.31721 16.3987 7.38388C15.8614 7.98788 14.6954 9.18388 11.648 11.7765C4.79203 17.6019 2.71203 22.7839 3.16403 24.1425C3.24553 24.3856 3.40125 24.597 3.60924 24.7468C3.81723 24.8967 4.06701 24.9775 4.32337 24.9779ZM19.8907 46.3139C19.888 45.7599 19.944 44.2752 20.0207 42.2272C20.2427 36.2879 20.6134 26.3505 20.356 19.7072C20.3453 19.4276 20.2548 19.157 20.095 18.9273C19.9353 18.6976 19.7131 18.5185 19.4547 18.4112C19.1963 18.3047 18.9128 18.2746 18.6378 18.3245C18.3628 18.3743 18.1079 18.5021 17.9034 18.6925C16.6114 19.8859 12.6787 23.5219 10.548 28.1312C10.4245 28.4235 10.4194 28.7524 10.5338 29.0485C10.6482 29.3445 10.8732 29.5845 11.1613 29.7177C11.4493 29.851 11.7778 29.867 12.0775 29.7626C12.3772 29.6581 12.6246 29.4413 12.7674 29.1579C14.1294 26.2125 16.3574 23.6579 17.9747 22.0179C18.088 28.4919 17.7627 37.2092 17.5787 42.1365C17.5234 43.6165 17.4794 44.8099 17.4594 45.5832C16.2633 45.9817 15.0991 46.47 13.9767 47.0439C10.818 45.3445 7.36737 42.6765 7.58403 39.1832C7.60411 38.8597 7.49487 38.5414 7.28035 38.2984C7.06582 38.0553 6.76357 37.9074 6.44003 37.8872C5.7727 37.8632 5.1867 38.3579 5.14403 39.0305C5.00403 41.2785 5.8607 43.4145 7.6547 45.3679C5.87937 45.4692 3.76937 45.3605 2.7267 44.5425C2.19537 44.1319 1.42737 44.2205 1.0107 44.7505C0.594032 45.2805 0.686699 46.0492 1.21803 46.4665C2.6107 47.5572 4.7447 47.8512 6.6367 47.8512C8.1227 47.8512 9.4567 47.6705 10.1687 47.5532C10.6054 47.8659 11.066 48.1739 11.5574 48.4732C9.0147 50.1932 6.45137 52.7025 4.88403 56.3325C4.74603 56.6592 4.6107 56.9912 4.5007 57.3472C4.41389 57.6544 4.45067 57.9834 4.60318 58.2638C4.75568 58.5442 5.01182 58.7539 5.31686 58.848C5.62189 58.9421 5.95164 58.9132 6.23563 58.7674C6.51963 58.6217 6.73535 58.3706 6.8367 58.0679C6.92203 57.7885 7.0307 57.5332 7.1327 57.2899C9.8707 50.9519 16.2374 48.4792 18.8534 47.7079C19.1547 47.6205 19.4191 47.437 19.6064 47.1853C19.7937 46.9336 19.8935 46.6276 19.8907 46.3139ZM20.9507 53.8785C20.9063 53.6728 20.818 53.479 20.6919 53.3105C20.5658 53.1419 20.4049 53.0026 20.22 52.9019L19.5387 52.6272L19.02 52.8159C16.2814 53.8232 14.172 55.3152 12.7474 57.2585L12.356 57.7959C12.2616 57.9256 12.1936 58.0726 12.156 58.2286C12.1183 58.3845 12.1118 58.5464 12.1368 58.7049C12.1617 58.8634 12.2177 59.0154 12.3014 59.1523C12.3851 59.2891 12.495 59.4082 12.6247 59.5025C12.8873 59.692 13.2142 59.7699 13.534 59.7194C13.8538 59.6688 14.1407 59.4938 14.332 59.2325L14.7207 58.6999C15.6727 57.4012 17.046 56.3439 18.818 55.5392C19.256 57.4272 19.744 59.1939 20.2747 60.8025C20.3249 60.9549 20.4046 61.0959 20.5092 61.2175C20.6139 61.3391 20.7415 61.4389 20.8847 61.5111C21.1739 61.6571 21.5093 61.6822 21.817 61.5809C21.9694 61.5307 22.1104 61.451 22.232 61.3464C22.3536 61.2417 22.4534 61.1141 22.5256 60.9709C22.5979 60.8277 22.6413 60.6716 22.6532 60.5117C22.6652 60.3517 22.6455 60.1909 22.5954 60.0385C21.9867 58.1919 21.434 56.1199 20.9507 53.8785Z" fill="white"/>
<path d="M23.0495 16.4701C23.6938 16.4701 24.2161 15.9477 24.2161 15.3034C24.2161 14.6591 23.6938 14.1367 23.0495 14.1367C22.4051 14.1367 21.8828 14.6591 21.8828 15.3034C21.8828 15.9477 22.4051 16.4701 23.0495 16.4701Z" fill="white"/>
<path d="M25.7165 23.8031C26.3608 23.8031 26.8831 23.2807 26.8831 22.6364C26.8831 21.9921 26.3608 21.4697 25.7165 21.4697C25.0721 21.4697 24.5498 21.9921 24.5498 22.6364C24.5498 23.2807 25.0721 23.8031 25.7165 23.8031Z" fill="white"/>
<path d="M23.7165 31.1361C24.3608 31.1361 24.8831 30.6137 24.8831 29.9694C24.8831 29.3251 24.3608 28.8027 23.7165 28.8027C23.0721 28.8027 22.5498 29.3251 22.5498 29.9694C22.5498 30.6137 23.0721 31.1361 23.7165 31.1361Z" fill="white"/>
<path d="M25.7165 38.4701C26.3608 38.4701 26.8831 37.9477 26.8831 37.3034C26.8831 36.6591 26.3608 36.1367 25.7165 36.1367C25.0721 36.1367 24.5498 36.6591 24.5498 37.3034C24.5498 37.9477 25.0721 38.4701 25.7165 38.4701Z" fill="white"/>
<path d="M23.7165 45.8031C24.3608 45.8031 24.8831 45.2807 24.8831 44.6364C24.8831 43.9921 24.3608 43.4697 23.7165 43.4697C23.0721 43.4697 22.5498 43.9921 22.5498 44.6364C22.5498 45.2807 23.0721 45.8031 23.7165 45.8031Z" fill="white"/>
<path d="M25.7165 50.4701C26.3608 50.4701 26.8831 49.9477 26.8831 49.3034C26.8831 48.6591 26.3608 48.1367 25.7165 48.1367C25.0721 48.1367 24.5498 48.6591 24.5498 49.3034C24.5498 49.9477 25.0721 50.4701 25.7165 50.4701Z" fill="white"/>
<path d="M25.7165 57.8031C26.3608 57.8031 26.8831 57.2807 26.8831 56.6364C26.8831 55.9921 26.3608 55.4697 25.7165 55.4697C25.0721 55.4697 24.5498 55.9921 24.5498 56.6364C24.5498 57.2807 25.0721 57.8031 25.7165 57.8031Z" fill="white"/>
</svg>
