<svg width="64" height="65" viewBox="0 0 64 65" fill="none" xmlns="http://www.w3.org/2000/svg">
<g clip-path="url(#clip0_78_41466)">
<mask id="mask0_78_41466" style="mask-type:luminance" maskUnits="userSpaceOnUse" x="0" y="0" width="64" height="65">
<path d="M0 0.310734H63.9998V64.3105H0V0.310734Z" fill="white"/>
</mask>
<g mask="url(#mask0_78_41466)">
<path d="M53.489 42.1368C52.9288 42.6972 52.0165 42.6973 51.4562 42.1368C50.8957 41.5763 50.8957 40.6643 51.4562 40.1038C52.0167 39.5435 52.9286 39.5435 53.489 40.1038C54.0495 40.6643 54.0495 41.5763 53.489 42.1368ZM54.8149 38.7781C53.5232 37.4866 51.422 37.4865 50.1303 38.7781C49.7386 39.1689 49.4517 39.6521 49.2962 40.1831H41.4357V26.0353L49.4128 34.0134C49.9555 34.5565 50.678 34.8556 51.4469 34.8556C52.5849 34.8556 53.5863 34.2129 54.0604 33.1785C54.5345 32.144 54.3675 30.9657 53.6249 30.1039L49.9128 25.7921C49.7503 25.6047 49.5201 25.4893 49.2727 25.4712C49.0253 25.4532 48.7808 25.5339 48.5928 25.6957C48.4048 25.8576 48.2886 26.0873 48.2697 26.3347C48.2507 26.582 48.3306 26.8268 48.4918 27.0154L52.2043 31.3276C52.5932 31.7789 52.4187 32.2604 52.356 32.3972C52.2933 32.5341 52.0424 32.9806 51.4469 32.9806C51.3154 32.981 51.185 32.9554 51.0635 32.9051C50.9419 32.8548 50.8315 32.7809 50.7387 32.6877L41.8011 23.7489C41.6179 23.5649 41.3841 23.4397 41.1294 23.389C40.8748 23.3384 40.6108 23.3647 40.3712 23.4645C40.1309 23.5635 39.9255 23.7318 39.7812 23.9479C39.6369 24.1641 39.5601 24.4182 39.5607 24.6781V40.1831H37.8082C37.5596 40.1831 37.3211 40.2819 37.1453 40.4577C36.9695 40.6335 36.8707 40.8719 36.8707 41.1206C36.8707 41.3692 36.9695 41.6077 37.1453 41.7835C37.3211 41.9593 37.5596 42.0581 37.8082 42.0581H39.5607V59.233C39.5607 60.2168 40.2249 61.0825 41.1776 61.3388L43.0398 61.8361C43.1914 61.8815 43.2644 61.9763 43.2644 62.1305C43.2644 62.2986 43.1282 62.4355 42.9607 62.4355H37.9632C37.8057 62.4355 37.6754 62.317 37.6599 62.1603L35.5623 40.7373C35.446 39.522 34.3863 38.5692 33.1695 38.5692C32.5718 38.5674 31.9951 38.7889 31.5523 39.1904C31.1096 39.5918 30.8329 40.1442 30.7765 40.7392L28.6791 62.16C28.672 62.2355 28.6369 62.3056 28.5808 62.3565C28.5247 62.4075 28.4515 62.4357 28.3757 62.4355H23.3795C23.1872 62.4281 23.0745 62.3229 23.0745 62.1305C23.0745 61.993 23.168 61.8718 23.3001 61.8363L25.1647 61.3381C26.1155 61.0819 26.7795 60.2162 26.7795 59.233V48.9564C26.7795 48.7078 26.6807 48.4693 26.5049 48.2935C26.3291 48.1177 26.0906 48.0189 25.842 48.0189C25.5933 48.0189 25.3549 48.1177 25.1791 48.2935C25.0033 48.4693 24.9045 48.7078 24.9045 48.9564V59.233C24.9042 59.3 24.882 59.365 24.8413 59.4182C24.8005 59.4713 24.7435 59.5096 24.6789 59.5273L22.8146 60.0252C21.8636 60.2809 21.1995 61.1468 21.1995 62.1305C21.1995 63.3138 22.1917 64.317 23.3795 64.3105H28.3757C28.9175 64.3121 29.4404 64.1112 29.8417 63.7472C30.243 63.3832 30.4938 62.8824 30.545 62.343L32.6425 40.9221C32.6549 40.7911 32.7158 40.6694 32.8133 40.581C32.9108 40.4926 33.0378 40.4438 33.1695 40.4442C33.4368 40.4442 33.6711 40.6547 33.6965 40.922L35.794 62.3434C35.8452 62.8827 36.096 63.3834 36.4973 63.7474C36.8987 64.1113 37.4215 64.3121 37.9632 64.3105H42.9607C44.1621 64.3105 45.1394 63.3325 45.1394 62.1305C45.1394 61.1601 44.4628 60.2723 43.5238 60.0248L41.6629 59.5277C41.598 59.5103 41.5405 59.4721 41.4994 59.4188C41.4584 59.3656 41.436 59.3003 41.4357 59.233V42.0581H49.2963C49.4518 42.5889 49.7387 43.0719 50.1303 43.4626C51.4219 44.7543 53.5233 44.7543 54.8149 43.4626C56.1064 42.1711 56.1064 40.0696 54.8149 38.7781ZM12.9155 42.569C12.7104 43.3346 11.9198 43.7903 11.1549 43.5853C10.3893 43.3802 9.9334 42.5905 10.1384 41.8248C10.341 41.0685 11.1448 40.6063 11.8989 40.8085C12.6646 41.0136 13.1206 41.8033 12.9155 42.569ZM28.8572 10.514V6.49819C28.8572 6.47631 28.8586 6.45481 28.8588 6.43319H30.4732C30.7219 6.43319 30.9603 6.33442 31.1361 6.1586C31.3119 5.98279 31.4107 5.74433 31.4107 5.49569C31.4107 5.24705 31.3119 5.00859 31.1361 4.83278C30.9603 4.65697 30.7219 4.55819 30.4732 4.55819H29.32C30.0315 3.15232 31.4895 2.1857 33.1697 2.1857C35.5477 2.1857 37.4822 4.1202 37.4822 6.49819V10.514C37.4822 11.7803 36.452 12.8107 35.1856 12.8107H31.1537C29.8875 12.8107 28.8572 11.7803 28.8572 10.514ZM17.2446 5.49681C17.2448 5.68535 17.2077 5.87207 17.1356 6.04626C17.0634 6.22045 16.9577 6.3787 16.8243 6.51194C16.2639 7.07243 15.3516 7.07219 14.7914 6.51194C14.2309 5.95144 14.2309 5.03944 14.7914 4.47894C15.3518 3.91857 16.2638 3.91857 16.8243 4.47894C16.9577 4.61221 17.0635 4.7705 17.1356 4.94474C17.2078 5.11898 17.2448 5.30574 17.2446 5.49432L17.2445 5.49569L17.2446 5.49681ZM46.3667 11.0781C46.5744 10.3029 47.3772 9.8608 48.1272 10.0617C48.8929 10.2668 49.3489 11.0565 49.1438 11.8222C48.9419 12.5762 48.1355 13.0402 47.3832 12.8387C46.6175 12.6335 46.1617 11.8438 46.3667 11.0781ZM24.9045 35.5556V44.5814C24.9045 44.8301 25.0033 45.0685 25.1791 45.2444C25.3549 45.4202 25.5933 45.5189 25.842 45.5189C26.0906 45.5189 26.3291 45.4202 26.5049 45.2444C26.6807 45.0685 26.7795 44.8301 26.7795 44.5814V34.473L29.567 32.8637C29.7805 32.7385 29.9359 32.5339 29.9992 32.2946C30.0625 32.0553 30.0285 31.8006 29.9047 31.5862C29.7809 31.3718 29.5774 31.2151 29.3385 31.1502C29.0996 31.0854 28.8447 31.1176 28.6295 31.24L26.7795 32.308V24.6781C26.7795 24.1449 26.4611 23.6685 25.9686 23.4645C25.7288 23.3646 25.4647 23.3383 25.2099 23.389C24.9551 23.4396 24.7212 23.565 24.5379 23.749L15.5981 32.6899C15.4159 32.8737 15.1535 32.9806 14.8933 32.9806C14.2979 32.9806 14.0468 32.534 13.984 32.3972C13.9213 32.2602 13.7466 31.7786 14.135 31.3272L24.2484 19.58C24.6299 19.1369 25.1026 18.7814 25.6341 18.5377C26.1656 18.2941 26.7435 18.168 27.3282 18.1682H29.857C30.8563 18.1682 31.6695 17.355 31.6695 16.3557V14.6857H34.6695V16.3557C34.6695 16.8489 34.8681 17.2963 35.1891 17.6235L34.5868 17.9713C34.3715 18.0956 34.2144 18.3004 34.1501 18.5406C34.0858 18.7807 34.1195 19.0366 34.2438 19.2519C34.5055 19.705 35.083 19.8505 35.5246 19.5949L37.9952 18.1682H39.0119C39.5964 18.1681 40.174 18.2942 40.7053 18.5378C41.2365 18.7813 41.709 19.1367 42.0903 19.5797L45.6352 23.6974C45.7231 23.7998 45.8322 23.8819 45.9549 23.9382C46.0775 23.9944 46.211 24.0234 46.3459 24.0233C46.5254 24.0232 46.701 23.9716 46.852 23.8747C47.003 23.7778 47.123 23.6395 47.1978 23.4764C47.2725 23.3133 47.2989 23.1322 47.2738 22.9545C47.2487 22.7768 47.1731 22.6101 47.056 22.4741L43.5109 18.356C42.7849 17.5139 41.8369 16.8925 40.7749 16.5628L45.4711 13.8505C45.8719 14.2327 46.3627 14.5075 46.8979 14.6498C48.6165 15.1103 50.4885 14.0477 50.9549 12.3074C51.4277 10.5432 50.3769 8.7233 48.6125 8.25056C46.8479 7.77768 45.0282 8.82856 44.5557 10.5928C44.4114 11.1269 44.4039 11.6888 44.5341 12.2265L37.4926 16.2932H36.5445V14.4572C38.1793 13.8922 39.3572 12.3385 39.3572 10.514V6.49819C39.3572 3.08632 36.5815 0.310707 33.1696 0.310707C30.4355 0.310707 28.1115 2.09407 27.2955 4.55819H18.9843C18.8287 4.02721 18.5418 3.544 18.1501 3.1532C16.8584 1.86158 14.7573 1.86183 13.4655 3.1532C12.174 4.44469 12.174 6.54618 13.4655 7.83768C14.7571 9.12943 16.8584 9.12943 18.1501 7.83768C18.5417 7.44704 18.8286 6.964 18.9841 6.43319H26.9839C26.9836 6.45481 26.9822 6.47631 26.9822 6.49819V10.514C26.9822 12.3383 28.1599 13.8919 29.7945 14.457V16.2932H27.3282C26.4738 16.2929 25.6293 16.4771 24.8526 16.8332C24.0759 17.1893 23.3852 17.7088 22.8277 18.3564L12.714 30.104C11.9718 30.9664 11.8053 32.1446 12.2798 33.1789C12.7541 34.2131 13.7556 34.8556 14.8933 34.8556C15.6453 34.8556 16.398 34.5462 16.9263 34.0134L24.9045 26.034V33.3905L13.8089 39.7966C13.4087 39.4147 12.9187 39.1398 12.3843 38.9972C10.6374 38.5291 8.79416 39.5973 8.32741 41.3396C7.86229 43.0752 8.92116 44.9281 10.6695 45.3966C12.3899 45.8576 14.2485 44.8379 14.7265 43.0542C14.8704 42.5199 14.8773 41.9579 14.7465 41.4202L24.9045 35.5556Z" fill="white"/>
</g>
</g>
<defs>
<clipPath id="clip0_78_41466">
<rect width="64" height="64" fill="white" transform="translate(0 0.310547)"/>
</clipPath>
</defs>
</svg>
