<svg width="64" height="65" viewBox="0 0 64 65" fill="none" xmlns="http://www.w3.org/2000/svg">
<g clip-path="url(#clip0_78_41478)">
<path d="M59.375 55.0609H46.25C44.4924 55.0609 43.0625 56.4908 43.0625 58.2484V58.4359H4.69788C3.486 58.4359 2.5 57.4499 2.5 56.238C2.5 55.026 3.486 54.04 4.69788 54.04H14.2916C14.9819 54.04 15.5416 53.4803 15.5416 52.79C15.5416 52.0998 14.9819 51.54 14.2916 51.54H4.69788C2.10737 51.54 0 53.6475 0 56.238C0 58.8285 2.10737 60.9359 4.69788 60.9359H43.0625V61.1234C43.0625 62.881 44.4924 64.3109 46.25 64.3109H59.375C61.9253 64.3109 64 62.2362 64 59.6859C64 57.1357 61.9253 55.0609 59.375 55.0609ZM56 61.8109H46.25C46.0677 61.8107 45.893 61.7382 45.7641 61.6093C45.6352 61.4804 45.5627 61.3057 45.5625 61.1234V58.2484C45.5625 57.8693 45.8709 57.5609 46.25 57.5609H56V61.8109ZM59.375 61.8109H58.5V57.5609H59.375C60.5467 57.5609 61.5 58.5142 61.5 59.6859C61.5 60.8577 60.5467 61.8109 59.375 61.8109Z" fill="white"/>
<path d="M20.5927 51.9055C20.3578 51.672 20.0403 51.5404 19.709 51.5393C19.379 51.5393 19.0577 51.6729 18.8252 51.9055C18.5915 52.138 18.459 52.4605 18.459 52.7893C18.459 53.118 18.5915 53.4405 18.8252 53.6729C19.0577 53.9067 19.3802 54.0393 19.709 54.0393C20.0377 54.0393 20.359 53.9067 20.5927 53.6729C20.8251 53.4405 20.959 53.118 20.959 52.7893C20.959 52.4605 20.8252 52.138 20.5927 51.9055ZM57.7589 21.0518C57.5265 20.8192 57.204 20.6855 56.8752 20.6855C56.5465 20.6855 56.224 20.8192 55.9915 21.0518C55.759 21.2844 55.6252 21.6068 55.6252 21.9355C55.6252 22.2643 55.7589 22.5868 55.9915 22.8192C56.224 23.0517 56.5465 23.1855 56.8752 23.1855C57.204 23.1855 57.5265 23.0518 57.7589 22.8192C57.9915 22.5868 58.1252 22.2643 58.1252 21.9355C58.1252 21.6068 57.9915 21.2843 57.7589 21.0518Z" fill="white"/>
<path d="M56.875 17.5605C57.5653 17.5605 58.125 17.0008 58.125 16.3105V6.56055C58.125 3.1143 55.3213 0.310547 51.875 0.310547H12.125C8.67875 0.310547 5.875 3.1143 5.875 6.56055V38.3105C5.875 41.7568 8.67875 44.5605 12.125 44.5605H25.75V48.2605C23.803 48.846 22.3803 50.6544 22.3803 52.7897V54.3105C22.3803 55.0008 22.94 55.5605 23.6303 55.5605H40.3698C41.06 55.5605 41.6198 55.0008 41.6198 54.3105V52.7897C41.6198 50.6544 40.197 48.846 38.25 48.2605V44.5605H51.875C55.3213 44.5605 58.125 41.7568 58.125 38.3105V27.0189C58.125 26.3287 57.5653 25.7689 56.875 25.7689C56.1847 25.7689 55.625 26.3287 55.625 27.0189V38.3105C55.625 40.3783 53.9427 42.0605 51.875 42.0605H12.125C10.0573 42.0605 8.375 40.3783 8.375 38.3105V6.56055C8.375 4.4928 10.0573 2.81055 12.125 2.81055H51.875C53.9427 2.81055 55.625 4.4928 55.625 6.56055V16.3105C55.625 17.0008 56.1847 17.5605 56.875 17.5605ZM28.25 44.5605H35.75V48.0605H28.25V44.5605ZM36.8906 50.5605C38.1198 50.5605 39.1198 51.5605 39.1198 52.7897V53.0605H24.8803V52.7897C24.8803 51.5605 25.8802 50.5605 27.1094 50.5605H36.8906Z" fill="white"/>
<path d="M50.625 5.31055H13.375C11.9965 5.31055 10.875 6.43205 10.875 7.81055V37.0605C10.875 38.439 11.9965 39.5605 13.375 39.5605H50.625C52.0035 39.5605 53.125 38.439 53.125 37.0605V7.81055C53.125 6.43205 52.0035 5.31055 50.625 5.31055ZM50.625 37.0605H13.375V7.81055H50.625L50.6266 37.0604L50.625 37.0605Z" fill="white"/>
<path d="M47.8489 25.0047L38.2048 12.7503C38.0219 12.518 37.7627 12.358 37.473 12.2987C37.1834 12.2394 36.8821 12.2847 36.6227 12.4265C33.7714 13.9857 30.2288 13.9857 27.3774 12.4265C27.118 12.2847 26.8167 12.2393 26.5271 12.2986C26.2374 12.3579 25.9782 12.5179 25.7954 12.7503L16.1514 25.0047C15.9622 25.2451 15.8677 25.5465 15.8858 25.8519C15.9039 26.1572 16.0334 26.4454 16.2498 26.6617C20.5921 31.0039 26.2961 33.175 32.0001 33.175C37.7041 33.175 43.4081 31.0039 47.7505 26.6617C47.9668 26.4454 48.0963 26.1572 48.1144 25.8519C48.1326 25.5465 48.0381 25.2451 47.8489 25.0047ZM18.8213 25.6544L27.1361 15.089C30.2153 16.4274 33.7848 16.4274 36.8639 15.089L45.1787 25.6544C37.6975 32.3497 26.3025 32.3497 18.8213 25.6544ZM21.5416 10.3105H17.125C16.4348 10.3105 15.875 10.8703 15.875 11.5605C15.875 12.2508 16.4348 12.8105 17.125 12.8105H21.5416C22.2319 12.8105 22.7916 12.2508 22.7916 11.5605C22.7916 10.8703 22.2319 10.3105 21.5416 10.3105ZM18.0086 15.4268C17.7763 15.1943 17.4538 15.0605 17.125 15.0605C16.7962 15.0605 16.4737 15.1942 16.2412 15.4268C16.0087 15.6594 15.875 15.9818 15.875 16.3105C15.875 16.6393 16.0086 16.9618 16.2412 17.1942C16.4737 17.4268 16.7962 17.5605 17.125 17.5605C17.4538 17.5605 17.7763 17.4268 18.0086 17.1942C18.2413 16.9618 18.375 16.6393 18.375 16.3105C18.375 15.9818 18.2413 15.6593 18.0086 15.4268Z" fill="white"/>
</g>
<defs>
<clipPath id="clip0_78_41478">
<rect width="64" height="64" fill="white" transform="translate(0 0.310547)"/>
</clipPath>
</defs>
</svg>
