<svg width="64" height="65" viewBox="0 0 64 65" fill="none" xmlns="http://www.w3.org/2000/svg">
<g clip-path="url(#clip0_78_41453)">
<path d="M61.539 17.4815L59.896 14.1662L59.8899 14.1537C56.9069 8.33392 52.5741 5.66792 47.3566 6.44417C46.7476 6.5314 46.1268 6.48307 45.5386 6.30262C44.9503 6.12217 44.4092 5.81406 43.9539 5.4003L40.9164 2.68292C40.6282 2.42489 40.3977 2.10904 40.2398 1.75595C40.0819 1.40286 40.0002 1.02046 40 0.633672V0.310547H38V0.633672C38.0003 1.30185 38.1415 1.96246 38.4142 2.57243C38.687 3.18241 39.0852 3.72805 39.583 4.1738L42.6205 6.89105C43.2945 7.50107 44.0948 7.95471 44.9644 8.21954C45.8341 8.48437 46.7514 8.55386 47.651 8.42305C51.9975 7.77617 55.516 10.0095 58.1069 15.0605L59.75 18.3759L59.7561 18.3884C62.1251 23.0102 62.6227 28.633 61.2354 35.1009L63.1909 35.5204C64.6771 28.5922 64.1214 22.523 61.539 17.4815ZM60.5375 37.7888C60.5309 37.8079 60.525 37.8272 60.5194 37.8465L59.0375 43.1613C56.8521 50.8795 51.8812 56.8863 45.0404 60.0738C40.8969 62.0085 36.2843 62.7102 31.7529 62.0953C28.0076 61.5886 23.0506 59.855 20.8228 57.5222L16.9807 53.498C16.662 53.1643 16.2507 52.9337 15.7998 52.8359C15.3488 52.7381 14.8789 52.7776 14.4506 52.9493C14.0223 53.121 13.6552 53.417 13.3966 53.7993C13.1381 54.1815 13 54.6324 13 55.0938V64.3105H15V55.0938C15 55.0319 15.0185 54.9713 15.0532 54.92C15.0879 54.8687 15.1372 54.829 15.1947 54.8059C15.2522 54.7829 15.3153 54.7776 15.3758 54.7907C15.4364 54.8038 15.4916 54.8348 15.5344 54.8795L19.3774 58.9033C22.0414 61.6928 27.5214 63.5408 31.4855 64.077C36.3963 64.7433 41.395 63.9828 45.8855 61.8863C49.5777 60.1699 52.8321 57.6379 55.4035 54.481C57.9468 51.3759 59.817 47.7507 60.9632 43.7024L62.4383 38.4125C62.5371 38.127 62.6257 37.8379 62.7039 37.546L60.771 37.0319C60.7026 37.287 60.6248 37.5395 60.5375 37.7888Z" fill="white"/>
<path d="M35.8058 40.9345C37.6274 38.1955 37.929 34.8524 36.6334 31.7624L34.7209 27.2015C33.942 25.3457 33.5736 23.3434 33.6408 21.3318C33.7081 19.3202 34.2094 17.347 35.1105 15.5473C35.1783 15.4117 35.2143 15.2625 35.2159 15.1109C35.2175 14.9593 35.1846 14.8093 35.1198 14.6723L29.8717 3.59805C29.8617 3.57675 29.8508 3.5559 29.839 3.53555C29.2895 2.56033 29.0005 1.45995 29 0.340547V0.310547H27V0.340547C27.0008 1.79158 27.3722 3.21836 28.0791 4.48555L33.1084 15.097C32.1772 17.1097 31.6758 19.2942 31.6359 21.5115C31.596 23.7287 32.0186 25.9299 32.8768 27.9747L34.7892 32.5358C35.8214 34.9977 35.5851 37.6552 34.1406 39.827C33.4152 40.9049 32.4341 41.7864 31.2849 42.3925C30.1357 42.9987 28.8542 43.3107 27.555 43.3008L12.6455 43.3105C10.3534 43.3131 8.15585 44.2248 6.53506 45.8456C4.91427 47.4664 4.00258 49.6639 4 51.956V64.3105H6V51.956C6.00205 50.1941 6.70294 48.5049 7.94891 47.259C9.19487 46.0132 10.8842 45.3124 12.6461 45.3105L27.5553 45.3008C29.1841 45.3111 30.7902 44.9177 32.2299 44.1558C33.6696 43.3939 34.8981 42.2872 35.8058 40.9345Z" fill="white"/>
<path d="M33.0161 1.48981L33.0911 1.90406C34.3754 8.96755 38.1706 15.3284 43.7767 19.8132L47.8065 23.0371C49.5227 24.4102 50.6773 26.3639 51.0523 28.5296C51.4274 30.6954 50.997 32.9235 49.8425 34.7938C49.028 34.4076 48.1072 34.3075 47.2288 34.5097C46.3504 34.7119 45.5659 35.2045 45.0022 35.9078L38.7522 43.7141C38.2816 44.3018 37.9865 45.0105 37.9007 45.7585C37.815 46.5066 37.9421 47.2636 38.2675 47.9426C38.5929 48.6216 39.1033 49.195 39.74 49.5968C40.3768 49.9987 41.114 50.2126 41.867 50.2141C42.0166 50.214 42.1661 50.2056 42.3149 50.1891C42.8373 50.1328 43.3434 49.9735 43.8038 49.7203C44.2642 49.4671 44.6699 49.1251 44.9972 48.7141L51.2472 40.9078C51.7895 40.2287 52.0963 39.3918 52.1214 38.5232C52.1466 37.6545 51.8887 36.8012 51.3866 36.0919C52.886 33.8022 53.478 31.0358 53.047 28.333C52.616 25.6302 51.193 23.1851 49.0559 21.4752L45.0261 18.2513C39.797 14.0681 36.257 8.13496 35.0592 1.54644L34.9967 1.20206L34.9614 0.273438L32.9625 0.348438L33 1.34844C33.0021 1.39588 33.0075 1.44312 33.0161 1.48981ZM42.0951 48.2023C41.702 48.2458 41.3048 48.1717 40.9538 47.9895C40.6028 47.8073 40.3137 47.5251 40.123 47.1786C39.9324 46.8321 39.8487 46.4368 39.8827 46.0428C39.9166 45.6487 40.0666 45.2736 40.3137 44.9648L41.5637 43.4036L44.6862 45.9036L43.4362 47.4648C43.2725 47.6702 43.0697 47.8412 42.8395 47.9677C42.6093 48.0942 42.3563 48.1738 42.0951 48.2019V48.2023ZM49.6862 39.6582L45.9362 44.3419L42.8137 41.8419L46.5637 37.1582C46.7274 36.9527 46.9302 36.7817 47.1604 36.6551C47.3906 36.5285 47.6437 36.4488 47.9049 36.4207C47.9792 36.4124 48.054 36.4083 48.1289 36.4082C48.5053 36.4089 48.8739 36.5159 49.1923 36.7168C49.5107 36.9177 49.7659 37.2044 49.9286 37.5439C50.0913 37.8834 50.1548 38.2619 50.112 38.636C50.0691 39.01 49.9215 39.3643 49.6862 39.6582ZM32 46.3109H36V48.3109H32V46.3109ZM43.0489 52.5243L44.9889 52.0383L45.9907 56.0377L44.0507 56.5237L43.0489 52.5243ZM35.359 54.3392L38.2149 50.6964L39.7889 51.9304L36.933 55.5732L35.359 54.3392ZM15 40.3109C16.8114 40.3137 18.6081 39.9867 20.3025 39.3461L29.9 40.3059C29.9332 40.3093 29.9666 40.311 30 40.3109C30.1537 40.3109 30.3053 40.2754 30.443 40.2073C30.5808 40.1391 30.701 40.0402 30.7943 39.9181C30.8876 39.7959 30.9515 39.654 30.981 39.5031C31.0106 39.3523 31.0049 39.1967 30.9646 39.0484L28.8146 31.1646C29.7795 28.8834 30.1647 26.3989 29.9361 23.9326C29.7074 21.4664 28.8718 19.0951 27.5039 17.0302C26.1361 14.9654 24.2784 13.2712 22.0966 12.0987C19.9148 10.9263 17.4768 10.3121 15 10.3109C13.0034 10.3046 11.026 10.6999 9.18539 11.4733C7.34475 12.2468 5.67848 13.3825 4.28573 14.8131L5.71423 16.2131C7.85314 14.0323 10.6915 12.6741 13.7317 12.3768C16.7718 12.0795 19.8195 12.8619 22.3404 14.587C24.8614 16.312 26.6945 18.8695 27.5183 21.8109C28.3422 24.7523 28.1042 27.8899 26.8461 30.6734C26.7499 30.8856 26.7308 31.1248 26.7921 31.3496L28.6526 38.1716L20.2635 37.3327C20.1043 37.3167 19.9437 37.3392 19.795 37.3982C17.1979 38.4278 14.3384 38.5936 11.6397 37.871C8.9411 37.1485 6.54693 35.576 4.81178 33.3865C3.07664 31.197 2.09279 28.5069 2.00595 25.7146C1.9191 22.9222 2.73387 20.1762 4.3296 17.8831L2.68923 16.7388C1.12343 18.9882 0.203789 21.6236 0.0301442 24.3589C-0.143501 27.0941 0.435489 29.8246 1.70425 32.254C2.97301 34.6834 4.88306 36.7187 7.22701 38.1391C9.57096 39.5595 12.2592 40.3106 15 40.3109Z" fill="white"/>
<path d="M18 15.3105H12C11.7348 15.3105 11.4804 15.4159 11.2929 15.6034C11.1054 15.791 11 16.0453 11 16.3105V21.3105H6C5.73478 21.3105 5.48043 21.4159 5.29289 21.6034C5.10536 21.791 5 22.0453 5 22.3105V28.3105C5 28.5758 5.10536 28.8301 5.29289 29.0177C5.48043 29.2052 5.73478 29.3105 6 29.3105H11V34.3105C11 34.5758 11.1054 34.8301 11.2929 35.0177C11.4804 35.2052 11.7348 35.3105 12 35.3105H18C18.2652 35.3105 18.5196 35.2052 18.7071 35.0177C18.8946 34.8301 19 34.5758 19 34.3105V29.3105H24C24.2652 29.3105 24.5196 29.2052 24.7071 29.0177C24.8946 28.8301 25 28.5758 25 28.3105V22.3105C25 22.0453 24.8946 21.791 24.7071 21.6034C24.5196 21.4159 24.2652 21.3105 24 21.3105H19V16.3105C19 16.0453 18.8946 15.791 18.7071 15.6034C18.5196 15.4159 18.2652 15.3105 18 15.3105ZM23 23.3105V27.3105H18C17.7348 27.3105 17.4804 27.4159 17.2929 27.6034C17.1054 27.791 17 28.0453 17 28.3105V33.3105H13V28.3105C13 28.0453 12.8946 27.791 12.7071 27.6034C12.5196 27.4159 12.2652 27.3105 12 27.3105H7V23.3105H12C12.2652 23.3105 12.5196 23.2052 12.7071 23.0177C12.8946 22.8301 13 22.5758 13 22.3105V17.3105H17V22.3105C17 22.5758 17.1054 22.8301 17.2929 23.0177C17.4804 23.2052 17.7348 23.3105 18 23.3105H23Z" fill="white"/>
</g>
<defs>
<clipPath id="clip0_78_41453">
<rect width="64" height="64" fill="white" transform="translate(0 0.310547)"/>
</clipPath>
</defs>
</svg>
